<svg width="1250" height="109" viewBox="0 0 1250 109" version="1.1" xmlns="http://www.w3.org/2000/svg" xmlns:xlink="http://www.w3.org/1999/xlink" xml:space="preserve" xmlns:serif="http://www.serif.com/" style="fill-rule:evenodd;clip-rule:evenodd;stroke-linecap:round;stroke-linejoin:round;stroke-miterlimit:1.5;"><rect id="Artboard1" x="0" y="0" width="1250" height="109" style="fill:none;"/><clipPath id="_clip1"><rect x="0" y="0" width="1250" height="109"/></clipPath><g clip-path="url(#_clip1)"><path d="M0,0l0,85.927l149.704,0.915l46.57,2.997l47.272,1.19l115.951,-5.651l246.836,-2.074c0,0 101.64,-2.877 127.874,0.121l193.633,1.198c0,0 142.035,11.868 197.644,1.75l98.373,-0.831l26.143,0.059l0,-85.601l-1250,0Z" style="fill:#febd67;"/><path d="M1167.1,0c0,0 -26.148,27.255 12.685,45.515l0.952,24.91l24.587,-17.728c0,0 28.694,3.274 44.68,-10.49" style="fill:none;stroke:#fff;stroke-width:3px;"/></g></svg>
