<svg width="18" height="18" viewBox="0 0 14 14" version="1.1" xmlns="http://www.w3.org/2000/svg" xmlns:xlink="http://www.w3.org/1999/xlink" xml:space="preserve" xmlns:serif="http://www.serif.com/" style="fill-rule:evenodd;clip-rule:evenodd;stroke-linejoin:round;stroke-miterlimit:1.41421;"><path d="M12.462,13.5l-11.423,0c-0.282,0 -0.525,-0.106 -0.731,-0.318c-0.205,-0.212 -0.308,-0.463 -0.308,-0.753l0,-9.215c0,-0.29 0.103,-0.541 0.308,-0.753c0.206,-0.212 0.449,-0.318 0.731,-0.318l1.038,0l0,-0.804c0,-0.368 0.127,-0.683 0.381,-0.945c0.255,-0.263 0.56,-0.394 0.917,-0.394l0.519,0c0.357,0 0.663,0.131 0.917,0.394c0.254,0.262 0.382,0.577 0.382,0.945l0,0.804l3.115,0l0,-0.804c0,-0.368 0.127,-0.683 0.381,-0.945c0.254,-0.263 0.56,-0.394 0.917,-0.394l0.519,0c0.357,0 0.663,0.131 0.917,0.393c0.254,0.263 0.381,0.578 0.381,0.946l0,0.804l1.039,0c0.281,0 0.525,0.106 0.73,0.318c0.205,0.212 0.308,0.463 0.308,0.753l0,9.215c0,0.29 -0.103,0.541 -0.308,0.753c-0.206,0.212 -0.449,0.318 -0.73,0.318Zm-0.087,-3.805l-2.25,0l0,1.909l2.25,0l0,-1.909Zm-6,0l-2.25,0l0,1.909l2.25,0l0,-1.909Zm-3,0l-2.25,0l0,1.909l2.25,0l0,-1.909Zm6,0l-2.25,0l0,1.909l2.25,0l0,-1.909Zm3,-2.658l-2.25,0l0,1.908l2.25,0l0,-1.908Zm-6,0l-2.25,0l0,1.908l2.25,0l0,-1.908Zm-3,0l-2.25,0l0,1.908l2.25,0l0,-1.908Zm6,0l-2.25,0l0,1.908l2.25,0l0,-1.908Zm3,-2.658l-2.25,0l0,1.908l2.25,0l0,-1.908Zm-6,0l-2.25,0l0,1.908l2.25,0l0,-1.908Zm-3,0l-2.25,0l0,1.908l2.25,0l0,-1.908Zm6,0l-2.25,0l0,1.908l2.25,0l0,-1.908Zm-5.481,-3.307l-0.519,0c-0.07,0 -0.131,0.026 -0.182,0.079c-0.052,0.053 -0.077,0.116 -0.077,0.188l0,1.661c0,0.073 0.025,0.135 0.077,0.188c0.051,0.053 0.112,0.08 0.182,0.08l0.519,0c0.071,0 0.131,-0.027 0.183,-0.08c0.051,-0.053 0.077,-0.115 0.077,-0.188l0,-1.661c0,-0.072 -0.026,-0.135 -0.077,-0.188c-0.051,-0.053 -0.112,-0.079 -0.183,-0.079Zm6.231,0l-0.519,0c-0.07,0 -0.131,0.026 -0.183,0.079c-0.051,0.053 -0.077,0.116 -0.077,0.188l0,1.661c0,0.073 0.026,0.135 0.077,0.188c0.052,0.053 0.113,0.08 0.183,0.08l0.519,0c0.071,0 0.131,-0.027 0.183,-0.08c0.051,-0.053 0.077,-0.115 0.077,-0.188l0,-1.661c0,-0.072 -0.026,-0.135 -0.077,-0.188c-0.052,-0.053 -0.112,-0.079 -0.183,-0.079Z" style="fill:#0394a6;fill-rule:nonzero;"></path></svg>
