<svg width="18" height="18" viewBox="0 0 14 14" version="1.1" xmlns="http://www.w3.org/2000/svg" xmlns:xlink="http://www.w3.org/1999/xlink" xml:space="preserve" xmlns:serif="http://www.serif.com/" style="fill-rule:evenodd;clip-rule:evenodd;stroke-linejoin:round;stroke-miterlimit:1.41421;"><path d="M8.147,2.06c0.624,0.413 1.062,1.113 1.141,1.925c0.255,0.125 0.537,0.197 0.837,0.197c1.093,0 1.98,-0.936 1.98,-2.091c0,-1.155 -0.887,-2.091 -1.98,-2.091c-1.083,0 -1.962,0.92 -1.978,2.06Zm-1.297,4.282c1.093,0 1.98,-0.937 1.98,-2.092c0,-1.155 -0.887,-2.091 -1.98,-2.091c-1.094,0 -1.981,0.937 -1.981,2.091c0,1.155 0.887,2.092 1.981,2.092Zm0.839,0.142l-1.68,0c-1.397,0 -2.535,1.951 -2.535,3.428l0,2.92l0.006,0.034l0.141,0.047c1.334,0.44 2.493,0.587 3.447,0.587c1.863,0 2.943,-0.561 3.01,-0.597l0.132,-0.071l0.014,0l0,-2.92c0,-1.477 -1.137,-3.428 -2.535,-3.428Zm3.276,-1.937l-1.667,0c-0.018,0.704 -0.303,1.117 -0.753,1.573c1.242,0.391 2.152,2.358 2.152,3.795l0,0.669c1.646,-0.064 2.594,-0.557 2.657,-0.59l0.132,-0.07l0.014,0l0,-2.921c0,-1.477 -1.137,-2.456 -2.535,-2.456Zm-7.59,-0.364c0.388,0 0.748,-0.12 1.053,-0.323c0.097,-0.669 0.437,-1.253 0.921,-1.651c0.002,-0.039 0.006,-0.078 0.006,-0.117c0,-1.155 -0.887,-2.091 -1.98,-2.091c-1.093,0 -1.98,0.936 -1.98,2.091c0,1.154 0.887,2.091 1.98,2.091Zm1.779,1.937c-0.449,-0.454 -0.732,-0.863 -0.753,-1.563c-0.062,-0.005 -0.123,-0.01 -0.186,-0.01l-1.68,0c-1.398,0 -2.535,0.979 -2.535,2.456l0,2.92l0.005,0.034l0.142,0.047c1.07,0.353 2.025,0.515 2.855,0.567l0,-0.656c0,-1.437 0.909,-3.404 2.152,-3.795Z" style="fill:#0394a6;fill-rule:nonzero;"/></svg>