<?xml version="1.0" encoding="UTF-8" standalone="no"?><!DOCTYPE svg PUBLIC "-//W3C//DTD SVG 1.1//EN" "http://www.w3.org/Graphics/SVG/1.1/DTD/svg11.dtd"><svg width="100%" height="100%" viewBox="0 0 15 15" version="1.1" xmlns="http://www.w3.org/2000/svg" xmlns:xlink="http://www.w3.org/1999/xlink" xml:space="preserve" xmlns:serif="http://www.serif.com/" style="fill-rule:evenodd;clip-rule:evenodd;stroke-linejoin:round;stroke-miterlimit:1.41421;"><g><path d="M2.382,10.651c-0.16,0.287 -0.287,0.719 -0.287,0.991c0,0.064 0,0.144 0.016,0.256l-1.999,-3.438c-0.064,-0.112 -0.112,-0.272 -0.112,-0.416c0,-0.145 0.048,-0.32 0.112,-0.432l0.959,-1.679l-1.071,-0.607l3.486,-0.065l1.695,3.054l-1.087,-0.623l-1.712,2.959Zm1.536,-9.691c0.303,-0.528 0.8,-0.816 1.407,-0.816c0.656,0 1.168,0.305 1.535,0.927l0.544,0.912l-1.887,3.263l-3.054,-1.775l1.455,-2.511Zm0.223,12.457c-0.911,0 -1.663,-0.752 -1.663,-1.663c0,-0.256 0.112,-0.688 0.272,-0.96l0.512,-0.911l3.79,0l0,3.534l-2.911,0l0,0Zm3.039,-12.553c-0.24,-0.415 -0.559,-0.704 -0.943,-0.864l3.933,0c0.352,0 0.624,0.144 0.784,0.417l0.976,1.662l1.055,-0.624l-1.696,3.039l-3.469,-0.049l1.071,-0.607l-1.711,-2.974Zm6.061,9.051c0.479,0 0.88,-0.128 1.215,-0.383l-1.983,3.453c-0.16,0.272 -0.447,0.432 -0.783,0.432l-1.872,0l0,1.231l-1.791,-2.99l1.791,-2.991l0,1.248l3.423,0l0,0Zm1.534,-2.879c0.145,0.256 0.225,0.528 0.225,0.816c0,0.576 -0.368,1.183 -0.879,1.471c-0.241,0.128 -0.577,0.209 -0.912,0.209l-1.056,0l-1.886,-3.263l3.054,-1.743l1.454,2.51Z" style="fill:#0394a6;fill-rule:nonzero;"/></g></svg>