<?xml version="1.0" encoding="UTF-8" standalone="no"?><!DOCTYPE svg PUBLIC "-//W3C//DTD SVG 1.1//EN" "http://www.w3.org/Graphics/SVG/1.1/DTD/svg11.dtd"><svg width="100%" height="100%" viewBox="0 0 15 15" version="1.1" xmlns="http://www.w3.org/2000/svg" xmlns:xlink="http://www.w3.org/1999/xlink" xml:space="preserve" xmlns:serif="http://www.serif.com/" style="fill-rule:evenodd;clip-rule:evenodd;stroke-linejoin:round;stroke-miterlimit:1.41421;"><g><path d="M12.33,7.915l1.213,1.212c0.609,0.61 0.609,1.599 0,2.208l-2.208,2.208c-0.609,0.609 -1.598,0.609 -2.208,0l-1.212,-1.213l4.415,-4.415Zm-9.018,-6.811c0.609,-0.609 1.598,-0.609 2.207,0l1.213,1.213l-4.415,4.415l-1.213,-1.213c-0.609,-0.609 -0.609,-1.598 0,-2.207l2.208,-2.208Z" style="fill:#0394a6;"/><path d="M11.406,1.027c-0.61,-0.609 -1.599,-0.609 -2.208,0l-8.171,8.171c-0.609,0.609 -0.609,1.598 0,2.208l2.208,2.207c0.609,0.61 1.598,0.61 2.208,0l8.17,-8.17c0.61,-0.61 0.61,-1.599 0,-2.208l-2.207,-2.208Zm-4.373,8.359c0.162,-0.163 0.425,-0.163 0.588,0c0.162,0.162 0.162,0.426 0,0.588c-0.163,0.162 -0.426,0.162 -0.588,0c-0.163,-0.162 -0.163,-0.426 0,-0.588Zm1.176,-1.177c0.163,-0.162 0.426,-0.162 0.589,0c0.162,0.162 0.162,0.426 0,0.588c-0.163,0.163 -0.426,0.163 -0.589,0c-0.162,-0.162 -0.162,-0.426 0,-0.588Zm-2.359,-0.006c0.162,-0.162 0.426,-0.162 0.588,0c0.163,0.162 0.163,0.426 0,0.588c-0.162,0.163 -0.426,0.163 -0.588,0c-0.162,-0.162 -0.162,-0.426 0,-0.588Zm3.536,-1.17c0.162,-0.163 0.426,-0.163 0.588,0c0.162,0.162 0.162,0.425 0,0.588c-0.162,0.162 -0.426,0.162 -0.588,0c-0.163,-0.163 -0.163,-0.426 0,-0.588Zm-2.359,-0.007c0.162,-0.162 0.426,-0.162 0.588,0c0.162,0.163 0.162,0.426 0,0.589c-0.162,0.162 -0.426,0.162 -0.588,0c-0.163,-0.163 -0.163,-0.426 0,-0.589Zm-2.361,-0.006c0.163,-0.163 0.426,-0.163 0.589,0c0.162,0.162 0.162,0.426 0,0.588c-0.163,0.162 -0.426,0.162 -0.589,0c-0.162,-0.162 -0.162,-0.426 0,-0.588Zm3.537,-1.17c0.162,-0.162 0.426,-0.162 0.588,0c0.163,0.162 0.163,0.426 0,0.588c-0.162,0.163 -0.426,0.163 -0.588,0c-0.162,-0.162 -0.162,-0.426 0,-0.588Zm-2.36,-0.007c0.163,-0.162 0.426,-0.162 0.588,0c0.163,0.162 0.163,0.426 0,0.588c-0.162,0.163 -0.425,0.163 -0.588,0c-0.162,-0.162 -0.162,-0.426 0,-0.588Zm1.177,-1.177c0.162,-0.162 0.426,-0.162 0.588,0c0.162,0.163 0.162,0.426 0,0.589c-0.162,0.162 -0.426,0.162 -0.588,0c-0.163,-0.163 -0.163,-0.426 0,-0.589Z" style="fill:#0394a6;"/></g></svg>