<svg width="17" height="20" viewBox="0 0 71 84" xmlns="http://www.w3.org/2000/svg" fill-rule="evenodd" clip-rule="evenodd" stroke-linejoin="round" stroke-miterlimit="1.414"><path d="M54.208 18.804c-1.916-1.262-4.541-.712-5.791 1.229-1.25 1.942-.709 4.538 1.208 5.804 7.625 4.959 12.167 13.33 12.167 22.4 0 9.063-4.542 17.43-12.125 22.392 0 .004-.042.004-.042.008a26.518 26.518 0 0 1-14.542 4.313 26.62 26.62 0 0 1-14.541-4.313v-.004C12.917 65.671 8.375 57.3 8.375 48.237c0-9.07 4.542-17.441 12.167-22.4a4.199 4.199 0 0 0 1.25-5.804 4.239 4.239 0 0 0-5.834-1.229C5.958 25.321 0 36.321 0 48.237c0 11.913 5.958 22.917 15.958 29.43.042 0 .042.004.042.004a34.847 34.847 0 0 0 19.083 5.662 34.95 34.95 0 0 0 19.125-5.666c10-6.513 16-17.517 16-29.43 0-11.916-6-22.916-16-29.433" fill="#0394a6" fill-rule="nonzero"/><path d="M44.417 12.687c.625-2.141-.292-7.3-2.959-10.458-1.25 1.796-1.958 4.092-2.583 6.079-1.042.392-2.125-.083-3.375-.487-.708-.217-2.958-.721-3.417-1.454-.458-.692.417-1.488.834-2.309.291-.562.541-1.375.791-2.004.292-.75.417-1.471-.041-2.054C31 .2 27 2.4 25.542 5.387c-.417.796-.625 2.342-.542 3.088.083.621.583 1.862.958 2.521 1.459 2.533 3.417 4.646 4.459 7.175 1.291 3.125 1 5.766 1.083 9.046.25 13.166-.042 17.383-.083 30.387 0 1.129-.084 2.471.208 3.017 1.5 3.137 6 3.446 7.542 0 .5-1.142.166-3.4.083-5.017-.167-5.167-.333-10.162-.458-15.029-.209-6.796-.334-5.358-.667-11.717-.167-3.15-.167-6.646 1.583-9.691.834-1.43 3.834-4.642 4.709-6.48" fill="#0394a6" fill-rule="nonzero"/></svg>