<?xml version="1.0" encoding="UTF-8" standalone="no"?><!DOCTYPE svg PUBLIC "-//W3C//DTD SVG 1.1//EN" "http://www.w3.org/Graphics/SVG/1.1/DTD/svg11.dtd"><svg width="100%" height="100%" viewBox="0 0 15 14" version="1.1" xmlns="http://www.w3.org/2000/svg" xmlns:xlink="http://www.w3.org/1999/xlink" xml:space="preserve" xmlns:serif="http://www.serif.com/" style="fill-rule:evenodd;clip-rule:evenodd;stroke-linejoin:round;stroke-miterlimit:1.41421;"><path d="M13.528,13.426l-12.056,0c-0.812,0 -1.472,-0.66 -1.472,-1.472l0,-7.933c0,-0.812 0.66,-1.472 1.472,-1.472l4.686,0l-1.426,-2.035c-0.059,-0.086 -0.039,-0.203 0.047,-0.263l0.309,-0.217c0.086,-0.06 0.204,-0.039 0.263,0.047l1.729,2.468l0.925,0l1.728,-2.468c0.06,-0.086 0.178,-0.107 0.263,-0.047l0.31,0.217c0.085,0.06 0.106,0.177 0.046,0.263l-1.425,2.035l4.601,0c0.812,0 1.472,0.66 1.472,1.472l0,7.933c0,0.812 -0.66,1.472 -1.472,1.472Zm-4.012,-9.499l-7.043,0c-0.607,0 -1.099,0.492 -1.099,1.099l0,5.923c0,0.607 0.492,1.099 1.099,1.099l7.043,0c0.606,0 1.099,-0.492 1.099,-1.099l0,-5.923c0,-0.607 -0.493,-1.099 -1.099,-1.099Zm3.439,3.248c0.448,0 0.812,0.364 0.812,0.812c0,0.449 -0.364,0.813 -0.812,0.813c-0.448,0 -0.812,-0.364 -0.812,-0.813c0,-0.448 0.364,-0.812 0.812,-0.812Zm0,-2.819c0.448,0 0.812,0.364 0.812,0.812c0,0.449 -0.364,0.813 -0.812,0.813c-0.448,0 -0.812,-0.364 -0.812,-0.813c0,-0.448 0.364,-0.812 0.812,-0.812Z" style="fill:#0394a6;"/></svg>