<svg id="ic-actions-download" xmlns="http://www.w3.org/2000/svg" width="30" height="30" viewBox="0 0 30 30">
  <rect id="Rectangle_38" data-name="Rectangle 38" width="30" height="30" fill="none"/>
  <g id="Layer" transform="translate(1.265 1.864)">
    <g id="Vrstva_106" data-name="Vrstva 106">
      <path id="Path_86" data-name="Path 86" d="M14.656,25.511H4.768a3.75,3.75,0,0,1-3.187-1.675,3.613,3.613,0,0,1-.65-2.075v-7.5a1.175,1.175,0,0,1,.737-1.175,1.175,1.175,0,0,1,1.35.2,1.25,1.25,0,0,1,.412.962v7.425A1.25,1.25,0,0,0,3.918,22.7a1.162,1.162,0,0,0,.725.25H24.568a1.25,1.25,0,0,0,1.338-1.35V14.261a1.246,1.246,0,0,1,2.487-.137.775.775,0,0,1,0,.163v7.362a3.75,3.75,0,0,1-3.75,3.75Z" transform="translate(-0.928 0.761)" fill="#d0dae6"/>
      <path id="Path_87" data-name="Path 87" d="M12.189,19.367v-16a1.438,1.438,0,0,1,.163-.75,1.25,1.25,0,0,1,2.338.638V19.367l.187-.15,3.062-2.5a1.278,1.278,0,0,1,1.575,2.013L14.4,22.817a1.462,1.462,0,0,1-1.85,0l-5.163-4.1a1.234,1.234,0,0,1,1.575-1.9l2.212,1.775Z" transform="translate(0.577 -1.983)" fill="#d0dae6"/>
    </g>
  </g>
</svg>
