<svg width="20" height="16" viewBox="0 0 15 12" xmlns="http://www.w3.org/2000/svg" fill-rule="evenodd" clip-rule="evenodd" stroke-linejoin="round" stroke-miterlimit="1.414"><path d="M13.5 2.183h-2.55a.665.665 0 0 1-.592-.414L9.892.414A.666.666 0 0 0 9.3 0H5.7a.665.665 0 0 0-.592.414l-.466 1.355a.666.666 0 0 1-.592.414H1.5c-.825 0-1.5.655-1.5 1.456v6.906C0 11.345.675 12 1.5 12h12c.825 0 1.5-.655 1.5-1.455V3.639c0-.801-.675-1.456-1.5-1.456zm-6 8.362c-2.071 0-3.75-1.63-3.75-3.639 0-2.01 1.679-3.639 3.75-3.639 2.071 0 3.75 1.629 3.75 3.639 0 2.009-1.679 3.639-3.75 3.639zm5.475-5.532a.517.517 0 0 1-.525-.51c0-.281.235-.509.525-.509.29 0 .525.228.525.509 0 .282-.235.51-.525.51z" fill-rule="nonzero"/><path d="M8.401 1.581V.753H6.599v.828h1.802z" fill="#fff"/><ellipse cx="7.5" cy="6.888" rx="2.343" ry="2.354"/></svg>