<svg xmlns="http://www.w3.org/2000/svg" width="128" height="128"><pattern x="-365.5" y="-72.5" width="183.277" height="183.277" patternUnits="userSpaceOnUse" id="a" viewBox="0 -183.277 183.277 183.277" overflow="visible"><path fill="none" d="M0 0h183.277v-183.277H0z"/><path fill="#0394A6" d="M183.277 0H0v-183.277h183.277z"/></pattern><pattern x="-365.5" y="-72.5" width="183.277" height="183.277" patternUnits="userSpaceOnUse" id="b" viewBox="0 -183.277 183.277 183.277" overflow="visible"><path fill="none" d="M0 0h183.277v-183.277H0z"/><path fill="#F9A33F" d="M183.277 0H0v-183.277h183.277z"/></pattern><path fill="url(#a)" d="M125.097 2.903v122.193H2.903V2.903h122.194M128 0H0v128h128V0z"/><path fill="url(#b)" d="M48.161 96.084l-2.124-1.253-2.41 4.082 2.124 1.253z"/><path fill="#FFF" d="M49.958 93.913L23.77 78.457a3.04 3.04 0 0 0-4.154 1.071l-7.839 13.283a3.036 3.036 0 0 0 1.069 4.155l26.188 15.456a3.034 3.034 0 0 0 4.154-1.072l7.84-13.283a3.04 3.04 0 0 0-1.07-4.154z"/><path fill="#FFF" d="M48.163 96.086l-2.41 4.082-2.124-1.254 2.41-4.081z"/><path fill="url(#b)" d="M45.751 100.166l2.41-4.082-2.124-1.253-2.41 4.082z"/><path fill="#FFF" d="M23.302 80.527a.76.76 0 0 0-1.038.271l-8.096 13.717a.76.76 0 0 0 .265 1.04l12.339 7.283.058.033.255.15 8.869-15.028-12.652-7.466zm4.44 22.883l.59.349.69.408 2.051 1.21.553.327 2.389 1.41.552.325 2.388 1.409.553.326 2.058 1.216.114.067a.76.76 0 0 0 1.04-.27l8.097-13.717a.762.762 0 0 0-.267-1.042L37.776 89.07l-.575-.338-.59-.349-.003-.001-8.87 15.027.004.001zm6.606 3.017l-2.285-1.348 2.217-3.755 2.285 1.35-2.217 3.753zm2.602-4.409l-2.284-1.349 2.7-4.574 2.285 1.348-2.701 4.575zm3.356-4.188l2.287 1.35-2.7 4.574-2.287-1.349 2.7-4.575zm-3.016 10.334l-2.287-1.351 2.217-3.755 2.286 1.351-2.216 3.755zm2.775 1.638l-2.124-1.254 2.215-3.755 2.124 1.254-2.215 3.755zm2.603-4.41l-2.124-1.254 2.699-4.574 2.124 1.253-2.699 4.575zm5.493-9.308l-2.41 4.082-2.124-1.253 2.41-4.082 2.124 1.253zm-2.774-1.638l-2.41 4.083-2.286-1.35 2.409-4.083 2.287 1.35zm-2.944-1.737l-2.409 4.083-2.284-1.348 2.409-4.083 2.284 1.348zm-5.565-3.285l2.627 1.551-2.41 4.082-2.613-1.542c-.006-.003-.012-.002-.017-.003l2.413-4.088zm-2.794 4.734l.014.008 2.613 1.542-2.7 4.574-2.613-1.542c-.005-.003-.012-.002-.016-.005l2.702-4.577zm-3.085 5.225c.005.002.007.009.013.012l2.612 1.542-2.216 3.754-2.627-1.55 2.218-3.758z"/><path fill="#FFF" d="M36.608 88.381l.246-.416-.656-.387-.245.416.36.212z"/><path fill="url(#a)" d="M36.608 88.381l.246-.416-.656-.387-.245.416.36.212z"/><path fill="url(#a)" d="M36.608 88.381l.246-.416-.656-.387-.245.416.36.212z"/><path fill="#FFF" d="M26.638 103.787l.452-.764.654.386-.451.765z"/><path fill="url(#a)" d="M27.084 103.021l-.451.765.654.386.451-.764z"/><path fill="url(#a)" d="M27.084 103.021l-.451.765.654.386.451-.764z"/><path fill="#FFF" d="M27.08 104.527l-.656-.387.21-.356.656.386z"/><path fill="url(#a)" d="M26.422 104.143l.655.386.21-.357-.654-.386z"/><path fill="url(#a)" d="M26.422 104.143l.655.386.21-.357-.654-.386z"/><path fill="url(#a)" d="M26.422 104.143l.655.386.21-.357-.654-.386z"/><path fill="#FFF" d="M36.608 88.381l-.295-.175-.36-.212-8.869 15.027.654.387z"/><g fill="url(#a)"><path d="M49.958 93.913L23.77 78.457a3.04 3.04 0 0 0-4.154 1.071l-7.839 13.283a3.036 3.036 0 0 0 1.069 4.155l26.188 15.456a3.034 3.034 0 0 0 4.154-1.072l7.84-13.283a3.04 3.04 0 0 0-1.07-4.154zm-13.104-5.948l-.246.416.003.001.59.349.575.338 10.772 6.358c.359.213.48.679.267 1.042l-8.097 13.717a.762.762 0 0 1-1.04.27l-.114-.067-2.058-1.216-.553-.326-2.388-1.409-.552-.325-2.389-1.41-.553-.327-2.051-1.21-.69-.408-.59-.349-.004-.002-.451.764-.21.356-.655-.386.211-.356.451-.765-.255-.15-.058-.033-12.339-7.283a.76.76 0 0 1-.265-1.04l8.096-13.717a.759.759 0 0 1 1.038-.271l12.651 7.466.245-.416"/><path d="M36.313 88.206l-.36-.212-8.869 15.027.654.387 8.87-15.027z"/></g><path fill="#FFF" d="M37.095 95.057l2.41-4.082-2.627-1.551-2.413 4.088c.005.001.011 0 .017.003l2.613 1.542z"/><path fill="url(#b)" d="M37.095 95.057l2.41-4.082-2.627-1.551-2.413 4.088c.005.001.011 0 .017.003l2.613 1.542z"/><path fill="#FFF" d="M45.39 94.443l-2.411 4.083-2.287-1.35 2.41-4.083z"/><path fill="url(#b)" d="M42.977 98.529l2.41-4.083-2.287-1.35-2.41 4.083z"/><path fill="#FFF" d="M42.447 92.71l-2.409 4.082-2.285-1.348 2.41-4.082z"/><path fill="url(#b)" d="M40.034 96.792l2.409-4.083-2.284-1.348-2.409 4.083z"/><path fill="#FFF" d="M36.95 102.02l-2.285-1.35 2.701-4.575 2.284 1.349z"/><path fill="url(#b)" d="M34.666 100.669l2.284 1.349 2.701-4.575-2.285-1.348z"/><path fill="#FFF" d="M40.305 97.826l2.287 1.35-2.7 4.574-2.287-1.35z"/><path fill="url(#b)" d="M42.593 99.18l-2.287-1.35-2.701 4.574 2.288 1.349z"/><path fill="#FFF" d="M34.011 100.282l2.7-4.574-2.613-1.542-.014-.008-2.702 4.577.015.005z"/><path fill="url(#b)" d="M34.011 100.282l2.7-4.574-2.613-1.542-.014-.008-2.702 4.577.015.005z"/><path fill="#FFF" d="M33.624 100.938l-2.612-1.542c-.006-.003-.008-.01-.013-.012l-2.218 3.758 2.627 1.55 2.216-3.754z"/><path fill="url(#b)" d="M33.624 100.938l-2.612-1.542c-.006-.003-.008-.01-.013-.012l-2.218 3.758 2.627 1.55 2.216-3.754z"/><path fill="#FFF" d="M40.07 109.804l-2.125-1.254 2.216-3.754 2.124 1.254z"/><path fill="url(#b)" d="M37.941 108.548l2.124 1.254 2.215-3.755-2.124-1.255z"/><path fill="#FFF" d="M42.672 105.394l-2.124-1.254 2.7-4.574 2.125 1.254z"/><path fill="url(#b)" d="M40.544 104.138l2.124 1.254 2.699-4.575-2.124-1.253z"/><path fill="#FFF" d="M35 106.815l2.217-3.754 2.287 1.35-2.217 3.755z"/><path fill="url(#b)" d="M37.22 103.059l-2.217 3.754 2.287 1.351 2.216-3.755z"/><path fill="#FFF" d="M32.066 105.073l2.216-3.756 2.285 1.348-2.217 3.756z"/><path fill="url(#b)" d="M34.279 101.323l-2.216 3.756 2.285 1.348 2.216-3.754z"/><path fill="url(#a)" d="M93.35 71.237L61.753 39.385a5.057 5.057 0 0 1-1.318 2.081l26.601 26.816c.308.31.31.803-.002 1.113L62.271 93.958a.785.785 0 0 1-1.113-.006l-29.19-29.425a.784.784 0 0 1 0-1.115l19.331-19.176-9.964 2.236L26.44 61.247a.784.784 0 0 0-.003 1.113l37.626 37.929a.785.785 0 0 0 1.115.003L93.346 72.35a.79.79 0 0 0 .004-1.113zM77.83 84.88a1.207 1.207 0 1 1-1.701-1.715 1.208 1.208 0 0 1 1.701 1.715zM19.147 23.579l-6.912 1.532a2.486 2.486 0 0 0-1.875 2.962l4.321 19.255a2.486 2.486 0 0 0 2.961 1.875l6.911-1.532-5.406-24.092zm11.374.131l-.007.001-7.23 1.623c-.018.004-.049.034-.073.091a.605.605 0 0 0-.021.369c.055.246.208.375.274.375l7.237-1.624c.019-.004.049-.034.074-.091a.602.602 0 0 0 .021-.368c-.054-.248-.208-.376-.275-.376z"/><path fill="url(#a)" d="M59.428 37.286L55.106 18.03a2.487 2.487 0 0 0-2.962-1.875l-32.049 7.192 5.406 24.093 32.05-7.193a2.485 2.485 0 0 0 1.877-2.961zM30.805 25.002l-7.231 1.623a.499.499 0 0 1-.109.012c-.321 0-.636-.308-.733-.741-.108-.483.094-.94.451-1.021l7.23-1.623a.506.506 0 0 1 .109-.012c.322 0 .637.308.733.741.108.484-.093.941-.45 1.021zm16.75 16.534c-5.818 1.306-11.594-2.353-12.899-8.17s2.353-11.593 8.17-12.899c5.818-1.306 11.594 2.353 12.898 8.17 1.306 5.819-2.352 11.593-8.169 12.899z"/><path fill="url(#a)" d="M45.183 39.977c-4.157 0-7.837-2.948-8.748-7.01-1.083-4.828 1.963-9.636 6.79-10.72a9.014 9.014 0 0 1 1.974-.219c4.156 0 7.835 2.948 8.747 7.009a8.917 8.917 0 0 1-1.175 6.767 8.92 8.92 0 0 1-5.616 3.954 9.064 9.064 0 0 1-1.972.219zm.015-17.441c-.623 0-1.249.07-1.861.208-4.554 1.022-7.427 5.558-6.405 10.111.86 3.832 4.33 6.613 8.251 6.613.622 0 1.248-.07 1.86-.207a8.413 8.413 0 0 0 5.297-3.73 8.403 8.403 0 0 0 1.108-6.382c-.86-3.832-4.33-6.613-8.25-6.613z"/><path fill="url(#b)" d="M49.616 30.008a4.537 4.537 0 0 0-8.853 1.986 4.537 4.537 0 0 0 8.853-1.986zm-3.744 4.029a3.112 3.112 0 1 1-1.364-6.072 3.112 3.112 0 0 1 1.364 6.072zM17.989 22.766c-.104-.458-1.486-.538-3.09-.177-1.604.359-2.819 1.021-2.717 1.48l.126.56 5.806-1.303-.125-.56z"/><path fill="url(#a)" d="M39.061 18.625c-.332.075-.396-.05-.143-.277l.311-.277a2.82 2.82 0 0 1 1.066-.548l4.232-.95c.332-.075.873-.06 1.201.033l.433.123c.328.093.324.229-.008.304l-7.092 1.592zm-17.413 3.908l-.168-.746a.623.623 0 0 1 .47-.741l4.917-1.103a.62.62 0 0 1 .74.468l.167.746-6.126 1.376zm92.698 50.826c.287-.493.56-.991.819-1.49l.55.32c7.623-14.647 3.661-32.123-9.267-39.659-12.923-7.532-32.174-3.401-39.275 11.366l.553.321a24.77 24.77 0 0 0-.653 1.48 65.697 65.697 0 0 0-1.36 3.691l-.562-.327c-2.44 7.219-3.761 15.468-3.353 22.708l3.722 1.937c-1.259-7.122-.191-15.538 2.214-23.139l-.564-.329a61.669 61.669 0 0 1 1.554-4.315c.122-.304.253-.603.386-.9l.553.322c6.152-13.765 23.81-17.692 35.606-10.817 11.799 6.877 15.297 22.96 8.03 36.251l.55.32c-.141.256-.283.513-.432.768a35.883 35.883 0 0 1-2.583 3.821l-.557-.325c-4.33 5.566-10.455 10.158-16.854 12.652l.264.153-.851 1.459 2.496 1.454c6.749-3.086 13.1-8.186 17.491-14.235l-.554-.322a36.908 36.908 0 0 0 2.077-3.165z"/><path fill="#FFF" d="M86.613 92.283a1.401 1.401 0 0 1-.365-.291l-.559-.646.779-.35c2.749-1.234 5.684-3.115 8.483-5.442 3.744-3.109 6.789-6.656 8.354-9.731l.688-1.35.482 1.436c.043.129.09.259.136.391.37 1.049.789 2.239.125 3.458l-.025.047c-.368.676-.585 1.116-.427 1.617l.054.172c.22.682.468 1.455.154 2.337-.186.524-.609.943-.949 1.28-.078.077-.153.151-.223.224a34.479 34.479 0 0 1-3.201 2.947c-1.728 1.419-3.587 2.731-5.682 4.015a57.87 57.87 0 0 1-1.762 1.038c-.069.038-.137.079-.203.118-.385.229-.822.489-1.417.492-.519.003-.991-.224-1.372-.407-.088-.042-.173-.083-.257-.121l-1.93-.852-.115-.044a5.07 5.07 0 0 1-.768-.338zm-21.55-12.56c-.253-.148-.505-.361-.673-.502-.042-.035-.074-.063-.096-.079l-1.692-1.26c-.072-.054-.151-.108-.231-.164-.346-.241-.777-.54-1.03-.993-.29-.52-.279-1.028-.27-1.476.001-.078.003-.156.003-.235 0-.685.011-1.373.034-2.045.083-2.42.315-4.749.692-6.921.271-1.568.595-2.955.987-4.239.029-.095.057-.197.085-.303.125-.462.281-1.036.645-1.458.614-.708 1.409-.873 2.108-1.018l.178-.037c.515-.109.79-.515 1.197-1.168l.028-.046c.733-1.178 1.976-1.399 3.071-1.594.137-.024.272-.048.406-.075l1.486-.288-.836 1.263c-1.904 2.877-3.49 7.275-4.35 12.064-.644 3.584-.835 7.064-.554 10.065l.079.849-.837-.167a1.387 1.387 0 0 1-.43-.173z"/><path fill="url(#b)" d="M82.142 36.24c.891.519 1.841.708 2.601.583 5.988-2.018 12.816-1.52 18.212 1.625 5.312 3.097 8.654 8.377 9.719 14.341l.006.004c.158.836.85 1.741 1.895 2.35a4.506 4.506 0 0 0 1.771.602c-.203-8.45-4.239-16.266-11.506-20.501-7.214-4.205-16.674-4.265-24.206-.417.332.527.849 1.028 1.508 1.413z"/><path fill="url(#a)" d="M66.181 69.037c.91-5.068 2.566-9.461 4.446-12.302-1.135.22-2.396.313-3.061 1.381-.406.653-.808 1.324-1.631 1.5-.722.153-1.422.254-1.938.85-.342.394-.457 1.049-.604 1.529a34.299 34.299 0 0 0-.969 4.161 50.207 50.207 0 0 0-.684 6.835 62.086 62.086 0 0 0-.034 2.023c.001.49-.062.956.187 1.4.23.412.718.683 1.086.956l1.693 1.261c.131.098.649.582.945.641-.272-2.934-.109-6.481.564-10.235z"/><path fill="url(#b)" d="M70.563 80.902c.464-.188.876-.568 1.157-1.073.707-1.528 1.431-3.667 2.084-6.188a71.854 71.854 0 0 0 1.158-5.325c.204-1.14.379-2.241.522-3.314.303-2.26.47-4.316.502-6.082h-.001c.022-.504-.192-.949-.56-1.279-1.345 3.079-2.708 7.639-3.715 13.244-.68 3.784-1.041 7.177-1.147 10.017z"/><path fill="#FFF" d="M73.225 69.477c.764-3.601.991-6.594.51-6.684-.47-.088-1.442 2.619-2.198 6.096-.777 3.694-1.014 6.756-.541 6.947.489-.009 1.479-2.818 2.229-6.359z"/><path fill="url(#a)" d="M95.359 86.044c3.961-3.29 6.968-6.896 8.514-9.931.367 1.096.906 2.238.306 3.342-.368.676-.755 1.356-.502 2.159.223.704.48 1.362.217 2.105-.174.491-.688.914-1.034 1.279a33.908 33.908 0 0 1-3.144 2.894 49.648 49.648 0 0 1-5.61 3.963c-.576.352-1.157.694-1.743 1.026-.427.241-.801.526-1.311.529-.472.002-.947-.288-1.368-.475l-1.93-.851c-.151-.066-.827-.279-1.025-.507 2.69-1.207 5.697-3.097 8.63-5.533z"/><path fill="url(#b)" d="M82.992 88.147c-.064-.496.063-1.042.365-1.535.981-1.369 2.485-3.053 4.355-4.863a72.871 72.871 0 0 1 4.063-3.633 74.535 74.535 0 0 1 2.639-2.094c1.817-1.377 3.542-2.546 5.056-3.442v.001c.406-.255.91-.293 1.377-.136-2.016 2.687-5.317 6.125-9.697 9.764-2.959 2.456-5.738 4.446-8.158 5.938z"/><path fill="url(#b)" d="M91.784 82.705c4.249-3.529 7.692-7.05 9.802-9.875.186.102.358.236.511.402a11.96 11.96 0 0 1 1.346 2.033c.028.053.057.106.083.159-.929 1.879-2.429 3.984-4.378 6.104a43.304 43.304 0 0 1-4.221 3.997 44.361 44.361 0 0 1-3.465 2.609c-1.904 1.29-3.774 2.327-5.504 3.074a9.917 9.917 0 0 1-1.469-1.197 11.98 11.98 0 0 1-.713-.768 1.627 1.627 0 0 1-.276-.513c2.521-1.551 5.366-3.602 8.284-6.025z"/><circle fill="url(#b)" cx="67.266" cy="47.19" r="1.869"/><path fill="#FFF" d="M67.269 45.321a1.87 1.87 0 0 1-.004 3.738 1.87 1.87 0 0 1 .004-3.738m0-1.589a3.471 3.471 0 0 0-2.989 1.716 3.43 3.43 0 0 0-.357 2.623 3.436 3.436 0 0 0 1.604 2.106 3.45 3.45 0 0 0 1.739.47 3.468 3.468 0 0 0 2.988-1.717 3.464 3.464 0 0 0-1.245-4.729 3.475 3.475 0 0 0-1.74-.469z"/><circle fill="#FFF" cx="67.266" cy="47.19" r=".856"/><circle fill="url(#b)" cx="113.105" cy="73.908" r="1.869"/><path fill="#FFF" d="M113.107 70.45a3.47 3.47 0 0 0-2.989 1.717 3.464 3.464 0 0 0 1.246 4.729 3.45 3.45 0 0 0 1.739.471 3.468 3.468 0 0 0 2.989-1.718c.465-.797.592-1.728.356-2.622s-.805-1.642-1.603-2.106a3.443 3.443 0 0 0-1.738-.471z"/><circle fill="#FFF" cx="113.106" cy="73.908" r=".856"/><path fill="url(#b)" d="M70.848 70.501c.978-5.436 2.344-10.167 3.762-13.395a2.019 2.019 0 0 0-.601-.247 12.045 12.045 0 0 0-2.612-.162c-1.176 1.734-2.27 4.077-3.153 6.817a43.53 43.53 0 0 0-1.397 5.642 44.709 44.709 0 0 0-.562 4.301c-.184 2.292-.165 4.432.038 6.304.53.271 1.124.505 1.765.688.328.094.669.175 1.021.242.195.031.392.024.581-.013.106-2.956.488-6.443 1.158-10.177z"/><path fill="#FFF" d="M91.556 80.258c2.758-2.439 5.249-4.113 5.565-3.738.308.366-1.569 2.546-4.221 4.917-2.832 2.497-5.38 4.212-5.778 3.894-.234-.431 1.723-2.674 4.434-5.073z"/></svg>