<svg xmlns="http://www.w3.org/2000/svg" width="128" height="128"><pattern x="-72.5" y="-365.5" width="183.277" height="183.277" patternUnits="userSpaceOnUse" id="a" viewBox="0 -183.277 183.277 183.277" overflow="visible"><path fill="none" d="M0 0h183.277v-183.277H0z"/><path fill="#0394A6" d="M183.277 0H0v-183.277h183.277z"/></pattern><pattern x="-72.5" y="-365.5" width="183.277" height="183.277" patternUnits="userSpaceOnUse" id="b" viewBox="0 -183.277 183.277 183.277" overflow="visible"><path fill="none" d="M0 0h183.277v-183.277H0z"/><path fill="#F9A33F" d="M183.277 0H0v-183.277h183.277z"/></pattern><path fill="url(#a)" d="M125.085 2.915v122.17H2.915V2.915h122.17M128 0H0v128h128V0z"/><path fill="#058FA1" d="M28.233 28.233v40.671h71.533V28.233H28.233zM95.221 66.99H32.779V30.147h62.442V66.99zM28.233 84.693v15.073h71.533V84.693H28.233zm33.734 12.681H31.104V87.087h30.862v10.287zm35.407 0H66.273V87.087h31.101v10.287z"/><path fill="url(#b)" d="M33.257 91.633v4.306h26.795v-4.306H33.257zM55.064 94.9c-.501 0-.908-.415-.908-.927s.407-.926.908-.926c.502 0 .909.414.909.926s-.406.927-.909.927zm3.341-.358c-.307 0-.557-.255-.557-.568s.25-.568.557-.568c.308 0 .557.255.557.568s-.249.568-.557.568zm8.824-4.823v6.22h29.188v-6.22H67.229zm8.374.957h11.962v2.152H75.603v-2.152zm19.378 3.827H69.144v-.479h25.838v.479zm-.521-2.184a.563.563 0 0 1-.557-.567c0-.314.25-.568.557-.568.308 0 .557.254.557.568a.562.562 0 0 1-.557.567z"/><circle fill="url(#b)" cx="17.387" cy="59.101" r="1.791"/><g fill="#058FA1"><path d="M9.333 42.588v57.179h16.268V42.588H9.333zm8.054 38.914c-3.488 0-6.326-2.839-6.326-6.327s2.838-6.326 6.326-6.326c3.489 0 6.327 2.838 6.327 6.326s-2.838 6.327-6.327 6.327zm0-16.074a6.334 6.334 0 0 1-6.326-6.327 6.333 6.333 0 0 1 6.326-6.326 6.334 6.334 0 0 1 6.327 6.326 6.334 6.334 0 0 1-6.327 6.327z"/><path d="M17.387 53.067a6.04 6.04 0 0 0-6.033 6.033 6.04 6.04 0 0 0 6.033 6.034 6.041 6.041 0 0 0 6.034-6.034 6.04 6.04 0 0 0-6.034-6.033zm0 10.674a4.641 4.641 0 1 1 0-9.282 4.641 4.641 0 0 1 0 9.282zm0 5.401c-3.327 0-6.033 2.706-6.033 6.033s2.707 6.034 6.033 6.034c3.327 0 6.034-2.707 6.034-6.034s-2.707-6.033-6.034-6.033zm0 10.673a4.641 4.641 0 1 1 0-9.282 4.641 4.641 0 0 1 0 9.282z"/></g><circle fill="url(#b)" cx="17.387" cy="75.175" r="1.791"/><path fill="#058FA1" d="M110.423 53.067a6.04 6.04 0 0 0-6.034 6.033c0 3.327 2.707 6.034 6.034 6.034s6.033-2.707 6.033-6.034a6.04 6.04 0 0 0-6.033-6.033zm0 10.674a4.64 4.64 0 1 1 0-9.282 4.64 4.64 0 0 1 0 9.282z"/><circle fill="url(#b)" cx="110.423" cy="59.101" r="1.79"/><g fill="#058FA1"><path d="M110.423 69.142c-3.327 0-6.034 2.706-6.034 6.033s2.707 6.034 6.034 6.034 6.033-2.707 6.033-6.034-2.706-6.033-6.033-6.033zm0 10.673a4.64 4.64 0 1 1 0-9.282 4.64 4.64 0 0 1 0 9.282z"/><path d="M102.398 42.588v57.179h16.269V42.588h-16.269zm8.025 38.914c-3.488 0-6.327-2.839-6.327-6.327s2.839-6.326 6.327-6.326 6.326 2.838 6.326 6.326-2.837 6.327-6.326 6.327zm0-16.074a6.334 6.334 0 0 1-6.327-6.327c0-3.488 2.839-6.326 6.327-6.326s6.326 2.838 6.326 6.326a6.332 6.332 0 0 1-6.326 6.327z"/></g><circle fill="url(#b)" cx="110.423" cy="75.175" r="1.79"/></svg>