<svg xmlns="http://www.w3.org/2000/svg" width="128" height="128"><pattern x="-72.5" y="-72.5" width="183.277" height="183.277" patternUnits="userSpaceOnUse" id="a" viewBox="0 -183.277 183.277 183.277" overflow="visible"><path fill="none" d="M0 0h183.277v-183.277H0z"/><path fill="#0394A6" d="M183.277 0H0v-183.277h183.277z"/></pattern><pattern x="-72.5" y="-72.5" width="183.277" height="183.277" patternUnits="userSpaceOnUse" id="b" viewBox="0 -183.277 183.277 183.277" overflow="visible"><path fill="none" d="M0 0h183.277v-183.277H0z"/><path fill="#F9A33F" d="M183.277 0H0v-183.277h183.277z"/></pattern><path fill="url(#a)" d="M125.085 2.915v122.17H2.915V2.915h122.17M128 0H0v128h128V0z"/><path fill="url(#a)" d="M110.959 38.039H109a.469.469 0 0 0-.468.468v20.245c0 .258.21.468.468.468h1.96c.258 0 .468-.21.468-.468V38.507a.47.47 0 0 0-.469-.468zm-20.253-.937H10.793a2.313 2.313 0 0 0-2.313 2.313v48.111a2.314 2.314 0 0 0 2.313 2.313h79.913a2.314 2.314 0 0 0 2.313-2.313V39.415a2.313 2.313 0 0 0-2.313-2.313zm-.602 43.105a1.946 1.946 0 0 1-1.946 1.946H14.136a1.945 1.945 0 0 1-1.945-1.946V43.288c0-1.075.871-1.946 1.945-1.946h74.021c1.075 0 1.946.871 1.946 1.946v36.919z"/><path fill="url(#b)" d="M40.812 91.429h20.405v4.505H40.812zm-15.371 6.095h51.147v2.65H25.441z"/><g fill="url(#a)"><path d="M109.894 84.533a2.11 2.11 0 0 0-2.109 2.109c0 1.163.946 2.109 2.109 2.109a2.111 2.111 0 0 0 2.108-2.109 2.112 2.112 0 0 0-2.108-2.109z"/><path d="M116.509 27.562h-13.06a3.01 3.01 0 0 0-3.011 3.01v66.857a3.01 3.01 0 0 0 3.011 3.01h13.06a3.01 3.01 0 0 0 3.01-3.01V30.571a3.008 3.008 0 0 0-3.01-3.009zm-8.915 10.945c0-.776.63-1.405 1.405-1.405h1.96c.776 0 1.405.629 1.405 1.405v20.245c0 .776-.629 1.405-1.405 1.405H109a1.406 1.406 0 0 1-1.405-1.405V38.507zm2.3 51.328a3.193 3.193 0 1 1 0-6.386 3.193 3.193 0 0 1 0 6.386z"/></g><path fill="url(#b)" d="M109.894 84.533a2.11 2.11 0 0 0-2.109 2.109c0 1.163.946 2.109 2.109 2.109a2.111 2.111 0 0 0 2.108-2.109 2.112 2.112 0 0 0-2.108-2.109zM109 38.039a.469.469 0 0 0-.468.468v20.245c0 .258.21.468.468.468h1.96c.258 0 .468-.21.468-.468V38.507a.469.469 0 0 0-.468-.468H109z"/></svg>