<svg xmlns="http://www.w3.org/2000/svg" width="128" height="128"><pattern x="-365.5" y="-365.5" width="183.277" height="183.277" patternUnits="userSpaceOnUse" id="a" viewBox="0 -183.277 183.277 183.277" overflow="visible"><path fill="none" d="M0 0h183.277v-183.277H0z"/><path fill="#0394A6" d="M183.277 0H0v-183.277h183.277z"/></pattern><pattern x="-365.5" y="-365.5" width="183.277" height="183.277" patternUnits="userSpaceOnUse" id="b" viewBox="0 -183.277 183.277 183.277" overflow="visible"><path fill="none" d="M0 0h183.277v-183.277H0z"/><path fill="#F9A33F" d="M183.277 0H0v-183.277h183.277z"/></pattern><path fill="url(#a)" d="M38.568 78.268l.002-.018h-.001l-.001.018zm44.203-.018c-.012-1.059-.749-2.088-1.782-2.492-.026-.009-.052-.024-.078-.035-.054-.019-.106-.024-.161-.04 0-.002.001.004.002.002-5.047-1.791-12.225-2.907-20.188-2.907-7.786 0-14.818 1.072-19.846 2.794.003.005-.004-.005 0 0-1.233.288-2.083 1.361-2.092 2.679v21.996h44.257V85.41l-.112-7.16zm-3.587-.617a.376.376 0 0 1-.466.252c-5.041-1.502-11.554-2.328-18.336-2.328-6.506 0-12.816.769-17.769 2.164A.375.375 0 0 1 42.41 77c5.017-1.414 11.398-2.192 17.972-2.192 6.853 0 13.441.838 18.551 2.359.197.06.309.268.251.466z"/><path fill="url(#a)" d="M125.085 2.915v122.17H2.915V2.915h122.17M128 0H0v128h128V0z"/><path fill="url(#a)" d="M103.379 47.774h-.027c-1.63-2.02-4.802-3.433-8.402-3.433-3.628 0-6.795 1.388-8.414 3.433h-.027c-2.94 3.518-5.358 12.524-6.653 25.153.528.16 1.046.324 1.544.499.104.024.204.054.305.09l.13.047.087.042c1.894.775 3.174 2.621 3.196 4.618l.005.291h.694c.552 0 1.068.286 1.351.767.281.48.288 1.104.018 1.586-.299.531-.816.828-1.54.828h-.114c-.117 0-.238.017-.358.044l.058 3.634v6.707c.221.098.567.104.924.154.505.072.707.562.742.661.002.006.008.012.01.018.012.044.029.089.037.134l.019.029c.078.511.142 1.05.157 1.604h23.939c-.003-23.85-3.251-41.606-7.681-46.906zm-16.846 1.021c1.611-2.062 4.781-3.835 8.428-3.835 3.62 0 6.77 1.752 8.392 3.79l-16.82.045zm-6.356 13.373l-4.065-11.092a.732.732 0 0 1 .256-.808s2.019-1.398 7.692-.6c0 .001-2.688 4.74-3.883 12.5z"/><path fill="url(#b)" d="M106.485 50.953a38.508 38.508 0 0 1 1.369 3.846c2.97.431 5.686 1.392 6.728 3.37.995 1.889.636 5.014-1.038 9.038-.691 1.66-1.561 3.367-2.493 5.023.176 1.663.331 3.377.465 5.138 7.413-10.842 16.1-26.386-5.031-26.415z"/><path fill="#FFF" d="M99.811 81.101a4.736 4.736 0 0 1-9.472 0l1.285-19.318a3.452 3.452 0 0 1 6.903 0l1.284 19.318z"/><path fill="url(#b)" d="M96.135 66.854H93.75a.53.53 0 1 1 0-1.06h2.385a.53.53 0 0 1 0 1.06zm0 5.832H93.75a.53.53 0 1 1 0-1.06h2.385a.53.53 0 0 1 0 1.06zm0 5.829H93.75a.53.53 0 1 1 0-1.059h2.385a.53.53 0 0 1 0 1.059z"/><path fill="none" d="M27.298 40.241c.126.334.262.666.41.992a14.476 14.476 0 0 1 9.724-3.743c2.848 0 5.503.826 7.748 2.247.361-.166.72-.335 1.063-.519a15.457 15.457 0 0 0-8.812-2.747 15.493 15.493 0 0 0-10.133 3.77zM41.978 42c3.333 1.517 5.783 4.646 6.344 8.388 1.188.112 2.418.36 3.613.741-.292-4.793-2.919-8.964-6.755-11.392-.676.311-1.356.622-1.938 1.059A7.016 7.016 0 0 0 41.978 42z"/><path fill="none" d="M51.966 52.024c0 6.79-4.681 12.505-10.983 14.094-.1.361-.172.724-.196 1.091 6.969-1.538 12.199-7.76 12.199-15.185 0-.177-.008-.352-.014-.527-.34-.134-.688-.257-1.037-.368.019.297.031.595.031.895zm-28.9-2.212c.849.732 1.601 1.645 2.544 2.24.275.174.55.321.822.449a10.976 10.976 0 0 1 3.115-8.153 17.56 17.56 0 0 1-1.84-3.115 14.525 14.525 0 0 0-4.641 8.579z"/><path fill="none" d="M22.897 52.024c0-.752.059-1.491.169-2.213a6.06 6.06 0 0 0-.917-.665 15.6 15.6 0 0 0-.271 2.878c0 6.496 4.004 12.07 9.671 14.396.257-.259.504-.528.742-.803-5.482-2.081-9.394-7.388-9.394-13.593zm25.526-15.263c-.031.12-.069.24-.118.361-.413 1.03-1.186 1.624-2.062 2.097 3.934 2.713 6.558 7.189 6.729 12.278 1.161.456 2.265 1.042 3.237 1.758.026-.406.044-.816.044-1.23 0-6.278-3.091-11.843-7.83-15.264zM26.47 36.74a18.707 18.707 0 0 1 10.962-3.536c4.102 0 7.897 1.322 10.991 3.557a2.886 2.886 0 0 0-.028-1.565 19.967 19.967 0 0 0-10.963-3.266c-4.053 0-7.828 1.21-10.988 3.282-.032.504-.019 1.015.026 1.528zm14.593 32.128a3.54 3.54 0 0 1-.276-1.659 15.486 15.486 0 0 1-9.236-.789 14.64 14.64 0 0 1-2.853 2.269 18.768 18.768 0 0 0 13.54 1.533 2.871 2.871 0 0 1-1.175-1.354zM22.149 49.146a15.559 15.559 0 0 1 5.148-8.905c-.433-1.146-.725-2.329-.828-3.501-3.983 2.864-6.807 7.244-7.618 12.289a2.862 2.862 0 0 1 1.52-.396 3.58 3.58 0 0 1 1.778.513zm10.283 3.595a5.125 5.125 0 0 1-.057-.717c0-1.232.441-2.361 1.175-3.238a33.926 33.926 0 0 1-1.995-2.198 14.787 14.787 0 0 1-1.532-1.629 10.205 10.205 0 0 0-2.838 7.065c0 .267.014.529.034.789 1.75.569 3.457.318 5.213-.072zm21.26 15.704c2.946-1.472 5.768-4.09 6.15-7.545a7.938 7.938 0 0 0-.148-2.676 23.11 23.11 0 0 1-6.039 10.239.182.182 0 0 0 .037-.018zM42.104 61.14c-.134-1.859-1.021-3.332-2.08-4.779a5.017 5.017 0 0 1-2.593.722c-.133 0-.263-.01-.393-.02a32.184 32.184 0 0 1-1.846 3.837c-.132.336-.279.675-.443 1.013a10.202 10.202 0 0 0 7.355-.773zm-4.672-19.362c1.453 0 2.836.306 4.09.854.138-.217.287-.427.456-.633a10.98 10.98 0 0 0-12.43 2.349c.154.209.313.412.475.61a10.214 10.214 0 0 1 7.409-3.18zm10.247 10.246c0 3.968-2.268 7.413-5.574 9.115.021.273.024.557.01.849 3.736-1.764 6.329-5.565 6.329-9.964 0-.556-.042-1.103-.122-1.637a17.871 17.871 0 0 0-.785-.055c.092.551.142 1.116.142 1.692z"/><path fill="none" d="M34.393 62.605c.126-.23.245-.461.357-.693-4.107-1.114-7.196-4.726-7.531-9.099a6.623 6.623 0 0 1-.786-.313c.206 4.809 3.508 8.825 7.96 10.105z"/><path fill="none" d="M42.114 61.988a10.945 10.945 0 0 1-7.722.617 17.235 17.235 0 0 1-2.101 3.012 14.544 14.544 0 0 0 8.691.501c.313-1.14.896-2.259 1.063-3.427.036-.241.059-.474.069-.703zm15.285-7.724a11.057 11.057 0 0 0-1.19-1.009c-.53 8.172-6.297 14.938-13.972 16.967.622.379 1.398.565 2.259.613 6.936-2.614 12.056-8.955 12.903-16.571z"/><path fill="none" d="M48.395 35.195c5.494 3.591 9.134 9.791 9.134 16.829 0 .758-.046 1.504-.129 2.239 1.115 1.097 1.938 2.42 2.295 3.961.551-1.975.847-4.053.847-6.2 0-11.587-8.574-21.21-19.712-22.857 2.785 1.19 6.815 3.431 7.565 6.028zm-7.566-6.028a23.428 23.428 0 0 0-1.754-.677c-3.124-1.042-6.971-1.186-9.684.987a8.138 8.138 0 0 0-1.426 1.468 22.979 22.979 0 0 1 9.466-2.029c1.155 0 2.29.086 3.398.251zm3.667 41.668a20.001 20.001 0 0 1-7.064 1.285 19.97 19.97 0 0 1-10.098-2.732c-1.378.59-2.837.863-4.314.686a22.998 22.998 0 0 0 15.413 5.036c.158-.098.334-.184.533-.252l1.938-.664c2.219-.76 4.75-1.373 7.49-1.831a23.217 23.217 0 0 0 5.261-3.897c-1.8.89-6.028 2.544-9.159 2.369zM26.443 35.212c.096-1.527.565-2.99 1.522-4.267-8.035 3.623-13.642 11.709-13.642 21.079 0 2.64.445 5.176 1.264 7.541-.007-2.356.339-6.543 1.808-8.995.462-6.422 3.952-12.015 9.048-15.358z"/><path fill="none" d="M64.827 52.024c0-15.104-12.289-27.395-27.396-27.395-15.105 0-27.395 12.29-27.395 27.395 0 15.011 12.136 27.234 27.109 27.389v-1.802c.006-.194.035-.552.155-.952-7.309-.038-13.873-3.273-18.364-8.378.322.277.671.527 1.047.748a7.805 7.805 0 0 0 3.035 1.044 23.205 23.205 0 0 1-7.432-10.508c.001.285.006.546.016.771.078 1.789.483 3.68 1.315 5.318a24.492 24.492 0 0 1-4.124-13.63c0-13.584 11.052-24.638 24.637-24.638 13.586 0 24.638 11.054 24.638 24.638 0 8.129-3.959 15.349-10.048 19.838a75.085 75.085 0 0 1 4.657-.364c5.029-4.97 8.15-11.863 8.15-19.474z"/><path fill="none" d="M18.611 52.024c0-1.02.084-2.02.24-2.995-.578.338-1.058.876-1.456 1.541-.035.48-.058.965-.058 1.454 0 7.401 4.023 13.876 9.996 17.363.465-.199.92-.434 1.363-.699-5.99-3.153-10.085-9.438-10.085-16.664z"/><path fill="url(#b)" d="M37.432 36.472c3.27 0 6.305 1.016 8.812 2.747.876-.473 1.648-1.066 2.062-2.097.049-.121.087-.241.118-.361a18.716 18.716 0 0 0-10.991-3.557 18.707 18.707 0 0 0-10.962 3.536c.104 1.172.396 2.355.828 3.501a15.483 15.483 0 0 1 10.133-3.769z"/><path fill="url(#b)" d="M37.432 31.93c4.043 0 7.808 1.203 10.963 3.266-.75-2.598-4.779-4.838-7.565-6.028a23.06 23.06 0 0 0-3.397-.251c-3.371 0-6.575.727-9.466 2.029-.957 1.276-1.427 2.739-1.522 4.267a19.963 19.963 0 0 1 10.987-3.283zm0 9.084c1.62 0 3.158.354 4.546.986a7.056 7.056 0 0 1 1.265-1.204c.581-.437 1.262-.748 1.938-1.059a14.437 14.437 0 0 0-7.748-2.247 14.478 14.478 0 0 0-9.724 3.743 17.56 17.56 0 0 0 1.84 3.115 10.978 10.978 0 0 1 7.883-3.334z"/><path fill="url(#b)" d="M31.555 46.588c.329.4 1.078 1.274 1.995 2.198a5.046 5.046 0 0 1 6.502-1.081c.246-1.819.508-3.563 1.47-5.072a10.211 10.211 0 0 0-11.499 2.327 14.86 14.86 0 0 0 1.532 1.628zm16.888 5.436c0 4.398-2.593 8.2-6.329 9.964a7.317 7.317 0 0 1-.068.703c-.168 1.168-.75 2.287-1.063 3.427 6.303-1.589 10.983-7.304 10.983-14.094 0-.301-.012-.599-.031-.896a17.346 17.346 0 0 0-3.613-.741c.079.535.121 1.082.121 1.637z"/><path fill="url(#b)" d="M46.214 50.331a32.665 32.665 0 0 0-4.067-.125c.219.565.343 1.177.343 1.818 0 1.844-.99 3.453-2.465 4.336 1.059 1.447 1.946 2.92 2.08 4.779 3.307-1.702 5.574-5.147 5.574-9.115 0-.576-.05-1.142-.143-1.691-.45-.02-.893-.022-1.322-.002zm6.771 1.693c0 7.425-5.23 13.646-12.199 15.185a3.552 3.552 0 0 0 .276 1.659 2.877 2.877 0 0 0 1.175 1.354c7.675-2.029 13.441-8.795 13.972-16.967a14.273 14.273 0 0 0-3.237-1.758c.006.176.013.351.013.527z"/><path fill="url(#b)" d="M44.496 70.835c3.131.175 7.359-1.479 9.159-2.371a23.115 23.115 0 0 0 6.039-10.239c-.357-1.541-1.18-2.864-2.295-3.961-.847 7.616-5.967 13.957-12.903 16.571zm-17.162-1.447c-5.973-3.487-9.996-9.962-9.996-17.363 0-.489.022-.974.058-1.454-1.469 2.452-1.814 6.639-1.808 8.995a23.197 23.197 0 0 0 7.432 10.508c1.477.177 2.936-.096 4.314-.686zm-.901-16.887a7.516 7.516 0 0 1-.822-.449c-.943-.596-1.695-1.508-2.544-2.24-.11.722-.169 1.461-.169 2.213 0 6.205 3.911 11.512 9.395 13.593a17.305 17.305 0 0 0 2.101-3.012c-4.453-1.281-7.755-5.297-7.961-10.105z"/><path fill="url(#b)" d="M37.039 57.063a5.052 5.052 0 0 1-4.607-4.321c-1.756.39-3.463.641-5.213.072.335 4.373 3.424 7.984 7.531 9.099.164-.338.312-.677.443-1.013a32.184 32.184 0 0 0 1.846-3.837zm-15.16-5.039c0-.983.096-1.945.271-2.878a3.577 3.577 0 0 0-1.778-.514 2.876 2.876 0 0 0-1.52.396c-.156.976-.24 1.976-.24 2.995 0 7.226 4.095 13.511 10.086 16.664a14.662 14.662 0 0 0 2.853-2.269c-5.668-2.323-9.672-7.897-9.672-14.394z"/><path fill="url(#a)" d="M10.037 52.024c0-15.104 12.289-27.395 27.395-27.395s27.396 12.29 27.396 27.395c0 7.61-3.121 14.504-8.148 19.474.836-.04 1.681-.068 2.533-.082 4.599-5.159 7.4-11.953 7.4-19.392 0-16.089-13.091-29.179-29.181-29.179-16.089 0-29.179 13.09-29.179 29.179 0 15.995 12.936 29.018 28.894 29.172v-1.783c-14.974-.154-27.11-12.378-27.11-27.389z"/><path fill="url(#a)" d="M23.02 70.073a7.805 7.805 0 0 1-3.035-1.044 7.186 7.186 0 0 1-1.047-.748c4.491 5.104 11.056 8.34 18.364 8.378.16-.537.484-1.15 1.131-1.551a22.99 22.99 0 0 1-15.413-5.035zm39.049-18.049c0-13.584-11.052-24.638-24.638-24.638-13.585 0-24.637 11.054-24.637 24.638a24.5 24.5 0 0 0 4.124 13.63c-.832-1.639-1.237-3.529-1.315-5.318-.01-.225-.015-.485-.016-.771a23.024 23.024 0 0 1-1.264-7.541c0-9.37 5.606-17.456 13.642-21.079a8.137 8.137 0 0 1 1.426-1.468c2.713-2.173 6.56-2.029 9.684-.987.466.156 1.074.385 1.754.677 11.138 1.647 19.712 11.271 19.712 22.857a23.03 23.03 0 0 1-.847 6.2c.192.83.254 1.72.148 2.676-.383 3.455-3.204 6.073-6.15 7.545-.011.007-.024.013-.037.019a23.187 23.187 0 0 1-5.261 3.897 67.69 67.69 0 0 1 3.627-.499c6.089-4.489 10.048-11.709 10.048-19.838z"/><path fill="url(#a)" d="M37.432 70.847c-3.151 0-6.122-.783-8.734-2.158-.443.266-.898.5-1.363.699a19.97 19.97 0 0 0 10.098 2.732c2.486 0 4.865-.457 7.064-1.285-.86-.048-1.637-.234-2.259-.613a18.768 18.768 0 0 1-4.806.625zm10.991-34.086c4.739 3.421 7.83 8.986 7.83 15.264 0 .414-.018.824-.044 1.23.424.313.824.647 1.19 1.009a19.93 19.93 0 0 0 .129-2.239c0-7.038-3.64-13.238-9.134-16.829.147.51.17 1.033.029 1.565zM18.852 49.029c.812-5.045 3.635-9.425 7.618-12.289a10.148 10.148 0 0 1-.026-1.528c-5.097 3.343-8.586 8.937-9.048 15.358.398-.665.877-1.203 1.456-1.541zm8.856-7.796a16.426 16.426 0 0 1-.41-.992 15.559 15.559 0 0 0-5.148 8.905c.325.188.627.415.917.665a14.515 14.515 0 0 1 4.641-8.578zm9.724 25.326c-1.809 0-3.541-.335-5.14-.941-.238.274-.485.544-.742.803a15.482 15.482 0 0 0 9.236.789c.024-.367.097-.729.196-1.091-1.137.285-2.326.44-3.55.44zm14.503-15.43c.35.111.697.234 1.037.368-.171-5.089-2.795-9.565-6.729-12.278a19.74 19.74 0 0 1-1.063.519c3.836 2.427 6.463 6.598 6.755 11.391zM42.104 61.14a10.192 10.192 0 0 1-7.355.773c-.112.232-.231.463-.357.693a10.972 10.972 0 0 0 7.722-.617 6.637 6.637 0 0 0-.01-.849zm-14.919-9.116c0-2.737 1.082-5.226 2.838-7.065-.162-.198-.32-.401-.475-.61a10.972 10.972 0 0 0-3.115 8.153c.264.123.525.229.786.313a9.842 9.842 0 0 1-.034-.791zm20.351-1.691c.259.012.521.03.785.055-.561-3.741-3.011-6.871-6.344-8.388a6.429 6.429 0 0 0-.456.633 10.27 10.27 0 0 1 6.015 7.7zM16.102 94.945a.397.397 0 1 1 0-.794h21.045V82.684a30.988 30.988 0 0 1-5.189-.482 311.221 311.221 0 0 0-.038 4.669c-10.764.982-18.733 4.538-18.733 8.774v2.746h23.96l.001-3.445H16.102z"/><g fill="url(#b)"><path d="M38.362 101.307v1.46c0 .592.596 1.189 1.188 1.189h42.242c.591 0 1.092-.598 1.092-1.189v-1.46H38.362z"/><path d="M44.041 103.691c0 .795-1.038 1.463-2.319 1.463s-2.318-.668-2.318-1.463h4.637zm37.918 0c0 .795-1.039 1.463-2.319 1.463-1.281 0-2.318-.668-2.318-1.463h4.637z"/></g><path fill="url(#b)" d="M85.815 79.575h-2.249c-.041 0-.152.008-.152.047v1.977c.53-.646 1.264-1.041 2.052-1.041.267 0 .598.03.754-.248.183-.326-.031-.735-.405-.735zm.249 15.38v-.003c0-.614-.077-1.194-.157-1.712-.027-.151-.179-.3-.334-.31l-.038-.001c-.572-.022-1.061-.137-1.591-.32v-.365c0-.128-.126-.231-.266-.231-.139 0-.265.104-.265.231v5.423c0 .129.126.231.265.231.14 0 .266-.103.266-.231v-.365c.53-.183 1.012-.298 1.586-.32-.001-.002.013-.003.012-.005.158-.009.335-.162.359-.315.079-.515.163-1.091.163-1.7v-.007z"/><path d="M82.354 97.667v-1.926H78.91v2.649h3.681a1.23 1.23 0 0 1-.237-.723zm4.736-1.926c-.029.372-.074.735-.128 1.083l-.028.012a1.423 1.423 0 0 1-.048.195c-.048.127-.253.578-.735.646-.562.081-1.101.046-1.159.444a1.194 1.194 0 0 1-.148.269h26.133v-2.649H87.09z" fill="url(#a)"/><circle fill="url(#a)" cx="37.429" cy="52.006" r="2.49"/></svg>