<svg xmlns="http://www.w3.org/2000/svg" width="32.083" height="32.083" viewBox="0 0 32.083 32.083">
    <g data-name="Vrstva 151">
        <path d="M16.042 0a16.042 16.042 0 1 0 16.041 16.042A16.042 16.042 0 0 0 16.042 0zm0 29.167a13.125 13.125 0 1 1 13.125-13.125 13.125 13.125 0 0 1-13.125 13.125z" data-name="Path 171"/>
        <path d="M21.875 14.787H17.5v-7.5a1.458 1.458 0 1 0-2.917 0v8.954a1.458 1.458 0 0 0 1.458 1.458h5.833a1.458 1.458 0 1 0 0-2.917z" data-name="Path 172"/>
    </g>
</svg>
