<svg xmlns="http://www.w3.org/2000/svg" id="co2_ico" width="45" height="45" viewBox="0 0 45 45">
    <path id="Rectangle_252" fill="none" d="M0 0H43.875V43.875H0z" data-name="Rectangle 252"/>
    <g id="Layer" transform="translate(1.99 7.463)">
        <path id="Path_514" fill-rule="evenodd" d="M32.377 11.641A12.7 12.7 0 0 0 21.146 4a12.7 12.7 0 0 0-11.23 7.641A11.084 11.084 0 0 0 1.4 19.8a11.288 11.288 0 0 0 3.534 11.337 10.876 10.876 0 0 0 11.588 1.7 11.325 11.325 0 0 0 9.175 0 10.876 10.876 0 0 0 11.524-1.724 11.287 11.287 0 0 0 3.551-11.267 11.088 11.088 0 0 0-8.4-8.2zm-2.056 18.451a7.252 7.252 0 0 1-3.67-.969l-.9-.522-.9.5a7.658 7.658 0 0 1-7.524 0l-.9-.5-.789.522a7.243 7.243 0 0 1-7.353-.007 7.524 7.524 0 0 1 3.04-13.933h1.138l.422-1.062a9.2 9.2 0 0 1 8.258-6.393 9.2 9.2 0 0 1 8.257 6.317l.422 1.062h1.138a7.5 7.5 0 0 1-.642 14.984z" data-name="Path 514" transform="translate(-1.047 -4)"/>
    </g>
</svg>
