<svg xmlns="http://www.w3.org/2000/svg" id="co2_ico" width="25" height="25" viewBox="0 0 25 25">
    <path id="Rectangle_252" fill="none" d="M0 0H24.375V24.375H0z" data-name="Rectangle 252"/>
    <g id="Layer" transform="translate(1.106 4.146)">
        <path id="Path_514" fill="#0392a6" fill-rule="evenodd" d="M18.452 8.245A7.054 7.054 0 0 0 12.213 4a7.054 7.054 0 0 0-6.239 4.245 6.158 6.158 0 0 0-4.731 4.533 6.271 6.271 0 0 0 1.963 6.3 6.042 6.042 0 0 0 6.438.942 6.292 6.292 0 0 0 5.1 0 6.042 6.042 0 0 0 6.4-.958 6.271 6.271 0 0 0 1.973-6.262 6.16 6.16 0 0 0-4.664-4.556zM17.311 18.5a4.029 4.029 0 0 1-2.039-.538l-.5-.29-.5.28a4.254 4.254 0 0 1-4.18 0l-.5-.28-.438.29a4.024 4.024 0 0 1-4.085 0 4.18 4.18 0 0 1 1.689-7.741h.632l.234-.59a5.11 5.11 0 0 1 4.588-3.551A5.109 5.109 0 0 1 16.8 9.581l.234.59h.632a4.167 4.167 0 0 1-.357 8.325z" data-name="Path 514" transform="translate(-1.047 -4)"/>
    </g>
</svg>
