<svg id="group_ico" xmlns="http://www.w3.org/2000/svg" width="30" height="30" viewBox="0 0 30 30">
  <g id="Group_2753" data-name="Group 2753" transform="translate(3.25 0.951)">
    <path id="Path_1922" data-name="Path 1922" d="M6.219,5.556a.948.948,0,0,1-.25.5.687.687,0,0,0-.375.625,1.777,1.777,0,0,0,.25.75,1.662,1.662,0,0,0,.875.375,1.08,1.08,0,0,0,.75-.375,2.646,2.646,0,0,0,0-3.875.625.625,0,0,1,0-1,1.138,1.138,0,0,0,0-1.5,1.141,1.141,0,0,0-1.5,0,2.646,2.646,0,0,0,0,3.875C6.094,5.181,6.219,5.306,6.219,5.556Z" transform="translate(-1.969 -0.757)"/>
    <path id="Path_1923" data-name="Path 1923" d="M9.394,5.56a.948.948,0,0,1-.25.5.955.955,0,0,0-.25.625,1.777,1.777,0,0,0,.25.75.918.918,0,0,0,.75.25h0a1.777,1.777,0,0,0,.75-.25,2.95,2.95,0,0,0,.875-2,2.663,2.663,0,0,0-.875-2,.625.625,0,0,1,0-1,1.141,1.141,0,0,0,0-1.5,1.146,1.146,0,0,0-1.375.125,2.646,2.646,0,0,0,0,3.875A1.127,1.127,0,0,1,9.394,5.56Z" transform="translate(-1.144 -0.761)"/>
    <path id="Path_1924" data-name="Path 1924" d="M12.694,5.556a.948.948,0,0,1-.25.5.918.918,0,0,0-.25.75,1.777,1.777,0,0,0,.25.75.918.918,0,0,0,.75.25,1.777,1.777,0,0,0,.75-.25,2.839,2.839,0,0,0,.75-2,2.306,2.306,0,0,0-.625-2,.649.649,0,0,1-.25-.5.948.948,0,0,1,.25-.5,1.141,1.141,0,0,0,0-1.5,1.141,1.141,0,0,0-1.5,0,2.646,2.646,0,0,0,0,3.875A1.127,1.127,0,0,1,12.694,5.556Z" transform="translate(-0.319 -0.757)"/>
    <path id="Path_1925" data-name="Path 1925" d="M22.6,9.625H20.35V7.875A1.242,1.242,0,0,0,19.1,7H3.725A1.12,1.12,0,0,0,2.6,8.125V24.75a2.563,2.563,0,0,0,2.625,2.625h12.5A2.785,2.785,0,0,0,20.35,25v-.625H22.6a3.494,3.494,0,0,0,3.5-3.5v-7.75A3.577,3.577,0,0,0,22.6,9.625Zm0,12.5H20.35V12H22.6a1.253,1.253,0,0,1,1.25,1.25V21A1.467,1.467,0,0,1,22.6,22.125ZM17.725,25H5.225a.269.269,0,0,1-.25-.25V9.25h13v15.5A.269.269,0,0,1,17.725,25Z" transform="translate(-2.6 0.799)"/>
  </g>
  <rect id="Rectangle_1037" data-name="Rectangle 1037" width="30" height="30" fill="none"/>
</svg>
