<svg xmlns="http://www.w3.org/2000/svg" width="100.797" height="84.54" viewBox="0 0 100.797 84.54">
    <defs>
        <style>
            .cls-1{fill:none;stroke:#000;stroke-linecap:round;stroke-linejoin:round;stroke-miterlimit:10;stroke-width:2.5px}
        </style>
    </defs>
    <g id="confetti_doodle" transform="translate(-113.153 .437)">
        <path id="Path_2137" d="M118 27.2c-1.7.8-2.5 2.5-3.4 4.2-.8 4.2.8 5.9 3.4 8.4 3.4 3.4 6.1 6.6 7.5 11.7 1.4 5-.8 5.9-.8 8.4" class="cls-1" data-name="Path 2137"/>
        <path id="Path_2138" d="M162.4 10.5c-1.7 0-3.4 2.5-3.4 4.2 0 2.5 1 4.2 3.5 5.9 4.2 2.5 5.1 4.6 6.8 9.4 1.9 5.3-.9 11.5-1.8 13.2" class="cls-1" data-name="Path 2138"/>
        <path id="Path_2139" d="M149 31.4c.2 2.5-1.7 4.2-2.5 5" class="cls-1" data-name="Path 2139"/>
        <path id="Path_2140" d="M190 23c1.7 2.4 2.5 4.2 4.2 5.9" class="cls-1" data-name="Path 2140"/>
        <path id="Path_2141" d="M143.9 59.9a8.973 8.973 0 0 0 4.2 4.2" class="cls-1" data-name="Path 2141"/>
        <path id="Path_2142" d="M187.5 44c-5.7 2.2-3.4 10.1-.8 12.6 2.5 4.2 5 5.9 5 11.7 0 4.2-.8 8.4-4.2 11.7" class="cls-1" data-name="Path 2142"/>
        <path id="Path_2143" d="M168.2 72.5c-.8 1.7-1.7 3.4-2.5 5" class="cls-1" data-name="Path 2143"/>
        <path id="Path_2144" d="M208.5 60.8c1.7 0 2.5-.8 4.2-.8" class="cls-1" data-name="Path 2144"/>
        <path id="Path_2145" d="M124.7 78.4c2.5 2.5 5 3.4 8.4 4.2" class="cls-1" data-name="Path 2145"/>
        <path id="Path_2146" d="M184.2 6.3c1.7-1.7 4.2-2.5 6.7-3.4" class="cls-1" data-name="Path 2146"/>
        <path id="Path_2147" d="M128.9 1.3c1.7 2.5 3.4 5 5 7.5" class="cls-1" data-name="Path 2147"/>
    </g>
</svg>
