<svg xmlns="http://www.w3.org/2000/svg" id="Layer" width="32.083" height="32.083" viewBox="0 0 32.083 32.083">
    <defs>
        <style>
            .cls-1{fill:#0e1317;fill-rule:evenodd}
        </style>
    </defs>
    <path id="Path_256" d="M17.042 1a16.042 16.042 0 1 0 16.041 16.042A16.042 16.042 0 0 0 17.042 1zm0 29.167a13.125 13.125 0 1 1 13.125-13.125 13.125 13.125 0 0 1-13.125 13.125z" class="cls-1" data-name="Path 256" transform="translate(-1 -1)"/>
    <path id="Path_257" d="M10.778.093a1.458 1.458 0 0 0-1.837.758 3.223 3.223 0 0 1-2.917 2.057H5.7A3.208 3.208 0 0 1 2.787.851 1.46 1.46 0 0 0 .089 1.96a5.95 5.95 0 0 0 5.585 3.864H6a5.95 5.95 0 0 0 5.581-3.864 1.458 1.458 0 0 0-.803-1.867z" class="cls-1" data-name="Path 257" transform="rotate(180 10.912 12.659)"/>
    <path id="Path_258" d="M20.444 7.54a1.458 1.458 0 0 0-2.056 0l-1.036 1.036-1.036-1.036A1.458 1.458 0 1 0 14.26 9.6l1.04 1.032-1.04 1.035a1.458 1.458 0 0 0 2.056 2.056l1.035-1.035 1.035 1.035a1.458 1.458 0 0 0 2.056-2.056l-1.021-1.035L20.444 9.6a1.458 1.458 0 0 0 0-2.056z" class="cls-1" data-name="Path 258" transform="translate(4.844 1.764)"/>
    <path id="Path_259" d="M9.947 13.724A1.458 1.458 0 0 0 12 11.667l-1.035-1.035L12 9.6a1.458 1.458 0 1 0-2.053-2.06L8.912 8.576 7.876 7.54A1.458 1.458 0 1 0 5.82 9.6l1.021 1.035-1.021 1.032a1.458 1.458 0 0 0 2.056 2.056l1.035-1.035z" class="cls-1" data-name="Path 259" transform="translate(.976 1.764)"/>
</svg>
