<svg xmlns="http://www.w3.org/2000/svg" width="30" height="30" viewBox="0 0 30 30"><g transform="translate(30 30) rotate(180)"><rect width="30" height="30" fill="none"/><g transform="translate(1.25 1.25)"><path d="M14.75,1A13.75,13.75,0,1,0,28.5,14.75,13.75,13.75,0,0,0,14.75,1Zm0,25A11.25,11.25,0,1,1,26,14.75,11.25,11.25,0,0,1,14.75,26Z" transform="translate(-1 -1)" fill-rule="evenodd"/><path d="M19.487,7.467a1.25,1.25,0,0,0-1.762,0l-.887.887-.888-.887A1.25,1.25,0,1,0,14.187,9.23l.888.887L14.187,11a1.25,1.25,0,0,0,1.763,1.762l.887-.887.887.887A1.25,1.25,0,0,0,19.487,11l-.875-.887.875-.887a1.25,1.25,0,0,0,0-1.763Z" transform="translate(2.188 0.508)" fill-rule="evenodd"/><path d="M9.285,12.767A1.25,1.25,0,0,0,11.047,11l-.888-.887.888-.887A1.25,1.25,0,1,0,9.285,7.467L8.4,8.355,7.51,7.467A1.25,1.25,0,1,0,5.747,9.23l.875.887L5.747,11A1.25,1.25,0,0,0,7.51,12.767L8.4,11.88Z" transform="translate(0.078 0.508)" fill-rule="evenodd"/><path d="M16.75,15H9.25a1.25,1.25,0,0,0,0,2.5h7.5a1.25,1.25,0,0,0,0-2.5Z" transform="translate(0.75 2.5)"/></g></g></svg>