<svg width="20" height="18" viewBox="0 0 15 14" xmlns="http://www.w3.org/2000/svg" fill-rule="evenodd" clip-rule="evenodd" stroke-linejoin="round" stroke-miterlimit="1.414"><path d="M13.528 13.426H1.472C.66 13.426 0 12.766 0 11.954V4.021c0-.812.66-1.472 1.472-1.472h4.686L4.732.514a.19.19 0 0 1 .047-.263l.309-.217a.188.188 0 0 1 .263.047L7.08 2.549h.925L9.733.081a.188.188 0 0 1 .263-.047l.31.217c.085.06.106.177.046.263L8.927 2.549h4.601c.812 0 1.472.66 1.472 1.472v7.933c0 .812-.66 1.472-1.472 1.472zM9.516 3.927H2.473c-.607 0-1.099.492-1.099 1.099v5.923c0 .607.492 1.099 1.099 1.099h7.043a1.1 1.1 0 0 0 1.099-1.099V5.026a1.1 1.1 0 0 0-1.099-1.099zm3.439 3.248a.813.813 0 1 1-.001 1.625.813.813 0 0 1 .001-1.625zm0-2.819a.813.813 0 1 1-.001 1.625.813.813 0 0 1 .001-1.625z" fill="#0394a6"/></svg>