<svg xmlns="http://www.w3.org/2000/svg" id="Layer" width="24.75" height="24.75" viewBox="0 0 24.75 24.75">
    <defs>
        <style>
            .cls-1{fill:#0392a6;fill-rule:evenodd}
        </style>
    </defs>
    <g id="Vrstva_343" data-name="Vrstva 343">
        <path id="Path_246" d="M24.4 1H2.35A1.35 1.35 0 0 0 1 2.35V24.4a1.35 1.35 0 0 0 1.35 1.35H24.4a1.35 1.35 0 0 0 1.35-1.35V2.35A1.35 1.35 0 0 0 24.4 1zm-.9 15.75h-5.625v-5.625H23.5zM3.25 11.125h12.375v5.625H3.25zm20.25-2.25h-5.625V3.25H23.5zM3.25 3.25h12.375v5.625H3.25zm0 20.25V19h12.375v4.5zm14.625 0V19H23.5v4.5z" class="cls-1" data-name="Path 246" transform="translate(-1 -1)"/>
    </g>
</svg>
