<svg id="edit_ico" xmlns="http://www.w3.org/2000/svg" width="24" height="24" viewBox="0 0 24 24">
  <rect id="Rectangle_1080" data-name="Rectangle 1080" width="24" height="24" fill="none"/>
  <g id="Group_2799" data-name="Group 2799" transform="translate(1.861 1.9)">
    <g id="Group_2798" data-name="Group 2798">
      <path id="Path_2053" data-name="Path 2053" d="M20.3,2.9a3.018,3.018,0,0,0-4.3,0L3.8,15c-.1.1-.1.2-.2.3L2,21.1a.663.663,0,0,0,.2.7.844.844,0,0,0,.7.2l5.8-1.6c.1,0,.2-.1.3-.2L21.1,8.1a3.018,3.018,0,0,0,0-4.3ZM5.3,15.5l9.9-9.9,3.2,3.2L8.5,18.7Zm-.6,1.3,2.6,2.6-3.5,1ZM20.1,7.1l-.7.7L16.2,4.6l.7-.7a1.634,1.634,0,0,1,2.4,0l.8.8a1.634,1.634,0,0,1,0,2.4Zm0,0" transform="translate(-1.861 -1.9)" fill="#0392a6"/>
      <path id="Path_2054" data-name="Path 2054" d="M2.7,22.1a1.421,1.421,0,0,1-.6-.2.778.778,0,0,1-.2-.8l1.6-5.7a.758.758,0,0,1,.2-.4L15.8,2.8a3.389,3.389,0,0,1,4.6,0l.8.8a3.2,3.2,0,0,1,0,4.6L9.1,20.3a.52.52,0,0,1-.4.2L2.9,22.1ZM18.1,2.2a2.792,2.792,0,0,0-2,.8L4,15.2c-.1.1-.1.1-.1.2L2.3,21.1a.749.749,0,0,0,.1.5.44.44,0,0,0,.5.1l5.8-1.6a.349.349,0,0,0,.2-.1l12-12.1a2.959,2.959,0,0,0,0-4.1L20.1,3A2.792,2.792,0,0,0,18.1,2.2ZM3.4,20.6l1.1-4.1,3,3Zm1.4-3.5L4,20l2.9-.8Zm3.7,1.8L5.1,15.5l.1-.1,10-10,3.4,3.4-.1.1ZM5.6,15.5l2.9,3,9.7-9.7-3-2.9ZM19.4,8.1,16,4.7l.8-.8a1.872,1.872,0,0,1,2.6,0l.8.8a1.872,1.872,0,0,1,0,2.6Zm-3-3.5,2.9,3L20,7a1.569,1.569,0,0,0,0-2.2L19.2,4A1.569,1.569,0,0,0,17,4Z" transform="translate(-1.861 -1.9)" fill="#0392a6"/>
    </g>
  </g>
</svg>
