<svg xmlns="http://www.w3.org/2000/svg" id="Layer" width="41.25" height="41.25" viewBox="0 0 41.25 41.25">
    <defs>
        <style>
            .cls-1{fill:#0e1317}
        </style>
    </defs>
    <path id="Path_267" d="M21.625 1A20.625 20.625 0 1 0 42.25 21.625 20.625 20.625 0 0 0 21.625 1zm0 37.5A16.875 16.875 0 1 1 38.5 21.625 16.875 16.875 0 0 1 21.625 38.5z" class="cls-1" data-name="Path 267" transform="translate(-1 -1)"/>
    <path id="Path_268" d="M21.852 14.486a1.875 1.875 0 0 0-2.363.975A4.125 4.125 0 0 1 15.74 18.1h-.487a4.125 4.125 0 0 1-3.75-2.644 1.877 1.877 0 0 0-3.469 1.425 7.65 7.65 0 0 0 7.181 4.969h.412a7.65 7.65 0 0 0 7.181-4.969 1.875 1.875 0 0 0-.956-2.395z" class="cls-1" data-name="Path 268" transform="translate(5.054 10.695)"/>
    <circle id="Ellipse_21" cx="2.813" cy="2.813" r="2.813" class="cls-1" data-name="Ellipse 21" transform="translate(11.25 13.125)"/>
    <circle id="Ellipse_22" cx="2.813" cy="2.813" r="2.813" class="cls-1" data-name="Ellipse 22" transform="translate(24.375 13.125)"/>
</svg>
