<svg width="100%" height="100%" viewBox="0 0 168 136" version="1.1" xmlns="http://www.w3.org/2000/svg" xmlns:xlink="http://www.w3.org/1999/xlink" xml:space="preserve" xmlns:serif="http://www.serif.com/" style="fill-rule:evenodd;clip-rule:evenodd;stroke-miterlimit:10;"><rect id="Page-11" serif:id="Page 11" x="-741.48" y="-523.56" width="1280" height="800" style="fill:none;"/><g id="Layer-1" serif:id="Layer 1"><g><path d="M111.853,77.615c1.215,-6.194 -0.631,-15.781 -0.631,-22.093c0,-9.469 0.631,-18.937 0.631,-28.406c0,-3.156 0,-6.312 -0.631,-10.099c0,-2.525 -0.632,-6.944 -1.894,-8.838c-1.894,-2.525 -5.05,-3.787 -7.575,-4.418c-3.787,-0.632 -6.943,-1.263 -10.731,-1.263c-5.681,-1.262 -11.362,-0.631 -17.043,-0.631l-17.043,0l-18.306,0c-5.681,0 -11.362,0 -16.412,0.631c-3.156,0 -6.313,0 -9.469,0.631c-2.525,0 -3.787,1.894 -5.05,3.788c-4.418,6.943 -1.893,14.518 -1.893,22.093c0,5.05 0,10.1 -0.632,15.15c-0.631,5.049 0,10.099 -0.631,14.518c-0.631,3.787 -0.631,7.575 -0.631,11.362c0,1.894 0.631,3.788 0.631,5.681c0,1.263 0.888,3.85 3.156,4.419c2.269,0.569 10.061,1.966 15.15,1.894c5.089,-0.073 10.731,0 15.781,0c8.206,0 16.412,-1.263 23.987,-1.263c13.256,-0.631 25.925,-1.714 39.136,-0.631c3.853,0.316 9.516,0.454 10.1,-2.525Z" style="fill:none;stroke:#000;stroke-width:3.04px;"/><path d="M17.168,72.566c-6.694,-0.459 -4.07,-15.648 -3.867,-23.23c0.103,-3.838 0.08,-15.907 0.08,-19.694c0,-3.156 0.631,-17.043 3.156,-18.306c0.631,-0.631 4.418,-0.631 5.681,-0.631c1.262,0 11.993,-1.262 15.781,-1.262c2.525,-0.632 11.993,0 14.518,0l28.406,0c3.787,0 8.206,0.631 12.624,0.631c1.263,0 8.206,0 9.469,1.262c1.262,1.263 1.894,3.788 1.894,5.681c0.631,5.682 0.631,11.363 0.631,17.675c0,3.156 -0.631,6.312 -0.631,9.468l0,10.1c0,3.788 -0.439,14.714 -2.275,16.913c-1.836,2.199 -78.773,1.852 -85.467,1.393Z" style="fill:none;stroke:#000;stroke-width:3.04px;"/><path d="M110.59,79.298c1.548,0.705 17.675,10.31 23.356,14.098c3.156,1.894 6.943,3.156 10.099,5.05c3.157,1.262 6.313,3.156 9.469,5.05c2.525,1.262 5.211,2.244 7.575,3.787c3.089,2.016 5.239,3.047 4.227,4.999c-1.012,1.951 -0.502,2.364 -4.859,3.838c-4.975,1.684 -8.837,2.525 -13.887,3.156c-11.993,2.525 -24.618,3.157 -37.242,4.419c-10.1,1.263 -18.671,0.789 -28.771,0.789c-1.262,0 -6.199,0.087 -10.366,-0.158c-4.699,-0.276 -11.393,-2.642 -17.971,-6.943c-6.69,-4.375 -22.112,-12.911 -25.531,-15.781c-3.759,-3.156 -9.385,-8.206 -12.678,-11.994c-3.57,-4.105 -6.943,-8.837 -8.837,-10.731" style="fill:none;stroke:#000;stroke-width:3.04px;"/><path d="M165.526,111.016c0,1.894 1.688,9.795 -2.107,11.06c-1.948,0.649 -7.594,1.864 -9.488,2.495c-5.05,1.263 -16.171,2.58 -21.221,3.211c-12.625,2.525 -50.525,4.75 -53.05,4.75c-5.681,0 -13.256,0 -18.306,-2.524c-3.156,-1.263 -23.987,-11.363 -27.143,-13.888c-3.788,-2.525 -7.575,-4.418 -11.362,-7.574c-6.944,-5.05 -14.519,-10.1 -18.937,-17.675c-1.263,-1.894 -1.894,-4.419 -1.263,-6.944c0,-1.893 0.631,-4.418 2.525,-5.049" style="fill:none;stroke:#000;stroke-width:3.04px;"/><path d="M122.584,107.283c2.42,1.307 7.203,4.789 8.206,6.312c1.003,1.523 -3.156,2.525 -4.419,2.525c-4.418,0 -18.881,2.741 -21.462,1.263c-2.58,-1.479 -7.074,-5.05 -7.705,-6.313c-0.631,-0.631 -0.631,-2.525 -0.631,-2.525c0.431,-1.397 23.591,-2.569 26.011,-1.262Z" style="fill:none;stroke:#000;stroke-width:3.04px;"/><path d="M111.221,89.315l-0.631,0c-2.064,0 -2.064,-3.2 0,-3.2l0.631,0c2.064,0 2.064,3.2 0,3.2" style="fill-rule:nonzero;"/><path d="M103.015,88.053c-2.064,0 -2.064,-3.2 0,-3.2c2.064,0 2.064,3.2 0,3.2" style="fill-rule:nonzero;"/><path d="M95.442,87.083l-0.001,0l0.001,0.001l0,-0.001Z"/><path d="M95.441,88.684c-2.064,0 -2.064,-3.2 0,-3.2c2.064,0 2.064,3.2 0,3.2" style="fill-rule:nonzero;"/><path d="M85.972,88.053c-2.064,0 -2.064,-3.2 0,-3.2c2.064,0 2.064,3.2 0,3.2" style="fill-rule:nonzero;"/><path d="M77.766,88.684c-2.064,0 -2.064,-3.2 0,-3.2c2.064,0 2.064,3.2 0,3.2" style="fill-rule:nonzero;"/><path d="M71.454,89.947l-0.237,0c-2.064,0 -2.064,-3.2 0,-3.2l0.237,0c2.064,0 2.064,3.2 0,3.2l-0.237,0c-2.064,0 -2.064,-3.2 0,-3.2l0.237,0c2.064,0 2.064,3.2 0,3.2" style="fill-rule:nonzero;"/><path d="M63.248,89.947c-2.064,0 -2.064,-3.2 0,-3.2c2.064,0 2.064,3.2 0,3.2" style="fill-rule:nonzero;"/><path d="M54.704,88.978l0,-0.631c0,-2.064 3.2,-2.064 3.2,0l0,0.631c0,2.064 -3.2,2.064 -3.2,0" style="fill-rule:nonzero;"/><path d="M49.361,89.947l-0.631,0c-2.064,0 -2.064,-3.2 0,-3.2l0.631,0c2.064,0 2.064,3.2 0,3.2" style="fill-rule:nonzero;"/><path d="M43.679,89.947c-2.064,0 -2.064,-3.2 0,-3.2c2.064,0 2.064,3.2 0,3.2" style="fill-rule:nonzero;"/><path d="M37.367,89.947c-2.064,0 -2.064,-3.2 0,-3.2c2.064,0 2.064,3.2 0,3.2" style="fill-rule:nonzero;"/><path d="M28.53,88.346c0,0 -0.631,-0.631 0,0" style="fill-rule:nonzero;"/><path d="M27.398,89.478c-0.079,-0.079 -0.158,-0.158 -0.237,-0.237c-1.46,-1.46 0.803,-3.723 2.263,-2.263c0.079,0.079 0.158,0.158 0.237,0.237c1.461,1.461 -0.802,3.724 -2.263,2.263c-0.079,-0.079 -0.158,-0.158 -0.237,-0.237c-1.46,-1.46 0.803,-3.723 2.263,-2.263c0.079,0.079 0.158,0.158 0.237,0.237c1.461,1.461 -0.802,3.724 -2.263,2.263" style="fill-rule:nonzero;"/><path d="M120.691,92.764l-0.001,0l0.001,0.001l0,-0.001Z"/><path d="M120.69,94.365c-2.064,0 -2.064,-3.2 0,-3.2c2.064,0 2.064,3.2 0,3.2" style="fill-rule:nonzero;"/><path d="M110.59,94.997c-2.064,0 -2.064,-3.2 0,-3.2c2.064,0 2.064,3.2 0,3.2" style="fill-rule:nonzero;"/><path d="M101.753,94.997c-2.064,0 -2.064,-3.2 0,-3.2c2.064,0 2.064,3.2 0,3.2" style="fill-rule:nonzero;"/><path d="M92.284,95.628c-2.064,0 -2.064,-3.2 0,-3.2c2.064,0 2.064,3.2 0,3.2" style="fill-rule:nonzero;"/><path d="M81.553,95.628c-2.064,0 -2.064,-3.2 0,-3.2c2.064,0 2.064,3.2 0,3.2" style="fill-rule:nonzero;"/><path d="M71.454,96.259c-2.064,0 -2.064,-3.2 0,-3.2c2.064,0 2.064,3.2 0,3.2" style="fill-rule:nonzero;"/><path d="M61.355,95.92l-0.001,0l0.001,0.001l0,-0.001Z"/><path d="M61.354,97.521c-2.064,0 -2.064,-3.2 0,-3.2c2.064,0 2.064,3.2 0,3.2" style="fill-rule:nonzero;"/><path d="M51.255,96.551l-0.001,0l0.001,0.001l0,-0.001Z"/><path d="M51.254,98.153c-2.064,0 -2.064,-3.2 0,-3.2c2.064,0 2.064,3.2 0,3.2" style="fill-rule:nonzero;"/><path d="M43.048,98.153c-2.064,0 -2.064,-3.2 0,-3.2c2.064,0 2.064,3.2 0,3.2" style="fill-rule:nonzero;"/><path d="M129.527,100.046c-2.064,0 -2.064,-3.2 0,-3.2c2.064,0 2.064,3.2 0,3.2" style="fill-rule:nonzero;"/><path d="M114.378,99.077l0.631,0c0,-0.631 0,-0.631 0,0" style="fill-rule:nonzero;"/><path d="M114.378,97.477l0.631,0l-1.6,1.6l0,-0.473c0,-2.064 3.2,-2.064 3.2,0l0,0.473c0,2.064 -3.2,2.064 -3.2,0l0,-0.473c0,-2.064 3.2,-2.064 3.2,0l0,0.473c0,0.872 -0.727,1.6 -1.6,1.6l-0.631,0c-2.064,0 -2.064,-3.2 0,-3.2" style="fill-rule:nonzero;"/><path d="M102.384,99.709c0,-0.631 0,-0.631 -0.631,-0.631" style="fill-rule:nonzero;"/><path d="M100.784,99.709c-0.012,-1.076 2.045,0.981 0.969,0.969c-2.063,-0.023 -2.065,-3.223 0,-3.2c1.431,0.015 2.216,0.8 2.231,2.231c0.023,2.065 -3.177,2.062 -3.2,0" style="fill-rule:nonzero;"/><path d="M89.76,102.571c-2.064,0 -2.064,-3.2 0,-3.2c2.064,0 2.064,3.2 0,3.2" style="fill-rule:nonzero;"/><path d="M76.166,101.602l0,-0.631c0,-2.064 3.2,-2.064 3.2,0l0,0.631c0,2.064 -3.2,2.064 -3.2,0" style="fill-rule:nonzero;"/><path d="M67.036,101.601l-0.001,0l0.001,0.001l0,-0.001Z"/><path d="M67.035,103.203c-2.064,0 -2.064,-3.2 0,-3.2c2.064,0 2.064,3.2 0,3.2" style="fill-rule:nonzero;"/><path d="M57.567,103.834c-2.064,0 -2.064,-3.2 0,-3.2c2.064,0 2.064,3.2 0,3.2" style="fill-rule:nonzero;"/><path d="M47.129,102.234l0,-0.631c0,-2.064 3.2,-2.064 3.2,0l0,0.631c0,2.064 -3.2,2.064 -3.2,0" style="fill-rule:nonzero;"/><path d="M60.723,27.117c5.681,4.419 10.731,10.1 15.781,15.781" style="fill:none;stroke:#000;stroke-width:3.04px;stroke-linecap:round;"/><path d="M51.254,32.798c2.525,2.525 4.419,5.05 6.944,7.575c1.262,1.894 2.525,3.787 4.418,5.05" style="fill:none;stroke:#000;stroke-width:3.04px;stroke-linecap:round;"/></g></g></svg>
