<svg xmlns="http://www.w3.org/2000/svg" width="58.819" height="61.571" viewBox="0 0 58.819 61.571">
  <g id="Group_3628" data-name="Group 3628" transform="translate(-1439 -2529)">
    <g id="dead_ico" transform="translate(1481 2574) rotate(180)">
      <rect id="Rectangle_133" data-name="Rectangle 133" width="28" height="28" fill="none"/>
      <g id="Layer" transform="translate(1.167 1.167)">
        <path id="Path_256" data-name="Path 256" d="M13.833,1A12.833,12.833,0,1,0,26.667,13.833,12.833,12.833,0,0,0,13.833,1Zm0,23.333a10.5,10.5,0,1,1,10.5-10.5,10.5,10.5,0,0,1-10.5,10.5Z" transform="translate(-1 -1)" fill="#0392a6" fill-rule="evenodd"/>
        <path id="Path_257" data-name="Path 257" d="M8.623.074a1.167,1.167,0,0,0-1.47.607A2.578,2.578,0,0,1,4.819,2.326H4.563A2.567,2.567,0,0,1,2.229.681a1.168,1.168,0,0,0-2.158.887A4.76,4.76,0,0,0,4.539,4.659H4.8A4.76,4.76,0,0,0,9.264,1.568,1.167,1.167,0,0,0,8.623.074Z" transform="translate(17.46 20.253) rotate(180)" fill="#0392a6" fill-rule="evenodd"/>
        <path id="Path_258" data-name="Path 258" d="M19.1,7.438a1.167,1.167,0,0,0-1.645,0l-.828.828L15.8,7.438a1.167,1.167,0,1,0-1.645,1.645l.828.828-.828.828A1.167,1.167,0,0,0,15.8,12.385l.828-.828.828.828A1.167,1.167,0,0,0,19.1,10.74l-.817-.828.817-.828a1.167,1.167,0,0,0,0-1.645Z" transform="translate(1.125 0.005)" fill="#0392a6" fill-rule="evenodd"/>
        <path id="Path_259" data-name="Path 259" d="M9.02,12.385a1.167,1.167,0,0,0,1.645-1.645l-.828-.828.828-.828A1.167,1.167,0,1,0,9.02,7.438l-.828.828-.828-.828A1.167,1.167,0,1,0,5.718,9.083l.817.828-.817.828a1.167,1.167,0,0,0,1.645,1.645l.828-.828Z" transform="translate(-0.282 0.005)" fill="#0392a6" fill-rule="evenodd"/>
      </g>
    </g>
    <g id="Group_3622" data-name="Group 3622" transform="translate(797.517 2167.058)">
      <g id="Layer_1" data-name="Layer 1">
        <g id="Group_3623" data-name="Group 3623">
          <g id="Group_3622-2" data-name="Group 3622">
            <path id="Path_3618" data-name="Path 3618" d="M641.773,397.76l8.53-2.244a.479.479,0,0,1,.683.4l.7,2.641q.885,3.371-1.659,4.041a2.2,2.2,0,0,1-1.432-.079,2.6,2.6,0,0,1-1.137-.939l-.055.014a1.3,1.3,0,0,1-.314.647,3.624,3.624,0,0,1-.675.656l-2.665,1.975a.825.825,0,0,1-.239.135c-.081.021-.164-.028-.25-.151a1.977,1.977,0,0,1-.235-.59l-.146-.555q-.174-.663.078-.86l2.359-1.764a1.774,1.774,0,0,0,.5-.66,1.648,1.648,0,0,0-.047-.921l-.14-.528-3.3.869q-.432.114-.646-.7l-.121-.459Q641.34,397.874,641.773,397.76Zm5.992,2.028a1,1,0,0,0,.53.642,1.219,1.219,0,0,0,.908.094,1,1,0,0,0,.671-.5,1.229,1.229,0,0,0,.059-.9l-.314-1.191-2.193.577Z" fill="#0392a6"/>
            <path id="Path_3619" data-name="Path 3619" d="M645.993,409.6a.591.591,0,0,1,.256-.368L653.1,403.9a.481.481,0,0,1,.786.1l3.018,3.877a.344.344,0,0,1,.066.357,1.1,1.1,0,0,1-.36.4l-.342.266a1.092,1.092,0,0,1-.48.25.345.345,0,0,1-.331-.151l-2.038-2.618-1.6,1.247,1.806,2.32a.347.347,0,0,1,.066.358,1.086,1.086,0,0,1-.36.4l-.343.267a1.107,1.107,0,0,1-.479.25.345.345,0,0,1-.331-.152l-1.806-2.319-1.79,1.393,2.048,2.629a.344.344,0,0,1,.064.358,1.09,1.09,0,0,1-.359.4l-.342.267a1.116,1.116,0,0,1-.48.249.345.345,0,0,1-.33-.151l-3.028-3.888A.587.587,0,0,1,645.993,409.6Z" fill="#0392a6"/>
            <path id="Path_3620" data-name="Path 3620" d="M653.782,417.438l4.4-7.647a.48.48,0,0,1,.764-.206l2.549,1.466a4.252,4.252,0,0,1,1.7,1.71,2.655,2.655,0,0,1-.336,2.608,2.832,2.832,0,0,1-1.463,1.363,2.948,2.948,0,0,1-1.6.14,4.225,4.225,0,0,1-1.235-.435l-1.286-.741-1.62,2.816c-.149.259-.465.249-.952-.031l-.412-.237C653.8,417.966,653.633,417.7,653.782,417.438Zm5.489-2.722a1.4,1.4,0,0,0,.879.2,1.118,1.118,0,0,0,.785-.647,1.144,1.144,0,0,0,.169-1.01,1.379,1.379,0,0,0-.611-.665l-1.081-.621-1.221,2.124Z" fill="#0392a6"/>
            <path id="Path_3621" data-name="Path 3621" d="M663.511,422.332a1.29,1.29,0,0,1,.083-.244l4.042-8.613c.1-.187.371-.255.825-.205l.724.079q.695.075.761.379l2.081,9.284a.879.879,0,0,1,.015.255c-.022.2-.266.281-.729.23l-.613-.067q-.683-.075-.747-.378l-.371-1.759-3.284-.359-.742,1.636q-.131.282-.673.222l-.557-.061C663.761,422.669,663.488,422.536,663.511,422.332Zm5.674-2.941-.522-2.565a6.357,6.357,0,0,1-.111-.913l-.056-.006c-.016.055-.05.175-.1.362a2.512,2.512,0,0,1-.2.5l-1.091,2.388Z" fill="#0392a6"/>
            <path id="Path_3622" data-name="Path 3622" d="M676.223,422.4l-1.9-8.756q-.1-.451.723-.629l.478-.105q.822-.177.919.274l1.9,8.756q.1.451-.723.63l-.479.1Q676.321,422.851,676.223,422.4Z" fill="#0392a6"/>
            <path id="Path_3623" data-name="Path 3623" d="M683.273,420.374l-4.534-7.564a.593.593,0,0,1-.105-.435.584.584,0,0,1,.3-.334l2.341-1.4q2.991-1.794,4.343.465a2.187,2.187,0,0,1,.324,1.4,2.589,2.589,0,0,1-.584,1.354l.029.048a1.322,1.322,0,0,1,.709.121,3.6,3.6,0,0,1,.817.466l2.641,2.008a.857.857,0,0,1,.2.192c.044.073.019.166-.075.283a1.953,1.953,0,0,1-.5.389l-.492.3c-.393.236-.675.29-.848.166l-2.353-1.773a1.741,1.741,0,0,0-.772-.3,1.625,1.625,0,0,0-.872.3l-.468.28,1.756,2.93q.23.384-.49.816l-.408.245C683.744,420.614,683.428,420.631,683.273,420.374Zm.278-6.319a1,1,0,0,0,.468-.689,1.221,1.221,0,0,0-.163-.9,1,1,0,0,0-.669-.5,1.225,1.225,0,0,0-.886.2l-1.058.634,1.166,1.945Z" fill="#0392a6"/>
            <path id="Path_3624" data-name="Path 3624" d="M693.448,413.059a.586.586,0,0,1-.423-.145l-7.008-5.12a.48.48,0,0,1-.122-.782l2.9-3.968a.34.34,0,0,1,.325-.161,1.106,1.106,0,0,1,.488.234l.35.256a1.1,1.1,0,0,1,.372.394.342.342,0,0,1-.054.358l-1.958,2.68,1.64,1.2,1.734-2.374a.346.346,0,0,1,.326-.161,1.091,1.091,0,0,1,.487.235l.351.256a1.1,1.1,0,0,1,.372.393.346.346,0,0,1-.055.359l-1.734,2.374,1.832,1.338,1.964-2.691a.346.346,0,0,1,.327-.161,1.112,1.112,0,0,1,.487.235l.35.257a1.087,1.087,0,0,1,.372.392.345.345,0,0,1-.054.359l-2.907,3.979A.588.588,0,0,1,693.448,413.059Z" fill="#0392a6"/>
            <path id="Path_3625" data-name="Path 3625" d="M699.354,403.031a.579.579,0,0,1-.445.044l-8.5-1.74a.481.481,0,0,1-.436-.66l.6-2.936a4.271,4.271,0,0,1,1.909-3,6.295,6.295,0,0,1,7.118,1.457,4.27,4.27,0,0,1,.575,3.512l-.6,2.936A.582.582,0,0,1,699.354,403.031Zm-.98-3.7a1.964,1.964,0,0,0-.429-1.816,4.826,4.826,0,0,0-4.471-.916,1.968,1.968,0,0,0-1.108,1.5l-.278,1.359,6.008,1.229Z" fill="#0392a6"/>
          </g>
        </g>
      </g>
      <g id="Layer_3" data-name="Layer 3">
        <g id="Group_3625" data-name="Group 3625">
          <g id="Group_3624" data-name="Group 3624">
            <path id="Path_3626" data-name="Path 3626" d="M653.684,380.044a.585.585,0,0,1-.4-.2l-6.4-6.067q-.325-.307.252-.918l.327-.345q.579-.611.9-.3l5.478,5.19,2.08-2.2a.343.343,0,0,1,.344-.118,1.091,1.091,0,0,1,.453.3l.315.3a1.109,1.109,0,0,1,.319.436.347.347,0,0,1-.1.35l-3.178,3.353A.582.582,0,0,1,653.684,380.044Z" fill="#0392a6"/>
            <path id="Path_3627" data-name="Path 3627" d="M659.629,374.668a.582.582,0,0,1-.3-.334l-3.588-7.9a.482.482,0,0,1,.278-.742l4.475-2.031a.342.342,0,0,1,.362.02,1.1,1.1,0,0,1,.31.443l.179.4a1.1,1.1,0,0,1,.131.525.344.344,0,0,1-.224.286l-3.022,1.371.84,1.849,2.677-1.216a.342.342,0,0,1,.362.021,1.089,1.089,0,0,1,.31.443l.18.4a1.1,1.1,0,0,1,.129.526.34.34,0,0,1-.223.285l-2.677,1.216.938,2.065L663.8,370.9a.344.344,0,0,1,.362.021,1.091,1.091,0,0,1,.31.443l.178.4a1.076,1.076,0,0,1,.131.524.341.341,0,0,1-.223.286l-4.488,2.037A.584.584,0,0,1,659.629,374.668Z" fill="#0392a6"/>
            <path id="Path_3628" data-name="Path 3628" d="M666.68,371.564a1.246,1.246,0,0,1,.052-.252l2.934-9.051c.071-.2.335-.3.793-.307l.728-.012c.466-.007.734.086.8.282l3.226,8.95a.906.906,0,0,1,.046.252c0,.205-.229.311-.7.319l-.616.01c-.457.007-.721-.087-.789-.281l-.587-1.7-3.3.054-.533,1.717q-.093.3-.639.3l-.56.008Q666.685,371.873,666.68,371.564Zm5.262-3.627-.838-2.479a6.316,6.316,0,0,1-.225-.893h-.056c-.009.057-.027.181-.056.372a2.61,2.61,0,0,1-.139.528l-.786,2.505Z" fill="#0392a6"/>
            <path id="Path_3629" data-name="Path 3629" d="M678.182,372.829a3.486,3.486,0,0,1-.866-.925.71.71,0,0,1-.147-.644,1.14,1.14,0,0,1,.342-.4,2.331,2.331,0,0,1,.54-.33.566.566,0,0,1,.41-.066,1.257,1.257,0,0,1,.293.31,6.854,6.854,0,0,0,.6.645,2.639,2.639,0,0,0,.734.455,1.873,1.873,0,0,0,.94.172.8.8,0,0,0,.656-.547.826.826,0,0,0-.045-.791,5.741,5.741,0,0,0-.829-.992l-.479-.514a3.9,3.9,0,0,1-.857-1.509,2.754,2.754,0,0,1,.243-1.825,2.6,2.6,0,0,1,1.063-1.27,2.737,2.737,0,0,1,1.5-.373,4.335,4.335,0,0,1,1.61.37,5.3,5.3,0,0,1,1.129.65,2.791,2.791,0,0,1,.688.718.6.6,0,0,1,.1.533,1.3,1.3,0,0,1-.31.4,2.033,2.033,0,0,1-.486.346.485.485,0,0,1-.4.066.694.694,0,0,1-.184-.157c-.08-.086-.149-.156-.206-.211a3.276,3.276,0,0,0-.9-.572,1.622,1.622,0,0,0-1.026-.185.7.7,0,0,0-.481.386.911.911,0,0,0-.059.63,1.519,1.519,0,0,0,.283.543q.2.246.6.682a10.687,10.687,0,0,1,.942,1.1,2.741,2.741,0,0,1,.457,1.145,2.6,2.6,0,0,1-.237,1.477,3.131,3.131,0,0,1-1.119,1.437,2.642,2.642,0,0,1-1.468.447,3.856,3.856,0,0,1-1.536-.331A6.823,6.823,0,0,1,678.182,372.829Z" fill="#0392a6"/>
            <path id="Path_3630" data-name="Path 3630" d="M686.136,377.287l5.414-5.256-1.551-1.6a.343.343,0,0,1-.1-.348,1.1,1.1,0,0,1,.313-.441l.312-.3a1.092,1.092,0,0,1,.45-.3.343.343,0,0,1,.344.114l4.613,4.752a.345.345,0,0,1,.1.348,1.078,1.078,0,0,1-.313.441l-.312.3a1.1,1.1,0,0,1-.449.3.348.348,0,0,1-.345-.114l-1.55-1.6-5.415,5.256c-.214.209-.516.111-.907-.29l-.341-.352Q685.814,377.6,686.136,377.287Z" fill="#0392a6"/>
          </g>
        </g>
      </g>
    </g>
  </g>
</svg>
