<svg width="88" height="67" xmlns="http://www.w3.org/2000/svg"><g fill="#000" fill-rule="nonzero"><path d="M13.273 42.257l-.196.08c-1.004.335-1.504.612-2.017 1.124a1.5 1.5 0 0 1-2.12-2.122c.86-.86 1.733-1.353 3.085-1.813 2-1.008 4.104-2.382 5.964-3.87l.105-.076c1.593-1.06 5.254-3.802 6.094-4.642l.16-.139c1.805-1.35 3.43-2.704 4.675-3.946l.084-.078c3.865-3.308 5.53-4.786 7.353-6.608.244-.243.448-.424.912-.822.69-.59.96-.86 1.039-1.017a1.5 1.5 0 0 1 2.227-.538c.257.188 1.05.743 1.196.85.237.172.44.33.638.497.985.831 1.877 1.95 3.371 4.244l.744 1.135.135.205c2.433 3.7 3.525 5.53 4.594 7.935.209.417.434.856.71 1.382a241.986 241.986 0 0 0 .747 1.419c2.206 4.187 3.197 6.499 3.703 9.274a1.5 1.5 0 0 1-2.952.538c-.433-2.38-1.338-4.49-3.405-8.414a1226.31 1226.31 0 0 0-.75-1.425 77.53 77.53 0 0 1-.765-1.492c-1.011-2.272-2.043-4-4.389-7.569l-.135-.205c-.347-.528-.539-.82-.75-1.146-1.348-2.07-2.08-2.987-2.793-3.589a8.183 8.183 0 0 0-.47-.365c-.25.135-.476.33-.744.56-.404.346-.573.496-.742.665-1.89 1.889-3.586 3.394-7.48 6.728-1.336 1.328-3.018 2.73-4.875 4.124-1.116 1.07-4.688 3.744-6.415 4.9-2.035 1.62-4.331 3.114-6.538 4.216z"/><path d="M20.152 54.282a1.5 1.5 0 0 1-.483.08c-.26 0-.86.141-2.2.514-1.728.48-2.337.624-3.006.624a1.5 1.5 0 0 1-1.071-.45l-1.116-1.138a1.5 1.5 0 0 1-.386-.693c-.13-.532-.28-.937-.67-1.862-.448-1.066-.638-1.578-.817-2.31-.13-.532-.282-.937-.67-1.862-.448-1.067-.639-1.578-.818-2.31a1.5 1.5 0 0 1-.043-.358c0 .073-.036-.06-.112-.293-.203-.62-.26-.835-.26-1.224a1.5 1.5 0 0 1 3 0c0-.073.035.06.112.293.162.496.23.733.252 1.007.124.468.28.88.634 1.722.448 1.066.639 1.578.818 2.311.13.532.281.937.67 1.862.36.857.554 1.356.71 1.9l.315.321c.357-.078.883-.216 1.653-.43 1.492-.415 2.15-.579 2.733-.616l3.136-1.066a1.5 1.5 0 0 1 .294-.068c1.303-.166 2.594-.414 4.119-.777.606-.144 1.224-.3 2.075-.52.242-.063 1.153-.3 1.072-.28l1.01-.26c.858-.341 1.594-.513 3.169-.805 1.433-.266 2.035-.409 2.682-.673a1.5 1.5 0 0 1 .235-.074c5.132-1.163 7.434-1.554 10.373-1.554.982 0 1.749-.088 3.486-.36 1.889-.297 2.765-.398 3.952-.398a1.5 1.5 0 1 1 0 3c-.982 0-1.749.088-3.487.36-1.888.297-2.764.398-3.951.398-2.618 0-4.763.361-9.594 1.454-.85.335-1.585.507-3.148.796-1.432.266-2.035.41-2.683.674l-.196.064-1.093.282-1.075.28c-.868.225-1.504.385-2.133.534-1.563.372-2.914.635-4.282.815l-3.206 1.09z"/><path d="M3.914 48.964c.278.84.559 1.615.857 2.341.44 1.071.882 1.942 1.305 2.542.204.289.39.495.539.61.376.043.806-.02 1.316-.148.42-.105.771-.215 1.583-.487 1.6-.534 2.276-.78 2.814-1.05a1.5 1.5 0 1 1 1.344 2.682c-.72.36-1.45.627-3.207 1.214-.885.295-1.284.42-1.804.551-.732.184-1.398.281-2.059.281-1.988 0-3.286-1.84-4.606-5.055a38.476 38.476 0 0 1-.93-2.538c-.158-.477-.483-1.51-.49-1.529a1.5 1.5 0 0 1-.076-.473c0-.885.392-1.627 1.029-2.372.168-.197.299-.334.537-.573a1.5 1.5 0 0 1 .23-.189 9173.972 9173.972 0 0 0 3.387-2.264l.162-.094c1.349-.675 1.981-.913 2.93-.913a1.5 1.5 0 0 1 0 3c-.296 0-.653.13-1.504.554a9651.013 9651.013 0 0 0-3.183 2.127 5.495 5.495 0 0 0-.28.302 3.27 3.27 0 0 0-.259.346c.113.354.273.858.365 1.135zM55.354 12.646a1.5 1.5 0 0 1-2.708-1.292C53.131 10.338 59.98 4.16 64.052.838a1.5 1.5 0 1 1 1.896 2.324c-3.414 2.785-10.41 9.096-10.594 9.484zM62.645 24.354a1.5 1.5 0 1 1-1.29-2.708 70.614 70.614 0 0 0 4.407-2.318c1.236-.699 2.224-1.28 4.443-2.6l.028-.017a1.5 1.5 0 0 1 2.056.522c.424.712.19 1.632-.494 2.039l-.028.017c-2.266 1.349-3.266 1.937-4.529 2.65a73.509 73.509 0 0 1-4.593 2.415zM77.963 35.806c3.82-.638 5.574-.929 7.798-1.287a1.5 1.5 0 0 1 .478 2.962c-2.217.357-3.968.647-7.782 1.284-3.882.649-5.582.93-7.798 1.288a1.5 1.5 0 0 1-.24.019c-.35 0-.67.045-1.432.188-.947.178-1.387.24-1.987.24a1.5 1.5 0 0 1 0-3c.35 0 .67-.045 1.433-.188.88-.165 1.322-.23 1.86-.24 2.156-.347 3.86-.63 7.67-1.266zM24.3 63.928a100.665 100.665 0 0 0-1.024-4.52 44.196 44.196 0 0 0-.616-2.202c-.136-.433-.28-.838-.434-1.213-.313-.77-.64-1.379-.959-1.843a3.46 3.46 0 0 0-.306-.402 1.5 1.5 0 0 1 2.078-2.163c.554.532 1.28 1.591 1.966 3.277.184.453.358.936.518 1.45.217.693.437 1.483.66 2.353a103.653 103.653 0 0 1 1.092 4.836c.245-.007.6-.064 1.064-.193.291-.08.57-.151.91-.231-.05.011.57-.133.71-.167.264-.065.434-.117.536-.157.049-.367-.066-1.254-.442-2.84-1.044-4.399-.986-8.285-.24-10.41a1.5 1.5 0 0 1 2.83.993c-.54 1.543-.59 4.852.329 8.724 1.04 4.385.571 5.896-2.294 6.602-.162.04-.81.191-.74.175-.305.072-.548.133-.795.201-2.077.578-3.577.321-4.366-.807a2.254 2.254 0 0 1-.417-1.163 71.882 71.882 0 0 0-.06-.3zm3.054.223v-.018.018z"/></g></svg>