<svg xmlns="http://www.w3.org/2000/svg" width="30" height="30" viewBox="0 0 30 30"><rect width="30" height="30" fill="none"/><g transform="translate(1.25 5)"><path d="M25.175,4H4.325A3.75,3.75,0,0,0,1,7.75v12.5A3.75,3.75,0,0,0,4.75,24h20a3.75,3.75,0,0,0,3.75-3.75V7.75A3.75,3.75,0,0,0,25.175,4ZM24.6,6.5,16,15.1a1.25,1.25,0,0,1-1.762,0l-8.6-8.6ZM26,20.25a1.25,1.25,0,0,1-1.25,1.25h-20A1.25,1.25,0,0,1,3.5,20.25V8.262l8.6,8.6a3.75,3.75,0,0,0,5.3,0l8.6-8.6Z" transform="translate(-1 -4)" fill="#0e1317"/></g></svg>