<svg xmlns="http://www.w3.org/2000/svg" width="58.823" height="61.319" viewBox="0 0 58.823 61.319">
  <g id="Group_3627" data-name="Group 3627" transform="translate(-1315 -2528)">
    <g id="fixed_ico" transform="translate(1331 2545)">
      <rect id="Rectangle_137" data-name="Rectangle 137" width="28" height="28" fill="none"/>
      <g id="Layer" transform="translate(1.167 1.167)">
        <path id="Path_267" data-name="Path 267" d="M13.833,1A12.833,12.833,0,1,0,26.667,13.833,12.833,12.833,0,0,0,13.833,1Zm0,23.333a10.5,10.5,0,1,1,10.5-10.5,10.5,10.5,0,0,1-10.5,10.5Z" transform="translate(-1 -1)" fill="#0392a6"/>
        <path id="Path_268" data-name="Path 268" d="M16.588,14.441a1.167,1.167,0,0,0-1.47.607,2.567,2.567,0,0,1-2.333,1.645h-.3a2.567,2.567,0,0,1-2.333-1.645,1.168,1.168,0,0,0-2.158.887,4.76,4.76,0,0,0,4.468,3.092h.257a4.76,4.76,0,0,0,4.468-3.092A1.167,1.167,0,0,0,16.588,14.441Z" transform="translate(0.153 1.228)" fill="#0392a6"/>
        <circle id="Ellipse_21" data-name="Ellipse 21" cx="1.75" cy="1.75" r="1.75" transform="translate(7 8.167)" fill="#0392a6"/>
        <circle id="Ellipse_22" data-name="Ellipse 22" cx="1.75" cy="1.75" r="1.75" transform="translate(15.167 8.167)" fill="#0392a6"/>
      </g>
    </g>
    <g id="Group_3618" data-name="Group 3618" transform="translate(778.926 2165.806)">
      <g id="Layer_1" data-name="Layer 1">
        <g id="Group_3619" data-name="Group 3619">
          <g id="Group_3618-2" data-name="Group 3618">
            <path id="Path_3606" data-name="Path 3606" d="M536.364,397.736,544.9,395.5a.581.581,0,0,1,.447.021.588.588,0,0,1,.236.378l.693,2.641q.884,3.372-1.662,4.04a2.188,2.188,0,0,1-1.431-.08,2.59,2.59,0,0,1-1.137-.939l-.055.013a1.3,1.3,0,0,1-.314.648,3.588,3.588,0,0,1-.676.654l-2.666,1.974a.8.8,0,0,1-.24.134c-.081.022-.164-.029-.249-.151a1.965,1.965,0,0,1-.235-.59l-.145-.554c-.116-.444-.09-.73.078-.861l2.36-1.763a1.742,1.742,0,0,0,.5-.659,1.631,1.631,0,0,0-.046-.922l-.138-.527-3.3.866q-.434.114-.646-.7l-.121-.46C536,398.121,536.075,397.813,536.364,397.736Zm5.99,2.034a1,1,0,0,0,.531.642,1.211,1.211,0,0,0,.907.1,1,1,0,0,0,.672-.5,1.225,1.225,0,0,0,.058-.9l-.312-1.192-2.193.575Z" fill="#0392a6"/>
            <path id="Path_3607" data-name="Path 3607" d="M540.577,409.578a.591.591,0,0,1,.255-.367l6.854-5.327a.481.481,0,0,1,.785.1l3.016,3.879a.343.343,0,0,1,.065.358,1.1,1.1,0,0,1-.36.4l-.342.267a1.119,1.119,0,0,1-.481.249.347.347,0,0,1-.33-.152L548,406.368l-1.6,1.246,1.8,2.321a.346.346,0,0,1,.066.357,1.1,1.1,0,0,1-.36.4l-.343.267a1.122,1.122,0,0,1-.48.249.343.343,0,0,1-.33-.151l-1.8-2.322-1.791,1.393,2.046,2.63a.343.343,0,0,1,.064.357,1.081,1.081,0,0,1-.359.4l-.343.267a1.111,1.111,0,0,1-.48.249.344.344,0,0,1-.33-.151L540.734,410A.588.588,0,0,1,540.577,409.578Z" fill="#0392a6"/>
            <path id="Path_3608" data-name="Path 3608" d="M548.377,417.438l4.4-7.647a.481.481,0,0,1,.765-.206l2.549,1.466a4.252,4.252,0,0,1,1.7,1.71,2.656,2.656,0,0,1-.337,2.608,2.825,2.825,0,0,1-1.463,1.363,2.943,2.943,0,0,1-1.6.14,4.243,4.243,0,0,1-1.236-.435l-1.286-.741-1.619,2.816q-.223.389-.952-.031l-.412-.237C548.4,417.966,548.228,417.7,548.377,417.438Zm5.489-2.722a1.4,1.4,0,0,0,.879.2,1.115,1.115,0,0,0,.784-.647,1.141,1.141,0,0,0,.169-1.01,1.372,1.372,0,0,0-.61-.665l-1.081-.621-1.221,2.124Z" fill="#0392a6"/>
            <path id="Path_3609" data-name="Path 3609" d="M558.1,422.332a1.37,1.37,0,0,1,.083-.244l4.042-8.613q.144-.281.826-.205l.723.079q.7.075.762.379l2.081,9.284a.879.879,0,0,1,.015.255q-.035.306-.73.23l-.612-.067q-.682-.075-.747-.378l-.371-1.759-3.284-.359-.743,1.636c-.087.188-.31.262-.672.222l-.557-.061Q558.072,422.638,558.1,422.332Zm5.674-2.941-.521-2.565a6.488,6.488,0,0,1-.112-.913l-.055-.006c-.016.055-.05.175-.1.362a2.452,2.452,0,0,1-.2.5l-1.092,2.388Z" fill="#0392a6"/>
            <path id="Path_3610" data-name="Path 3610" d="M570.795,422.4l-1.893-8.757c-.064-.3.177-.511.724-.63l.479-.1c.547-.118.854-.026.918.275l1.893,8.757q.1.453-.724.629l-.478.1Q570.892,422.854,570.795,422.4Z" fill="#0392a6"/>
            <path id="Path_3611" data-name="Path 3611" d="M577.868,420.374l-4.534-7.564a.483.483,0,0,1,.192-.769l2.342-1.4q2.99-1.794,4.343.465a2.192,2.192,0,0,1,.324,1.4,2.6,2.6,0,0,1-.584,1.354l.028.048a1.32,1.32,0,0,1,.709.121,3.585,3.585,0,0,1,.818.466l2.64,2.008a.867.867,0,0,1,.2.192c.044.073.018.166-.075.283a1.953,1.953,0,0,1-.5.389l-.493.3c-.392.236-.674.29-.847.166l-2.353-1.773a1.749,1.749,0,0,0-.772-.3,1.625,1.625,0,0,0-.872.3l-.468.28,1.756,2.93q.229.384-.49.816l-.409.245C578.339,420.614,578.022,420.631,577.868,420.374Zm.278-6.319a.991.991,0,0,0,.467-.689,1.215,1.215,0,0,0-.162-.9,1,1,0,0,0-.67-.5,1.223,1.223,0,0,0-.885.2l-1.058.634L577,414.739Z" fill="#0392a6"/>
            <path id="Path_3612" data-name="Path 3612" d="M588.028,413.075a.584.584,0,0,1-.423-.144L580.6,407.8a.481.481,0,0,1-.121-.783l2.9-3.965a.344.344,0,0,1,.325-.161,1.085,1.085,0,0,1,.487.235l.351.257a1.1,1.1,0,0,1,.371.392.345.345,0,0,1-.055.36l-1.959,2.677,1.638,1.2,1.736-2.372a.346.346,0,0,1,.327-.162,1.105,1.105,0,0,1,.487.236l.349.256a1.092,1.092,0,0,1,.373.393.348.348,0,0,1-.055.36L586.02,409.1l1.83,1.339,1.967-2.689a.345.345,0,0,1,.327-.16,1.108,1.108,0,0,1,.487.234l.349.257a1.1,1.1,0,0,1,.373.393.346.346,0,0,1-.055.359l-2.91,3.978A.583.583,0,0,1,588.028,413.075Z" fill="#0392a6"/>
            <path id="Path_3613" data-name="Path 3613" d="M593.948,403.031a.576.576,0,0,1-.444.044l-8.5-1.74a.481.481,0,0,1-.437-.66l.6-2.936a4.273,4.273,0,0,1,1.908-3,6.295,6.295,0,0,1,7.118,1.457,4.27,4.27,0,0,1,.576,3.512l-.6,2.936A.579.579,0,0,1,593.948,403.031Zm-.979-3.7a1.964,1.964,0,0,0-.429-1.816,4.827,4.827,0,0,0-4.472-.916,1.965,1.965,0,0,0-1.107,1.5l-.278,1.359,6.007,1.229Z" fill="#0392a6"/>
          </g>
        </g>
      </g>
      <g id="Layer_3" data-name="Layer 3">
        <g id="Group_3621" data-name="Group 3621">
          <g id="Group_3620" data-name="Group 3620">
            <path id="Path_3614" data-name="Path 3614" d="M549.229,375.521l-3.312-1.216c-.226-.077-.422-.149-.589-.214l-.033.047.446.52,3.328,3.878c.2.227.08.523-.345.887l-.308.265q-.637.546-.93.207l-5.836-6.8q-.291-.341.346-.887l.564-.483a.919.919,0,0,1,.915-.288l4.463,1.63.26.09-.058-.262-.905-4.686a.922.922,0,0,1,.423-.861l.553-.475q.637-.546.929-.207l5.836,6.8q.293.339-.345.888l-.309.263q-.638.547-.928.207l-3.33-3.877-.446-.52-.052.025c.04.176.08.381.122.615l.7,3.459a.656.656,0,0,1-.252.567l-.308.264A.657.657,0,0,1,549.229,375.521Z" fill="#0392a6"/>
            <path id="Path_3615" data-name="Path 3615" d="M558.611,371.433a6.525,6.525,0,0,1-1.2-7.336,4.924,4.924,0,0,1,6.57-1.078,6.558,6.558,0,0,1,1.2,7.335,4.925,4.925,0,0,1-6.569,1.079Zm4.741-2.147a5.152,5.152,0,0,0-.765-4.663,1.944,1.944,0,0,0-1.8-.519,1.965,1.965,0,0,0-1.549,1.069,5.094,5.094,0,0,0,.766,4.663,2.181,2.181,0,0,0,3.35-.55Z" fill="#0392a6"/>
            <path id="Path_3616" data-name="Path 3616" d="M570.088,372.087a3.444,3.444,0,0,1-.977-.807.707.707,0,0,1-.229-.619,1.117,1.117,0,0,1,.287-.442,2.376,2.376,0,0,1,.493-.4.569.569,0,0,1,.4-.118,1.275,1.275,0,0,1,.33.27,6.943,6.943,0,0,0,.683.561,2.632,2.632,0,0,0,.785.358,1.878,1.878,0,0,0,.955.049.8.8,0,0,0,.582-.627.824.824,0,0,0-.148-.778,5.829,5.829,0,0,0-.948-.878l-.541-.447a3.9,3.9,0,0,1-1.043-1.387,2.748,2.748,0,0,1,.006-1.841,2.607,2.607,0,0,1,.89-1.4,2.766,2.766,0,0,1,1.437-.562,4.34,4.34,0,0,1,1.644.161,5.2,5.2,0,0,1,1.2.5,2.765,2.765,0,0,1,.775.624.6.6,0,0,1,.172.515,1.283,1.283,0,0,1-.257.437,2,2,0,0,1-.438.4.483.483,0,0,1-.382.115.655.655,0,0,1-.2-.131q-.135-.111-.231-.183a3.286,3.286,0,0,0-.963-.452,1.624,1.624,0,0,0-1.041-.052.7.7,0,0,0-.427.444.915.915,0,0,0,.022.633,1.537,1.537,0,0,0,.35.5c.153.145.382.346.688.6a10.558,10.558,0,0,1,1.074.972,2.717,2.717,0,0,1,.6,1.076,2.6,2.6,0,0,1-.045,1.5,3.134,3.134,0,0,1-.926,1.569,2.646,2.646,0,0,1-1.4.632,3.886,3.886,0,0,1-1.566-.131A6.872,6.872,0,0,1,570.088,372.087Z" fill="#0392a6"/>
            <path id="Path_3617" data-name="Path 3617" d="M578.552,375.5l4.706-5.9-1.74-1.389a.345.345,0,0,1-.147-.332,1.109,1.109,0,0,1,.255-.478l.271-.338a1.1,1.1,0,0,1,.409-.355.343.343,0,0,1,.356.069l5.176,4.13a.342.342,0,0,1,.147.332,1.1,1.1,0,0,1-.256.478l-.27.339a1.1,1.1,0,0,1-.408.354.344.344,0,0,1-.357-.069l-1.74-1.389-4.706,5.9c-.186.234-.5.175-.936-.173l-.383-.306Q578.272,375.846,578.552,375.5Z" fill="#0392a6"/>
          </g>
        </g>
      </g>
    </g>
  </g>
</svg>
