<svg xmlns="http://www.w3.org/2000/svg" width="46.458" height="61.165" viewBox="0 0 46.458 61.165">
  <g id="Group_3626" data-name="Group 3626" transform="translate(-1192 -2521)">
    <g id="Group_3607" data-name="Group 3607" transform="translate(20 -21)">
      <g id="Group_3602" data-name="Group 3602" transform="translate(724.794 2267.124)">
        <g id="Layer_1" data-name="Layer 1">
          <g id="Group_3599" data-name="Group 3599">
            <g id="Group_3598" data-name="Group 3598">
              <path id="Path_3572" data-name="Path 3572" d="M451.365,329.212a3.5,3.5,0,0,1-.634-1.1.713.713,0,0,1,0-.66,1.119,1.119,0,0,1,.424-.313,2.375,2.375,0,0,1,.6-.2.572.572,0,0,1,.415.029,1.267,1.267,0,0,1,.215.369,6.846,6.846,0,0,0,.444.765,2.629,2.629,0,0,0,.611.609,1.855,1.855,0,0,0,.877.38.8.8,0,0,0,.764-.384.824.824,0,0,0,.134-.78,5.744,5.744,0,0,0-.582-1.156l-.351-.608a3.883,3.883,0,0,1-.493-1.663,2.761,2.761,0,0,1,.649-1.723,2.61,2.61,0,0,1,1.324-1,2.749,2.749,0,0,1,1.542-.024,4.345,4.345,0,0,1,1.484.724,5.337,5.337,0,0,1,.953.889,2.782,2.782,0,0,1,.508.856.6.6,0,0,1-.02.543,1.323,1.323,0,0,1-.392.319,2.056,2.056,0,0,1-.552.226.478.478,0,0,1-.4-.025.675.675,0,0,1-.144-.193c-.058-.1-.109-.186-.153-.253a3.3,3.3,0,0,0-.743-.76,1.626,1.626,0,0,0-.957-.413.7.7,0,0,0-.556.267.914.914,0,0,0-.2.6,1.541,1.541,0,0,0,.153.593c.092.189.236.457.435.8a10.862,10.862,0,0,1,.667,1.287,2.716,2.716,0,0,1,.185,1.218,2.594,2.594,0,0,1-.564,1.385,3.143,3.143,0,0,1-1.415,1.147,2.645,2.645,0,0,1-1.532.1,3.85,3.85,0,0,1-1.42-.669A6.873,6.873,0,0,1,451.365,329.212Z" fill="#0392a6"/>
              <path id="Path_3573" data-name="Path 3573" d="M460.807,334.517a.584.584,0,0,1-.029-.447l2.038-8.437a.48.48,0,0,1,.676-.412l4.777,1.153a.343.343,0,0,1,.273.239,1.11,1.11,0,0,1-.029.54l-.1.422a1.086,1.086,0,0,1-.221.494.342.342,0,0,1-.352.088l-3.225-.779-.477,1.973,2.858.69a.346.346,0,0,1,.274.239,1.1,1.1,0,0,1-.03.54l-.1.422a1.086,1.086,0,0,1-.22.494.344.344,0,0,1-.353.088l-2.858-.69-.532,2.2,3.239.783a.345.345,0,0,1,.274.238,1.091,1.091,0,0,1-.031.54l-.1.422a1.092,1.092,0,0,1-.22.494.344.344,0,0,1-.353.088l-4.791-1.157A.583.583,0,0,1,460.807,334.517Z" fill="#0392a6"/>
              <path id="Path_3574" data-name="Path 3574" d="M472.925,335.968a.586.586,0,0,1-.2-.4l-1.5-8.549a.481.481,0,0,1,.455-.649l4.841-.849a.342.342,0,0,1,.345.11,1.094,1.094,0,0,1,.189.508l.075.426a1.1,1.1,0,0,1-.005.541.344.344,0,0,1-.288.222l-3.269.573.352,2,2.9-.507a.341.341,0,0,1,.345.109,1.1,1.1,0,0,1,.189.508l.075.426a1.1,1.1,0,0,1-.005.541.342.342,0,0,1-.288.222l-2.9.508.392,2.233,3.282-.575a.343.343,0,0,1,.346.11,1.1,1.1,0,0,1,.188.507l.076.427a1.1,1.1,0,0,1-.005.541.346.346,0,0,1-.288.222l-4.854.85A.579.579,0,0,1,472.925,335.968Z" fill="#0392a6"/>
              <path id="Path_3575" data-name="Path 3575" d="M484.612,332.306l-5.35-7.188q-.267-.359.406-.86l.483-.36a1.8,1.8,0,0,1,.495-.273.7.7,0,0,1,.472.024l5.428,2.016a8.693,8.693,0,0,1,.9.362l.036-.045q-.213-.241-.59-.747l-2.776-3.728c-.177-.239-.043-.527.407-.861l.326-.243q.674-.5.941-.141l5.35,7.187c.178.239.043.527-.407.861l-.426.318a1.718,1.718,0,0,1-.495.272.69.69,0,0,1-.472-.024l-5.525-2.03a8.634,8.634,0,0,1-.9-.362l-.037.044q.216.241.591.747l2.817,3.786q.268.358-.406.86l-.325.243Q484.879,332.665,484.612,332.306Z" fill="#0392a6"/>
            </g>
          </g>
        </g>
        <g id="Layer_3" data-name="Layer 3">
          <g id="Group_3601" data-name="Group 3601">
            <g id="Group_3600" data-name="Group 3600">
              <path id="Path_3576" data-name="Path 3576" d="M454.755,287.662,451.5,286.3q-.333-.129-.579-.239l-.035.046.424.539,3.157,4.018q.276.353-.384.872l-.319.251q-.661.518-.938.166l-5.536-7.045c-.184-.235-.057-.525.384-.871l.584-.458a.922.922,0,0,1,.927-.249l4.387,1.823.257.1-.048-.265-.7-4.721a.921.921,0,0,1,.46-.842l.572-.45q.662-.519.938-.166l5.536,7.045q.277.352-.384.871l-.319.251q-.661.519-.938.167l-3.157-4.018-.424-.54-.052.024q.048.265.1.62l.549,3.485a.652.652,0,0,1-.276.555l-.319.251A.653.653,0,0,1,454.755,287.662Z" fill="#0392a6"/>
              <path id="Path_3577" data-name="Path 3577" d="M464.318,283.985a6.527,6.527,0,0,1-.879-7.382,4.926,4.926,0,0,1,6.611-.787,6.56,6.56,0,0,1,.879,7.382,4.926,4.926,0,0,1-6.611.787Zm4.831-1.936a5.154,5.154,0,0,0-.558-4.692,2.192,2.192,0,0,0-3.371.4,4,4,0,0,0-.3,2.411,4.044,4.044,0,0,0,.857,2.281,1.961,1.961,0,0,0,1.785.605A1.942,1.942,0,0,0,469.149,282.049Z" fill="#0392a6"/>
              <path id="Path_3578" data-name="Path 3578" d="M475.748,285.14a3.476,3.476,0,0,1-.94-.849.714.714,0,0,1-.2-.629,1.133,1.133,0,0,1,.307-.429,2.388,2.388,0,0,1,.51-.375.568.568,0,0,1,.4-.1,1.259,1.259,0,0,1,.319.284,6.7,6.7,0,0,0,.658.591,2.629,2.629,0,0,0,.768.392,1.873,1.873,0,0,0,.952.091.8.8,0,0,0,.608-.6.827.827,0,0,0-.112-.784,5.793,5.793,0,0,0-.91-.919l-.521-.471a3.9,3.9,0,0,1-.981-1.431,2.758,2.758,0,0,1,.088-1.839,2.611,2.611,0,0,1,.951-1.356,2.748,2.748,0,0,1,1.46-.5,4.335,4.335,0,0,1,1.636.233,5.312,5.312,0,0,1,1.18.552,2.762,2.762,0,0,1,.747.658.6.6,0,0,1,.148.523,1.3,1.3,0,0,1-.275.423,2.055,2.055,0,0,1-.455.387.487.487,0,0,1-.388.1.657.657,0,0,1-.2-.14c-.087-.078-.162-.143-.224-.193a3.266,3.266,0,0,0-.941-.494,1.622,1.622,0,0,0-1.038-.1.7.7,0,0,0-.446.426.907.907,0,0,0-.006.633,1.53,1.53,0,0,0,.328.517q.218.229.66.628a10.484,10.484,0,0,1,1.03,1.02,2.711,2.711,0,0,1,.553,1.1,2.611,2.611,0,0,1-.11,1.492,3.145,3.145,0,0,1-.995,1.527,2.647,2.647,0,0,1-1.425.569,3.857,3.857,0,0,1-1.558-.2A6.915,6.915,0,0,1,475.748,285.14Z" fill="#0392a6"/>
              <path id="Path_3579" data-name="Path 3579" d="M484.05,288.914l4.957-5.689-1.678-1.462a.345.345,0,0,1-.133-.339,1.112,1.112,0,0,1,.276-.465l.285-.327a1.09,1.09,0,0,1,.424-.337.341.341,0,0,1,.352.085l4.993,4.35a.341.341,0,0,1,.132.338,1.1,1.1,0,0,1-.275.466l-.285.327a1.113,1.113,0,0,1-.423.337.346.346,0,0,1-.354-.085l-1.678-1.463-4.957,5.69c-.2.225-.505.154-.928-.215l-.369-.321Q483.756,289.252,484.05,288.914Z" fill="#0392a6"/>
            </g>
          </g>
        </g>
      </g>
      <g id="Vrstva_108" data-name="Vrstva 108" transform="translate(1485.171 3173)">
        <g id="Group_3603" data-name="Group 3603" transform="translate(-307.171 -611)">
          <path id="Path_3580" data-name="Path 3580" d="M-272.559-600.816l0,0,0,0-.006-.01-.017-.028-.061-.1c-.052-.082-.126-.195-.223-.336-.192-.283-.475-.68-.844-1.152a25.983,25.983,0,0,0-3.258-3.452A19.158,19.158,0,0,0-289.617-611a19.158,19.158,0,0,0-12.645,5.106,25.979,25.979,0,0,0-3.258,3.452c-.369.471-.652.869-.845,1.152-.1.141-.17.255-.222.336l-.061.1-.011.017,0,0-.511.842.511.842,0,0,.011.017.061.1c.052.082.126.195.222.336.193.283.476.68.845,1.152a25.971,25.971,0,0,0,3.258,3.452A19.158,19.158,0,0,0-289.617-589a19.158,19.158,0,0,0,12.645-5.106,25.976,25.976,0,0,0,3.258-3.452c.369-.471.652-.869.844-1.152.1-.141.171-.255.223-.336l.061-.1.017-.028.006-.009,0,0,0,0,.493-.816Zm-3.63,1.32a22.892,22.892,0,0,1-2.858,3.03,16.032,16.032,0,0,1-10.569,4.323,16.029,16.029,0,0,1-10.569-4.323,22.788,22.788,0,0,1-2.858-3.03c-.143-.184-.272-.352-.383-.5.112-.152.24-.321.383-.5a22.788,22.788,0,0,1,2.858-3.03,16.029,16.029,0,0,1,10.569-4.323,16.032,16.032,0,0,1,10.569,4.323,22.892,22.892,0,0,1,2.858,3.03c.143.184.272.352.382.5C-275.917-599.848-276.046-599.679-276.189-599.5Z" transform="translate(307.171 611)" fill="#0392a6" stroke="#fff" stroke-width="1"/>
          <circle id="Ellipse_36" data-name="Ellipse 36" cx="4.714" cy="4.714" r="4.714" transform="translate(12.84 6.286)" fill="#0392a6" stroke="#fff" stroke-width="1"/>
        </g>
      </g>
    </g>
  </g>
</svg>
