<svg xmlns="http://www.w3.org/2000/svg" width="30" height="30" viewBox="0 0 30 30"><rect width="30" height="30" fill="none"/><g transform="translate(0.875 2.125)"><path d="M7.95,1.7A3.9,3.9,0,0,0,4.075,5.575,3.3,3.3,0,0,0,4.95,7.95,7.188,7.188,0,0,0,.7,14.7v.75a1.125,1.125,0,0,0,2.25,0V14.7A5.282,5.282,0,0,1,8.2,9.45a3.9,3.9,0,0,0,3.875-3.875A4.034,4.034,0,0,0,7.95,1.7ZM9.7,5.575a1.709,1.709,0,0,1-1.75,1.75A1.709,1.709,0,0,1,6.2,5.575a1.709,1.709,0,0,1,1.75-1.75A1.709,1.709,0,0,1,9.7,5.575Z" transform="translate(-0.7 -1.7)"/><path d="M21.275,7.95a3.946,3.946,0,0,0,.875-2.375A3.875,3.875,0,1,0,18.275,9.45a5.282,5.282,0,0,1,5.25,5.25v.75a1.125,1.125,0,1,0,2.25,0V14.7A7.836,7.836,0,0,0,21.275,7.95ZM19.9,5.575a1.75,1.75,0,1,1-3.5,0,1.75,1.75,0,0,1,3.5,0Z" transform="translate(2.725 -1.7)"/><path d="M17.85,15.875A5.668,5.668,0,0,0,19.6,11.75a5.75,5.75,0,0,0-11.5,0,5.668,5.668,0,0,0,1.75,4.125A9.116,9.116,0,0,0,4.6,24.25v.875a1.253,1.253,0,0,0,1.25,1.25,1.344,1.344,0,0,0,1.25-1.25V24.25a6.75,6.75,0,0,1,13.5,0v.875a1.253,1.253,0,0,0,1.25,1.25,1.344,1.344,0,0,0,1.25-1.25V24.25A9.116,9.116,0,0,0,17.85,15.875Zm-.875-4.125A3.227,3.227,0,0,1,13.725,15,3.123,3.123,0,0,1,10.6,11.75,3.309,3.309,0,0,1,13.85,8.5,3.2,3.2,0,0,1,16.975,11.75Z" transform="translate(0.275 -0.625)"/></g></svg>