<svg width="18" height="18" viewBox="0 0 14 14" xmlns="http://www.w3.org/2000/svg" fill-rule="evenodd" clip-rule="evenodd" stroke-linejoin="round" stroke-miterlimit="1.414"><path d="M12.462 13.5H1.039a.985.985 0 0 1-.731-.318A1.047 1.047 0 0 1 0 12.429V3.214c0-.29.103-.541.308-.753a.985.985 0 0 1 .731-.318h1.038v-.804c0-.368.127-.683.381-.945A1.23 1.23 0 0 1 3.375 0h.519c.357 0 .663.131.917.394.254.262.382.577.382.945v.804h3.115v-.804c0-.368.127-.683.381-.945A1.23 1.23 0 0 1 9.606 0h.519c.357 0 .663.131.917.393.254.263.381.578.381.946v.804h1.039c.281 0 .525.106.73.318.205.212.308.463.308.753v9.215c0 .29-.103.541-.308.753a.984.984 0 0 1-.73.318zm-.087-3.805h-2.25v1.909h2.25V9.695zm-6 0h-2.25v1.909h2.25V9.695zm-3 0h-2.25v1.909h2.25V9.695zm6 0h-2.25v1.909h2.25V9.695zm3-2.658h-2.25v1.908h2.25V7.037zm-6 0h-2.25v1.908h2.25V7.037zm-3 0h-2.25v1.908h2.25V7.037zm6 0h-2.25v1.908h2.25V7.037zm3-2.658h-2.25v1.908h2.25V4.379zm-6 0h-2.25v1.908h2.25V4.379zm-3 0h-2.25v1.908h2.25V4.379zm6 0h-2.25v1.908h2.25V4.379zM3.894 1.072h-.519a.244.244 0 0 0-.182.079.259.259 0 0 0-.077.188V3c0 .073.025.135.077.188.051.053.112.08.182.08h.519a.247.247 0 0 0 .183-.08A.261.261 0 0 0 4.154 3V1.339a.263.263 0 0 0-.077-.188.245.245 0 0 0-.183-.079zm6.231 0h-.519a.248.248 0 0 0-.183.079.263.263 0 0 0-.077.188V3c0 .073.026.135.077.188.052.053.113.08.183.08h.519a.247.247 0 0 0 .183-.08.261.261 0 0 0 .077-.188V1.339a.263.263 0 0 0-.077-.188.246.246 0 0 0-.183-.079z" fill="#0394a6" fill-rule="nonzero"/></svg>