<svg width="18" height="20" viewBox="0 0 14 15" xmlns="http://www.w3.org/2000/svg" fill-rule="evenodd" clip-rule="evenodd" stroke-linejoin="round" stroke-miterlimit="1.414"><g fill="#0394a6" fill-rule="nonzero"><path d="M6.762 3.459a1.153 1.153 0 0 0 .989-1.747L6.762 0l-.989 1.712a1.154 1.154 0 0 0 .989 1.747zm5.117 2.677H7.428V4.023H6.089v2.113l-4.392.001C.589 6.137 0 6.773 0 7.901v1.438c0 .736.589 1.052 1.312 1.052.351 0 .679-.14.926-.392L3.86 8.62l1.975 1.376a1.326 1.326 0 0 0 1.854 0l1.786-1.247 1.81 1.247c.248.252.576.392.927.392.723 0 1.312-.412 1.312-1.149l-.007-1.457c-.007-1.128-.53-1.646-1.638-1.646z"/><path d="M10.569 10.722l-1.101-.62-1.077.62c-.873.89-2.399.89-3.272 0l-1.266-.749-.722.733c-.432.446-1.2.708-1.819.708-.486 0-.937-.157-1.312-.419v3.323c0 .375.301.682.669.682h12.179a.678.678 0 0 0 .669-.682v-3.323a2.276 2.276 0 0 1-1.311.419 2.28 2.28 0 0 1-1.637-.692z"/></g></svg>