<?xml version="1.0" encoding="UTF-8" standalone="no"?><!DOCTYPE svg PUBLIC "-//W3C//DTD SVG 1.1//EN" "http://www.w3.org/Graphics/SVG/1.1/DTD/svg11.dtd"><svg width="100%" height="100%" viewBox="0 0 93 132" version="1.1" xmlns="http://www.w3.org/2000/svg" xmlns:xlink="http://www.w3.org/1999/xlink" xml:space="preserve" xmlns:serif="http://www.serif.com/" style="fill-rule:evenodd;clip-rule:evenodd;stroke-linecap:round;stroke-linejoin:round;stroke-miterlimit:10;"><rect id="Page-11" serif:id="Page 11" x="-625.56" y="-422.04" width="1280" height="800" style="fill:none;"/><g id="Layer-1" serif:id="Layer 1"><g><path d="M65.175,15.796c0.926,5.578 1.852,11.157 2.701,16.27c0.463,2.789 0.926,5.578 1.777,7.826c0.463,2.789 0.926,5.578 1.389,8.367c0.54,3.254 2.01,6.354 2.55,9.608c0.617,3.719 1.622,6.896 2.24,10.614c0.54,3.254 1.545,6.431 2.085,9.685c0.54,3.254 2.47,14.876 2.701,16.27c-2.789,0.463 -11.478,2.793 -14.267,3.256c-3.254,0.54 -6.043,1.004 -8.833,1.467c-3.254,0.54 -6.895,1.622 -10.614,2.239c-3.254,0.54 -6.121,0.539 -9.375,1.079l-9.762,1.62c-0.308,-1.859 -0.617,-3.719 -0.926,-5.578c-0.231,-1.395 -4.549,-15.895 -5.707,-22.868c-0.694,-4.184 -1.699,-7.361 -2.781,-11.003c-0.463,-2.789 -0.926,-5.578 -1.854,-8.29c-1.16,-4.106 -1.854,-8.29 -2.549,-12.474c-0.308,-1.859 -0.617,-3.719 -1.391,-5.501c-0.231,-1.395 -1.078,-9.374 -1.31,-10.769c1.86,-0.309 4.107,-1.159 5.424,-1.856c6.819,-2.087 13.25,-3.632 20.223,-4.79c7.902,-1.312 16.193,-3.166 24.095,-4.477c0.93,-0.155 3.642,-1.083 4.184,-0.695" style="fill:none;stroke:#000;stroke-width:3.04px;"/><path d="M53.171,113.255c0.248,2.97 5.033,4.419 8.132,2.949c3.023,-1.935 2.484,-8.055 0.239,-10.071c-2.864,-2.868 -6.861,-0.798 -8.213,2.319c-1.036,2.39 -0.4,1.909 -0.158,4.803Z" style="fill:none;stroke:#000;stroke-width:3.04px;"/><path d="M30.081,17.322c5.113,-0.849 10.692,-1.775 15.805,-2.624" style="fill:none;stroke:#000;stroke-width:3.04px;"/><path d="M31.018,5.703c-2.247,0.851 -7.283,2.164 -9.995,3.092c-2.712,0.928 -5.424,1.856 -8.059,3.249c-2.247,0.85 -6.897,3.055 -8.99,4.836c-2.48,2.322 -0.788,16.813 0.142,20.994c0.622,2.798 0.306,6.159 1.234,8.871c0.927,2.712 1.468,5.966 2.395,8.678c0.928,2.712 1.856,5.424 2.319,8.213c0.772,4.649 2.473,9.143 3.245,13.791c1.158,6.973 7.023,25.039 8.491,31.005c0.385,2.324 0.771,4.648 1.699,7.36c1.393,2.635 2.321,5.347 4.566,7.363c2.245,2.015 3.949,3.643 6.582,5.117c2.633,1.473 23.395,-0.063 25.642,-0.913c2.325,-0.386 16.039,-4.096 20.302,-7.192c3.099,-1.47 6.199,-2.94 7.518,-6.502c1.397,-3.098 1.786,-6.506 1.711,-9.838c0.158,-4.803 0.704,-10.148 -0.533,-14.719c-0.309,-1.859 -5.321,-20.544 -6.172,-22.791c-1.082,-3.642 -3.63,-16.116 -4.016,-18.44c-0.928,-2.712 -4.015,-21.307 -5.02,-24.483c-0.309,-1.86 -2.085,-9.685 -2.394,-11.545c-0.463,-2.789 -1.779,-4.959 -4.412,-6.433c-2.168,-1.55 -4.801,-3.024 -7.744,-3.491c-0.93,0.155 -2.324,0.386 -3.331,0.076c-1.937,-0.156 -3.874,-0.313 -6.198,0.073c-2.789,0.463 -5.966,1.468 -9.297,1.544c-1.86,0.308 -9.22,2.008 -9.685,2.085Z" style="fill:none;stroke:#000;stroke-width:3.04px;"/><path d="M32.938,31.656c-2.016,2.245 -2.793,6.196 -4.189,9.294c-0.621,2.013 -1.707,4.104 -2.793,6.195" style="fill:none;stroke:#000;stroke-width:3.04px;"/><path d="M41.334,34.756c-1.784,3.64 -3.103,7.203 -4.887,10.842c-0.622,2.014 -2.095,4.647 -3.723,6.35" style="fill:none;stroke:#000;stroke-width:3.04px;"/></g></g></svg>