<svg xmlns="http://www.w3.org/2000/svg" width="41.25" height="37.5" viewBox="0 0 41.25 37.5">
    <g data-name="Vrstva 152">
        <path d="M35.625 0h-30A5.625 5.625 0 0 0 0 5.625v18.75A5.625 5.625 0 0 0 5.625 30h7.5v3.75h-3.75a1.875 1.875 0 0 0 0 3.75h22.5a1.875 1.875 0 0 0 0-3.75h-3.75V30h7.5a5.625 5.625 0 0 0 5.625-5.625V5.625A5.625 5.625 0 0 0 35.625 0zm-11.25 33.75h-7.5V30h7.5zM37.5 24.375a1.875 1.875 0 0 1-1.875 1.875h-30a1.875 1.875 0 0 1-1.875-1.875V5.625A1.875 1.875 0 0 1 5.625 3.75h30A1.875 1.875 0 0 1 37.5 5.625z" data-name="Path 178"/>
    </g>
</svg>
