<svg xmlns="http://www.w3.org/2000/svg" width="32.083" height="32.083" viewBox="0 0 32.083 32.083">
    <g data-name="Vrstva 7">
        <g data-name="Vrstva 345">
            <g data-name="Vrstva 346">
                <path d="M16.042 0a16.042 16.042 0 1 0 16.041 16.042A16.042 16.042 0 0 0 16.042 0zm0 29.167a13.125 13.125 0 1 1 13.125-13.125 13.125 13.125 0 0 1-13.125 13.125z" data-name="Path 263"/>
                <path d="M20.416 20.417h-8.75a1.458 1.458 0 1 0 0 2.917h8.75a1.458 1.458 0 0 0 0-2.917z" data-name="Path 264"/>
                <path d="M10.85 13.125h.175a.787.787 0 0 1 .729.51 1.463 1.463 0 1 0 2.742-1.021 3.719 3.719 0 0 0-3.471-2.406h-.175a3.719 3.719 0 0 0-3.471 2.406 1.463 1.463 0 1 0 2.742 1.021.788.788 0 0 1 .729-.51z" data-name="Path 265"/>
                <path d="M21.233 10.208h-.175a3.719 3.719 0 0 0-3.471 2.406 1.463 1.463 0 1 0 2.742 1.021.788.788 0 0 1 .729-.51h.175a.787.787 0 0 1 .729.51 1.463 1.463 0 0 0 2.742-1.021 3.719 3.719 0 0 0-3.471-2.406z" data-name="Path 266"/>
            </g>
        </g>
    </g>
</svg>
