<svg xmlns="http://www.w3.org/2000/svg" width="50" height="63" viewBox="0 0 50 63">
  <g id="rosette_ico_grey" transform="translate(-1040 -1961)">
    <circle id="Ellipse_41" data-name="Ellipse 41" cx="24" cy="24" r="24" transform="translate(1042 1961)" fill="#fff"/>
    <text id="_2" data-name="2" transform="translate(1065 1996)" fill="#acbacc" font-size="30" font-family="Asap-Bold, Asap" font-weight="700"><tspan x="-8.025" y="0">2</tspan></text>
    <path id="Path_3662" data-name="Path 3662" d="M103.827,24.837a24.837,24.837,0,1,0-38.769,20.55v15.8a1.817,1.817,0,0,0,2.563,1.657l11.37-5.116L90.36,62.84a1.817,1.817,0,0,0,2.563-1.657v-15.8A24.83,24.83,0,0,0,103.827,24.837Zm-14.538,22.6V58.372l-9.552-4.3a1.817,1.817,0,0,0-1.491,0l-9.552,4.3V47.441A24.742,24.742,0,0,0,71.5,48.517l.163.052c.122.038.244.074.367.109l.272.079.3.08q.173.047.348.09l.247.06q.2.048.4.093l.21.046q.221.047.444.09l.181.035q.236.044.473.083l.163.027q.245.039.492.073l.153.021c.166.022.334.042.5.061l.15.017c.167.018.335.033.5.047l.153.014c.165.013.332.024.5.033l.16.01c.168.009.337.015.506.02l.152.006q.328.009.658.009t.658-.009l.152-.006c.169-.005.338-.011.506-.02l.16-.01c.166-.01.333-.02.5-.033l.153-.014c.168-.014.336-.03.5-.047l.15-.017c.167-.019.335-.039.5-.061l.153-.021c.164-.023.328-.047.492-.073l.163-.027q.237-.039.473-.083l.181-.035q.223-.043.444-.09l.21-.046q.2-.045.4-.093l.247-.06q.175-.044.348-.09l.3-.08.272-.079c.122-.036.245-.072.367-.109l.163-.052A24.719,24.719,0,0,0,89.289,47.441Zm-3.379-2.563-.218.074q-.166.055-.333.108-.194.061-.39.118l-.276.08q-.259.072-.519.138l-.195.048q-.255.062-.512.117l-.129.028q-.331.069-.665.128l-.068.011q-.3.052-.6.095l-.136.019c-.215.029-.43.056-.646.079l-.024,0q-.339.035-.68.059l-.148.009q-.265.017-.53.028l-.181.007c-.222.007-.445.011-.668.011s-.446,0-.668-.012l-.181-.007q-.266-.011-.53-.028l-.148-.009q-.341-.024-.68-.059l-.024,0c-.216-.023-.431-.049-.646-.079l-.136-.019q-.3-.043-.6-.095l-.068-.011q-.334-.059-.665-.128l-.129-.028q-.257-.055-.512-.117l-.195-.048q-.26-.065-.519-.138l-.276-.08q-.2-.057-.39-.118-.167-.053-.333-.108l-.218-.074a21.2,21.2,0,1,1,13.838,0Z" transform="translate(985.846 1961)" fill="#acbacc"/>
  </g>
</svg>
