<?xml version="1.0" encoding="UTF-8" standalone="no"?><!DOCTYPE svg PUBLIC "-//W3C//DTD SVG 1.1//EN" "http://www.w3.org/Graphics/SVG/1.1/DTD/svg11.dtd"><svg width="100%" height="100%" viewBox="0 0 50 63" version="1.1" xmlns="http://www.w3.org/2000/svg" xmlns:xlink="http://www.w3.org/1999/xlink" xml:space="preserve" xmlns:serif="http://www.serif.com/" style="fill-rule:evenodd;clip-rule:evenodd;stroke-linejoin:round;stroke-miterlimit:2;">
<g id="rosette_ico_grey"><circle id="Ellipse_41" cx="26" cy="24" r="24" style="fill:#fff;"/><path id="2" d="M24.745,13.76c-2.82,0 -5.97,0.99 -5.97,2.76c-0,0.78 0.78,2.07 1.71,2.07c0.54,0 1.59,-1.29 3.51,-1.29c1.59,0 2.79,0.81 2.79,2.43c-0,1.11 -0.48,2.07 -1.14,2.88l-7.59,9.3c-0.06,0.09 -0.09,0.24 -0.09,0.45c-0,0.87 0.39,2.64 0.84,2.64l11.94,0c0.63,0 0.9,-0.45 0.9,-1.5l-0,-0.51c-0,-1.05 -0.27,-1.5 -0.9,-1.5l-6.93,-0l5.64,-6.96c1.08,-1.32 1.83,-2.97 1.83,-4.89c-0,-3.42 -2.31,-5.88 -6.54,-5.88Z" style="fill:#acbacc;fill-rule:nonzero;"/>
<path id="Path_3662" d="M49.673,24.837c0,-0.004 0,-0.008 0,-0.012c0,-13.625 -11.212,-24.837 -24.837,-24.837c-13.625,0 -24.837,11.212 -24.837,24.837c0,8.231 4.091,15.945 10.905,20.562l-0,15.8c-0,0.997 0.82,1.817 1.817,1.817c0.257,0 0.511,-0.054 0.746,-0.16l11.37,-5.116l11.369,5.112c0.235,0.106 0.489,0.16 0.746,0.16c0.997,0 1.817,-0.82 1.817,-1.817l0,-15.8c6.81,-4.613 10.9,-12.321 10.904,-20.546Zm-14.538,22.6l0,10.935l-9.552,-4.3c-0.474,-0.213 -1.017,-0.213 -1.491,0l-9.552,4.3l-0,-10.931c0.913,0.415 1.85,0.775 2.806,1.076l0.163,0.052c0.122,0.038 0.244,0.074 0.367,0.109l0.272,0.079l0.3,0.08c0.115,0.031 0.231,0.061 0.348,0.09l0.247,0.06c0.133,0.032 0.267,0.063 0.4,0.093l0.21,0.046c0.147,0.031 0.295,0.061 0.444,0.09l0.181,0.035c0.157,0.029 0.315,0.057 0.473,0.083l0.163,0.027c0.163,0.026 0.327,0.05 0.492,0.073l0.153,0.021c0.166,0.022 0.334,0.042 0.5,0.061l0.15,0.017c0.167,0.018 0.335,0.033 0.5,0.047l0.153,0.014c0.165,0.013 0.332,0.024 0.5,0.033l0.16,0.01c0.168,0.009 0.337,0.015 0.506,0.02l0.152,0.006c0.219,0.006 0.438,0.009 0.658,0.009c0.22,0 0.439,-0.003 0.658,-0.009l0.152,-0.006c0.169,-0.005 0.338,-0.011 0.506,-0.02l0.16,-0.01c0.166,-0.01 0.333,-0.02 0.5,-0.033l0.153,-0.014c0.168,-0.014 0.336,-0.03 0.5,-0.047l0.15,-0.017c0.167,-0.019 0.335,-0.039 0.5,-0.061l0.153,-0.021c0.164,-0.023 0.328,-0.047 0.492,-0.073l0.163,-0.027c0.158,-0.026 0.316,-0.054 0.473,-0.083l0.181,-0.035c0.149,-0.029 0.297,-0.059 0.444,-0.09l0.21,-0.046c0.133,-0.03 0.267,-0.061 0.4,-0.093l0.247,-0.06c0.117,-0.029 0.233,-0.059 0.348,-0.09l0.3,-0.08l0.272,-0.079c0.122,-0.036 0.245,-0.072 0.367,-0.109l0.163,-0.052c0.956,-0.301 1.893,-0.661 2.805,-1.076l0,-0.004Zm-3.379,-2.563l-0.218,0.074c-0.111,0.037 -0.222,0.073 -0.333,0.108c-0.129,0.041 -0.259,0.08 -0.39,0.118l-0.276,0.08c-0.173,0.048 -0.346,0.094 -0.519,0.138l-0.195,0.048c-0.17,0.041 -0.341,0.08 -0.512,0.117l-0.129,0.028c-0.221,0.046 -0.442,0.089 -0.665,0.128l-0.068,0.011c-0.2,0.035 -0.4,0.066 -0.6,0.095l-0.136,0.019c-0.215,0.029 -0.43,0.056 -0.646,0.079l-0.024,-0c-0.226,0.023 -0.453,0.043 -0.68,0.059l-0.148,0.009c-0.177,0.011 -0.353,0.021 -0.53,0.028l-0.181,0.007c-0.222,0.007 -0.445,0.011 -0.668,0.011c-0.223,-0 -0.446,-0 -0.668,-0.012l-0.181,-0.007c-0.177,-0.007 -0.354,-0.017 -0.53,-0.028l-0.148,-0.009c-0.227,-0.016 -0.454,-0.036 -0.68,-0.059l-0.024,-0c-0.216,-0.023 -0.431,-0.049 -0.646,-0.079l-0.136,-0.019c-0.2,-0.029 -0.4,-0.06 -0.6,-0.095l-0.068,-0.011c-0.223,-0.039 -0.444,-0.082 -0.665,-0.128l-0.129,-0.028c-0.171,-0.037 -0.342,-0.076 -0.512,-0.117l-0.195,-0.048c-0.173,-0.043 -0.346,-0.089 -0.519,-0.138l-0.276,-0.08c-0.133,-0.038 -0.263,-0.077 -0.39,-0.118c-0.111,-0.035 -0.222,-0.071 -0.333,-0.108l-0.218,-0.074c-8.525,-2.944 -14.281,-11.02 -14.281,-20.039c-0,-11.63 9.57,-21.2 21.2,-21.2c11.63,-0 21.2,9.57 21.2,21.2c0,9.019 -5.756,17.095 -14.281,20.039l-0.002,0.001Z" style="fill:#acbacc;fill-rule:nonzero;"/></g></svg>
