<svg width="17" height="17" viewBox="0 0 11 11" xmlns="http://www.w3.org/2000/svg" fill-rule="evenodd" clip-rule="evenodd" stroke-linejoin="round" stroke-miterlimit="1.414"><path d="M4.739.367A.548.548 0 0 1 5.25 0c.227 0 .43.146.511.367l1.113 3.039 3.107.168c.227.013.422.17.492.395a.59.59 0 0 1-.176.622L7.878 6.637l.807 3.142a.588.588 0 0 1-.207.612.529.529 0 0 1-.62.017L5.25 8.634l-2.608 1.774a.529.529 0 0 1-.62-.017.588.588 0 0 1-.207-.612l.807-3.142L.203 4.591c-.176-.149-.246-.397-.176-.622a.553.553 0 0 1 .492-.395l3.107-.168L4.739.367z" fill="#0394a6"/></svg>