<svg xmlns="http://www.w3.org/2000/svg" width="46.175" height="30" viewBox="0 0 46.175 30">
  <g id="subs_cal_ico" transform="translate(10.49 -52.43)">
    <path id="Path_3663" data-name="Path 3663" d="M16.058,54.462a1.219,1.219,0,0,0,0,1.721A12.363,12.363,0,0,1,19.7,64.976a1.216,1.216,0,0,0,2.432,0,14.775,14.775,0,0,0-4.353-10.514A1.22,1.22,0,0,0,16.058,54.462Z" transform="translate(8.003 0.512)"/>
    <path id="Path_3664" data-name="Path 3664" d="M25.387,68.595V65.286a8.613,8.613,0,0,0-7.417-8.548V54.308a1.217,1.217,0,0,0-2.434,0v1.513c-.522-.031-1.024-.05-1.221-.05H-2.657v-1.3a1.305,1.305,0,0,0-1.306-1.306,1.306,1.306,0,0,0-1.306,1.306v1.3H-6.573a3.917,3.917,0,0,0-3.917,3.917V75.355a3.917,3.917,0,0,0,3.917,3.917H12.348a4.769,4.769,0,0,0,9.024-.6h5.173a2.4,2.4,0,0,0,1.55-4.239A7.633,7.633,0,0,1,25.387,68.595ZM-7.879,59.688a1.305,1.305,0,0,1,1.306-1.306H11.571a8.611,8.611,0,0,0-2.31,2.611H-7.879ZM-6.573,76.66a1.306,1.306,0,0,1-1.306-1.306V63.6H8.287a8.7,8.7,0,0,0-.167,1.682v3.308A7.643,7.643,0,0,1,5.4,74.44a2.4,2.4,0,0,0-.841,1.825,2.322,2.322,0,0,0,.04.4Zm23.326,3.135a2.322,2.322,0,0,1-1.573-.627,2.37,2.37,0,0,1-.418-.5h3.982A2.34,2.34,0,0,1,16.753,79.795Zm1.366-3.539-2.87.008-8.267.022a10.052,10.052,0,0,0,3.569-7.691V65.286a6.117,6.117,0,0,1,.261-1.682,6.188,6.188,0,0,1,12.142,1.682v3.308a10,10,0,0,0,3.525,7.64Z" transform="translate(0 0.202)"/>
    <path id="Path_3665" data-name="Path 3665" d="M22.03,52.786a1.217,1.217,0,0,0-1.721,1.721A12.355,12.355,0,0,1,23.95,63.3a1.216,1.216,0,1,0,2.432,0A14.766,14.766,0,0,0,22.03,52.786Z" transform="translate(9.303 0)"/>
  </g>
</svg>
