<svg xmlns="http://www.w3.org/2000/svg" width="70.888" height="54.5" viewBox="0 0 70.888 54.5">
    <defs>
        <style>
            .cls-1{stroke:#000;stroke-width:.5px}
        </style>
    </defs>
    <g id="talk_doodle" transform="translate(.242 .25)">
        <g id="Group_2872" data-name="Group 2872">
            <g id="Group_2871" data-name="Group 2871">
                <path id="Path_2169" d="M4.77 35.878a114.317 114.317 0 0 1-2.615-18.5 90.769 90.769 0 0 1-.191-9.313 1 1 0 0 1 .255-.829 1.374 1.374 0 0 1 .7-.128c.7-.128 1.531-.191 2.3-.319 1.595-.191 3.126-.383 4.721-.51C22.5 4.876 35.07 3.536 47.7 2.707c7.208-.51 14.353-.765 21.5-.829l-.958-.957c.191 5.358.255 10.717.128 16.012-.064 2.679-.191 5.358-.319 8.038-.064 1.276-.128 2.615-.255 3.891a3.562 3.562 0 0 1-.191 1.4c-.255.447-1.084.383-1.467.447a118.877 118.877 0 0 1-15.82.638c-2.233-.064-4.976-.574-7.017.638-1.914 1.084-2.871 3.317-3.891 5.167a114.7 114.7 0 0 0-6.889 15.693h1.85c-.638-2.807-1.34-5.614-1.978-8.42-.319-1.4-.638-2.871-1.021-4.274a9.933 9.933 0 0 0-1.084-3c-1.4-2.169-4.019-1.914-6.315-1.978-5.167 0-10.334 0-15.437-.064H3.749a.958.958 0 0 0 0 1.914h18.946a22.132 22.132 0 0 1 4.593.128c1.276.319 1.722 1.4 2.041 2.552.383 1.467.7 2.871 1.021 4.338.7 3.062 1.4 6.124 2.169 9.186a.973.973 0 0 0 1.85 0 115.669 115.669 0 0 1 6.124-14.162c.574-1.084 1.084-2.105 1.722-3.126a6.113 6.113 0 0 1 2.041-2.36 5.657 5.657 0 0 1 3.253-.447c1.34.064 2.679.128 4.083.128 2.679.064 5.358 0 7.974-.191a54.4 54.4 0 0 0 7.91-.7c2.552-.51 2.233-3.317 2.36-5.295.191-2.679.319-5.358.383-7.974.191-6.06.191-12.184-.064-18.244A.981.981 0 0 0 69.2-.1C55.994.091 42.789.984 29.584 2.26 22.95 2.9 16.379 3.6 9.745 4.365c-1.595.191-3.253.383-4.848.574-1.212.128-3.062 0-4.083.893-1.084.894-.829 2.616-.829 3.892 0 1.595 0 3.19.064 4.784A124.568 124.568 0 0 0 2.92 36.325c.255 1.212 2.105.701 1.85-.447z" class="cls-1" data-name="Path 2169" transform="translate(.041 .1)"/>
            </g>
        </g>
        <g id="Group_2874" data-name="Group 2874" transform="translate(13.293 19.265)">
            <g id="Group_2873" data-name="Group 2873">
                <path id="Path_2170" d="M23.669 35.841a2.9 2.9 0 0 0 2.871-2.871 2.943 2.943 0 0 0-2.871-2.87 2.9 2.9 0 0 0-2.869 2.871 2.943 2.943 0 0 0 2.871 2.871z" data-name="Path 2170" transform="translate(-20.797 -30.1)"/>
            </g>
        </g>
        <g id="Group_2876" data-name="Group 2876" transform="translate(27.773 19.265)">
            <g id="Group_2875" data-name="Group 2875">
                <path id="Path_2171" d="M46.369 35.841a2.9 2.9 0 0 0 2.871-2.871 2.943 2.943 0 0 0-2.871-2.87 2.9 2.9 0 0 0-2.869 2.871 2.943 2.943 0 0 0 2.871 2.871z" data-name="Path 2171" transform="translate(-43.497 -30.1)"/>
            </g>
        </g>
        <g id="Group_2878" data-name="Group 2878" transform="translate(45.954 15.629)">
            <g id="Group_2877" data-name="Group 2877">
                <path id="Path_2172" d="M74.869 30.141a2.9 2.9 0 0 0 2.871-2.871 2.943 2.943 0 0 0-2.871-2.87A2.9 2.9 0 0 0 72 27.271a2.859 2.859 0 0 0 2.871 2.871z" data-name="Path 2172" transform="translate(-71.997 -24.4)"/>
            </g>
        </g>
    </g>
</svg>
