<svg xmlns="http://www.w3.org/2000/svg" id="trash_ico" width="46.184" height="45" viewBox="0 0 46.184 45">
    <defs>
        <style>
            .cls-2{fill-rule:evenodd}
        </style>
    </defs>
    <path id="Rectangle_56" fill="none" d="M0 0H46.184V45H0z" data-name="Rectangle 56"/>
    <g id="Layer" transform="translate(3.863 1.902)">
        <g id="Vrstva_104" data-name="Vrstva 104">
            <path id="Path_115" d="M8.59 24.045a1.757 1.757 0 0 0 2.357.38l4.481-4.431 4.481 4.431a1.757 1.757 0 0 0 2.357-.38 1.694 1.694 0 0 0 .386-2.32l-4.5-4.412 4.5-4.412a1.694 1.694 0 0 0-.386-2.32 1.757 1.757 0 0 0-2.357-.38l-4.481 4.431-4.481-4.432a1.757 1.757 0 0 0-2.357.38 1.694 1.694 0 0 0-.39 2.32l4.5 4.412-4.5 4.413a1.694 1.694 0 0 0 .386 2.32z" class="cls-2" data-name="Path 115" transform="translate(3.502 7.032)"/>
            <path id="Path_116" d="M38.314 1h-34A2.3 2.3 0 0 0 2 3.282v6.847a2.3 2.3 0 0 0 2.318 2.282h1.545v24.725a5.751 5.751 0 0 0 5.795 5.706h19.316a5.751 5.751 0 0 0 5.795-5.706V12.411h1.545a2.3 2.3 0 0 0 2.318-2.282V3.282A2.3 2.3 0 0 0 38.314 1zm-5.408 36.136a1.917 1.917 0 0 1-1.932 1.9H11.658a1.917 1.917 0 0 1-1.932-1.9V12.411h23.18zm3.863-28.528H5.863V4.8h30.906z" class="cls-2" data-name="Path 116" transform="translate(-2 -1)"/>
        </g>
    </g>
</svg>
