<svg xmlns="http://www.w3.org/2000/svg" width="45" height="45" viewBox="0 0 45 45">
  <g id="Group_3378" data-name="Group 3378" transform="translate(-485.572 -661.968)">
    <path id="Path_3314" data-name="Path 3314" d="M525.455,678.239c-1.334,0-2.691.745-4.422,1.694-2,1.1-4.479,2.46-6.932,2.46a7.69,7.69,0,0,1-5.06-1.932,10.775,10.775,0,1,0-17.865-10.736h-3.871a1.737,1.737,0,0,0-1.734,1.736,6.929,6.929,0,0,0,6.749,6.9c.126.209.26.413.4.613a15.339,15.339,0,0,0-.258,22.2,21.066,21.066,0,0,0,14.6,5.8h.185a31.648,31.648,0,0,0,11.114-1.9c7.675-2.96,12.238-9.512,12.205-17.523C530.547,682.24,528.349,678.239,525.455,678.239Zm-29.261,2.391a1.731,1.731,0,0,0,.218-2.658,7.32,7.32,0,0,1,5.115-12.536,7.3,7.3,0,0,1,4.224,13.266,1.727,1.727,0,0,0-.653,1.917c.754,2.479,4.634,5.243,9,5.243,3.341,0,6.259-1.6,8.617-2.9A13.028,13.028,0,0,1,525.4,681.7c.344.143,1.694,2.047,1.707,5.866.033,7.623-5.172,15.812-19.879,15.938h-.15a17.56,17.56,0,0,1-12.168-4.791,11.859,11.859,0,0,1,1.288-18.08Zm-5.309-6.126a3.45,3.45,0,0,1-1.376-1.31h1.244A11.281,11.281,0,0,0,490.885,674.5Z" transform="translate(0)"/>
    <ellipse id="Ellipse_13" data-name="Ellipse 13" cx="1.734" cy="1.734" rx="1.734" ry="1.734" transform="translate(495.913 669.725)"/>
    <path id="Path_3315" data-name="Path 3315" d="M494.474,685.107a11.738,11.738,0,0,0,6.447,1.8c3.97,0,7.444-1.716,8.851-4.374a1.737,1.737,0,0,0,.117-1.339,1.711,1.711,0,0,0-.878-1.021l-.335-.17.335-.17a1.723,1.723,0,0,0,.878-1.019,1.742,1.742,0,0,0-.117-1.341c-1.407-2.658-4.881-4.374-8.851-4.374a11.732,11.732,0,0,0-6.447,1.807,5.795,5.795,0,0,0,0,10.2Zm9.55-6.651a1.735,1.735,0,0,0,0,3.1l1.381.688a8.514,8.514,0,0,1-4.484,1.2c-3.207,0-6.019-1.606-6.019-3.437s2.812-3.437,6.019-3.437a8.495,8.495,0,0,1,4.484,1.2Z" transform="translate(7.066 13.428)"/>
  </g>
</svg>
