<svg xmlns="http://www.w3.org/2000/svg" xmlns:xlink="http://www.w3.org/1999/xlink" width="164" height="111.696" viewBox="0 0 164 111.696"><defs><clipPath id="a"><rect width="164" height="111.696" fill="none"/></clipPath></defs><g clip-path="url(#a)"><path d="M2.532,5.455A5.837,5.837,0,0,1,1.624,6.6a2.9,2.9,0,0,1-1.091.27c.079-.38.031-.857.261-1.121.6-.687,1.326-1.271,1.981-1.915a1.032,1.032,0,0,1,1.559-.059A23.76,23.76,0,0,1,6.44,5.88c.184.213.086.644.117.974a2.667,2.667,0,0,1-1.012-.166,8.9,8.9,0,0,1-1.2-1.175,9.13,9.13,0,0,0-.1.94c.274,17.215.512,34.43.859,51.643.1,4.791.52,9.577.79,14.365.039.705.064,1.411.082,2.117.1,4.01.294,8.019.273,12.028-.026,4.976-.209,9.951-.365,14.925-.074,2.372-.242,4.742-.378,7.322l156.278.633.093-.373a13.3,13.3,0,0,1-1.222-1.432,2.883,2.883,0,0,1-.2-1.06c.367.077.858.039,1.079.25a23.136,23.136,0,0,1,2.317,2.529,1.108,1.108,0,0,1-.022,1.122,27.676,27.676,0,0,1-2.853,2.338c-.223.162-.679.038-1.029.046.092-.323.089-.722.3-.952a15.983,15.983,0,0,1,1.611-1.357c-.9,0-1.539,0-2.182,0q-44.1-.1-88.192-.213c-22.018-.077-44.036-.24-66.054-.333-1.036,0-1.163-.415-1.123-1.214.282-5.681.6-11.361.775-17.045.074-2.334-.186-4.676-.244-7.015C4.742,80.95,4.753,77.12,4.6,73.295c-.177-4.455-.62-8.9-.7-13.359-.171-9.592-.107-19.188-.283-28.78-.155-8.475-.5-16.946-.767-25.42l-.32-.282" transform="translate(-0.23 -1.484)" fill="#161615"/><path d="M2.532,5.455A5.837,5.837,0,0,1,1.624,6.6a2.9,2.9,0,0,1-1.091.27c.079-.38.031-.857.261-1.121.6-.687,1.326-1.271,1.981-1.915a1.032,1.032,0,0,1,1.559-.059A23.76,23.76,0,0,1,6.44,5.88c.184.213.086.644.117.974a2.667,2.667,0,0,1-1.012-.166,8.9,8.9,0,0,1-1.2-1.175,9.13,9.13,0,0,0-.1.94c.274,17.215.512,34.43.859,51.643.1,4.791.52,9.577.79,14.365.039.705.064,1.411.082,2.117.1,4.01.294,8.019.273,12.028-.026,4.976-.209,9.951-.365,14.925-.074,2.372-.242,4.742-.378,7.322l156.278.633.093-.373a13.3,13.3,0,0,1-1.222-1.432,2.883,2.883,0,0,1-.2-1.06c.367.077.858.039,1.079.25a23.136,23.136,0,0,1,2.317,2.529,1.108,1.108,0,0,1-.022,1.122,27.676,27.676,0,0,1-2.853,2.338c-.223.162-.679.038-1.029.046.092-.323.089-.722.3-.952a15.983,15.983,0,0,1,1.611-1.357c-.9,0-1.539,0-2.182,0q-44.1-.1-88.192-.213c-22.018-.077-44.036-.24-66.054-.333-1.036,0-1.163-.415-1.123-1.214.282-5.681.6-11.361.775-17.045.074-2.334-.186-4.676-.244-7.015C4.742,80.95,4.753,77.12,4.6,73.295c-.177-4.455-.62-8.9-.7-13.359-.171-9.592-.107-19.188-.283-28.78-.155-8.475-.5-16.946-.767-25.42Z" transform="translate(-0.23 -1.484)" fill="none" stroke="#040506" stroke-miterlimit="10" stroke-width="0.827"/><path d="M156.114,111.234c-.233,1.34-.754,1.967-1.715,2.029a1.494,1.494,0,0,1-1.66-1.524A1.474,1.474,0,0,1,154.3,110c.628.036,1.214.8,1.819,1.235" transform="translate(-65.819 -47.402)" fill="#161615"/><path d="M156.133,56.948a6.6,6.6,0,0,1-1.757,1.352c-.81.264-1.672-.724-1.651-1.661a1.477,1.477,0,0,1,1.567-1.608c.642.061,1.218.808,1.823,1.249l.017.668" transform="translate(-65.816 -23.712)" fill="#161615"/><path d="M29.239,166.565a1.506,1.506,0,0,1-1.636,1.642,1.5,1.5,0,0,1-1.736-1.482,1.465,1.465,0,0,1,1.646-1.551,1.5,1.5,0,0,1,1.726,1.391" transform="translate(-11.147 -71.181)" fill="#161615"/><path d="M152.281,166.311c.6-.46,1.156-1.209,1.812-1.31.888-.136,1.583.472,1.585,1.551,0,1.03-.554,1.737-1.5,1.616-.666-.086-1.256-.774-1.88-1.192,0-.222-.01-.443-.014-.665" transform="translate(-65.625 -71.098)" fill="#161615"/><path d="M27.2,58.548c-.443-.6-1.191-1.172-1.257-1.812-.1-.954.687-1.462,1.7-1.431s1.63.487,1.611,1.541c-.019,1.091-.763,1.411-2.05,1.7" transform="translate(-11.177 -23.833)" fill="#161615"/><path d="M27.249,113.523c-.462-.6-1.228-1.151-1.316-1.8-.127-.945.626-1.5,1.65-1.485,1,.015,1.645.447,1.661,1.5.017,1.093-.728,1.431-2,1.78" transform="translate(-11.17 -47.508)" fill="#161615"/><path d="M156.118,2.085c-.608.435-1.185,1.164-1.832,1.234-.894.1-1.529-.606-1.556-1.613-.025-.936.857-1.931,1.654-1.66a6.684,6.684,0,0,1,1.751,1.373c-.006.222-.011.444-.016.666" transform="translate(-65.818 0)" fill="#161615"/><path d="M29.245,1.661a1.492,1.492,0,0,1-1.629,1.68c-.994.028-1.708-.442-1.741-1.439S26.5.382,27.511.363c.99-.019,1.616.4,1.734,1.3" transform="translate(-11.15 -0.156)" fill="#161615"/><path d="M217.376,113.535c-.475-.584-1.247-1.12-1.355-1.766-.157-.939.559-1.522,1.594-1.526,1,0,1.658.4,1.7,1.455.044,1.082-.674,1.459-1.94,1.837" transform="translate(-93.084 -47.508)" fill="#161615"/><path d="M218.024,165.181a1.351,1.351,0,0,1,1.279,1.539c-.014,1.066-.754,1.5-1.7,1.486a1.472,1.472,0,0,1-1.64-1.562c.035-1,.7-1.492,2.057-1.463" transform="translate(-93.07 -71.184)" fill="#161615"/><path d="M217.347,58.563c-.461-.586-1.218-1.126-1.316-1.766-.145-.954.6-1.5,1.62-1.491,1,0,1.65.419,1.671,1.476.021,1.082-.678,1.461-1.975,1.782" transform="translate(-93.09 -23.833)" fill="#161615"/><path d="M219.318,1.793a1.446,1.446,0,0,1-1.62,1.55c-.994.024-1.7-.434-1.723-1.443S216.581.376,217.6.364c.984-.01,1.63.379,1.719,1.429" transform="translate(-93.073 -0.157)" fill="#161615"/><path d="M280.712,168.826c-.656-1-1.316-1.571-1.377-2.2-.1-1,.689-1.49,1.687-1.433,1.039.059,1.674.71,1.408,1.673-.169.615-.908,1.073-1.719,1.959" transform="translate(-120.375 -71.188)" fill="#161615"/><path d="M92.466,2.291a4.794,4.794,0,0,1-1.567,1,1.316,1.316,0,0,1-1.688-1.4A1.367,1.367,0,0,1,90.7.382c1-.048,1.614.4,1.769,1.909" transform="translate(-38.445 -0.163)" fill="#161615"/><path d="M281.3,113.314c-1.4-.155-2.1-.579-2.039-1.642a1.428,1.428,0,0,1,1.61-1.416c1.036,0,1.728.574,1.546,1.554-.116.621-.821,1.131-1.116,1.505" transform="translate(-120.343 -47.514)" fill="#161615"/><path d="M92.462,167.134c-.4.278-.946.921-1.578,1.026a1.361,1.361,0,0,1-1.676-1.45,1.4,1.4,0,0,1,1.5-1.518c1.01-.048,1.6.444,1.752,1.942" transform="translate(-38.444 -71.187)" fill="#161615"/><path d="M92.46,112.183c-.394.273-.928.9-1.559,1.019a1.343,1.343,0,0,1-1.693-1.414,1.386,1.386,0,0,1,1.484-1.528c1.007-.054,1.613.406,1.768,1.923" transform="translate(-38.444 -47.514)" fill="#161615"/><path d="M92.453,57.247a4.617,4.617,0,0,1-1.556,1,1.325,1.325,0,0,1-1.686-1.406A1.373,1.373,0,0,1,90.7,55.325c1.006-.047,1.616.4,1.754,1.922" transform="translate(-38.445 -23.841)" fill="#161615"/><path d="M280.834,3.993c-.728-.969-1.415-1.489-1.516-2.1-.164-1.007.593-1.511,1.593-1.506,1.027.006,1.72.579,1.517,1.568-.125.611-.829,1.1-1.593,2.043" transform="translate(-120.361 -0.165)" fill="#161615"/><path d="M281.364,58.331c-1.443-.089-2.133-.506-2.107-1.565a1.407,1.407,0,0,1,1.571-1.447c1.022-.021,1.747.508,1.585,1.507-.1.617-.779,1.14-1.049,1.5" transform="translate(-120.345 -23.84)" fill="#161615"/><path d="M123.594,63.729a4.923,4.923,0,0,0,1.1,1.1s2.014.915,2.746-.55,1.278-5.463,1.1-13.732c-.052-2.387-1.465-4.761-1.465-8.24s1.719-6.957,1.5-11.717.073-16.113.019-18.493-.6-2.93-3.717-2.93-3.479,1.282-3.479,4.212-.183,13,0,17.027,1.831,8.423,1.831,11.535-.895,6.042-.814,9.7S121.946,61.531,123.594,63.729Z" transform="translate(-52.281 -3.95)" fill="none" stroke="#040506" stroke-linecap="round" stroke-linejoin="round" stroke-width="2.226"/><path d="M130.463,107.384s-.525,14.364-.341,18.758a68.342,68.342,0,0,1-.342,9.062h-.484V107.965" transform="translate(-55.719 -46.277)" fill="none" stroke="#040506" stroke-linecap="round" stroke-linejoin="round" stroke-width="2.226"/><path d="M64,55.564c0-3.519.587-8.211,0-11s-1.038-2.786-2.938-2.932S57.4,45.154,57.4,48.6s.44,10.922,1.026,15.467,1.027,9.97.587,11.876.407,2.785,1.816,2.639,2.875-.44,2.436-3.226a68.4,68.4,0,0,1,.146-13.341C63.854,57.762,64,55.564,64,55.564Z" transform="translate(-24.738 -17.941)" fill="none" stroke="#040506" stroke-linecap="round" stroke-linejoin="round" stroke-width="2.226"/><path d="M63.391,106.58s.293,10.347,0,13.742,0,9.847,0,9.847l.733,2.053v2.786H60.752v-2.786l1.523-2.053-.644-9.847.644-13.757" transform="translate(-26.181 -45.924)" fill="none" stroke="#040506" stroke-linecap="round" stroke-linejoin="round" stroke-width="2.226"/><line x1="6.8" transform="translate(32.724 29.559)" fill="none" stroke="#040506" stroke-linecap="round" stroke-linejoin="round" stroke-width="2.226"/><path d="M175.438,95.739a26.707,26.707,0,0,0,5.718.741c1.906,0,5.132-.439,5.572-1.466s0-3.958,0-3.958a5,5,0,0,1-1.76-3.225,5.883,5.883,0,0,1,.44-2.577s-.978-1.528-4.227-1.528-4.569.88-4.569.88a23.369,23.369,0,0,1,.293,3.226,6.48,6.48,0,0,1-1.466,3.225S174.355,95.429,175.438,95.739Z" transform="translate(-75.397 -36.081)" fill="none" stroke="#040506" stroke-linecap="round" stroke-linejoin="round" stroke-width="2.226"/><path d="M182.423,106.14v15.436c0,5.09.293,12.714,0,14.62s-1.466,3.813-1.466,5.425,1.873,5.278,1.6,6.3a7.443,7.443,0,0,0,.028,2.639h2.188a6.025,6.025,0,0,1,0-2.932c.44-1.173,1.906-4.985,1.466-6.3s-1.906-3.812-1.906-5.132-.147-11.5,0-14.62.293-15.436.293-15.436" transform="translate(-77.983 -45.741)" fill="none" stroke="#040506" stroke-linecap="round" stroke-linejoin="round" stroke-width="2.226"/><path d="M176.527,57.18s-1.55-2.786-1.655-9.383-.188-16.421,0-19.353.628-6.6,1.655-7.184a9.684,9.684,0,0,1,4.328-1.173c1.536,0,5.739.147,5.984,1.76s.049,6.744,0,12.315.635,11.289,0,14.955-1.515,8.713-1.515,8.713" transform="translate(-75.312 -8.656)" fill="none" stroke="#040506" stroke-linecap="round" stroke-linejoin="round" stroke-width="2.226"/><path d="M181.665,59.359h3.519s-.294-10.556,0-12.9,1.189-9.97,1.107-11.289-1.687-2.2-2.79-2.2-2.863.88-2.569,3.812,1.173,8.305.733,12A79.143,79.143,0,0,0,181.665,59.359Z" transform="translate(-77.958 -14.208)" fill="none" stroke="#040506" stroke-linecap="round" stroke-linejoin="round" stroke-width="2.226"/><path d="M239.433,95.739a26.7,26.7,0,0,0,5.718.741c1.906,0,5.131-.439,5.571-1.466s0-3.958,0-3.958a5,5,0,0,1-1.759-3.225,5.883,5.883,0,0,1,.44-2.577s-.978-1.528-4.227-1.528-4.57.88-4.57.88a23.368,23.368,0,0,1,.293,3.226,6.481,6.481,0,0,1-1.466,3.225S238.35,95.429,239.433,95.739Z" transform="translate(-102.975 -36.081)" fill="none" stroke="#040506" stroke-linecap="round" stroke-linejoin="round" stroke-width="2.226"/><path d="M246.417,106.14v12.438c0,4.1.293,10.244,0,11.781s-1.466,3.071-1.466,4.371,1.873,4.253,1.6,5.08a4.856,4.856,0,0,0,.028,2.126h2.187a3.948,3.948,0,0,1,0-2.363c.44-.945,1.906-4.016,1.466-5.08s-1.906-3.071-1.906-4.134-.147-9.266,0-11.781.293-12.438.293-12.438" transform="translate(-105.561 -45.741)" fill="none" stroke="#040506" stroke-linecap="round" stroke-linejoin="round" stroke-width="1.999"/><path d="M240.521,57.18s-1.549-2.786-1.654-9.383-.188-16.421,0-19.353.628-6.6,1.654-7.184a9.687,9.687,0,0,1,4.329-1.173c1.536,0,5.738.147,5.983,1.76s.049,6.744,0,12.315.635,11.289,0,14.955-1.515,8.713-1.515,8.713" transform="translate(-102.891 -8.656)" fill="none" stroke="#040506" stroke-linecap="round" stroke-linejoin="round" stroke-width="2.226"/><path d="M245.659,59.359h3.519s-.294-10.556,0-12.9,1.189-9.97,1.107-11.289-1.687-2.2-2.79-2.2-2.862.88-2.569,3.812,1.173,8.305.733,12A79.143,79.143,0,0,0,245.659,59.359Z" transform="translate(-105.536 -14.208)" fill="none" stroke="#040506" stroke-linecap="round" stroke-linejoin="round" stroke-width="2.226"/><path d="M175.9,115.776c3.53-.813,7.072-.282,10.613.164,1.087.137,1.077-1.572,0-1.707-3.718-.468-7.366-.956-11.066-.1-1.07.247-.617,1.893.454,1.647" transform="translate(-75.343 -48.983)" fill="#040506"/><path d="M175.9,121.459c3.53-.813,7.072-.281,10.613.165,1.087.137,1.077-1.572,0-1.707-3.718-.468-7.366-.956-11.066-.1-1.07.246-.617,1.893.454,1.646" transform="translate(-75.343 -51.432)" fill="#040506"/><path d="M241.076,115.776c3.53-.813,7.072-.282,10.613.164,1.087.137,1.077-1.572,0-1.707-3.718-.468-7.367-.956-11.067-.1-1.07.247-.617,1.893.454,1.647" transform="translate(-103.432 -48.983)" fill="#040506"/><path d="M241.076,121.459c3.53-.813,7.072-.281,10.613.165,1.087.137,1.077-1.572,0-1.707-3.718-.468-7.367-.956-11.067-.1-1.07.246-.617,1.893.454,1.646" transform="translate(-103.432 -51.432)" fill="#040506"/><path d="M117.918,115.776c3.53-.813,7.072-.282,10.613.164,1.087.137,1.077-1.572,0-1.707-3.718-.468-7.366-.956-11.066-.1-1.07.247-.617,1.893.454,1.647" transform="translate(-50.357 -48.983)" fill="#040506"/><path d="M117.918,121.459c3.53-.813,7.072-.281,10.613.165,1.087.137,1.077-1.572,0-1.707-3.718-.468-7.366-.956-11.066-.1-1.07.246-.617,1.893.454,1.646" transform="translate(-50.357 -51.432)" fill="#040506"/><path d="M52.74,115.776c3.53-.813,7.071-.282,10.612.164,1.087.137,1.078-1.572,0-1.707-3.718-.468-7.366-.956-11.066-.1-1.07.247-.617,1.893.454,1.647" transform="translate(-22.269 -48.983)" fill="#040506"/><path d="M52.74,121.459c3.53-.813,7.071-.281,10.612.165,1.087.137,1.078-1.572,0-1.707-3.718-.468-7.366-.956-11.066-.1-1.07.246-.617,1.893.454,1.646" transform="translate(-22.269 -51.432)" fill="#040506"/></g></svg>