<?xml version="1.0" encoding="utf-8"?>
<!-- Generator: Adobe Illustrator 16.0.0, SVG Export Plug-In . SVG Version: 6.00 Build 0)  -->
<!DOCTYPE svg PUBLIC "-//W3C//DTD SVG 1.1//EN" "http://www.w3.org/Graphics/SVG/1.1/DTD/svg11.dtd">
<svg version="1.1" id="Layer_1" xmlns="http://www.w3.org/2000/svg" xmlns:xlink="http://www.w3.org/1999/xlink" x="0px" y="0px"
	 width="128px" height="128px" viewBox="0 0 128 128" enable-background="new 0 0 128 128" xml:space="preserve">
<pattern  x="-72.5" y="-72.5" width="183.277" height="183.277" patternUnits="userSpaceOnUse" id="New_Pattern_Swatch_2" viewBox="0 -183.277 183.277 183.277" overflow="visible">
	<g>
		<polygon fill="none" points="0,0 183.277,0 183.277,-183.277 0,-183.277 		"/>
		<polygon fill="#0394A6" points="183.277,0 0,0 0,-183.277 183.277,-183.277 		"/>
	</g>
</pattern>
<pattern  x="-72.5" y="-72.5" width="183.277" height="183.277" patternUnits="userSpaceOnUse" id="New_Pattern_Swatch_3" viewBox="0 -183.277 183.277 183.277" overflow="visible">
	<g>
		<polygon fill="none" points="0,0 183.277,0 183.277,-183.277 0,-183.277 		"/>
		<polygon fill="#F9A33F" points="183.277,0 0,0 0,-183.277 183.277,-183.277 		"/>
	</g>
</pattern>
<g>
	<path fill="url(#New_Pattern_Swatch_2)" d="M125.085,2.915v122.17H2.915V2.915H125.085 M128,0H0v128h128V0L128,0z"/>
	<path fill="url(#New_Pattern_Swatch_2)" d="M110.959,38.039H109c-0.258,0-0.468,0.21-0.468,0.468v20.245
		c0,0.258,0.21,0.468,0.468,0.468h1.96c0.258,0,0.468-0.21,0.468-0.468V38.507C111.428,38.249,111.217,38.039,110.959,38.039z"/>
	<path fill="url(#New_Pattern_Swatch_2)" d="M90.706,37.102H10.793c-1.277,0-2.313,1.035-2.313,2.313v48.111
		c0,1.277,1.036,2.313,2.313,2.313h79.913c1.277,0,2.313-1.036,2.313-2.313V39.415C93.019,38.137,91.983,37.102,90.706,37.102z
		 M90.104,80.207c0,1.075-0.871,1.946-1.946,1.946H14.136c-1.074,0-1.945-0.871-1.945-1.946V43.288c0-1.075,0.871-1.946,1.945-1.946
		h74.021c1.075,0,1.946,0.871,1.946,1.946V80.207z"/>
	<rect x="40.812" y="91.429" fill="url(#New_Pattern_Swatch_3)" width="20.405" height="4.505"/>
	<rect x="25.441" y="97.524" fill="url(#New_Pattern_Swatch_3)" width="51.147" height="2.65"/>
	<g>
		<path fill="url(#New_Pattern_Swatch_2)" d="M109.894,84.533c-1.163,0-2.109,0.945-2.109,2.109c0,1.163,0.946,2.109,2.109,2.109
			c1.162,0,2.108-0.946,2.108-2.109C112.001,85.479,111.055,84.533,109.894,84.533z"/>
		<path fill="url(#New_Pattern_Swatch_2)" d="M116.509,27.562h-13.06c-1.663,0-3.011,1.347-3.011,3.01v66.857
			c0,1.663,1.348,3.01,3.011,3.01h13.06c1.663,0,3.01-1.347,3.01-3.01V30.571C119.52,28.909,118.172,27.562,116.509,27.562z
			 M107.594,38.507c0-0.776,0.63-1.405,1.405-1.405h1.96c0.776,0,1.405,0.629,1.405,1.405v20.245c0,0.776-0.629,1.405-1.405,1.405
			H109c-0.775,0-1.405-0.629-1.405-1.405V38.507z M109.894,89.835c-1.764,0-3.193-1.43-3.193-3.193c0-1.764,1.429-3.193,3.193-3.193
			c1.764,0,3.192,1.43,3.192,3.193C113.085,88.405,111.657,89.835,109.894,89.835z"/>
	</g>
	<path fill="url(#New_Pattern_Swatch_3)" d="M109.894,84.533c-1.163,0-2.109,0.945-2.109,2.109c0,1.163,0.946,2.109,2.109,2.109
		c1.162,0,2.108-0.946,2.108-2.109C112.001,85.479,111.055,84.533,109.894,84.533z"/>
	<path fill="url(#New_Pattern_Swatch_3)" d="M109,38.039c-0.258,0-0.468,0.21-0.468,0.468v20.245c0,0.258,0.21,0.468,0.468,0.468
		h1.96c0.258,0,0.468-0.21,0.468-0.468V38.507c0-0.258-0.21-0.468-0.468-0.468H109z"/>
</g>
</svg>
