<?xml version="1.0" encoding="utf-8"?>
<!-- Generator: Adobe Illustrator 16.0.0, SVG Export Plug-In . SVG Version: 6.00 Build 0)  -->
<!DOCTYPE svg PUBLIC "-//W3C//DTD SVG 1.1//EN" "http://www.w3.org/Graphics/SVG/1.1/DTD/svg11.dtd">
<svg version="1.1" id="Layer_1" xmlns="http://www.w3.org/2000/svg" xmlns:xlink="http://www.w3.org/1999/xlink" x="0px" y="0px"
	 width="1318.521px" height="641.074px" viewBox="0 0 1318.521 641.074" enable-background="new 0 0 1318.521 641.074"
	 xml:space="preserve">
<circle cx="622.206" cy="274.227" r="9.842"/>
<path d="M622.203,233.71c26.092,0,47.243-21.153,47.243-47.243c0-26.086-21.151-47.237-47.243-47.237
	c-26.09,0-47.237,21.151-47.237,47.237C574.966,212.557,596.114,233.71,622.203,233.71z"/>
<circle cx="569.835" cy="319.388" r="24.603"/>
<path d="M117.301,398.069C117.274,398.067,117.927,398.147,117.301,398.069L117.301,398.069z"/>
<path d="M424.086,361.338C424.063,361.188,424.138,361.672,424.086,361.338L424.086,361.338z"/>
<path d="M294.259,397.194c0.459-0.004,0.988-0.01,1.604-0.014c15.505-0.154,30.983,0.994,46.483,0.994
	c4.075,0,8.153-0.082,12.224-0.295c2.143-0.111,4.281-0.263,6.418-0.457c0.666-0.063,1.937,0.164,2.15-0.576
	c0.289-0.992,0.567-1.99,0.851-2.986c1.649-5.887,3.448-11.711,5.448-17.487c1.404-4.063,2.495-8.24,3.154-12.492
	c0.343-2.231,0.572-4.485,0.572-6.743c-0.002-1.34,0.165-4.586-0.947-5.748c-0.904-0.944-3.438-1.051-4.683-1.363
	c-4.597-1.16-9.213-2.241-13.854-3.209c-7.691-1.604-15.451-2.899-23.257-3.796c-7.815-0.896-15.676-1.384-23.539-1.483
	c-2.146-0.028-4.294-0.028-6.438,0.003c-1.77,1.646-3.477,3.36-5.125,5.131c-2.955,3.172-5.72,6.522-8.292,10.018
	c-8.996,12.211-15.764,26.14-19.784,40.766c9.09-0.086,18.177-0.174,27.265-0.262C294.429,397.192,294.343,397.194,294.259,397.194z
	"/>
<path d="M438.761,406.879c1.646-0.425,3.291-0.849,4.934-1.273c16.711-4.311,33.421-8.621,50.13-12.932
	c10.157-2.619,20.313-5.24,30.472-7.863c-5.45-14.039-16.969-25.327-30.097-32.35c-3.154-1.686-6.438-3.138-9.818-4.308
	c-1.313-0.452-3.91-1.83-5.23-1.489c-1.795,0.465-3.589,0.926-5.381,1.389c-15.954,4.115-31.903,8.23-47.855,12.348
	c-0.693,0.18-1.955,0.13-1.826,0.938c2.033,13.057,7.298,26.145,11.696,38.521C436.335,401.417,437.658,407.164,438.761,406.879z"/>
<path fill="#0390A2" d="M380.154,494.502c-0.187-0.011-0.366-0.015-0.548-0.015c-3.663,0-6.193,1.838-7.673,3.377
	c-2.864,2.986-4.388,7.519-4.188,12.433c0.393,9.438,7.158,17.731,14.778,18.112c0.182,0.009,0.363,0.015,0.545,0.015
	c3.662,0,6.193-1.838,7.673-3.379c2.864-2.982,4.391-7.515,4.186-12.431C394.537,503.176,387.771,494.881,380.154,494.502z"/>
<path fill="#0390A2" d="M72.712,479.076c-0.186-0.008-0.366-0.014-0.548-0.014c-3.661,0-6.191,1.838-7.673,3.379
	c-2.864,2.984-4.392,7.516-4.187,12.43c0.39,9.439,7.156,17.734,14.773,18.113c0.184,0.008,0.364,0.014,0.547,0.014
	c3.663,0,6.195-1.838,7.674-3.377c2.863-2.985,4.39-7.516,4.187-12.432C87.095,487.752,80.329,479.455,72.712,479.076z"/>
<path d="M343.702,481.008c-20.217,2.984-43.497,4.15-67.457,4.15c-71.252,0-148.51-10.243-169.159-13.175
	c1.514,2.948,2.826,6.042,3.867,9.286c1.608,4.971,2.577,10.177,2.882,15.475c0.154,2.696,0.129,5.419-0.078,8.092
	c-0.229,2.895,0.291,5.018,1.586,6.489c0.697,0.794,1.971,1.76,4.091,1.897c3.413,0.49,6.937,0.553,10.343,0.613
	c1.723,0.029,3.349,0.06,4.968,0.14l192.504,9.459c0.412,0.021,0.917,0.08,1.473,0.144c1.027,0.118,2.209,0.253,3.396,0.253
	c1.751,0,3.517-0.294,4.82-1.374c2.574-2.131,2.04-5.271,1.72-7.148c-0.034-0.205-0.068-0.406-0.099-0.599
	c-1.113-7.362-0.87-14.886,0.705-21.754C340.244,488.677,341.762,484.667,343.702,481.008z M333.849,518.783
	c0.056-0.058,0.114-0.113,0.163-0.174c-0.035,0.063-0.078,0.115-0.13,0.158C333.873,518.774,333.857,518.777,333.849,518.783z"/>
<path d="M110.679,515.28c-1.822-2.007-2.946-4.586-3.167-7.288c-0.158-1.934,0.203-3.9,0.272-5.833
	c0.016-0.591-0.277-1.114-0.277-1.676c0-0.587,0.226-1.134,0.214-1.715c-0.022-1.225-0.034-2.432-0.142-3.656
	c-0.207-2.364-0.614-4.701-1.103-7.022c-2.08-8.726-5.922-16.946-11.868-23.721c-2.43-2.858-5.321-5.356-8.404-7.482
	c-1.495-0.989-3.038-1.82-4.607-2.677c-1.569-0.622-3.324-0.745-4.993-0.65c-2.955,0.168-5.886,1.131-8.741,1.863
	c-2.241,0.575-4.519,1.078-6.722,1.775c-8.062,2.289-14.561,8.582-18.368,15.88c-4.16,8.217-5.37,17.85-3.666,26.891
	c3.01,17.088,16.971,34.17,35.505,34.184c5.731,0.004,11.309-1.895,16.809-3.313c2.46-0.635,4.92-1.269,7.38-1.903
	c3.774-0.974,7.295-2.613,10.39-4.998c2.132-1.643,3.961-3.564,5.639-5.661C113.257,517.577,111.833,516.557,110.679,515.28
	C108.458,512.833,111.855,516.58,110.679,515.28z M70.994,517.938c-9.26-0.46-16.36-8.374-18.822-16.831
	c-2.504-8.602-0.708-19.241,6.875-24.789c7.298-5.339,16.913-3.046,22.866,3.169c6.565,6.854,8.99,17.636,5.674,26.576
	C85.003,513.031,78.661,518.319,70.994,517.938C60.527,517.418,81.466,518.458,70.994,517.938z"/>
<path d="M553.816,419.989c-2.041-2.505-3.805-4.668-4.77-7.704c-1.613-4.974-2.309-9.812-3.044-14.935
	c-1.061-7.387-2.155-15.025-6.18-22.924c-19.09-37.483-63.325-58.258-131.482-61.749c-6.591-0.328-13.137-0.691-19.646-1.054
	c-47.445-2.64-92.26-5.132-139.032,6.928l-1.806,0.466c-28.108,7.253-57.177,14.752-84.421,27.565
	c-11.677,5.493-22.649,12.06-33.262,18.41c-17.887,10.703-34.877,20.872-54.673,26.086c-23.862,5.011-56.404,13.479-68.223,43.236
	c-1.447,3.673-4.347,21.42-3.806,38.727c-0.008,0.519-0.017,1.037-0.021,1.544c-0.041,3.814,0.037,9.54,1.209,15.178
	c0.878,4.277,2.388,7.848,4.464,10.636c1.117,2.045,2.429,3.815,3.965,5.222c2.155,1.974,5.318,3.804,9.647,3.803
	c2.522,0,5.446-0.636,8.79-2.211c0.135-0.064,0.27-0.127,0.404-0.189c0.007-0.004,0.014-0.005,0.021-0.008
	c0.016-0.007,0.028-0.017,0.044-0.023c0.053-0.024,0.104-0.048,0.158-0.074l-0.004-0.008c2.339-1.218,2.338-5.044,2.338-5.044
	l-0.019-0.002c0.008-0.441-0.029-0.874-0.169-1.27c-0.438-1.232-1.535-1.998-2.867-1.998c-0.605,0-1.347-1.502-1.537-4.802
	c-0.929-15.729,4.52-30.594,14.567-39.765c13.809-12.571,34.9-11.864,50.157,1.683c3.58,3.179,6.732,6.886,9.415,10.992
	c9.706,1.431,63.762,9.119,123.646,12.301c-2.093-13.65-2.342-25.886-1.799-36.467c-59.401-6.748-109.074-22.598-141.308-45.378
	c18.159-5.938,34.261-15.56,49.927-24.936c10.436-6.244,21.225-12.702,32.521-18.015c26.527-12.477,53.93-19.546,82.938-27.031
	l1.805-0.466c45.504-11.734,89.686-9.275,136.459-6.674c6.524,0.362,13.088,0.728,19.688,1.056
	c64.922,3.325,106.775,22.555,124.398,57.155c3.389,6.653,4.34,13.28,5.347,20.297c0.122,0.853,0.248,1.712,0.376,2.572
	c-44.952,17.839-97.802,31.589-155.073,39.065c-54.061,7.055-105.762,7.704-151.78,2.956c1.149-18.681,4.649-36.11,6.83-45.558
	l0.126-0.655c1.285-5.572,3.087-10.263,5.06-15.632c5.091-13.853,12.326-26.956,21.444-38.565
	c-26.867,1.551-53.572,6.156-78.628,16.247c-11.671,4.695-22.996,10.375-33.966,16.516c-6.104,3.416-12.102,7.022-17.971,10.829
	c-2.876,1.863-5.719,3.771-8.527,5.729c-1.56,1.084-3.104,2.18-4.641,3.293c-0.609,0.443-3.183,2.774-3.61,2.723
	c7.317,0.885,14.782,0.531,22.138,0.484c8.529-0.06,17.06-0.127,25.585-0.197c15.54-0.123,31.079-0.254,46.619-0.393
	c6.957-0.063,13.915-0.124,20.873-0.188c-2.282,10.116-5.582,26.204-6.629,44.764l5.297,0.603
	c-0.46,10.242-0.148,23.084,1.926,36.136c39.623,1.908,81.266,1.72,113.943-3.633c5.518-7.596,13.121-12.96,21.683-14.795
	c7.98-1.757,16.74-0.438,24.661,3.706c2.178,1.146,4.27,2.482,6.268,3.984c7.213-1.279,42.141-7.594,77.253-15.882
	c60.329-14.242,76.292-23.607,80.266-28.221C556.107,422.801,554.935,421.36,553.816,419.989z"/>
<path d="M426.666,517.188c-4.927-3.532-7.52-9.3-10.229-14.525c-1.626-3.138-3.226-6.285-4.915-9.39
	c-2.857-5.252-5.803-10.369-9.91-14.779c-4.662-4.857-11.375-10.816-18.719-9.515c-2.466,0.438-4.903,1.072-7.352,1.688
	c-1.387,0.348-2.774,0.696-4.161,1.045c-0.999,0.251-1.86,0.657-2.837,1.004c-8.036,2.852-14.292,8.764-18.05,16.384
	c-8.268,16.769-3.48,38.642,10.127,51.173c6.323,5.823,14.339,9.186,22.947,9.186c5.427-0.139,10.76-1.958,15.978-3.307
	c2.455-0.635,4.91-1.27,7.365-1.904c3.758-0.972,7.273-2.626,10.355-4.998c4.263-3.28,7.579-7.701,9.786-12.591
	c0.559-1.213,1.033-2.465,1.459-3.729c0.16-0.488,1.189-2.953,0.831-3.283c-0.888-0.815-1.776-1.632-2.665-2.448
	C426.673,517.194,426.67,517.191,426.666,517.188z M379.065,533.188c-9.321-0.461-16.438-8.487-18.838-17.015
	c-2.433-8.646-0.505-19.333,7.248-24.723c7.492-5.208,17.133-2.531,22.936,3.882c6.371,7.039,8.566,17.915,4.913,26.757
	C392.595,528.692,386.405,533.554,379.065,533.188C368.627,532.672,389.51,533.708,379.065,533.188z"/>
<path d="M469.815,512.376c0.154,0.142,0.309,0.284,0.465,0.427c0.25,0.221,0.502,0.438,0.756,0.653
	c0.254,0.216,0.509,0.425,0.767,0.632c0.26,0.206,0.52,0.409,0.78,0.608c0.265,0.199,0.526,0.396,0.796,0.586
	c0.266,0.191,0.532,0.379,0.804,0.563c0.271,0.182,0.545,0.362,0.816,0.537c0.277,0.176,0.556,0.348,0.832,0.516
	c0.277,0.166,0.561,0.328,0.842,0.49c0.281,0.158,0.565,0.313,0.851,0.461c0.289,0.149,0.576,0.297,0.862,0.438
	c0.291,0.142,0.583,0.279,0.874,0.41c0.293,0.133,0.587,0.262,0.883,0.387c0.296,0.123,0.594,0.242,0.893,0.357
	c0.3,0.115,0.6,0.225,0.899,0.33c0.298,0.104,0.595,0.203,0.893,0.297c0.299,0.096,0.6,0.187,0.899,0.269
	c0.301,0.086,0.602,0.166,0.904,0.241c0.305,0.076,0.609,0.146,0.913,0.213c0.313,0.066,0.627,0.132,0.938,0.188
	c0.313,0.059,0.63,0.109,0.944,0.156c0.313,0.049,0.632,0.092,0.947,0.129c0.319,0.035,0.64,0.065,0.958,0.092
	c0.319,0.029,0.642,0.047,0.96,0.066c0,0,10.514,0.766,28.076-6.076c0.042-0.015,0.085-0.029,0.126-0.045
	c0.151-0.058,0.304-0.115,0.452-0.172c0.149-0.06,0.298-0.115,0.447-0.181c0.146-0.059,0.296-0.121,0.442-0.184
	c0.146-0.064,0.297-0.129,0.439-0.195c0.147-0.063,0.294-0.131,0.44-0.199c0.145-0.067,0.289-0.139,0.434-0.209
	c0.146-0.069,0.291-0.143,0.435-0.215c0.145-0.076,0.289-0.149,0.431-0.227c0.143-0.076,0.284-0.152,0.427-0.232
	c0.144-0.078,0.282-0.156,0.424-0.237c0.141-0.082,0.279-0.164,0.42-0.248c0.141-0.082,0.277-0.166,0.417-0.252
	c0.139-0.089,0.274-0.175,0.41-0.265c0.139-0.086,0.272-0.176,0.41-0.27c0.135-0.09,0.271-0.183,0.405-0.275
	s0.268-0.188,0.399-0.283c0.137-0.096,0.27-0.19,0.401-0.291c0.13-0.1,0.263-0.196,0.395-0.297c0.131-0.102,0.261-0.203,0.389-0.305
	c0.131-0.105,0.259-0.209,0.387-0.314c0.129-0.102,0.254-0.209,0.38-0.315c0.126-0.107,0.252-0.217,0.376-0.324
	c0.123-0.109,0.249-0.219,0.372-0.33c0.124-0.113,0.245-0.225,0.368-0.34c0.119-0.113,0.24-0.229,0.361-0.344
	c0.119-0.115,0.237-0.232,0.358-0.354c0.116-0.115,0.234-0.235,0.353-0.354c0.116-0.121,0.231-0.242,0.35-0.365
	c0.114-0.123,0.229-0.246,0.342-0.373c0.115-0.123,0.228-0.246,0.338-0.373c0.115-0.127,0.226-0.256,0.336-0.385
	c0.107-0.129,0.22-0.258,0.328-0.39c0.107-0.131,0.218-0.264,0.322-0.396c0.107-0.133,0.214-0.266,0.319-0.4
	c0.104-0.137,0.21-0.27,0.312-0.405c0.105-0.14,0.208-0.275,0.309-0.414c0.103-0.14,0.203-0.277,0.301-0.418
	c0.101-0.142,0.198-0.281,0.298-0.427c0.096-0.141,0.191-0.284,0.289-0.428c0.096-0.145,0.188-0.287,0.282-0.434
	c0.096-0.146,0.188-0.295,0.281-0.441c0.092-0.147,0.181-0.297,0.272-0.442c0.089-0.15,0.177-0.3,0.266-0.449
	c0.086-0.15,0.173-0.301,0.259-0.453c0.084-0.152,0.171-0.305,0.253-0.459c0.084-0.152,0.168-0.31,0.249-0.463
	c0.08-0.154,0.16-0.31,0.241-0.467c0.077-0.154,0.156-0.313,0.233-0.472c0.076-0.158,0.151-0.315,0.229-0.475
	c0.076-0.162,0.148-0.32,0.224-0.48c0.075-0.162,0.145-0.323,0.215-0.487c0.072-0.158,0.14-0.32,0.21-0.484
	c0.067-0.162,0.138-0.326,0.202-0.492c0.068-0.164,0.133-0.332,0.198-0.498c0.064-0.164,0.128-0.332,0.19-0.502
	c0.062-0.166,0.123-0.334,0.183-0.504c0.047-0.127,0.091-0.254,0.135-0.383L469.815,512.376z"/>
<g>
	<path d="M569.596,501.957c0.059,0.007,0.117,0.014,0.165,0.019C569.71,501.971,569.661,501.965,569.596,501.957z"/>
	<path d="M545.256,499.158c15.766,1.813,22.619,2.601,24.34,2.799C566.319,501.58,546.084,499.253,545.256,499.158z"/>
	<path d="M569.76,501.976c0.078,0.01,0.14,0.017,0.185,0.021C569.899,501.992,569.839,501.986,569.76,501.976z"/>
	<path d="M611.576,523.539c-2.107-3.686-5.346-6.59-8.859-8.906c-5.331-3.517-11.385-5.881-17.452-7.781
		c-12.972-4.065-26.559-6.146-40.031-7.696c0.004,0.001,0.017,0.002,0.022,0.003c-0.008-0.001-0.016-0.002-0.024-0.003
		c-0.754-0.087-1.509-0.172-2.265-0.254c-0.512-0.057-0.392-0.001-0.559,0.411c-0.104,0.282-0.219,0.56-0.334,0.837
		c-0.505,1.216-1.072,2.396-1.668,3.569c-1.175,2.199-2.515,4.295-4.061,6.252c-3.01,3.812-6.774,7.06-11.05,9.375
		c-0.762,0.412-1.545,0.793-2.339,1.145c-2.234,0.924-5.166,1.795-7.323,2.383c-0.96,0.248-1.92,0.496-2.881,0.744
		c-0.003,0.001-0.023,0.006-0.023,0.006h0c-0.44,0.114-0.881,0.228-1.322,0.342c-2.004,0.518-4.009,1.035-6.013,1.554
		c-0.002,0-0.003,0.001-0.005,0.001c-4.262,1.102-8.963,1.675-12.182,1.965c-0.071-0.019-0.274-0.003-0.658,0.058
		c-1.205,0.101-2.131,0.157-2.686,0.187c-0.396-0.004-0.77-0.021-1.121-0.046c-0.286-0.042-0.568-0.084-0.837-0.118
		c-1.602-0.204-3.185-0.524-4.743-0.945c-2.992-0.809-5.87-2.014-8.57-3.533c-2.688-1.523-5.238-3.335-7.516-5.426
		c-0.414-0.381-0.916-1.228-1.509-1.076c-1.658,0.424-3.316,0.848-4.974,1.271c-6.061,1.55-12.122,3.1-18.182,4.649
		c-2.216,0.566-4.432,1.133-6.647,1.699c-0.426,0.109-0.852,0.218-1.277,0.327c-0.25,0.063-0.666,1.92-0.776,2.225
		c-0.561,1.54-1.199,3.049-1.928,4.517c-4.636,9.341-12.798,16.551-22.97,19.18c-5.2,1.345-10.4,2.688-15.601,4.033
		c-7.298,1.886-14.551,1.754-21.691-0.712c-9.684-3.435-17.475-10.664-22.722-19.377c-0.198-0.347-1.066-2.4-1.399-2.418
		c-0.11-0.007-0.22-0.013-0.33-0.019c-0.497-0.027-0.994-0.055-1.491-0.082c-5.261-0.288-10.521-0.577-15.782-0.865
		c-9.386-0.516-18.771-1.03-28.156-1.545c-12.027-0.66-24.055-1.32-36.083-1.98c-13.188-0.724-26.375-1.447-39.563-2.17
		c-12.865-0.706-25.73-1.412-38.595-2.118c-11.061-0.606-22.121-1.214-33.181-1.82c-7.773-0.427-15.547-0.854-23.32-1.279
		c-3.004-0.165-6.008-0.33-9.012-0.495c-0.078-0.004-0.379,0.484-0.425,0.544c-0.487,0.629-0.975,1.259-1.462,1.888
		c-1.152,1.487-2.349,2.928-3.688,4.253c-4.11,4.063-9.204,7.141-14.803,8.64c-4.73,1.267-9.483,2.451-14.225,3.675
		c-3.922,1.013-7.835,1.843-11.918,1.911c-3.392,0.056-6.705-0.48-9.965-1.421c-9.427-2.722-17.586-9.298-23.01-17.39
		c-1.305-1.891-2.47-3.903-3.475-5.968c-0.176-0.353-0.344-0.708-0.511-1.064c-0.35-0.747-0.249-0.683-1.072-0.484
		c-1.604,0.387-3.205,0.787-4.802,1.205c-5.257,1.374-10.486,2.91-15.575,4.823c-3.697,1.39-7.384,2.965-10.724,5.092
		c-2.128,1.355-4.34,3.031-5.528,5.318c-2.499,4.811,2.274,8.782,5.94,11.041c6.902,4.254,15,6.666,22.753,8.813
		c12.181,3.373,24.63,5.771,37.088,7.857c16.425,2.749,32.955,4.865,49.509,6.667c19.965,2.173,39.982,3.862,60.018,5.242
		c22.849,1.574,45.726,2.735,68.613,3.582c25.088,0.928,50.19,1.475,75.295,1.687c25.368,0.215,50.74,0.112,76.104-0.417
		c21.5-0.449,42.998-1.206,64.467-2.454c17.531-1.019,35.049-2.357,52.508-4.257c13.731-1.495,27.44-3.322,41.027-5.826
		c10.115-1.864,20.203-4.077,30.023-7.16c6.714-2.107,13.457-4.595,19.498-8.258c3.705-2.246,7.516-5.125,9.45-9.121
		C615.191,533.495,613.971,527.731,611.576,523.539z"/>
	<path d="M569.946,501.997C570.071,502.012,570.076,502.013,569.946,501.997L569.946,501.997z"/>
</g>
<path d="M560.77,439.337c0.003-0.043,0.006-0.085,0.009-0.127c0.277-3.431-0.063-5.981-0.383-7.485
	c-0.247-0.986-0.525-1.932-0.866-2.797c-6.243,5.606-24.614,14.964-81.53,28.399c-30.897,7.293-61.652,13.063-73.64,15.238
	c3.688,3.572,6.938,7.783,9.631,12.538c1.628,2.859,3.149,5.921,4.621,8.881c2.187,4.398,4.446,8.946,7.162,13.092
	c3.611,5.742,8.224,8.227,12.979,6.995l104.216-26.889l0.582-0.147c1.163-0.295,2.341-0.603,3.491-1.049
	c1.145-0.481,6.394-3.026,8.572-9.973c0.339-1.551,0.665-3.098,0.964-4.631c1.111-4.455,1.916-9.4,2.438-14.972
	c0.926-6.961,1.446-12.857,1.721-16.614C560.746,439.655,560.758,439.5,560.77,439.337z M545.662,481.39
	c-0.041,0.019-0.086,0.034-0.128,0.051c0.046-0.027,0.093-0.054,0.139-0.083C545.669,481.368,545.666,481.379,545.662,481.39z"/>
<path d="M1298.448,255.864c-30.285-140.653-156.529-242.74-300.18-242.74c-21.711,0-43.581,2.338-65.004,6.95
	c-120.619,25.969-212.848,119.94-236.822,240.442c-2.368,13.504-3.087,25.149-3.146,33.992c0.009,1.001,0.187,16.098,2.969,26.137
	c0.667,2.167,1.419,4.293,2.298,6.345c0,0-10.552-17.542-14.577-45.527c-12.812,15.393-22.935,33.115-29.642,51.961
	c-3.006,11.423-3.361,19.989-2.774,26.08c0.556,4.057,1.597,8.113,3.34,11.979c0,0-0.384-0.56-0.9-1.725
	c-1.929-3.93-6.384-14.348-7.528-28.738c-34.295,21.376-54.009,60.437-50.502,100.938c0.085,0.979-0.052,1.966-0.399,2.886
	c-0.009,0.025-0.045,0.126-0.055,0.152l-0.798,2.067c-0.019,0.044-0.035,0.088-0.053,0.132l-0.25,0.607
	c-0.013,0.03-0.024,0.063-0.038,0.093l-0.993,2.291c-0.137,0.304-0.271,0.599-0.41,0.895l-0.782,1.646
	c-0.134,0.275-0.278,0.567-0.427,0.863l-3.02,5.551c-0.202,0.346-0.396,0.668-0.591,0.99l-1.21,1.965
	c-0.233,0.37-0.448,0.704-0.667,1.041c-0.235,0.36-0.462,0.705-0.69,1.047c-0.197,0.301-0.437,0.652-0.681,1.011
	c-0.229,0.336-0.468,0.684-0.71,1.03l-0.725,1.025c-0.275,0.384-0.53,0.735-0.792,1.089l-1.554,2.07
	c-0.306,0.395-0.578,0.744-0.856,1.098c-0.279,0.353-0.56,0.703-0.843,1.055l-0.093,0.114c-0.27,0.328-0.539,0.659-0.813,0.986
	c-0.274,0.335-0.582,0.705-0.894,1.069c-0.311,0.361-0.617,0.721-0.931,1.078c-0.212,0.246-0.475,0.543-0.736,0.84l-0.17,0.191
	c-0.282,0.318-0.568,0.635-0.854,0.948l-0.114,0.126c-0.344,0.375-0.668,0.727-0.993,1.076c-0.353,0.374-0.686,0.723-1.021,1.073
	c-0.328,0.345-0.674,0.699-1.021,1.055c-0.363,0.368-0.707,0.714-1.056,1.062c-0.377,0.373-0.729,0.721-1.085,1.063
	c-0.277,0.271-0.552,0.531-0.823,0.791l0.89,0.029c0.572,0.024,1.063,0.048,1.547,0.073c0.498,0.025,0.992,0.058,1.484,0.088
	c0.528,0.034,1.027,0.066,1.526,0.106c0.492,0.039,0.979,0.079,1.464,0.122c0.492,0.044,0.983,0.091,1.474,0.142
	c0.491,0.051,0.976,0.103,1.46,0.157c0.46,0.053,0.939,0.109,1.421,0.17c0.487,0.063,0.962,0.127,1.435,0.192l4.124,0.646
	c0.503,0.091,0.944,0.17,1.38,0.254c0.408,0.075,0.849,0.16,1.286,0.248l0.232,0.047c0.369,0.075,0.735,0.148,1.102,0.229
	c0.423,0.09,0.861,0.187,1.294,0.285c0.383,0.085,0.813,0.187,1.239,0.287c0.377,0.087,0.808,0.193,1.238,0.302
	c0.358,0.087,0.783,0.197,1.204,0.31c0.383,0.1,0.779,0.207,1.179,0.314c0.338,0.09,0.718,0.198,1.1,0.308l4.474,1.39
	c0.405,0.138,0.738,0.25,1.066,0.367l0.944,0.333c0.378,0.137,0.703,0.256,1.025,0.376c0.355,0.135,0.665,0.251,0.973,0.37
	l1.81,0.719c0.315,0.13,0.612,0.253,0.908,0.379l3.269,1.462c0.221,0.104,0.488,0.231,0.754,0.362
	c0.176,0.083,0.428,0.207,0.675,0.329c0.188,0.092,0.413,0.206,0.636,0.319c0.266,0.135,0.501,0.257,0.736,0.378
	c0.172,0.089,0.37,0.192,0.567,0.302c0.896,0.455,1.679,1.11,2.282,1.92c20.318,27.174,52.646,43.396,86.475,43.396
	c5.817,0,11.666-0.479,17.454-1.425c-12.936-15.911-15.943-31.191-15.943-31.191c3.885,12.647,16.125,23.465,26.169,30.549
	c0.115,0.056,0.233,0.102,0.346,0.165c20.25,11.33,42.967,18.462,66.046,20.8c-12.151-22.407-14.524-40.335-14.524-40.335
	c8.509,23.466,25.413,41.59,38.283,52.78c51.536,36.122,113.571,55.856,176.574,55.859c0.003,0,0.009,0,0.012,0
	c21.674,0,43.454-2.324,64.738-6.907C1228.348,585.372,1334.121,421.552,1298.448,255.864z"/>
</svg>
