<svg xmlns="http://www.w3.org/2000/svg" width="30" height="30" viewBox="0 0 30 30"><rect width="30" height="30" fill="none"/><g transform="translate(1.25 2.5)"><path d="M24.75,4.5H23.5V3.25a1.25,1.25,0,0,0-2.5,0V4.5H8.5V3.25a1.25,1.25,0,0,0-2.5,0V4.5H4.75A3.75,3.75,0,0,0,1,8.25v15A3.75,3.75,0,0,0,4.75,27h20a3.75,3.75,0,0,0,3.75-3.75v-15A3.75,3.75,0,0,0,24.75,4.5ZM3.5,8.25A1.25,1.25,0,0,1,4.75,7h20A1.25,1.25,0,0,1,26,8.25V9.5H3.5Zm22.5,15a1.25,1.25,0,0,1-1.25,1.25h-20A1.25,1.25,0,0,1,3.5,23.25V12H26Z" transform="translate(-1 -2)" fill-rule="evenodd"/></g><g transform="translate(9.432 13.5)"><path d="M9.37,4.4a.635.635,0,0,0-.361-1.082L6.822,3a.25.25,0,0,1-.2-.158L5.626.861a.657.657,0,0,0-1.173,0l-.97,1.985A.285.285,0,0,1,3.259,3l-2.142.316A.635.635,0,0,0,.755,4.4L2.334,5.935a.339.339,0,0,1,.09.248L2.041,8.348a.633.633,0,0,0,.925.677L4.927,7.987a.288.288,0,0,1,.271,0L7.137,9.024a.694.694,0,0,0,.293.068.657.657,0,0,0,.631-.767L7.679,6.16a.268.268,0,0,1,.09-.248ZM7.34,6.273" transform="translate(0 0)" fill="none" stroke="#000" stroke-miterlimit="10" stroke-width="2"/></g></svg>