<?xml version="1.0" encoding="UTF-8" standalone="no"?><!DOCTYPE svg PUBLIC "-//W3C//DTD SVG 1.1//EN" "http://www.w3.org/Graphics/SVG/1.1/DTD/svg11.dtd"><svg width="100%" height="100%" viewBox="0 0 60 30" version="1.1" xmlns="http://www.w3.org/2000/svg" xmlns:xlink="http://www.w3.org/1999/xlink" xml:space="preserve" xmlns:serif="http://www.serif.com/" style="fill-rule:evenodd;clip-rule:evenodd;stroke-linejoin:round;stroke-miterlimit:2;"><path d="M13.206,1l-2.063,0c-1.15,0 -2.022,0.198 -2.26,0.833l-8.724,25.499c-0.08,0.277 -0.159,0.515 -0.159,0.714c0,0.555 0.753,0.872 2.419,0.872l1.586,0c0.952,0 1.626,-0.238 1.824,-0.833l1.587,-4.838l9.359,0l1.586,4.838c0.198,0.635 1.071,0.833 2.221,0.833l1.745,0c1.387,0 1.982,-0.317 1.982,-0.872c0,-0.199 -0.039,-0.437 -0.119,-0.714l-8.724,-25.499c-0.238,-0.635 -1.11,-0.833 -2.26,-0.833Zm-0.992,7.416c0.159,0.833 0.317,1.705 0.595,2.538l2.26,7.059l-5.948,-0l2.34,-7.059c0.317,-0.833 0.436,-1.705 0.595,-2.538l0.158,-0Z" style="fill-rule:nonzero;"/><path d="M34.699,16.188l-8.09,0c-0.832,0 -1.189,0.595 -1.189,1.983l-0,0.278c-0,1.388 0.357,1.983 1.189,1.983l8.09,-0c0.833,-0 1.19,-0.595 1.19,-1.983l-0,-0.278c-0,-1.388 -0.357,-1.983 -1.19,-1.983Z" style="fill-rule:nonzero;"/><path d="M58.533,1.079l-18.123,0c-0.833,0 -1.19,0.595 -1.19,1.983l0,1.229c0,1.388 0.357,1.983 1.19,1.983l11.024,0l-13.285,18.639c-0.039,0.079 -0.079,0.238 -0.079,0.396c0,1.071 0.872,3.53 1.547,3.53l19.193,-0c0.833,-0 1.19,-0.595 1.19,-1.983l-0,-1.229c-0,-1.388 -0.357,-1.983 -1.19,-1.983l-12.095,-0l13.245,-18.599c0.04,-0.079 0.04,-0.159 0.04,-0.317c-0,-1.031 -0.833,-3.649 -1.467,-3.649Z" style="fill-rule:nonzero;"/></svg>