<?xml version="1.0" encoding="utf-8"?>
<!-- Generator: Adobe Illustrator 16.0.0, SVG Export Plug-In . SVG Version: 6.00 Build 0)  -->
<!DOCTYPE svg PUBLIC "-//W3C//DTD SVG 1.1//EN" "http://www.w3.org/Graphics/SVG/1.1/DTD/svg11.dtd">
<svg version="1.1" id="Layer_1" xmlns="http://www.w3.org/2000/svg" xmlns:xlink="http://www.w3.org/1999/xlink" x="0px" y="0px"
	 width="302.764px" height="330.262px" viewBox="0 0 302.764 330.262" enable-background="new 0 0 302.764 330.262"
	 xml:space="preserve">
<g id="LWPOLYLINE_611_">
	<path d="M189.856,97.917c0.81,4.779,7.719,3.522,11.05,2.598c4.188-1.162,8.117-3.223,11.501-5.938
		c2.196-1.762,4.244-4.048,4.559-6.933c-8.862,3.358-17.724,6.716-26.585,10.074C190.206,97.784,190.031,97.85,189.856,97.917z"/>
</g>
<path d="M302.762,50.396c0.067-6.144-1.435-11.625-4.462-16.29c-3.441-5.315-8.586-9.049-14.113-10.244l-106.432-23
	C175.806,0.438,173.79,0,171.625,0c-1.418,0-2.732,0.188-4.007,0.572c-0.483,0.088-1.188,0.303-2.707,0.799L56.401,34.32
	c-1.326,0.403-2.658,0.801-3.991,1.199c-3.121,0.933-6.349,1.897-9.432,2.902c-9.611,2.933-12.362,13.265-11.796,21.222
	l12.143,170.958c-1.412,0.568-2.824,1.133-4.232,1.705c-5.76,2.34-11.494,4.758-17.092,7.465
	c-5.378,2.602-10.782,5.426-15.504,9.119c-2.869,2.242-6.699,5.588-6.487,9.625c0.29,5.533,7.771,8.041,11.801,9.932
	c24.068,11.291,48.136,22.58,72.204,33.869c11.967,5.615,23.923,11.252,35.902,16.84c8.647,4.035,17.504,8.375,26.916,10.299
	c7.885,1.611,15.702,0.732,23.246-1.971c10.79-3.863,20.55-10.221,30.368-16.014c13.823-8.154,27.629-16.338,41.409-24.564
	c11.771-7.027,23.546-14.049,35.346-21.031c6.386-3.779,12.777-7.547,19.17-11.313c0.03-0.02,0.055-0.037,0.085-0.057
	c4.058-2.672,2.575-4.438,1.226-5.291c-0.406-0.197-0.813-0.395-1.219-0.592c2.694-3.229,4.202-7.605,4.258-12.646L302.762,50.396z
	 M58.215,40.295l108.141-32.83c0.073-0.022,0.253-0.081,0.491-0.158c0.353-0.115,1.342-0.438,1.782-0.562
	c0.202-0.025,0.405-0.07,0.605-0.136c2.01-0.668,4.501-0.23,7.193,0.354l82.229,17.77L144.604,65.039l-89.43-23.83
	C56.189,40.905,57.205,40.602,58.215,40.295z M179.116,305.951c-0.244,0.602-0.562,1.174-0.911,1.727l-3.386,1.859
	c-2.246,1.232-5.047,1.529-7.698,0.818c-1.3-0.348-2.638-0.955-4.055-1.6c-0.45-0.203-0.899-0.408-1.345-0.602l-98.388-43.023
	c-4.692-2.053-8.379-5.906-10.663-11.146c-1.162-2.662-1.824-5.605-2.083-9.262L37.411,59.201
	c-0.402-5.667,1.292-12.946,7.447-14.825c1.253-0.409,2.534-0.805,3.813-1.199c0.616,0.142,1.248,0.313,1.908,0.495L151.34,70.528
	l5.596,1.489c1.689,0.443,3.284,0.861,4.578,1.684c3.476,2.211,6.237,5.063,8.442,8.718c2.691,4.463,4.141,9.799,4.308,15.861
	l5.557,201.952C179.878,302.344,179.863,304.105,179.116,305.951z M294.476,235.908c-0.026,2.395-0.617,8.26-5.516,10.949
	l-105.859,58.131c0.325-1.643,0.331-3.24,0.286-4.857l-4.714-171.321c0.228,0.164,0.499,0.26,0.783,0.26
	c0.169,0,0.34-0.032,0.506-0.099l116.209-47.127L294.476,235.908z M296.203,78.928l-117.253,47.55
	c-0.126,0.051-0.235,0.124-0.336,0.205l-0.784-28.501c-0.001-0.04-0.005-0.079-0.007-0.119l118.664-44.974L296.203,78.928z
	 M177.541,94.354c-0.599-5.131-2.105-9.759-4.53-13.778c-2.495-4.139-5.63-7.372-9.582-9.886c-1.764-1.122-3.796-1.654-5.588-2.125
	l-8.635-2.301l114.461-40.449l19.199,4.149c3.927,0.849,7.642,3.595,10.193,7.537c2.177,3.353,3.321,7.312,3.437,11.768
	L177.541,94.354z"/>
<g>
	<path fill="none" d="M272.161,156.733c0.852-1.964,1.671-4.194,2.037-6.452c-0.616-2.27-1.461-4.668-2.574-7.324
		c-1.341-3.199-3.552-6.35-6.392-9.114c-2.285-2.224-5.309-3.798-9.244-4.813c-0.955-0.246-1.979-0.365-3.132-0.365
		c-2.578,0-5.306,0.624-7.393,1.167c-2.946,0.766-6.382,2.522-9.676,4.945c-0.761,0.56-1.508,1.142-2.246,1.74
		c4.805-0.755,9.04-0.349,12.598,1.233c10.255,4.561,13.56,16.752,14.504,21.782c2.112,11.248,0.957,23.873-3.253,35.555
		c-4.556,12.637-10.229,21.896-17.345,28.307c-4.663,4.203-9.504,7.152-14.387,8.766c-2.024,0.668-4.123,1.008-6.237,1.008
		c-2.874,0-5.805-0.648-8.576-1.875c0.71,1.104,1.48,2.188,2.327,3.254c0.88,1.107,2.146,2.252,3.66,3.307
		c1.357,0.947,2.94,1.971,4.39,2.398c2.52,0.742,4.763,1.104,6.855,1.104c1.204,0,2.377-0.123,3.485-0.369
		c3.667-0.811,7.094-2.227,11.11-4.588c3.182-1.871,6.006-4.51,9.104-7.514c2.936-2.844,5.515-6.334,7.863-9.682
		c4.355-6.207,8.072-13.646,11.048-22.115c1.395-3.969,2.514-7.908,3.365-11.795c-0.327-1.803-1.093-3.336-2.24-4.92
		c-1.276-1.762-1.792-3.977-2.174-6.078c-0.721-3.969-0.372-8.57,0.737-12.439C270.881,160.102,271.435,158.408,272.161,156.733z"/>
	<path fill="none" d="M226.01,143.758C226.01,143.759,226.009,143.759,226.01,143.758c0.088-0.08,0.173-0.16,0.263-0.241
		C226.184,143.599,226.099,143.678,226.01,143.758z"/>
	<path fill="none" d="M282.421,138.075c-1.421-4.123-3.659-7.899-6.187-11.425c-2.314-3.229-5.688-6.347-9.247-8.145
		c-2.14-1.081-4.239-1.932-6.563-2.531c-2.131-0.549-4.283-0.652-6.472-0.736c-0.201-0.008-0.406-0.011-0.614-0.011
		c-1.772,0-3.784,0.27-5.436,0.699c-2.063,0.536-4.188,1.031-6.141,1.906c-4.2,1.881-7.979,4.126-11.685,6.853
		c-3.369,2.479-6.448,5.501-9.252,8.595c-6.032,6.656-10.758,14.226-14.915,22.152c-3.883,7.402-6.872,15.587-8.852,23.703
		c-1.063,4.354-2.111,8.764-2.625,13.223c-0.521,4.523-0.855,8.998-0.974,13.549c-0.112,4.318,0.357,8.635,0.876,12.912
		c0.49,4.033,1.494,8.262,2.925,12.066c3.063,8.143,7.69,16.166,15.554,20.51c4.156,2.297,8.679,3.369,13.233,3.369
		c4.009,0,8.042-0.83,11.878-2.387c8.351-3.393,15.22-9.049,21.313-15.592c5.964-6.402,10.563-13.9,14.655-21.588
		c4.151-7.801,6.979-16.289,9.271-24.793c2.276-8.447,3.215-17.201,3.449-25.924c0.003-0.092,0.005-0.184,0.008-0.275
		c-0.073-4.279-0.185-8.577-0.874-12.811C285.004,146.825,283.931,142.452,282.421,138.075z M275.795,180.162
		c0.306,0.471,0.678,0.918,1.073,1.391c0.667,0.799,1.357,1.625,1.833,2.699c1.14,2.574,1.255,5.877,0.324,9.299
		c-0.595,2.182-1.367,4.324-2.114,6.396l-0.178,0.492c-1.536,4.262-3.263,8.162-5.132,11.594
		c-4.972,9.127-10.027,15.99-15.912,21.598c-7.459,7.109-15.406,11.215-23.621,12.199c-0.866,0.104-1.752,0.156-2.633,0.156
		c-0.9,0-1.797-0.063-2.688-0.166c-2.294-0.131-4.572-0.57-6.805-1.229c-2.04-0.602-3.97-1.822-5.697-3.027
		c-1.671-1.164-3.345-2.605-4.616-4.205c-2.812-3.541-4.976-7.275-6.569-11.514c-3.139-8.35-3.769-17.262-3.538-26.102
		c0.108-4.129,0.6-8.41,1.414-12.459c0.851-4.225,1.744-8.459,3.101-12.559c2.821-8.527,6.399-16.664,11.243-24.248
		c3.886-6.083,8.522-11.568,13.963-16.242c2.321-2.076,5.094-4.289,8.192-6.013c4.344-2.416,8.473-3.907,12.995-4.693
		c1.194-0.208,2.414-0.313,3.626-0.313c7.583,0,15.151,4.104,20.246,10.978c1.564,2.112,2.805,4.202,3.685,6.211l0.057,0.131
		c0.828,1.889,1.61,3.673,1.731,5.938c0.18,3.309-0.711,6.969-2.508,10.305c-1.925,3.976-3.039,7.911-3.287,11.643
		C273.716,172.432,273.724,176.959,275.795,180.162z"/>
	<path fill="#0A8EA0" d="M224.856,229.732c4.545-1.502,9.079-4.273,13.477-8.238c6.795-6.121,12.242-15.043,16.651-27.273
		c4.058-11.258,5.175-23.41,3.146-34.216c-0.87-4.633-3.882-15.848-13.029-19.917c-3.442-1.53-7.677-1.798-12.589-0.796
		c-1.596,0.325-2.922,1.104-4.58,2.688c-0.547,0.523-1.104,1.031-1.659,1.537c-0.089,0.081-0.175,0.161-0.264,0.242
		c-2.484,2.795-4.8,5.843-6.916,9.154c-4.291,6.719-7.812,14.319-10.761,23.235c-1.271,3.838-2.126,7.881-2.961,12.029
		c-0.768,3.814-1.226,7.855-1.326,11.686c-0.263,10.043,0.771,17.795,3.25,24.391c0.342,0.91,0.717,1.799,1.126,2.672
		c0.154,0.125,0.319,0.252,0.51,0.393c0.082,0.061,0.165,0.121,0.248,0.184c0.251,0.127,0.605,0.35,1.224,0.738
		C214.969,230.727,220.12,231.297,224.856,229.732z"/>
	<path d="M277.268,156.782c1.797-3.336,2.688-6.996,2.508-10.305c-0.121-2.265-0.903-4.049-1.731-5.938l-0.057-0.131
		c-0.88-2.009-2.12-4.099-3.685-6.211c-5.095-6.875-12.663-10.978-20.246-10.978c-1.212,0-2.432,0.105-3.626,0.313
		c-4.522,0.786-8.651,2.277-12.995,4.693c-3.099,1.724-5.871,3.937-8.192,6.013c-5.44,4.674-10.077,10.159-13.963,16.242
		c-4.844,7.584-8.422,15.721-11.243,24.248c-1.356,4.1-2.25,8.334-3.101,12.559c-0.814,4.049-1.306,8.33-1.414,12.459
		c-0.23,8.84,0.399,17.752,3.538,26.102c1.594,4.238,3.758,7.973,6.569,11.514c1.271,1.6,2.945,3.041,4.616,4.205
		c1.728,1.205,3.657,2.426,5.697,3.027c2.232,0.658,4.511,1.098,6.805,1.229c0.891,0.104,1.787,0.166,2.688,0.166
		c0.881,0,1.767-0.053,2.633-0.156c8.215-0.984,16.162-5.09,23.621-12.199c5.885-5.607,10.94-12.471,15.912-21.598
		c1.869-3.432,3.596-7.332,5.132-11.594l0.178-0.492c0.747-2.072,1.52-4.215,2.114-6.396c0.931-3.422,0.815-6.725-0.324-9.299
		c-0.476-1.074-1.166-1.9-1.833-2.699c-0.396-0.473-0.768-0.92-1.073-1.391c-2.071-3.203-2.079-7.73-1.814-11.737
		C274.229,164.692,275.343,160.758,277.268,156.782z M210.402,228.24c-0.618-0.389-0.973-0.611-1.224-0.738
		c-0.083-0.063-0.166-0.123-0.248-0.184c-0.19-0.141-0.355-0.268-0.51-0.393c-0.409-0.873-0.784-1.762-1.126-2.672
		c-2.479-6.596-3.513-14.348-3.25-24.391c0.101-3.83,0.559-7.871,1.326-11.686c0.835-4.148,1.69-8.191,2.961-12.029
		c2.949-8.916,6.47-16.516,10.761-23.235c2.116-3.312,4.432-6.359,6.916-9.154c0,0,0.001,0,0.001-0.001
		c0.089-0.081,0.174-0.16,0.263-0.241c0.556-0.506,1.112-1.014,1.659-1.537c1.658-1.584,2.984-2.363,4.58-2.688
		c4.912-1.002,9.146-0.734,12.589,0.796c9.147,4.068,12.159,15.284,13.029,19.917c2.029,10.806,0.912,22.958-3.146,34.216
		c-4.409,12.23-9.856,21.152-16.651,27.273c-4.397,3.965-8.932,6.736-13.477,8.238C220.12,231.297,214.969,230.727,210.402,228.24z
		 M269.641,174.295c0.382,2.102,0.897,4.316,2.174,6.078c1.147,1.584,1.913,3.117,2.24,4.92c-0.852,3.887-1.971,7.826-3.365,11.795
		c-2.976,8.469-6.692,15.908-11.048,22.115c-2.349,3.348-4.928,6.838-7.863,9.682c-3.099,3.004-5.923,5.643-9.104,7.514
		c-4.017,2.361-7.443,3.777-11.11,4.588c-1.108,0.246-2.281,0.369-3.485,0.369c-2.093,0-4.336-0.361-6.855-1.104
		c-1.449-0.428-3.032-1.451-4.39-2.398c-1.514-1.055-2.78-2.199-3.66-3.307c-0.847-1.066-1.617-2.15-2.327-3.254
		c2.771,1.227,5.702,1.875,8.576,1.875c2.114,0,4.213-0.34,6.237-1.008c4.883-1.613,9.724-4.563,14.387-8.766
		c7.115-6.41,12.789-15.67,17.345-28.307c4.21-11.682,5.365-24.307,3.253-35.555c-0.944-5.03-4.249-17.221-14.504-21.782
		c-3.558-1.582-7.793-1.988-12.598-1.233c0.738-0.598,1.485-1.18,2.246-1.74c3.294-2.423,6.729-4.179,9.676-4.945
		c2.087-0.543,4.814-1.167,7.393-1.167c1.152,0,2.177,0.12,3.132,0.365c3.936,1.015,6.959,2.588,9.244,4.813
		c2.84,2.764,5.051,5.915,6.392,9.114c1.113,2.655,1.958,5.054,2.574,7.324c-0.366,2.258-1.186,4.488-2.037,6.452
		c-0.727,1.675-1.28,3.368-1.783,5.122C269.269,165.725,268.92,170.326,269.641,174.295z"/>
	<path d="M289.745,164.151c-0.077-4.502-0.205-8.904-0.914-13.259c-0.793-4.862-1.925-9.388-3.459-13.835
		c-1.348-3.912-3.507-7.911-6.601-12.226c-2.765-3.856-6.547-7.178-10.377-9.112c-2.521-1.273-4.806-2.152-7.19-2.768
		c-2.354-0.607-4.623-0.736-7.131-0.833c-0.241-0.009-0.485-0.014-0.734-0.014c-1.997,0-4.265,0.292-6.221,0.8l-0.721,0.186
		c-1.939,0.497-3.945,1.012-5.911,1.893c-4.28,1.917-8.29,4.268-12.258,7.187c-3.123,2.297-6.301,5.246-9.716,9.014
		c-5.521,6.092-10.403,13.336-15.366,22.799c-3.87,7.375-7.023,15.817-9.12,24.413c-1.167,4.781-2.175,9.105-2.693,13.605
		c-0.551,4.777-0.876,9.299-0.993,13.826c-0.118,4.531,0.379,9.088,0.897,13.367c0.533,4.391,1.606,8.813,3.103,12.791
		c4.08,10.848,9.63,18.09,16.966,22.143c4.514,2.494,9.475,3.76,14.743,3.76c4.385,0,8.776-0.881,13.053-2.617
		c7.89-3.205,15.015-8.402,22.423-16.355c6.79-7.291,11.65-15.721,15.126-22.25c3.69-6.934,6.719-15.02,9.53-25.447
		c2.122-7.875,3.285-16.594,3.556-26.652l0.004-0.139l0.004-0.121l0.002-0.077L289.745,164.151z M286.615,164.48
		c-0.234,8.723-1.173,17.477-3.449,25.924c-2.293,8.504-5.12,16.992-9.271,24.793c-4.093,7.688-8.691,15.186-14.655,21.588
		c-6.093,6.543-12.962,12.199-21.313,15.592c-3.836,1.557-7.869,2.387-11.878,2.387c-4.555,0-9.077-1.072-13.233-3.369
		c-7.863-4.344-12.49-12.367-15.554-20.51c-1.431-3.805-2.435-8.033-2.925-12.066c-0.519-4.277-0.988-8.594-0.876-12.912
		c0.118-4.551,0.452-9.025,0.974-13.549c0.514-4.459,1.563-8.869,2.625-13.223c1.979-8.115,4.969-16.301,8.852-23.703
		c4.157-7.927,8.883-15.497,14.915-22.152c2.804-3.094,5.883-6.117,9.252-8.595c3.706-2.726,7.484-4.971,11.685-6.853
		c1.953-0.875,4.078-1.37,6.141-1.906c1.651-0.429,3.663-0.699,5.436-0.699c0.208,0,0.413,0.003,0.614,0.011
		c2.188,0.084,4.341,0.187,6.472,0.736c2.323,0.599,4.423,1.451,6.563,2.531c3.56,1.798,6.933,4.916,9.247,8.145
		c2.527,3.525,4.766,7.302,6.187,11.425c1.51,4.377,2.583,8.75,3.328,13.319c0.689,4.234,0.801,8.532,0.874,12.811
		C286.62,164.297,286.618,164.389,286.615,164.48z"/>
</g>
<path d="M278.672,83c-1.493-0.833-1.946-3.01-2.239-4.527c-0.794-4.118,1.036-8.965,3.885-11.889
	c1.201-1.232,2.918-1.605,4.339-0.937c-1.486-1.479-3.667-1.733-5.643-2.217c-1.408-0.345-2.602,0.157-3.807,0.84
	c-1.667,0.945-2.995,3.054-3.711,4.773c-0.772,1.858-1.487,3.979-1.457,6.021c0.033,2.285,0.278,4.331,1.537,6.287
	c1.163,1.809,3.692,2.018,5.582,2.51c1.265,0.208,2.433,0.063,3.489-0.347C279.981,83.52,279.307,83.354,278.672,83z"/>
</svg>
