<svg id="info_ico" xmlns="http://www.w3.org/2000/svg" width="25" height="25" viewBox="0 0 25 25">
  <path id="Path_3472" data-name="Path 3472" d="M497.564,705.379a12.28,12.28,0,1,0,12.28,12.28,12.294,12.294,0,0,0-12.28-12.28Zm0,22.327a10.047,10.047,0,1,1,10.047-10.047,10.059,10.059,0,0,1-10.047,10.047Zm0,0" transform="translate(-485.284 -705.379)" fill="#0392a6"/>
  <path id="Path_3473" data-name="Path 3473" d="M496.315,710.046a1.364,1.364,0,1,0,1.364,1.365,1.366,1.366,0,0,0-1.364-1.365Zm0,0" transform="translate(-484.035 -704.776)" fill="#0392a6" stroke="#0392a6" stroke-width="1"/>
  <path id="Path_3474" data-name="Path 3474" d="M496.307,714.712a1.024,1.024,0,0,0-1.023,1.023v6.14a1.023,1.023,0,0,0,2.047,0v-6.14a1.023,1.023,0,0,0-1.023-1.023Zm0,0" transform="translate(-484.027 -703.797)" fill="#0392a6" stroke="#0392a6" stroke-width="1"/>
</svg>
