<?xml version="1.0" encoding="UTF-8" standalone="no"?><!DOCTYPE svg PUBLIC "-//W3C//DTD SVG 1.1//EN" "http://www.w3.org/Graphics/SVG/1.1/DTD/svg11.dtd"><svg width="100%" height="100%" viewBox="0 0 200 200" version="1.1" xmlns="http://www.w3.org/2000/svg" xmlns:xlink="http://www.w3.org/1999/xlink" xml:space="preserve" xmlns:serif="http://www.serif.com/" style="fill-rule:evenodd;clip-rule:evenodd;stroke-linecap:round;stroke-linejoin:round;stroke-miterlimit:1.5;"><rect id="Page-10" serif:id="Page 10" x="-1917.5" y="-338.5" width="5333.33" height="3333.33" style="fill:none;"/><g id="Layer-1" serif:id="Layer 1"></g><g><path d="M117.991,84.315l-15.1,-15.1c-7.194,-7.194 -18.552,-7.517 -25.348,-0.72l-63.595,63.594c-6.796,6.797 -6.474,18.155 0.72,25.349l26.069,26.069c7.194,7.194 18.553,7.517 25.349,0.72l24.628,-24.628" style="fill:none;stroke:#000;stroke-width:16.67px;"/><path d="M80.768,112.608l16.734,16.735c7.194,7.194 18.533,7.536 25.305,0.764l63.367,-63.367c6.772,-6.772 6.43,-18.111 -0.764,-25.305l-26.069,-26.069c-7.194,-7.194 -18.533,-7.536 -25.305,-0.764l-24.54,24.54" style="fill:none;stroke:#000;stroke-width:16.67px;"/></g></svg>