<svg xmlns="http://www.w3.org/2000/svg" width="30" height="30" viewBox="0 0 30 30"><rect width="30" height="30" fill="none"/><g transform="translate(5.01 1.3)"><path d="M8,21c2.012,3.2,4.175,6,4.825,6.825a1.488,1.488,0,0,0,2.35,0C15.826,27,17.988,24.2,20,21a39.462,39.462,0,0,0,2.725-5,11.95,11.95,0,0,0,1.25-4.662A10.175,10.175,0,0,0,13.976,1,10.175,10.175,0,0,0,4,11.413a11.95,11.95,0,0,0,1.25,4.663A39.463,39.463,0,0,0,8,21ZM14,3.5a7.675,7.675,0,0,1,7.5,7.838,9.725,9.725,0,0,1-1.05,3.637,37.5,37.5,0,0,1-2.562,4.775C16.5,21.95,14.951,24.025,14,25.288c-.95-1.25-2.5-3.337-3.887-5.6A37.5,37.5,0,0,1,7.551,15.05,9.725,9.725,0,0,1,6.5,11.413,7.675,7.675,0,0,1,14,3.575Z" transform="translate(-3.998 -1)"/><circle cx="2.5" cy="2.5" r="2.5" transform="translate(7.503 7.575)"/></g></svg>