<svg xmlns="http://www.w3.org/2000/svg" width="27.5" height="23.325" viewBox="0 0 27.5 23.325">
    <g data-name="Vrstva 147">
        <path d="M23.75 0h-20A3.75 3.75 0 0 0 0 3.75V15a3.75 3.75 0 0 0 3.75 3.75h1.875L8.5 22.575a1.875 1.875 0 0 0 3 0l2.875-3.825h9.375A3.75 3.75 0 0 0 27.5 15V3.75A3.75 3.75 0 0 0 23.75 0zM25 15a1.25 1.25 0 0 1-1.25 1.25H13.125L10 20.412 6.875 16.25H3.75A1.25 1.25 0 0 1 2.5 15V3.75A1.25 1.25 0 0 1 3.75 2.5h20A1.25 1.25 0 0 1 25 3.75z" data-name="Path 161"/>
        <path d="M6.25 7.5h6.25a1.25 1.25 0 0 0 0-2.5H6.25a1.25 1.25 0 0 0 0 2.5z" data-name="Path 162"/>
        <path d="M20 10H6.25a1.25 1.25 0 1 0 0 2.5H20a1.25 1.25 0 0 0 0-2.5z" data-name="Path 163"/>
    </g>
</svg>
