<?xml version="1.0" encoding="UTF-8" standalone="no"?><!DOCTYPE svg PUBLIC "-//W3C//DTD SVG 1.1//EN" "http://www.w3.org/Graphics/SVG/1.1/DTD/svg11.dtd"><svg width="100%" height="100%" viewBox="0 0 37 31" version="1.1" xmlns="http://www.w3.org/2000/svg" xmlns:xlink="http://www.w3.org/1999/xlink" xml:space="preserve" xmlns:serif="http://www.serif.com/" style="fill-rule:evenodd;clip-rule:evenodd;stroke-linejoin:round;stroke-miterlimit:2;"><path id="Path_3462" d="M34.965,17.551l-2.12,-0c-0.062,0.006 -0.124,0.019 -0.183,0.037c-0.432,-1.281 -1.64,-2.151 -2.992,-2.154l-0.195,-0c-0.443,-1.263 -1.642,-2.114 -2.98,-2.117l-8.462,-0c-0.119,-0 -0.228,0.026 -0.344,0.034c-0.863,-0.738 -1.839,-1.333 -2.891,-1.761c1.534,-1.203 2.432,-3.047 2.432,-4.997c-0,-3.483 -2.866,-6.349 -6.349,-6.349c-3.483,0 -6.349,2.866 -6.349,6.349c-0,1.95 0.898,3.794 2.432,4.997c-4.014,1.599 -6.663,5.504 -6.665,9.825l-0,1.058c-0,0.581 0.478,1.058 1.058,1.058c0.581,0 1.059,-0.477 1.059,-1.058l-0,-1.057c-0,-0.006 -0,-0.012 -0,-0.018c-0,-4.634 3.813,-8.448 8.448,-8.448c1.529,0 3.029,0.415 4.341,1.201c-1.529,0.965 -2.459,2.65 -2.46,4.458l-0,8.466c-0,1.742 1.433,3.175 3.175,3.175l2.392,-0c1.741,-0 3.175,-1.433 3.175,-3.175l-0,-3.614l5.016,-0c1.163,-0.003 2.235,-0.648 2.782,-1.675l0.393,-0c1.352,-0.003 2.559,-0.873 2.992,-2.154c0.059,0.018 0.121,0.03 0.183,0.037l2.112,-0c0.58,-0 1.058,-0.478 1.058,-1.059c0,-0.58 -0.478,-1.058 -1.058,-1.058l-0,-0.001Zm-24.084,-6.718c-2.322,0 -4.233,-1.911 -4.233,-4.233c-0,-2.322 1.911,-4.233 4.233,-4.233c2.322,0 4.233,1.911 4.233,4.233c-0,0 -0,0.001 -0,0.001c-0,2.322 -1.911,4.232 -4.232,4.232c-0.001,0 -0.001,0 -0.001,0Zm16.676,5.659l-0,3.792c-0.001,0.58 -0.478,1.057 -1.058,1.058l-5.863,0c-0.697,0 -1.27,0.573 -1.27,1.27l-0,4.463c-0,0.58 -0.478,1.058 -1.058,1.058l-2.392,0c-0.581,0 -1.058,-0.478 -1.058,-1.058l-0,-8.466c-0,-1.742 1.433,-3.175 3.175,-3.175l8.466,-0c0.58,0.001 1.057,0.478 1.058,1.058Zm2.117,3.176l-0,-2.117c0.58,0 1.058,0.478 1.058,1.058c0,0.581 -0.478,1.059 -1.058,1.059Z" style="stroke:#000;stroke-width:0.5px;"/><path id="Path_3463" d="M19.091,17.551l-1.059,0c-0.581,0 -1.059,0.478 -1.059,1.059c0,0.58 0.478,1.058 1.059,1.058l1.058,0c0.58,0 1.058,-0.478 1.058,-1.058c0,-0.581 -0.478,-1.059 -1.058,-1.059c-0,0 0.001,0 0.001,0Z"/></svg>