<svg id="repairer_ico" xmlns="http://www.w3.org/2000/svg" width="35.725" height="30" viewBox="0 0 35.725 30">
  <path id="Path_3462" data-name="Path 3462" d="M65.72,18.09H63.6a.951.951,0,0,0-.183.037,3.165,3.165,0,0,0-2.992-2.154h-.195a3.165,3.165,0,0,0-2.98-2.117H48.788c-.119,0-.228.026-.344.034a10.583,10.583,0,0,0-2.891-1.761,6.349,6.349,0,1,0-7.834,0,10.582,10.582,0,0,0-6.665,9.825v1.058a1.058,1.058,0,0,0,2.117,0V21.955a8.448,8.448,0,0,1,12.789-7.265A5.276,5.276,0,0,0,43.5,19.148v8.466a3.175,3.175,0,0,0,3.175,3.175h2.392a3.175,3.175,0,0,0,3.175-3.175V24h5.016a3.162,3.162,0,0,0,2.782-1.675h.393a3.166,3.166,0,0,0,2.992-2.154,1.039,1.039,0,0,0,.183.037H65.72a1.058,1.058,0,0,0,0-2.117ZM41.636,11.372a4.233,4.233,0,1,1,4.233-4.233A4.232,4.232,0,0,1,41.636,11.372Zm16.676,5.781v3.67a1.059,1.059,0,0,1-1.058,1.058H51.391a1.27,1.27,0,0,0-1.27,1.27v4.463a1.058,1.058,0,0,1-1.058,1.058H46.671a1.058,1.058,0,0,1-1.058-1.058V19.148a3.175,3.175,0,0,1,3.175-3.175h8.466a1.059,1.059,0,0,1,1.058,1.058Zm2.117,3.053V18.09a1.058,1.058,0,0,1,0,2.117Z" transform="translate(-31.053 -0.789)" fill-rule="evenodd"/>
  <path id="Path_3463" data-name="Path 3463" d="M48.928,17.137H47.869a1.058,1.058,0,1,0,0,2.117h1.058a1.058,1.058,0,1,0,0-2.117Z" transform="translate(-30.135 0.164)" fill-rule="evenodd"/>
</svg>
