<?xml version="1.0" encoding="UTF-8" standalone="no"?><!DOCTYPE svg PUBLIC "-//W3C//DTD SVG 1.1//EN" "http://www.w3.org/Graphics/SVG/1.1/DTD/svg11.dtd"><svg width="100%" height="100%" viewBox="0 0 2250 447" version="1.1" xmlns="http://www.w3.org/2000/svg" xmlns:xlink="http://www.w3.org/1999/xlink" xml:space="preserve" xmlns:serif="http://www.serif.com/" style="fill-rule:evenodd;clip-rule:evenodd;stroke-linejoin:round;stroke-miterlimit:1.41421;"><circle cx="240.889" cy="222.92" r="212.826" style="fill:#111357;"/><path d="M575.622,327.218l23.11,0l0,-67.154c13.058,0 21.349,0 27.463,-0.208c16.581,5.286 24.25,37.308 32.748,55.755c3.109,6.633 3.835,8.912 5.7,11.607l26.219,0c-2.176,-3.835 -4.249,-7.669 -6.321,-11.607c-10.467,-19.068 -18.862,-49.537 -33.474,-59.693c17.721,-6.218 28.499,-20.519 28.499,-43.733c0,-31.504 -21.555,-44.355 -53.682,-44.355c-15.234,0 -29.95,1.658 -40.209,1.658l-10.053,0l0,157.73Zm23.11,-83.528l0,-56.999c6.633,-1.347 15.131,-1.865 23.732,-1.865c24.251,0 33.474,8.913 33.474,28.499c0,21.867 -12.436,30.986 -32.852,30.986c-5.596,0 -19.794,-0.103 -24.354,-0.621Z" style="fill-rule:nonzero;"/><path d="M717.289,327.218l98.347,0l0,-18.136l-75.237,0l0,-54.2l49.64,0l0,-17.825l-49.64,0l0,-49.744l67.672,0l0,-17.825l-90.782,0l0,157.73Z" style="fill-rule:nonzero;"/><path d="M843.41,327.218l23.11,0l0,-54.615c4.042,0.104 10.364,0.518 20.416,0.518c39.381,0 60.315,-19.897 60.315,-54.2c0,-35.857 -21.038,-51.091 -55.03,-51.091c-13.99,0 -25.908,1.658 -37.929,1.658l-10.882,0l0,157.73Zm23.11,-72.129l0,-68.708c5.804,-1.451 12.436,-1.762 18.758,-1.969c25.286,-0.83 38.966,9.43 38.966,34.717c0,30.986 -18.447,36.997 -38.655,36.997c-6.011,0 -12.125,-0.104 -19.069,-1.037Z" style="fill-rule:nonzero;"/><path d="M957.096,327.218l24.457,0l14.094,-39.899l64.46,0l13.472,39.899l24.976,0l-58.864,-159.388l-22.281,0l-60.314,159.388Zm44.666,-57.102l22.384,-63.112l4.56,-14.716l4.456,14.716l21.141,63.112l-52.541,0Z" style="fill-rule:nonzero;"/><rect x="1122.18" y="169.488" width="23.421" height="157.73" style="fill-rule:nonzero;"/><path d="M1187.16,327.218l23.11,0l0,-67.154c13.058,0 21.349,0 27.463,-0.208c16.581,5.286 24.25,37.308 32.748,55.755c3.109,6.633 3.835,8.912 5.7,11.607l26.219,0c-2.176,-3.835 -4.249,-7.669 -6.322,-11.607c-10.466,-19.068 -18.861,-49.537 -33.473,-59.693c17.721,-6.218 28.499,-20.519 28.499,-43.733c0,-31.504 -21.556,-44.355 -53.682,-44.355c-15.234,0 -29.95,1.658 -40.209,1.658l-10.053,0l0,157.73Zm23.11,-83.528l0,-56.999c6.633,-1.347 15.131,-1.865 23.732,-1.865c24.25,0 33.474,8.913 33.474,28.499c0,21.867 -12.436,30.986 -32.852,30.986c-5.596,0 -19.794,-0.103 -24.354,-0.621Z" style="fill-rule:nonzero;"/><path d="M1323.96,286.386c0,28.292 25.804,42.49 62.698,42.49c10.985,0 23.317,-3.523 32.126,-8.083c8.187,5.492 15.545,8.083 25.908,8.083c5.286,0 9.327,-0.725 12.125,-1.554l0,-11.711c-8.705,-0.933 -15.337,-2.487 -22.384,-7.047c9.223,-8.291 14.301,-20.105 14.301,-35.443c0,-9.845 -1.969,-17.721 -3.005,-21.348l-19.898,0c0.829,2.902 3.42,11.607 3.42,21.245c0,10.778 -3.213,18.136 -8.498,23.628c-10.674,-11.71 -27.67,-33.991 -35.546,-44.977c21.97,-10.259 35.132,-23.317 35.132,-49.018c0,-18.447 -14.509,-35.65 -38.759,-35.65c-26.116,0 -42.904,14.094 -42.904,37.101c0,16.581 8.912,30.053 17.514,41.557c-17.929,8.29 -32.23,21.348 -32.23,40.727Zm51.609,-48.085c-10.778,-15.027 -15.752,-19.587 -15.752,-34.717c0,-14.82 9.949,-20.416 21.348,-20.416c13.265,0 19.794,11.296 19.794,19.794c0,18.654 -9.534,28.499 -25.39,35.339Zm-30.157,47.464c0,-11.193 8.498,-20.209 20.934,-26.738c9.845,13.68 26.219,35.65 38.344,49.226c-5.7,2.384 -11.503,4.145 -19.379,4.145c-29.639,0 -39.899,-13.265 -39.899,-26.633Z" style="fill-rule:nonzero;"/><path d="M1480.75,319.86c5.596,3.627 23.524,9.016 44.251,9.016c30.883,0 52.542,-13.68 52.542,-42.904c0,-24.665 -23.317,-37.619 -43.63,-48.086c-22.695,-11.71 -31.4,-17.203 -31.4,-32.644c0,-13.576 15.13,-19.276 30.053,-19.276c16.996,0 25.079,3.938 32.334,8.291l4.663,-18.24c-5.492,-3.523 -17.617,-8.187 -36.686,-8.187c-25.597,0 -52.438,10.26 -52.438,40.521c0,22.799 19.897,37.929 39.484,47.464c22.177,10.778 34.924,17.306 34.924,32.851c0,15.545 -11.607,21.867 -31.401,21.867c-14.405,0 -29.431,-4.871 -37.204,-9.638l-5.492,18.965Z" style="fill-rule:nonzero;"/><path d="M1604.91,327.218l23.11,0l0,-70.781l74.409,0l0,70.781l23.11,0l0,-157.73l-23.11,0l0,69.124l-74.409,0l0,-69.124l-23.11,0l0,157.73Z" style="fill-rule:nonzero;"/><path d="M1747.82,327.218l24.458,0l14.094,-39.899l64.459,0l13.473,39.899l24.975,0l-58.863,-159.388l-22.281,0l-60.315,159.388Zm44.666,-57.102l22.385,-63.112l4.56,-14.716l4.456,14.716l21.141,63.112l-52.542,0Z" style="fill-rule:nonzero;"/><path d="M1911.56,327.218l23.111,0l0,-67.154c13.057,0 21.348,0 27.462,-0.208c16.582,5.286 24.25,37.308 32.748,55.755c3.109,6.633 3.835,8.912 5.7,11.607l26.219,0c-2.176,-3.835 -4.249,-7.669 -6.321,-11.607c-10.467,-19.068 -18.861,-49.537 -33.474,-59.693c17.722,-6.218 28.499,-20.519 28.499,-43.733c0,-31.504 -21.555,-44.355 -53.682,-44.355c-15.234,0 -29.95,1.658 -40.209,1.658l-10.053,0l0,157.73Zm23.111,-83.528l0,-56.999c6.632,-1.347 15.13,-1.865 23.732,-1.865c24.25,0 33.473,8.913 33.473,28.499c0,21.867 -12.436,30.986 -32.852,30.986c-5.596,0 -19.794,-0.103 -24.353,-0.621Z" style="fill-rule:nonzero;"/><path d="M2053.22,327.218l98.348,0l0,-18.136l-75.238,0l0,-54.2l49.64,0l0,-17.825l-49.64,0l0,-49.744l67.672,0l0,-17.825l-90.782,0l0,157.73Z" style="fill-rule:nonzero;"/><g><path d="M362.22,334.919c-7.058,6.429 -17.971,8.603 -26.039,5.399c-3.109,-1.18 -5.755,-3.058 -8.213,-5.218l-93.649,-93.865c-3.982,-3.991 -10.944,-19.12 -15.262,-22.514c-1.963,-1.542 -5.677,-2.998 -10.293,-2.675c-9.012,2.263 -26.074,6.28 -43.026,-0.064c-19.997,-7.646 -33.42,-25.026 -36.881,-45.978l0,-35.491c8.647,1.093 17.487,8.256 19.178,18.125l0,11.756c0,11.933 8.92,24.918 18.428,30.305c16.969,9.614 36.751,5.935 49.023,-7.172c10.753,-11.483 15.309,-27.164 7.029,-44.32c-6.595,-14.095 -21.182,-23.136 -42.043,-22.012c-11.449,0.164 -18.114,-10.197 -19.364,-18.562l29.757,0c19.067,0 33.575,12.131 37.227,15.616c13.392,12.778 19.63,31.607 17.3,49.676c-0.67,5.195 -2.322,9.671 -3.316,13.812c-0.644,12.659 10.419,16.79 15.884,19.397c9.547,4.553 69.256,66.743 104.26,101.001c4.009,3.923 6.313,10.389 6.506,16.213c0.193,5.823 -1.526,12.036 -6.506,16.571Z" style="fill:#ffffe8;"/><circle cx="186.716" cy="160.474" r="21.806" style="fill:#ffffe8;"/><path d="M268.124,188.26l14.567,14.601l47.572,-47.527l25.186,-15.198l12.383,-27.617l-10.118,-10.127l-27.451,13.131l-14.502,24.613l-47.637,48.124Z" style="fill:#ffffe8;"/><path d="M203.763,232.073l6.138,6.073l-64.143,64.209c-2.923,2.927 -0.866,7.468 0.45,8.588c1.762,1.499 5.561,2.988 8.058,0.293l46.269,-46.286l13.956,-22.146l13.627,13.588l-20.117,12.8l-48.884,47.919c-2.188,2.145 -1.158,5.016 0.647,7.025c2.122,2.494 5.977,2.849 8.193,0.68l64.639,-63.812l6.032,5.82l-69.408,69.491c-3.952,3.957 -10.425,6.013 -15.373,6.008c-7.468,-0.007 -14.93,-3.351 -19.031,-8.623c-3.305,-4.247 -4.78,-6.402 -5.821,-13.764c-0.901,-6.364 0.576,-13.91 5.821,-19.138l68.947,-68.725Z" style="fill:#ffffe8;"/></g><circle cx="344.764" cy="318.604" r="13.66" style="fill:#111357;"/></svg>