<?xml version="1.0" encoding="UTF-8" standalone="no"?>
<!DOCTYPE svg PUBLIC "-//W3C//DTD SVG 1.1//EN" "http://www.w3.org/Graphics/SVG/1.1/DTD/svg11.dtd">
<svg width="100%" height="100%" viewBox="0 0 25 25" version="1.1" xmlns="http://www.w3.org/2000/svg" xmlns:xlink="http://www.w3.org/1999/xlink" xml:space="preserve" xmlns:serif="http://www.serif.com/" style="fill-rule:evenodd;clip-rule:evenodd;stroke-linejoin:round;stroke-miterlimit:2;">
    <rect id="Rectangle_24" x="0" y="0" width="25" height="25" style="fill:none;fill-rule:nonzero;"/>
    <g id="Layer" transform="matrix(1,0,0,1,3.073,3.073)">
        <g id="Path_62" transform="matrix(1,0,0,1,-3,-2.667)">
            <path d="M3,12.042C2.997,11.508 3.406,11.053 3.938,11L20.813,11C20.824,11 20.835,11 20.845,11C21.417,11 21.887,11.47 21.887,12.041C21.887,12.613 21.417,13.083 20.845,13.083C20.835,13.083 20.824,13.083 20.813,13.083L3.938,13.083C3.407,13.03 2.998,12.576 3,12.042Z" style="fill-rule:nonzero;"/>
        </g>
        <g id="Path_63" transform="matrix(1,0,0,1,-2.667,-3)">
            <path d="M12.042,3C12.576,2.997 13.031,3.406 13.084,3.938L13.084,20.813C13.084,20.824 13.085,20.835 13.085,20.845C13.085,21.417 12.614,21.887 12.043,21.887C11.471,21.887 11.001,21.417 11.001,20.845C11.001,20.835 11.001,20.824 11.001,20.813L11.001,3.938C11.054,3.407 11.508,2.998 12.042,3Z" style="fill-rule:nonzero;"/>
        </g>
    </g>
</svg>
