<svg xmlns="http://www.w3.org/2000/svg" id="Layer" width="18.475" height="18.549" viewBox="0 0 18.475 18.549">
    <defs>
        <style>
            .cls-1{fill:#fff}
        </style>
    </defs>
    <path id="Path_76" d="M5 22.692a1.25 1.25 0 0 1 0-1.762L20.915 5.017a1.25 1.25 0 1 1 1.763 1.763L6.765 22.692a1.25 1.25 0 0 1-1.762 0z" class="cls-1" data-name="Path 76" transform="translate(-4.639 -4.58)"/>
    <path id="Path_77" d="M5 5a1.25 1.25 0 0 1 1.765 0l15.913 15.915a1.25 1.25 0 1 1-1.762 1.762L5 6.765A1.25 1.25 0 0 1 5 5z" class="cls-1" data-name="Path 77" transform="translate(-4.639 -4.566)"/>
</svg>
