<svg width="20" height="20" viewBox="0 0 20 20" version="1.1" xmlns="http://www.w3.org/2000/svg" xmlns:xlink="http://www.w3.org/1999/xlink" xml:space="preserve" xmlns:serif="http://www.serif.com/" style="fill-rule:evenodd;clip-rule:evenodd;stroke-linejoin:round;stroke-miterlimit:2;">
    <g id="reply_ico" transform="matrix(-3.82857e-16,1,-1,-3.82857e-16,20,3.55271e-15)">
        <rect id="Rectangle_285" x="0" y="0" width="20" height="20" style="fill:none;fill-rule:nonzero;"/>
        <g id="Vrstva_428" transform="matrix(1,0,0,1,4.165,1.667)">
            <g id="Path_587" transform="matrix(1,0,0,1,-5.497,-2)">
                <path d="M8,6.583C8,4.069 10.069,1.999 12.584,1.999C15.098,1.999 17.167,4.069 17.167,6.583L17.167,17.833C17.167,18.29 16.791,18.667 16.334,18.667C15.876,18.667 15.5,18.29 15.5,17.833L15.5,6.583C15.5,6.565 15.501,6.547 15.501,6.529C15.501,4.929 14.184,3.612 12.584,3.612C10.983,3.612 9.667,4.929 9.667,6.529C9.667,6.547 9.667,6.565 9.667,6.583L9.667,12C9.667,12.457 9.291,12.834 8.834,12.834C8.376,12.834 8,12.457 8,12L8,6.583Z"/>
            </g>
            <g id="Path_588" transform="matrix(1,0,0,1,-4.996,-3.499)">
                <path d="M11.424,11.241C11.268,11.083 11.055,10.995 10.833,10.995C10.61,10.995 10.397,11.083 10.241,11.241L8.333,13.157L6.424,11.241C6.269,11.096 6.065,11.016 5.853,11.016C5.394,11.016 5.016,11.394 5.016,11.853C5.016,12.065 5.096,12.269 5.241,12.424L7.449,14.624C7.682,14.86 8.001,14.993 8.333,14.993C8.664,14.993 8.983,14.86 9.216,14.624L11.424,12.424C11.582,12.268 11.67,12.055 11.67,11.833C11.67,11.61 11.582,11.397 11.424,11.241Z"/>
            </g>
        </g>
    </g>
</svg>
