<?xml version="1.0" encoding="utf-8"?>
<!-- Generator: Adobe Illustrator 16.0.0, SVG Export Plug-In . SVG Version: 6.00 Build 0)  -->
<!DOCTYPE svg PUBLIC "-//W3C//DTD SVG 1.1//EN" "http://www.w3.org/Graphics/SVG/1.1/DTD/svg11.dtd">
<svg version="1.1" id="Layer_1" xmlns="http://www.w3.org/2000/svg" xmlns:xlink="http://www.w3.org/1999/xlink" x="0px" y="0px"
	 width="128px" height="128px" viewBox="0 0 128 128" enable-background="new 0 0 128 128" xml:space="preserve">
<pattern  x="-365.5" y="-72.5" width="183.277" height="183.277" patternUnits="userSpaceOnUse" id="New_Pattern_Swatch_2" viewBox="0 -183.277 183.277 183.277" overflow="visible">
	<g>
		<polygon fill="none" points="0,0 183.277,0 183.277,-183.277 0,-183.277 		"/>
		<polygon fill="#0394A6" points="183.277,0 0,0 0,-183.277 183.277,-183.277 		"/>
	</g>
</pattern>
<pattern  x="-365.5" y="-72.5" width="183.277" height="183.277" patternUnits="userSpaceOnUse" id="New_Pattern_Swatch_3" viewBox="0 -183.277 183.277 183.277" overflow="visible">
	<g>
		<polygon fill="none" points="0,0 183.277,0 183.277,-183.277 0,-183.277 		"/>
		<polygon fill="#F9A33F" points="183.277,0 0,0 0,-183.277 183.277,-183.277 		"/>
	</g>
</pattern>
<g>
	<path fill="url(#New_Pattern_Swatch_2)" d="M125.097,2.903v122.193H2.903V2.903H125.097 M128,0H0v128h128V0L128,0z"/>
	<polygon fill="url(#New_Pattern_Swatch_3)" points="48.161,96.084 46.037,94.831 43.627,98.913 45.751,100.166 	"/>
	<path fill="#FFFFFF" d="M49.958,93.913L23.77,78.457c-1.438-0.849-3.305-0.368-4.154,1.071l-7.839,13.283
		c-0.853,1.443-0.369,3.306,1.069,4.155l26.188,15.456c1.44,0.851,3.302,0.372,4.154-1.072l7.84-13.283
		C51.877,96.628,51.397,94.764,49.958,93.913z"/>
	
		<rect x="43.524" y="96.265" transform="matrix(-0.5084 0.8611 -0.8611 -0.5084 153.1841 107.5491)" fill="#FFFFFF" width="4.74" height="2.466"/>
	<polygon fill="url(#New_Pattern_Swatch_3)" points="45.751,100.166 48.161,96.084 46.037,94.831 43.627,98.913 	"/>
	<path fill="#FFFFFF" d="M23.302,80.527c-0.357-0.211-0.824-0.092-1.038,0.271l-8.096,13.717c-0.214,0.361-0.093,0.828,0.265,1.04
		l12.339,7.283l0.058,0.033l0.255,0.15l8.869-15.028L23.302,80.527z"/>
	<path fill="#FFFFFF" d="M27.742,103.41l0.59,0.349l0.69,0.408l2.051,1.21l0.553,0.327l2.389,1.41l0.552,0.325l2.388,1.409
		l0.553,0.326l2.058,1.216l0.114,0.067c0.36,0.212,0.827,0.092,1.04-0.27l8.097-13.717c0.214-0.362,0.093-0.829-0.267-1.042
		L37.776,89.07l-0.575-0.338l-0.59-0.349l-0.003-0.001l-8.87,15.027L27.742,103.41z M34.348,106.427l-2.285-1.348l2.217-3.755
		l2.285,1.35L34.348,106.427z M36.95,102.018l-2.284-1.349l2.7-4.574l2.285,1.348L36.95,102.018z M40.306,97.83l2.287,1.35
		l-2.7,4.574l-2.287-1.349L40.306,97.83z M37.29,108.164l-2.287-1.351l2.217-3.755l2.286,1.351L37.29,108.164z M40.065,109.802
		l-2.124-1.254l2.215-3.755l2.124,1.254L40.065,109.802z M42.668,105.392l-2.124-1.254l2.699-4.574l2.124,1.253L42.668,105.392z
		 M48.161,96.084l-2.41,4.082l-2.124-1.253l2.41-4.082L48.161,96.084z M45.387,94.446l-2.41,4.083l-2.286-1.35l2.409-4.083
		L45.387,94.446z M42.443,92.709l-2.409,4.083l-2.284-1.348l2.409-4.083L42.443,92.709z M36.878,89.424l2.627,1.551l-2.41,4.082
		l-2.613-1.542c-0.006-0.003-0.012-0.002-0.017-0.003L36.878,89.424z M34.084,94.158c0.003,0.002,0.009,0.005,0.014,0.008
		l2.613,1.542l-2.7,4.574l-2.613-1.542c-0.005-0.003-0.012-0.002-0.016-0.005L34.084,94.158z M30.999,99.383
		c0.005,0.002,0.007,0.009,0.013,0.012l2.612,1.542l-2.216,3.754l-2.627-1.55L30.999,99.383z"/>
	<polygon fill="#FFFFFF" points="36.608,88.381 36.854,87.965 36.198,87.578 35.953,87.994 36.313,88.206 	"/>
	<polygon fill="url(#New_Pattern_Swatch_2)" points="36.608,88.381 36.854,87.965 36.198,87.578 35.953,87.994 36.313,88.206 	"/>
	<polygon fill="url(#New_Pattern_Swatch_2)" points="36.608,88.381 36.854,87.965 36.198,87.578 35.953,87.994 36.313,88.206 	"/>
	
		<rect x="26.742" y="103.217" transform="matrix(0.5082 -0.8613 0.8613 0.5082 -75.8528 74.3654)" fill="#FFFFFF" width="0.888" height="0.76"/>
	<polygon fill="url(#New_Pattern_Swatch_2)" points="27.084,103.021 26.633,103.786 27.287,104.172 27.738,103.408 	"/>
	<polygon fill="url(#New_Pattern_Swatch_2)" points="27.084,103.021 26.633,103.786 27.287,104.172 27.738,103.408 	"/>
	
		<rect x="26.474" y="103.951" transform="matrix(-0.8615 -0.5078 0.5078 -0.8615 -2.8995 207.524)" fill="#FFFFFF" width="0.761" height="0.414"/>
	<polygon fill="url(#New_Pattern_Swatch_2)" points="26.422,104.143 27.077,104.529 27.287,104.172 26.633,103.786 	"/>
	<polygon fill="url(#New_Pattern_Swatch_2)" points="26.422,104.143 27.077,104.529 27.287,104.172 26.633,103.786 	"/>
	<polygon fill="url(#New_Pattern_Swatch_2)" points="26.422,104.143 27.077,104.529 27.287,104.172 26.633,103.786 	"/>
	<polygon fill="#FFFFFF" points="36.608,88.381 36.313,88.206 35.953,87.994 27.084,103.021 27.738,103.408 	"/>
	<g>
		<path fill="url(#New_Pattern_Swatch_2)" d="M49.958,93.913L23.77,78.457c-1.438-0.849-3.305-0.368-4.154,1.071l-7.839,13.283
			c-0.853,1.443-0.369,3.306,1.069,4.155l26.188,15.456c1.44,0.851,3.302,0.372,4.154-1.072l7.84-13.283
			C51.877,96.628,51.397,94.764,49.958,93.913z M36.854,87.965l-0.246,0.416l0.003,0.001l0.59,0.349l0.575,0.338l10.772,6.358
			c0.359,0.213,0.48,0.679,0.267,1.042l-8.097,13.717c-0.213,0.361-0.68,0.481-1.04,0.27l-0.114-0.067l-2.058-1.216l-0.553-0.326
			l-2.388-1.409l-0.552-0.325l-2.389-1.41l-0.553-0.327l-2.051-1.21l-0.69-0.408l-0.59-0.349l-0.004-0.002l-0.451,0.764l-0.21,0.356
			l-0.655-0.386l0.211-0.356l0.451-0.765l-0.255-0.15l-0.058-0.033l-12.339-7.283c-0.357-0.211-0.479-0.678-0.265-1.04l8.096-13.717
			c0.214-0.363,0.681-0.483,1.038-0.271l12.651,7.466l0.245-0.416"/>
		<polygon fill="url(#New_Pattern_Swatch_2)" points="36.313,88.206 35.953,87.994 27.084,103.021 27.738,103.408 36.608,88.381 		
			"/>
	</g>
	<path fill="#FFFFFF" d="M37.095,95.057l2.41-4.082l-2.627-1.551l-2.413,4.088c0.005,0.001,0.011,0,0.017,0.003L37.095,95.057z"/>
	<path fill="url(#New_Pattern_Swatch_3)" d="M37.095,95.057l2.41-4.082l-2.627-1.551l-2.413,4.088c0.005,0.001,0.011,0,0.017,0.003
		L37.095,95.057z"/>
	
		<rect x="40.668" y="94.484" transform="matrix(-0.5084 0.8611 -0.8611 -0.5084 147.4249 107.4596)" fill="#FFFFFF" width="4.741" height="2.656"/>
	<polygon fill="url(#New_Pattern_Swatch_3)" points="42.977,98.529 45.387,94.446 43.1,93.096 40.69,97.179 	"/>
	
		<rect x="37.726" y="92.75" transform="matrix(-0.5082 0.8612 -0.8612 -0.5082 141.4957 107.3563)" fill="#FFFFFF" width="4.74" height="2.653"/>
	<polygon fill="url(#New_Pattern_Swatch_3)" points="40.034,96.792 42.443,92.709 40.159,91.361 37.75,95.444 	"/>
	
		<rect x="35.832" y="96.4" transform="matrix(-0.8611 -0.5084 0.5084 -0.8611 18.7945 203.2461)" fill="#FFFFFF" width="2.653" height="5.313"/>
	<polygon fill="url(#New_Pattern_Swatch_3)" points="34.666,100.669 36.95,102.018 39.651,97.443 37.366,96.095 	"/>
	
		<rect x="38.771" y="98.136" transform="matrix(0.8612 0.5082 -0.5082 0.8612 56.7878 -6.3922)" fill="#FFFFFF" width="2.656" height="5.312"/>
	<polygon fill="url(#New_Pattern_Swatch_3)" points="42.593,99.18 40.306,97.83 37.605,102.404 39.893,103.753 	"/>
	<polygon fill="#FFFFFF" points="34.011,100.282 36.711,95.708 34.098,94.166 34.084,94.158 31.382,98.735 31.397,98.74 	"/>
	<polygon fill="url(#New_Pattern_Swatch_3)" points="34.011,100.282 36.711,95.708 34.098,94.166 34.084,94.158 31.382,98.735 
		31.397,98.74 	"/>
	<path fill="#FFFFFF" d="M33.624,100.938l-2.612-1.542c-0.006-0.003-0.008-0.01-0.013-0.012l-2.218,3.758l2.627,1.55L33.624,100.938
		z"/>
	<path fill="url(#New_Pattern_Swatch_3)" d="M33.624,100.938l-2.612-1.542c-0.006-0.003-0.008-0.01-0.013-0.012l-2.218,3.758
		l2.627,1.55L33.624,100.938z"/>
	
		<rect x="38.878" y="105.118" transform="matrix(-0.8611 -0.5084 0.5084 -0.8611 20.1052 220.0865)" fill="#FFFFFF" width="2.467" height="4.359"/>
	<polygon fill="url(#New_Pattern_Swatch_3)" points="37.941,108.548 40.065,109.802 42.28,106.047 40.156,104.792 	"/>
	
		<rect x="41.722" y="99.821" transform="matrix(-0.8611 -0.5084 0.5084 -0.8611 27.85 212.5618)" fill="#FFFFFF" width="2.467" height="5.312"/>
	<polygon fill="url(#New_Pattern_Swatch_3)" points="40.544,104.138 42.668,105.392 45.367,100.817 43.243,99.564 	"/>
	
		<rect x="35.075" y="104.283" transform="matrix(0.5084 -0.8611 0.8611 0.5084 -72.6299 84.0008)" fill="#FFFFFF" width="4.36" height="2.656"/>
	<polygon fill="url(#New_Pattern_Swatch_3)" points="37.22,103.059 35.003,106.813 37.29,108.164 39.506,104.409 	"/>
	
		<rect x="32.133" y="102.548" transform="matrix(0.5083 -0.8612 0.8612 0.5083 -72.582 80.6204)" fill="#FFFFFF" width="4.361" height="2.653"/>
	<polygon fill="url(#New_Pattern_Swatch_3)" points="34.279,101.323 32.063,105.079 34.348,106.427 36.564,102.673 	"/>
	<path fill="url(#New_Pattern_Swatch_2)" d="M93.35,71.237L61.753,39.385c-0.26,0.787-0.711,1.505-1.318,2.081l26.601,26.816
		c0.308,0.31,0.31,0.803-0.002,1.113L62.271,93.958c-0.309,0.307-0.806,0.304-1.113-0.006L31.968,64.527
		c-0.31-0.312-0.311-0.806,0-1.115l19.331-19.176l-9.964,2.236L26.44,61.247c-0.311,0.308-0.31,0.804-0.003,1.113l37.626,37.929
		c0.307,0.309,0.802,0.314,1.115,0.003l28.168-27.942C93.651,72.047,93.657,71.546,93.35,71.237z M77.83,84.88
		c-0.474,0.47-1.241,0.469-1.711-0.004c-0.472-0.475-0.466-1.239,0.01-1.711c0.473-0.47,1.236-0.468,1.708,0.007
		C78.307,83.646,78.303,84.411,77.83,84.88z"/>
	<path fill="url(#New_Pattern_Swatch_2)" d="M19.147,23.579l-6.912,1.532c-1.33,0.299-2.174,1.631-1.875,2.962l4.321,19.255
		c0.298,1.33,1.631,2.173,2.961,1.875l6.911-1.532L19.147,23.579z"/>
	<path fill="url(#New_Pattern_Swatch_2)" d="M30.521,23.71c-0.002,0-0.005,0-0.007,0.001l-7.23,1.623
		c-0.018,0.004-0.049,0.034-0.073,0.091c-0.044,0.1-0.052,0.234-0.021,0.369c0.055,0.246,0.208,0.375,0.274,0.375l7.237-1.624
		c0.019-0.004,0.049-0.034,0.074-0.091c0.044-0.1,0.052-0.234,0.021-0.368C30.742,23.838,30.588,23.71,30.521,23.71z"/>
	<path fill="url(#New_Pattern_Swatch_2)" d="M59.428,37.286L55.106,18.03c-0.299-1.33-1.631-2.173-2.962-1.875l-32.049,7.192
		l5.406,24.093l32.05-7.193C58.883,39.949,59.727,38.616,59.428,37.286z M30.805,25.002l-7.231,1.623
		c-0.036,0.008-0.072,0.012-0.109,0.012c-0.321,0-0.636-0.308-0.733-0.741c-0.108-0.483,0.094-0.94,0.451-1.021l7.23-1.623
		c0.036-0.008,0.073-0.012,0.109-0.012c0.322,0,0.637,0.308,0.733,0.741C31.363,24.465,31.162,24.922,30.805,25.002z M47.555,41.536
		c-5.818,1.306-11.594-2.353-12.899-8.17s2.353-11.593,8.17-12.899c5.818-1.306,11.594,2.353,12.898,8.17
		C57.03,34.456,53.372,40.23,47.555,41.536z"/>
	<path fill="url(#New_Pattern_Swatch_2)" d="M45.183,39.977c-4.157,0-7.837-2.948-8.748-7.01c-1.083-4.828,1.963-9.636,6.79-10.72
		c0.65-0.146,1.313-0.219,1.974-0.219c4.156,0,7.835,2.948,8.747,7.009c0.525,2.339,0.107,4.742-1.175,6.767
		c-1.283,2.024-3.277,3.429-5.616,3.954C46.506,39.903,45.842,39.977,45.183,39.977z M45.198,22.536
		c-0.623,0-1.249,0.07-1.861,0.208c-4.554,1.022-7.427,5.558-6.405,10.111c0.86,3.832,4.33,6.613,8.251,6.613
		c0.622,0,1.248-0.07,1.86-0.207c2.206-0.496,4.087-1.82,5.297-3.73c1.21-1.91,1.604-4.177,1.108-6.382
		C52.588,25.317,49.118,22.536,45.198,22.536z"/>
	<path fill="url(#New_Pattern_Swatch_3)" d="M49.616,30.008c-0.549-2.443-2.976-3.981-5.42-3.433s-3.98,2.975-3.433,5.419
		c0.549,2.445,2.976,3.981,5.42,3.433C48.627,34.878,50.164,32.453,49.616,30.008z M45.872,34.037
		c-1.678,0.376-3.342-0.678-3.718-2.354c-0.376-1.676,0.678-3.341,2.354-3.717c1.677-0.376,3.342,0.678,3.718,2.354
		C48.602,31.997,47.548,33.661,45.872,34.037z"/>
	<path fill="url(#New_Pattern_Swatch_3)" d="M17.989,22.766c-0.104-0.458-1.486-0.538-3.09-0.177
		c-1.604,0.359-2.819,1.021-2.717,1.48l0.126,0.56l5.806-1.303L17.989,22.766z"/>
	<g>
		<path fill="url(#New_Pattern_Swatch_2)" d="M39.061,18.625c-0.332,0.075-0.396-0.05-0.143-0.277l0.311-0.277
			c0.254-0.227,0.734-0.474,1.066-0.548l4.232-0.95c0.332-0.075,0.873-0.06,1.201,0.033l0.433,0.123
			c0.328,0.093,0.324,0.229-0.008,0.304L39.061,18.625z"/>
	</g>
	<path fill="url(#New_Pattern_Swatch_2)" d="M21.648,22.533l-0.168-0.746c-0.074-0.333,0.137-0.666,0.47-0.741l4.917-1.103
		c0.332-0.076,0.666,0.136,0.74,0.468l0.167,0.746L21.648,22.533z"/>
	<path fill="url(#New_Pattern_Swatch_2)" d="M114.346,73.359c0.287-0.493,0.56-0.991,0.819-1.49l0.55,0.32
		c7.623-14.647,3.661-32.123-9.267-39.659c-12.923-7.532-32.174-3.401-39.275,11.366l0.553,0.321
		c-0.232,0.485-0.452,0.978-0.653,1.48c-0.49,1.215-0.943,2.447-1.36,3.691l-0.562-0.327c-2.44,7.219-3.761,15.468-3.353,22.708
		l3.722,1.937c-1.259-7.122-0.191-15.538,2.214-23.139l-0.564-0.329c0.464-1.453,0.981-2.895,1.554-4.315
		c0.122-0.304,0.253-0.603,0.386-0.9l0.553,0.322c6.152-13.765,23.81-17.692,35.606-10.817c11.799,6.877,15.297,22.96,8.03,36.251
		l0.55,0.32c-0.141,0.256-0.283,0.513-0.432,0.768c-0.766,1.313-1.633,2.589-2.583,3.821l-0.557-0.325
		c-4.33,5.566-10.455,10.158-16.854,12.652l0.264,0.153l-0.851,1.459l2.496,1.454c6.749-3.086,13.1-8.186,17.491-14.235
		l-0.554-0.322C113.023,75.491,113.72,74.433,114.346,73.359z"/>
	<path fill="#FFFFFF" d="M86.613,92.283c-0.156-0.091-0.276-0.187-0.365-0.291l-0.559-0.646l0.779-0.35
		c2.749-1.234,5.684-3.115,8.483-5.442c3.744-3.109,6.789-6.656,8.354-9.731l0.688-1.35l0.482,1.436
		c0.043,0.129,0.09,0.259,0.136,0.391c0.37,1.049,0.789,2.239,0.125,3.458l-0.025,0.047c-0.368,0.676-0.585,1.116-0.427,1.617
		l0.054,0.172c0.22,0.682,0.468,1.455,0.154,2.337c-0.186,0.524-0.609,0.943-0.949,1.28c-0.078,0.077-0.153,0.151-0.223,0.224
		c-0.923,0.974-1.97,1.938-3.201,2.947c-1.728,1.419-3.587,2.731-5.682,4.015c-0.574,0.352-1.166,0.701-1.762,1.038
		c-0.069,0.038-0.137,0.079-0.203,0.118c-0.385,0.229-0.822,0.489-1.417,0.492c-0.519,0.003-0.991-0.224-1.372-0.407
		c-0.088-0.042-0.173-0.083-0.257-0.121l-1.93-0.852c-0.024-0.01-0.065-0.025-0.115-0.044C87.177,92.546,86.866,92.43,86.613,92.283
		z"/>
	<path fill="#FFFFFF" d="M65.063,79.723c-0.253-0.148-0.505-0.361-0.673-0.502c-0.042-0.035-0.074-0.063-0.096-0.079l-1.692-1.26
		c-0.072-0.054-0.151-0.108-0.231-0.164c-0.346-0.241-0.777-0.54-1.03-0.993c-0.29-0.52-0.279-1.028-0.27-1.476
		c0.001-0.078,0.003-0.156,0.003-0.235c0-0.685,0.011-1.373,0.034-2.045c0.083-2.42,0.315-4.749,0.692-6.921
		c0.271-1.568,0.595-2.955,0.987-4.239c0.029-0.095,0.057-0.197,0.085-0.303c0.125-0.462,0.281-1.036,0.645-1.458
		c0.614-0.708,1.409-0.873,2.108-1.018l0.178-0.037c0.515-0.109,0.79-0.515,1.197-1.168l0.028-0.046
		c0.733-1.178,1.976-1.399,3.071-1.594c0.137-0.024,0.272-0.048,0.406-0.075l1.486-0.288l-0.836,1.263
		c-1.904,2.877-3.49,7.275-4.35,12.064c-0.644,3.584-0.835,7.064-0.554,10.065l0.079,0.849l-0.837-0.167
		C65.36,79.871,65.219,79.813,65.063,79.723L65.063,79.723z"/>
	<g>
		<path fill="url(#New_Pattern_Swatch_3)" d="M82.142,36.24c0.891,0.519,1.841,0.708,2.601,0.583
			c5.988-2.018,12.816-1.52,18.212,1.625c5.312,3.097,8.654,8.377,9.719,14.341l0.006,0.004c0.158,0.836,0.85,1.741,1.895,2.35
			c0.589,0.343,1.203,0.542,1.771,0.602c-0.203-8.45-4.239-16.266-11.506-20.501c-7.214-4.205-16.674-4.265-24.206-0.417
			C80.966,35.354,81.483,35.855,82.142,36.24z"/>
	</g>
	<path fill="url(#New_Pattern_Swatch_2)" d="M66.181,69.037c0.91-5.068,2.566-9.461,4.446-12.302
		c-1.135,0.22-2.396,0.313-3.061,1.381c-0.406,0.653-0.808,1.324-1.631,1.5c-0.722,0.153-1.422,0.254-1.938,0.85
		c-0.342,0.394-0.457,1.049-0.604,1.529c-0.416,1.363-0.726,2.758-0.969,4.161c-0.392,2.258-0.604,4.545-0.684,6.835
		c-0.022,0.675-0.034,1.349-0.034,2.023c0.001,0.49-0.062,0.956,0.187,1.4c0.23,0.412,0.718,0.683,1.086,0.956
		c0.564,0.421,1.129,0.841,1.693,1.261c0.131,0.098,0.649,0.582,0.945,0.641C65.345,76.338,65.508,72.791,66.181,69.037z"/>
	<path fill="url(#New_Pattern_Swatch_3)" d="M70.563,80.902c0.464-0.188,0.876-0.568,1.157-1.073
		c0.707-1.528,1.431-3.667,2.084-6.188c0.425-1.636,0.818-3.432,1.158-5.325c0.204-1.14,0.379-2.241,0.522-3.314
		c0.303-2.26,0.47-4.316,0.502-6.082c0,0,0,0-0.001,0c0.022-0.504-0.192-0.949-0.56-1.279c-1.345,3.079-2.708,7.639-3.715,13.244
		C71.03,74.669,70.669,78.062,70.563,80.902z"/>
	<path fill="#FFFFFF" d="M73.225,69.477c0.764-3.601,0.991-6.594,0.51-6.684c-0.47-0.088-1.442,2.619-2.198,6.096
		c-0.777,3.694-1.014,6.756-0.541,6.947C71.485,75.827,72.475,73.018,73.225,69.477z"/>
	<path fill="url(#New_Pattern_Swatch_2)" d="M95.359,86.044c3.961-3.29,6.968-6.896,8.514-9.931
		c0.367,1.096,0.906,2.238,0.306,3.342c-0.368,0.676-0.755,1.356-0.502,2.159c0.223,0.704,0.48,1.362,0.217,2.105
		c-0.174,0.491-0.688,0.914-1.034,1.279c-0.979,1.034-2.042,1.991-3.144,2.894c-1.773,1.456-3.654,2.766-5.61,3.963
		c-0.576,0.352-1.157,0.694-1.743,1.026c-0.427,0.241-0.801,0.526-1.311,0.529c-0.472,0.002-0.947-0.288-1.368-0.475
		c-0.643-0.284-1.287-0.567-1.93-0.851c-0.151-0.066-0.827-0.279-1.025-0.507C89.419,90.37,92.426,88.48,95.359,86.044z"/>
	<path fill="url(#New_Pattern_Swatch_3)" d="M82.992,88.147c-0.064-0.496,0.063-1.042,0.365-1.535
		c0.981-1.369,2.485-3.053,4.355-4.863c1.216-1.176,2.584-2.404,4.063-3.633c0.892-0.74,1.775-1.441,2.639-2.094
		c1.817-1.377,3.542-2.546,5.056-3.442c0,0,0,0,0,0.001c0.406-0.255,0.91-0.293,1.377-0.136c-2.016,2.687-5.317,6.125-9.697,9.764
		C88.191,84.665,85.412,86.655,82.992,88.147z"/>
	<path fill="url(#New_Pattern_Swatch_3)" d="M91.784,82.705c4.249-3.529,7.692-7.05,9.802-9.875
		c0.186,0.102,0.358,0.236,0.511,0.402c0.188,0.231,0.372,0.468,0.548,0.721c0.301,0.432,0.566,0.871,0.798,1.312
		c0.028,0.053,0.057,0.106,0.083,0.159c-0.929,1.879-2.429,3.984-4.378,6.104c-1.236,1.345-2.653,2.696-4.221,3.997
		c-1.151,0.957-2.314,1.829-3.465,2.609c-1.904,1.29-3.774,2.327-5.504,3.074c-0.498-0.329-0.993-0.73-1.469-1.197
		c-0.244-0.24-0.481-0.496-0.713-0.768c-0.124-0.155-0.216-0.329-0.276-0.513C86.021,87.179,88.866,85.128,91.784,82.705z"/>
	<g>
		<circle fill="url(#New_Pattern_Swatch_3)" cx="67.266" cy="47.19" r="1.869"/>
		<path fill="#FFFFFF" d="M67.269,45.321c0.319,0,0.644,0.082,0.938,0.254c0.892,0.521,1.193,1.665,0.674,2.556
			c-0.348,0.596-0.974,0.928-1.616,0.928c-0.32,0-0.644-0.082-0.939-0.254c-0.892-0.52-1.193-1.664-0.674-2.556
			C65.999,45.653,66.625,45.321,67.269,45.321 M67.269,43.732L67.269,43.732c-1.227,0-2.372,0.658-2.989,1.716
			c-0.466,0.798-0.593,1.729-0.357,2.623c0.235,0.893,0.806,1.641,1.604,2.106c0.527,0.308,1.129,0.47,1.739,0.47
			c1.227,0,2.371-0.658,2.988-1.717c0.96-1.646,0.401-3.768-1.245-4.729C68.479,43.894,67.878,43.732,67.269,43.732L67.269,43.732z"
			/>
	</g>
	<circle fill="#FFFFFF" cx="67.266" cy="47.19" r="0.856"/>
	<g>
		<circle fill="url(#New_Pattern_Swatch_3)" cx="113.105" cy="73.908" r="1.869"/>
		<path fill="#FFFFFF" d="M113.107,72.039c0.319,0,0.644,0.082,0.939,0.255c0.892,0.519,1.193,1.664,0.673,2.556
			c-0.347,0.596-0.973,0.928-1.616,0.928c-0.319,0-0.643-0.082-0.938-0.254c-0.893-0.521-1.193-1.665-0.674-2.556
			C111.838,72.371,112.464,72.039,113.107,72.039 M113.107,70.45L113.107,70.45c-1.227,0-2.372,0.658-2.989,1.717
			c-0.959,1.647-0.4,3.768,1.246,4.729c0.529,0.309,1.13,0.471,1.739,0.471c1.228,0,2.372-0.658,2.989-1.718
			c0.465-0.797,0.592-1.728,0.356-2.622s-0.805-1.642-1.603-2.106C114.319,70.613,113.718,70.45,113.107,70.45L113.107,70.45z"/>
	</g>
	<circle fill="#FFFFFF" cx="113.106" cy="73.908" r="0.856"/>
	<path fill="url(#New_Pattern_Swatch_3)" d="M70.848,70.501c0.978-5.436,2.344-10.167,3.762-13.395
		c-0.179-0.11-0.381-0.196-0.601-0.247c-0.294-0.049-0.591-0.093-0.898-0.121c-0.523-0.05-1.036-0.064-1.533-0.048
		c-0.061,0.002-0.12,0.004-0.181,0.007c-1.176,1.734-2.27,4.077-3.153,6.817c-0.561,1.739-1.037,3.638-1.397,5.642
		c-0.265,1.473-0.45,2.916-0.562,4.301c-0.184,2.292-0.165,4.432,0.038,6.304c0.53,0.271,1.124,0.505,1.765,0.688
		c0.328,0.094,0.669,0.175,1.021,0.242c0.195,0.031,0.392,0.024,0.581-0.013C69.796,77.722,70.178,74.235,70.848,70.501z"/>
	<path fill="#FFFFFF" d="M91.556,80.258c2.758-2.439,5.249-4.113,5.565-3.738c0.308,0.366-1.569,2.546-4.221,4.917
		c-2.832,2.497-5.38,4.212-5.778,3.894C86.888,84.9,88.845,82.657,91.556,80.258z"/>
</g>
</svg>
