<?xml version="1.0" encoding="utf-8"?>
<!-- Generator: Adobe Illustrator 16.0.0, SVG Export Plug-In . SVG Version: 6.00 Build 0)  -->
<!DOCTYPE svg PUBLIC "-//W3C//DTD SVG 1.1//EN" "http://www.w3.org/Graphics/SVG/1.1/DTD/svg11.dtd">
<svg version="1.1" id="Layer_1" xmlns="http://www.w3.org/2000/svg" xmlns:xlink="http://www.w3.org/1999/xlink" x="0px" y="0px"
	 width="1318.522px" height="641.075px" viewBox="0 0 1318.522 641.075" enable-background="new 0 0 1318.522 641.075"
	 xml:space="preserve">
<circle cx="622.207" cy="274.227" r="9.842"/>
<path d="M622.204,233.71c26.091,0,47.243-21.153,47.243-47.243c0-26.086-21.152-47.237-47.243-47.237
	c-26.09,0-47.238,21.151-47.238,47.237C574.966,212.557,596.114,233.71,622.204,233.71z"/>
<circle cx="569.835" cy="319.388" r="24.603"/>
<path d="M470.28,512.803c0.25,0.221,0.502,0.439,0.756,0.654s0.508,0.424,0.766,0.631c0.26,0.207,0.52,0.41,0.781,0.609
	c0.264,0.199,0.526,0.395,0.795,0.586c0.266,0.191,0.533,0.379,0.804,0.563c0.272,0.182,0.545,0.363,0.817,0.537
	c0.277,0.176,0.555,0.348,0.832,0.516c0.277,0.166,0.56,0.328,0.841,0.49c0.282,0.158,0.566,0.313,0.851,0.461
	c0.289,0.15,0.576,0.297,0.862,0.439c0.291,0.141,0.583,0.279,0.874,0.41c0.293,0.133,0.587,0.262,0.883,0.387
	c0.296,0.123,0.594,0.242,0.893,0.357s0.599,0.225,0.899,0.33c0.298,0.104,0.595,0.203,0.893,0.297
	c0.298,0.096,0.599,0.186,0.899,0.268c0.301,0.086,0.602,0.166,0.904,0.242c0.305,0.076,0.61,0.146,0.913,0.213
	c0.314,0.066,0.627,0.131,0.938,0.188c0.313,0.059,0.63,0.109,0.944,0.156c0.314,0.049,0.632,0.092,0.948,0.129
	c0.319,0.035,0.639,0.066,0.958,0.092c0.319,0.029,0.641,0.047,0.96,0.066l7.992-0.828l16.938-4.438v-0.004
	c1.053-0.064,0.767-0.129,1.014-0.199c0.01-0.002,0.151-0.004,0.158-0.008c0.052-0.014,0.168-0.027,0.217-0.043
	c0.154-0.045,0.343-0.09,0.494-0.139s0.321-0.096,0.473-0.146c0.152-0.051,0.311-0.102,0.464-0.154
	c0.149-0.055,0.303-0.107,0.452-0.162c0.151-0.057,0.303-0.115,0.452-0.172c0.149-0.059,0.298-0.115,0.447-0.18
	c0.146-0.059,0.296-0.121,0.442-0.184c0.147-0.064,0.297-0.129,0.44-0.195c0.147-0.064,0.294-0.131,0.44-0.199
	c0.145-0.068,0.289-0.139,0.434-0.209s0.291-0.143,0.434-0.215c0.145-0.076,0.289-0.15,0.431-0.227
	c0.143-0.076,0.284-0.152,0.427-0.232c0.143-0.078,0.282-0.156,0.424-0.238c0.14-0.082,0.279-0.164,0.42-0.248
	c0.14-0.082,0.277-0.166,0.417-0.252c0.138-0.088,0.274-0.174,0.41-0.264c0.138-0.086,0.272-0.176,0.41-0.27
	c0.135-0.09,0.271-0.182,0.405-0.275s0.268-0.188,0.4-0.283c0.136-0.096,0.269-0.191,0.401-0.291c0.13-0.1,0.263-0.197,0.394-0.297
	c0.131-0.102,0.261-0.203,0.389-0.305c0.131-0.105,0.259-0.209,0.387-0.314c0.129-0.102,0.254-0.209,0.38-0.316
	s0.252-0.217,0.376-0.324c0.123-0.109,0.249-0.219,0.372-0.33c0.124-0.113,0.245-0.225,0.368-0.34
	c0.119-0.113,0.24-0.229,0.361-0.344c0.119-0.115,0.238-0.232,0.359-0.354c0.116-0.115,0.234-0.236,0.352-0.355
	c0.116-0.121,0.232-0.242,0.35-0.365c0.114-0.123,0.229-0.246,0.342-0.373c0.115-0.123,0.227-0.246,0.338-0.373
	c0.115-0.127,0.225-0.256,0.336-0.385c0.107-0.129,0.219-0.258,0.328-0.389c0.107-0.131,0.217-0.264,0.322-0.396
	c0.107-0.133,0.214-0.266,0.319-0.4c0.104-0.137,0.21-0.27,0.312-0.406c0.105-0.139,0.208-0.275,0.308-0.414
	c0.103-0.139,0.203-0.277,0.301-0.418c0.101-0.141,0.198-0.281,0.298-0.426c0.096-0.141,0.191-0.285,0.289-0.428
	c0.096-0.145,0.189-0.287,0.282-0.434c0.096-0.146,0.188-0.295,0.282-0.441c0.091-0.148,0.18-0.297,0.272-0.443
	c0.089-0.15,0.177-0.299,0.266-0.449c0.086-0.15,0.173-0.301,0.259-0.453c0.084-0.152,0.17-0.305,0.252-0.459
	c0.084-0.152,0.168-0.309,0.249-0.463s0.161-0.309,0.242-0.467c0.077-0.154,0.156-0.313,0.233-0.471
	c0.076-0.158,0.151-0.316,0.229-0.475c0.076-0.162,0.148-0.32,0.223-0.48c0.075-0.162,0.145-0.324,0.215-0.488
	c0.072-0.158,0.14-0.32,0.21-0.484c0.067-0.162,0.138-0.326,0.202-0.492c0.068-0.164,0.133-0.332,0.198-0.498
	c0.065-0.164,0.128-0.332,0.191-0.502c0.061-0.166,0.123-0.334,0.182-0.504c0.047-0.127,0.091-0.254,0.135-0.383l-67.615,17.445
	C469.969,512.518,470.124,512.661,470.28,512.803z"/>
<path d="M426.351,516.954c-0.133-0.105-0.266-0.209-0.398-0.316c-0.145-0.121-0.279-0.23-0.41-0.344
	c-0.113-0.1-0.242-0.213-0.37-0.328c-0.112-0.104-0.24-0.221-0.368-0.344c-0.123-0.119-0.247-0.236-0.368-0.359
	c-0.126-0.127-0.245-0.246-0.363-0.371c-0.114-0.119-0.23-0.242-0.343-0.367c-0.133-0.145-0.247-0.273-0.361-0.406
	c-0.116-0.133-0.229-0.262-0.338-0.395c-0.104-0.123-0.207-0.248-0.308-0.373c-0.118-0.148-0.224-0.283-0.326-0.416
	c-0.1-0.131-0.21-0.275-0.316-0.42c-0.094-0.123-0.191-0.26-0.289-0.398c-0.109-0.148-0.208-0.291-0.306-0.432
	c-0.098-0.143-0.195-0.283-0.291-0.426c-0.091-0.141-0.18-0.273-0.266-0.406c-0.107-0.168-0.205-0.314-0.296-0.467
	c-0.017-0.023-0.03-0.045-0.047-0.07l-0.179-0.285l-0.021-0.043c-0.072-0.115-0.143-0.234-0.214-0.352l-0.01-0.02l-0.012-0.018
	c-0.089-0.148-0.177-0.299-0.266-0.447c-0.086-0.15-0.173-0.303-0.259-0.453c-0.084-0.145-0.17-0.297-0.254-0.451
	c-0.081-0.141-0.168-0.301-0.254-0.457c-0.086-0.16-0.17-0.311-0.254-0.465s-0.165-0.307-0.249-0.465
	c-0.082-0.152-0.163-0.307-0.245-0.461l-0.247-0.469l-0.074-0.145l-0.17-0.326l-0.012-0.02l-0.003-0.002l-0.167-0.326l-0.063-0.119
	l-0.247-0.482l-0.249-0.482l-0.145-0.277l-0.088-0.18l-0.178-0.34l-0.07-0.145l-0.056-0.109l-0.193-0.373l-0.251-0.498l-0.038-0.068
	l-0.198-0.393l-0.249-0.484l-0.145-0.281l-0.111-0.219l-0.24-0.469l-0.242-0.473l-0.249-0.482l-0.248-0.473l-0.006-0.014
	l-0.008-0.014l-0.247-0.477l-0.058-0.111l-0.187-0.359l-0.03-0.055l-0.227-0.436l-0.168-0.316l-0.086-0.162l-0.032-0.063
	l-0.215-0.406l-0.14-0.264l-0.114-0.215l-0.251-0.473l-0.247-0.461l-0.065-0.123l-0.187-0.348l-0.254-0.467l-0.161-0.303
	l-0.098-0.18l-0.133-0.244l-0.114-0.211l-0.251-0.463l-0.24-0.439l-0.23-0.414l-0.035-0.066l-0.119-0.215l-0.14-0.256l-0.114-0.205
	l-0.128-0.23l-0.007-0.016l-0.008-0.014l-0.229-0.414l-0.14-0.246l-0.126-0.23l-0.095-0.17l-0.147-0.266l-0.13-0.232l-0.131-0.232
	l-0.245-0.438l-0.011-0.018l-0.01-0.02l-0.017-0.027l-0.109-0.193l-0.069-0.127c-0.101-0.178-0.191-0.33-0.28-0.486
	c-0.098-0.164-0.193-0.328-0.291-0.492c-0.091-0.154-0.184-0.311-0.277-0.463c-0.103-0.162-0.2-0.32-0.298-0.479
	c-0.099-0.156-0.196-0.313-0.296-0.469c-0.096-0.148-0.198-0.307-0.301-0.465c-0.105-0.156-0.2-0.305-0.301-0.453
	c-0.103-0.152-0.205-0.305-0.31-0.457c-0.104-0.156-0.212-0.309-0.321-0.461c-0.104-0.148-0.208-0.295-0.311-0.439
	c-0.111-0.152-0.219-0.301-0.326-0.449c-0.098-0.135-0.209-0.281-0.316-0.428c-0.112-0.146-0.222-0.291-0.331-0.434
	c-0.109-0.141-0.217-0.281-0.326-0.418c-0.124-0.16-0.235-0.299-0.35-0.441c-0.101-0.125-0.215-0.266-0.331-0.408
	c-0.107-0.131-0.224-0.273-0.343-0.414c-0.111-0.131-0.23-0.273-0.352-0.414c-0.104-0.123-0.224-0.26-0.34-0.395
	c-0.122-0.133-0.238-0.266-0.356-0.396c-0.119-0.135-0.236-0.264-0.354-0.393c-0.119-0.127-0.235-0.256-0.354-0.383
	c-0.14-0.146-0.261-0.273-0.382-0.398c-0.119-0.127-0.237-0.25-0.358-0.373c-0.127-0.125-0.248-0.25-0.371-0.373
	c-0.126-0.125-0.252-0.246-0.377-0.367c-0.112-0.113-0.236-0.23-0.359-0.348c-0.138-0.131-0.266-0.25-0.394-0.371
	c-0.121-0.113-0.242-0.223-0.363-0.332c-0.136-0.125-0.259-0.238-0.388-0.348c-0.137-0.123-0.268-0.238-0.396-0.35
	c-0.126-0.107-0.252-0.215-0.375-0.322l-0.012-0.01l-0.01-0.006c-0.121-0.104-0.242-0.207-0.363-0.309
	c-0.142-0.113-0.274-0.221-0.407-0.33c-0.117-0.094-0.25-0.197-0.383-0.305c-0.135-0.107-0.27-0.211-0.402-0.314
	c-0.127-0.096-0.252-0.191-0.378-0.287l-0.017-0.01l-0.014-0.014c-0.126-0.092-0.25-0.182-0.373-0.275l-0.021-0.014l-0.018-0.014
	c-0.121-0.09-0.242-0.178-0.369-0.266c-0.133-0.096-0.268-0.191-0.402-0.285c-0.133-0.092-0.266-0.182-0.396-0.271
	c-0.151-0.102-0.286-0.193-0.424-0.283c-0.143-0.092-0.282-0.184-0.422-0.275c-0.123-0.078-0.259-0.164-0.396-0.248
	c-0.125-0.08-0.261-0.164-0.398-0.246c-0.133-0.082-0.27-0.162-0.407-0.244l-0.012-0.008l-0.015-0.008
	c-0.13-0.076-0.263-0.154-0.394-0.229c-0.149-0.086-0.282-0.16-0.417-0.238c-0.135-0.074-0.27-0.148-0.405-0.221
	c0,0-4.828-2.09-8.687-1.096c-0.361,0.096-0.632,0.111-0.818,0.066l-11.121,2.793c-0.072,0-0.149,0.148-0.222,0.166
	c-0.153,0.043-0.308,0.143-0.461,0.186c-0.151,0.041-0.306,0.115-0.459,0.162c-0.151,0.049-0.304,0.109-0.457,0.158
	c-0.151,0.049-0.303,0.107-0.454,0.156c-0.152,0.053-0.303,0.111-0.455,0.162c-0.151,0.057-0.3,0.111-0.449,0.17
	c-0.149,0.057-0.299,0.117-0.447,0.176c-0.149,0.059-0.296,0.121-0.445,0.182c-0.151,0.063-0.296,0.127-0.445,0.189
	c-0.146,0.066-0.291,0.131-0.439,0.199c-0.147,0.068-0.292,0.135-0.437,0.205c-0.146,0.072-0.291,0.141-0.436,0.215
	c-0.145,0.072-0.289,0.145-0.434,0.221c-0.142,0.072-0.284,0.15-0.427,0.229c-0.142,0.076-0.283,0.156-0.426,0.236
	c-0.14,0.078-0.279,0.158-0.42,0.238c-0.14,0.084-0.279,0.168-0.419,0.252c-0.138,0.086-0.274,0.172-0.413,0.258
	c-0.137,0.086-0.274,0.176-0.409,0.266c-0.138,0.088-0.272,0.18-0.408,0.271c-0.135,0.092-0.268,0.186-0.403,0.279
	c-0.133,0.096-0.266,0.191-0.398,0.287s-0.266,0.193-0.396,0.293c-0.128,0.098-0.259,0.199-0.388,0.299
	c-0.128,0.1-0.256,0.203-0.384,0.305c-0.128,0.105-0.259,0.211-0.385,0.314c-0.128,0.107-0.254,0.215-0.38,0.324
	c-0.125,0.107-0.252,0.219-0.375,0.328c-0.123,0.111-0.247,0.225-0.37,0.336c-0.124,0.115-0.247,0.23-0.368,0.346
	s-0.242,0.232-0.361,0.35s-0.24,0.234-0.359,0.354c-0.113,0.121-0.232,0.24-0.347,0.361c-0.116,0.123-0.23,0.242-0.345,0.365
	c-0.114,0.125-0.229,0.246-0.34,0.373c-0.115,0.127-0.227,0.252-0.338,0.381c-0.112,0.129-0.222,0.258-0.331,0.387
	c-0.11,0.129-0.22,0.26-0.327,0.391c-0.106,0.131-0.214,0.266-0.318,0.398c-0.107,0.133-0.213,0.268-0.314,0.404
	c-0.105,0.135-0.208,0.271-0.311,0.408c-0.103,0.139-0.202,0.275-0.303,0.414c-0.1,0.139-0.2,0.281-0.298,0.422
	c-0.099,0.141-0.198,0.283-0.294,0.424c-0.096,0.145-0.191,0.289-0.287,0.434c-0.093,0.141-0.184,0.281-0.274,0.426
	s-0.185,0.291-0.272,0.438c-0.091,0.148-0.182,0.297-0.271,0.447s-0.177,0.301-0.263,0.453c-0.089,0.15-0.173,0.303-0.26,0.457
	c-0.083,0.152-0.167,0.307-0.251,0.463c-0.084,0.154-0.165,0.313-0.247,0.467c-0.079,0.156-0.161,0.316-0.238,0.471
	c-0.078,0.16-0.158,0.316-0.232,0.477c-0.077,0.158-0.151,0.316-0.227,0.477c-0.074,0.16-0.146,0.318-0.217,0.48
	c-0.071,0.16-0.142,0.318-0.211,0.48c-0.07,0.164-0.141,0.328-0.208,0.494c-0.069,0.164-0.135,0.328-0.2,0.496
	c-0.065,0.164-0.131,0.332-0.195,0.498c-0.063,0.166-0.124,0.334-0.187,0.5c-0.062,0.168-0.122,0.336-0.18,0.506
	c-0.059,0.168-0.116,0.338-0.175,0.508c-0.059,0.172-0.111,0.342-0.166,0.512c-0.056,0.174-0.109,0.344-0.16,0.516
	c-0.054,0.172-0.105,0.346-0.156,0.521c-0.049,0.17-0.098,0.346-0.145,0.52c-0.049,0.176-0.096,0.35-0.143,0.527
	c-0.041,0.17-0.086,0.342-0.13,0.516c-0.042,0.174-0.084,0.352-0.124,0.527c-0.041,0.178-0.081,0.355-0.123,0.535
	c-0.037,0.178-0.074,0.357-0.111,0.537c-0.035,0.18-0.07,0.357-0.105,0.539s-0.067,0.363-0.1,0.545
	c-0.033,0.18-0.063,0.361-0.094,0.545c-0.03,0.182-0.059,0.363-0.086,0.545c-0.025,0.184-0.052,0.363-0.077,0.549
	c-0.025,0.182-0.049,0.363-0.069,0.547c-0.026,0.182-0.045,0.363-0.063,0.547c-0.023,0.188-0.042,0.371-0.061,0.557
	c-0.017,0.188-0.035,0.371-0.049,0.559c-0.017,0.184-0.03,0.371-0.044,0.557c-0.012,0.186-0.026,0.373-0.035,0.561
	c-0.012,0.188-0.023,0.373-0.03,0.563c-0.007,0.186-0.017,0.373-0.021,0.561c-0.007,0.189-0.012,0.377-0.017,0.566
	c-0.004,0.188-0.004,0.375-0.009,0.564c0,0.189,0,0.379,0,0.568s0.005,0.379,0.007,0.568c0.002,0.191,0.007,0.383,0.014,0.574
	c0.005,0.188,0.01,0.379,0.02,0.568c0.009,0.188,0.016,0.379,0.027,0.568c0.01,0.188,0.021,0.377,0.033,0.568
	c0.014,0.188,0.027,0.377,0.041,0.566c0.017,0.188,0.031,0.377,0.047,0.566c0.02,0.188,0.037,0.375,0.057,0.563
	c0.021,0.188,0.039,0.377,0.061,0.564c0.023,0.189,0.046,0.377,0.069,0.566c0.026,0.189,0.049,0.377,0.075,0.564
	c0.027,0.188,0.056,0.375,0.084,0.563c0.027,0.188,0.058,0.375,0.088,0.563c0.033,0.186,0.065,0.375,0.096,0.563
	c0.035,0.186,0.07,0.371,0.104,0.561c0.035,0.186,0.072,0.371,0.11,0.559c0.037,0.186,0.076,0.369,0.116,0.555
	c0.042,0.184,0.081,0.369,0.123,0.553c0.042,0.188,0.087,0.371,0.131,0.555c0.044,0.182,0.089,0.367,0.138,0.551
	c0.046,0.184,0.093,0.367,0.142,0.551c0.049,0.182,0.101,0.363,0.151,0.545c0.052,0.184,0.103,0.363,0.156,0.547
	c0.057,0.182,0.109,0.363,0.166,0.545c0.053,0.18,0.111,0.361,0.17,0.539c0.058,0.182,0.116,0.361,0.177,0.539
	c0.061,0.18,0.121,0.359,0.185,0.539c0.061,0.176,0.123,0.355,0.188,0.533c0.063,0.178,0.13,0.354,0.195,0.531
	c0.067,0.174,0.136,0.35,0.203,0.527c0.067,0.174,0.138,0.348,0.207,0.523c0.072,0.174,0.143,0.35,0.217,0.523
	c0.072,0.176,0.147,0.35,0.222,0.521c0.076,0.174,0.151,0.346,0.229,0.52c0.079,0.174,0.156,0.344,0.234,0.514
	c0.08,0.172,0.161,0.342,0.243,0.514c0.081,0.17,0.163,0.34,0.247,0.51c0.084,0.168,0.168,0.338,0.254,0.506s0.172,0.336,0.261,0.5
	c0.086,0.166,0.175,0.334,0.266,0.5c0.089,0.164,0.177,0.33,0.271,0.494c0.091,0.164,0.184,0.326,0.274,0.488
	c0.096,0.162,0.188,0.324,0.284,0.484c0.096,0.162,0.193,0.322,0.289,0.484c0.098,0.158,0.196,0.318,0.296,0.477
	c0.101,0.16,0.2,0.318,0.301,0.475s0.203,0.314,0.306,0.469c0.103,0.156,0.207,0.309,0.313,0.465
	c0.102,0.152,0.209,0.307,0.314,0.459c0.106,0.152,0.217,0.305,0.323,0.455c0.107,0.152,0.22,0.301,0.329,0.449
	c0.109,0.15,0.219,0.299,0.333,0.445c0.109,0.146,0.224,0.295,0.338,0.441c0.111,0.145,0.226,0.291,0.343,0.434
	c0.113,0.145,0.23,0.289,0.347,0.43c0.116,0.143,0.235,0.285,0.354,0.426c0.116,0.139,0.237,0.279,0.356,0.418
	c0.121,0.139,0.242,0.275,0.366,0.416c0.121,0.137,0.244,0.271,0.367,0.41c0.124,0.133,0.247,0.268,0.373,0.402
	c0.126,0.131,0.252,0.264,0.378,0.396c0.128,0.129,0.254,0.262,0.38,0.389c0.13,0.131,0.258,0.258,0.387,0.385
	c0.13,0.129,0.258,0.252,0.389,0.379c0.131,0.125,0.264,0.248,0.395,0.371c0.133,0.123,0.266,0.248,0.398,0.365
	c0.133,0.121,0.268,0.242,0.402,0.359c0.135,0.119,0.271,0.238,0.406,0.354c0.137,0.119,0.274,0.232,0.412,0.348
	c0.137,0.115,0.274,0.229,0.414,0.34c0.138,0.113,0.277,0.225,0.415,0.334c0.14,0.109,0.28,0.219,0.422,0.326
	c0.14,0.107,0.282,0.211,0.424,0.318c0.14,0.105,0.282,0.207,0.427,0.311c0.143,0.104,0.284,0.207,0.429,0.305
	c0.145,0.102,0.286,0.199,0.434,0.299c0.145,0.098,0.286,0.195,0.433,0.291c0.147,0.096,0.294,0.189,0.443,0.285
	c0.145,0.092,0.293,0.186,0.44,0.275c0.149,0.092,0.296,0.184,0.447,0.271c0.149,0.088,0.301,0.178,0.45,0.264
	c0.148,0.084,0.3,0.172,0.449,0.254c0.151,0.086,0.303,0.168,0.454,0.25c0.151,0.08,0.306,0.16,0.457,0.238
	c0.153,0.08,0.306,0.158,0.456,0.234c0.154,0.076,0.311,0.152,0.462,0.227c0.153,0.074,0.308,0.146,0.464,0.215
	c0.153,0.072,0.308,0.143,0.464,0.211c0.155,0.07,0.312,0.137,0.466,0.205c0.156,0.064,0.314,0.131,0.471,0.193
	c0.156,0.064,0.313,0.125,0.471,0.189c0.158,0.059,0.314,0.119,0.473,0.178s0.314,0.115,0.473,0.172
	c0.159,0.057,0.317,0.111,0.476,0.162c0.159,0.057,0.317,0.107,0.476,0.156c0.158,0.053,0.319,0.1,0.478,0.148
	c0.161,0.049,0.319,0.094,0.478,0.141c0.161,0.047,0.322,0.09,0.482,0.131c0.158,0.043,0.319,0.086,0.48,0.125
	c0.16,0.041,0.321,0.08,0.482,0.117c0.16,0.037,0.323,0.074,0.484,0.107c0.161,0.037,0.321,0.068,0.482,0.102
	c0.163,0.031,0.324,0.063,0.484,0.094c0.163,0.029,0.326,0.057,0.489,0.084c0.161,0.025,0.324,0.053,0.487,0.076
	c0.166,0.025,0.326,0.047,0.492,0.068c0.162,0.023,0.326,0.043,0.488,0.061c0.112,0.014,0.225,0.025,0.336,0.037
	c0.117,0.014,0.238,0.025,0.356,0.035c0.124,0.012,0.249,0.023,0.373,0.031c0.128,0.01,0.254,0.02,0.382,0.029
	c0.145,0.008,0.291-0.131,0.434-0.121c0.028,0,0.303,0.014,0.331,0.014c0.138,0.006,0.274,0.084,0.415,0.088
	c0.133,0.006,0.268,0.045,0.4,0.047c0.107,0.002,0.215,0.021,0.319,0.021c0.104,0.002,0.21,0.008,0.314,0.008
	c0.163,0,0.323,0.002,0.487-0.002c0.163-0.004,0.326-0.006,0.486-0.014c0.163-0.004,0.324-0.012,0.484-0.021
	c0.161-0.008,0.324-0.02,0.485-0.031s0.321-0.025,0.482-0.041c0.161-0.014,0.319-0.027,0.479-0.049
	c0.161-0.016,0.319-0.033,0.48-0.055c0.158-0.02,0.316-0.043,0.476-0.063c0.158-0.023,0.316-0.047,0.476-0.072
	c0.158-0.025,0.316-0.053,0.473-0.08c0.158-0.027,0.314-0.057,0.471-0.088c0.158-0.029,0.314-0.061,0.471-0.096
	c0.156-0.031,0.313-0.068,0.466-0.104c0.158-0.037,0.347-0.072,0.503-0.111c0.08-0.021,0.277-0.043,0.277-0.063l17.173-4.439
	c0.289-0.078,0.564-0.154,0.851-0.24c0.291-0.084,0.571-0.174,0.857-0.27c0.287-0.096,0.568-0.195,0.851-0.299
	s0.56-0.213,0.839-0.326s0.555-0.232,0.83-0.354c0.274-0.121,0.547-0.25,0.817-0.383c0.269-0.129,0.536-0.266,0.802-0.404
	c0.266-0.143,0.529-0.287,0.792-0.436c0.259-0.148,0.52-0.303,0.776-0.457c0.256-0.16,0.51-0.32,0.762-0.486
	c0.254-0.168,0.501-0.336,0.748-0.51s0.491-0.352,0.736-0.533c0.242-0.182,0.48-0.367,0.718-0.557
	c0.235-0.191,0.471-0.385,0.701-0.584c0.257-0.215,0.506-0.439,0.755-0.666c0.249-0.225,0.494-0.457,0.736-0.693
	c0.24-0.234,0.478-0.477,0.715-0.719c0.233-0.246,0.467-0.494,0.695-0.748c0.226-0.254,0.451-0.512,0.671-0.773
	c0.2-0.236,0.398-0.479,0.594-0.723c0.193-0.244,0.385-0.492,0.573-0.742c0.189-0.252,0.373-0.506,0.555-0.764
	s0.361-0.52,0.536-0.783c0.177-0.264,0.35-0.531,0.517-0.803c0.168-0.266,0.331-0.533,0.492-0.805
	c0.158-0.271,0.314-0.547,0.469-0.824c0.153-0.277,0.303-0.557,0.451-0.84c0.147-0.283,0.289-0.566,0.43-0.857
	c0.145-0.295,0.283-0.592,0.419-0.893c0.138-0.301,0.271-0.602,0.398-0.908c0.128-0.305,0.254-0.613,0.375-0.926
	c0.121-0.311,0.24-0.625,0.354-0.939c0.114-0.316,0.224-0.637,0.331-0.957c0.106-0.322,0.21-0.645,0.308-0.971
	c0.1-0.326,0.195-0.656,0.286-0.986s0.177-0.664,0.264-1c0.019-0.082,0.037-0.168,0.056-0.25l-2.757-2.533
	C426.563,517.114,426.458,517.036,426.351,516.954z M381.515,549.139c0.039,0,0.08,0.041,0.119,0.081L381.515,549.139z
	 M379.065,533.188c-10.438-0.516-19.316-10.906-19.822-23.203c-0.51-12.297,7.543-21.846,17.982-21.326
	c10.441,0.52,19.316,10.908,19.824,23.205C397.56,524.161,389.51,533.708,379.065,533.188z"/>
<path d="M107.486,506.352c0.012-0.211,0.025-0.406,0.044-0.602l0.002-0.027l0.005-0.029l0.015-0.15l0.012-0.109
	c0.018-0.18,0.034-0.348,0.051-0.516c0.014-0.186,0.03-0.369,0.044-0.553c0.015-0.186,0.028-0.363,0.04-0.541
	c0.014-0.207,0.025-0.391,0.035-0.572c0.009-0.164,0.019-0.348,0.027-0.533c0.01-0.186,0.017-0.371,0.023-0.561
	c0.005-0.184,0.012-0.371,0.017-0.557c0.005-0.188-0.147-0.369-0.143-0.549c0-0.203-0.151-0.385-0.151-0.57c0-0.182,0-0.363,0-0.547
	c0-0.213,0.151-0.402,0.149-0.596c-0.003-0.178,0.069-0.375,0.065-0.572c-0.003-0.162,0.027-0.348,0.023-0.531
	c-0.008-0.203,0.002-0.387-0.005-0.572c-0.01-0.189-0.012-0.381-0.021-0.572c-0.009-0.186-0.019-0.377-0.03-0.568
	c-0.012-0.188-0.025-0.379-0.039-0.57c-0.014-0.186-0.028-0.371-0.045-0.555c-0.016-0.191-0.032-0.385-0.051-0.576
	c-0.019-0.189-0.039-0.381-0.059-0.574c-0.021-0.164-0.042-0.357-0.063-0.549c-0.023-0.203-0.047-0.387-0.07-0.57
	c-0.025-0.186-0.051-0.375-0.079-0.566c-0.025-0.191-0.051-0.379-0.081-0.568c-0.025-0.18-0.054-0.363-0.084-0.547
	c-0.033-0.203-0.063-0.385-0.094-0.568c-0.035-0.203-0.067-0.385-0.1-0.57c-0.033-0.17-0.068-0.369-0.105-0.564
	c-0.035-0.18-0.069-0.363-0.107-0.543c-0.037-0.188-0.076-0.377-0.116-0.561c-0.039-0.182-0.079-0.369-0.118-0.555
	c-0.045-0.188-0.087-0.375-0.131-0.561c-0.042-0.189-0.089-0.373-0.133-0.557c-0.044-0.189-0.094-0.373-0.14-0.557
	c-0.042-0.166-0.091-0.354-0.14-0.539c-0.052-0.189-0.101-0.373-0.152-0.555c-0.049-0.182-0.098-0.357-0.148-0.529
	c-0.057-0.197-0.109-0.377-0.166-0.557c-0.053-0.184-0.109-0.367-0.165-0.549c-0.056-0.174-0.109-0.354-0.168-0.531
	c-0.065-0.195-0.121-0.371-0.179-0.547c-0.063-0.186-0.121-0.361-0.182-0.539c-0.062-0.172-0.124-0.348-0.185-0.527
	c-0.065-0.182-0.131-0.365-0.198-0.545c-0.063-0.17-0.128-0.35-0.198-0.527c-0.063-0.17-0.133-0.35-0.202-0.531
	c-0.068-0.178-0.138-0.348-0.205-0.52c-0.072-0.178-0.143-0.348-0.213-0.521c-0.076-0.18-0.15-0.357-0.226-0.533
	c-0.067-0.158-0.145-0.336-0.222-0.514c-0.074-0.168-0.15-0.344-0.23-0.52c-0.072-0.158-0.153-0.334-0.232-0.512
	c-0.075-0.158-0.158-0.332-0.24-0.508c-0.079-0.166-0.158-0.33-0.238-0.494c-0.086-0.174-0.167-0.342-0.251-0.508
	c-0.084-0.164-0.165-0.326-0.249-0.49c-0.089-0.172-0.178-0.342-0.266-0.512c-0.084-0.16-0.176-0.326-0.264-0.492
	c-0.091-0.168-0.175-0.322-0.261-0.477l-0.01-0.016l-0.007-0.012c-0.089-0.16-0.175-0.318-0.266-0.475
	c-0.091-0.164-0.182-0.32-0.272-0.473c-0.101-0.174-0.193-0.332-0.287-0.488c-0.093-0.158-0.19-0.318-0.286-0.477
	c-0.096-0.156-0.191-0.311-0.287-0.465c-0.107-0.17-0.205-0.322-0.301-0.475c-0.106-0.17-0.209-0.324-0.31-0.48
	c-0.091-0.135-0.19-0.289-0.294-0.441c-0.104-0.158-0.207-0.307-0.307-0.451c-0.105-0.156-0.215-0.313-0.319-0.467
	c-0.099-0.137-0.2-0.283-0.306-0.428c-0.109-0.15-0.219-0.303-0.328-0.451c-0.105-0.145-0.217-0.297-0.329-0.445
	c-0.098-0.129-0.202-0.271-0.312-0.41c-0.115-0.148-0.22-0.285-0.326-0.422l-0.015-0.016l-0.012-0.016
	c-0.104-0.135-0.212-0.27-0.319-0.402c-0.118-0.15-0.23-0.287-0.34-0.422c-0.116-0.143-0.23-0.279-0.345-0.416
	c-0.109-0.131-0.229-0.268-0.345-0.404c-0.126-0.146-0.242-0.281-0.361-0.416c-0.117-0.137-0.233-0.266-0.35-0.396
	c-0.111-0.125-0.235-0.262-0.361-0.396c-0.109-0.121-0.232-0.252-0.354-0.381c-0.129-0.139-0.248-0.266-0.366-0.389
	c-0.116-0.121-0.245-0.252-0.373-0.383c-0.112-0.115-0.237-0.24-0.361-0.365c-0.116-0.115-0.247-0.244-0.377-0.371
	c-0.11-0.105-0.231-0.225-0.356-0.342l-0.017-0.016l-0.017-0.018c-0.121-0.113-0.242-0.229-0.365-0.342
	c-0.117-0.111-0.235-0.221-0.357-0.33l-0.009-0.01l-0.014-0.01c-0.124-0.113-0.247-0.225-0.371-0.336
	c-0.133-0.117-0.263-0.23-0.396-0.346c-0.117-0.102-0.252-0.217-0.387-0.332c-0.119-0.1-0.247-0.207-0.373-0.313l-0.012-0.008
	l-0.012-0.012c-0.123-0.102-0.247-0.203-0.371-0.303c-0.144-0.115-0.274-0.223-0.407-0.328c-0.126-0.098-0.263-0.203-0.4-0.309
	c-0.114-0.09-0.25-0.191-0.383-0.293c-0.142-0.104-0.271-0.201-0.398-0.295c-0.133-0.096-0.271-0.197-0.407-0.293
	c-0.129-0.094-0.259-0.186-0.39-0.275c-0.142-0.098-0.279-0.193-0.421-0.291c-0.124-0.082-0.26-0.172-0.396-0.264
	c-0.131-0.086-0.262-0.172-0.395-0.256c-0.148-0.098-0.279-0.18-0.412-0.262c-0.146-0.09-0.289-0.18-0.431-0.266
	c-0.128-0.078-0.264-0.158-0.398-0.24c-0.138-0.08-0.275-0.162-0.413-0.238c-0.137-0.082-0.268-0.154-0.4-0.227l-0.014-0.01
	l-0.017-0.008c-0.14-0.078-0.277-0.154-0.417-0.23c-0.121-0.064-0.259-0.139-0.396-0.211c-0.145-0.074-0.289-0.15-0.431-0.223
	c-0.136-0.068-0.277-0.137-0.415-0.207c-0.025-0.012-0.051-0.023-0.072-0.035c-1.36-0.539-4.315-1.209-9.031,0.006l-10.364,2.66
	v0.002c0,0.02-0.103,0.037-0.177,0.057c-0.152,0.041-0.285,0.084-0.437,0.125c-0.153,0.045-0.293,0.09-0.447,0.139
	c-0.151,0.043-0.298,0.09-0.449,0.139c-0.154,0.053-0.304,0.102-0.454,0.152c-0.154,0.053-0.304,0.107-0.453,0.16
	c-0.15,0.053-0.3,0.109-0.449,0.166c-0.149,0.059-0.296,0.117-0.447,0.174c-0.149,0.059-0.296,0.121-0.445,0.186
	c-0.148,0.061-0.296,0.123-0.445,0.188c-0.146,0.064-0.293,0.131-0.439,0.197c-0.147,0.068-0.292,0.139-0.437,0.205
	c-0.146,0.072-0.291,0.143-0.436,0.213c-0.145,0.074-0.289,0.15-0.434,0.223c-0.142,0.074-0.284,0.15-0.426,0.23
	c-0.145,0.076-0.284,0.156-0.427,0.232c-0.14,0.082-0.279,0.16-0.42,0.244c-0.14,0.082-0.279,0.164-0.416,0.248
	c-0.141,0.086-0.277,0.172-0.415,0.258c-0.138,0.09-0.275,0.176-0.41,0.266c-0.138,0.09-0.272,0.182-0.405,0.271
	c-0.136,0.094-0.271,0.186-0.403,0.279c-0.136,0.096-0.269,0.191-0.401,0.289c-0.133,0.096-0.263,0.195-0.396,0.293
	c-0.128,0.098-0.259,0.197-0.385,0.299c-0.128,0.1-0.259,0.199-0.387,0.305c-0.128,0.102-0.257,0.207-0.382,0.314
	c-0.129,0.105-0.254,0.215-0.38,0.322c-0.126,0.109-0.254,0.219-0.378,0.33c-0.123,0.111-0.247,0.225-0.37,0.338
	c-0.124,0.111-0.247,0.227-0.368,0.344c-0.119,0.115-0.242,0.23-0.361,0.348c-0.121,0.117-0.238,0.236-0.356,0.355
	c-0.116,0.119-0.235,0.24-0.35,0.361c-0.116,0.121-0.23,0.242-0.347,0.365c-0.112,0.123-0.227,0.246-0.338,0.373
	c-0.115,0.125-0.227,0.252-0.338,0.381c-0.112,0.127-0.222,0.256-0.331,0.385c-0.11,0.131-0.217,0.262-0.326,0.393
	c-0.107,0.131-0.212,0.264-0.319,0.398c-0.105,0.133-0.21,0.268-0.314,0.402c-0.105,0.135-0.208,0.271-0.311,0.408
	c-0.103,0.141-0.202,0.277-0.303,0.418c-0.1,0.137-0.2,0.275-0.298,0.418c-0.099,0.141-0.198,0.283-0.294,0.428
	c-0.096,0.141-0.193,0.285-0.287,0.43c-0.093,0.141-0.184,0.283-0.271,0.424c-0.094,0.148-0.188,0.295-0.275,0.441
	c-0.091,0.146-0.182,0.295-0.268,0.445c-0.092,0.15-0.178,0.301-0.266,0.453c-0.087,0.152-0.176,0.303-0.259,0.457
	c-0.084,0.154-0.168,0.309-0.252,0.463c-0.084,0.158-0.165,0.311-0.247,0.469c-0.079,0.156-0.158,0.313-0.237,0.471
	c-0.077,0.156-0.156,0.316-0.233,0.475c-0.074,0.158-0.151,0.318-0.227,0.477c-0.074,0.16-0.146,0.32-0.219,0.48
	s-0.14,0.322-0.209,0.482c-0.072,0.162-0.141,0.328-0.208,0.492c-0.069,0.164-0.135,0.33-0.2,0.496
	c-0.065,0.164-0.131,0.33-0.193,0.498c-0.065,0.166-0.126,0.334-0.188,0.502c-0.061,0.166-0.119,0.334-0.18,0.504
	c-0.059,0.168-0.116,0.338-0.175,0.51c-0.056,0.17-0.111,0.34-0.166,0.512c-0.056,0.17-0.106,0.342-0.16,0.514
	c-0.051,0.174-0.103,0.346-0.156,0.518c-0.049,0.176-0.098,0.35-0.145,0.523c-0.049,0.176-0.096,0.352-0.14,0.529
	c-0.044,0.17-0.089,0.34-0.133,0.514c-0.04,0.176-0.084,0.35-0.124,0.529c-0.041,0.178-0.081,0.354-0.121,0.533
	c-0.039,0.178-0.076,0.357-0.113,0.537c-0.035,0.18-0.072,0.361-0.105,0.541c-0.035,0.18-0.067,0.361-0.1,0.545
	c-0.033,0.18-0.063,0.359-0.094,0.545c-0.027,0.18-0.059,0.361-0.084,0.545c-0.027,0.182-0.053,0.365-0.079,0.547
	c-0.023,0.182-0.049,0.365-0.069,0.549c-0.021,0.182-0.045,0.363-0.065,0.545c-0.019,0.186-0.038,0.373-0.059,0.559
	c-0.019,0.184-0.032,0.371-0.049,0.557c-0.017,0.184-0.028,0.373-0.044,0.559c-0.015,0.186-0.023,0.371-0.035,0.559
	s-0.021,0.375-0.03,0.561c-0.01,0.189-0.017,0.377-0.021,0.564c-0.007,0.186-0.011,0.375-0.016,0.564
	c-0.003,0.188-0.005,0.377-0.007,0.566c-0.003,0.188-0.003,0.377-0.003,0.566c0.003,0.189,0.005,0.379,0.007,0.57
	c0.003,0.189,0.008,0.379,0.014,0.57c0.005,0.189,0.012,0.381,0.02,0.57c0.009,0.189,0.019,0.379,0.027,0.568
	c0.01,0.189,0.021,0.379,0.033,0.568c0.014,0.188,0.027,0.377,0.042,0.566c0.016,0.189,0.03,0.377,0.046,0.566
	c0.02,0.188,0.037,0.377,0.057,0.563c0.019,0.189,0.039,0.379,0.063,0.566c0.021,0.188,0.045,0.377,0.067,0.566
	c0.023,0.188,0.052,0.377,0.077,0.564s0.051,0.375,0.082,0.563c0.027,0.186,0.058,0.375,0.088,0.563
	c0.033,0.186,0.063,0.373,0.098,0.559c0.033,0.189,0.068,0.375,0.104,0.563c0.034,0.186,0.071,0.371,0.111,0.557
	c0.037,0.186,0.074,0.371,0.114,0.557s0.081,0.373,0.123,0.555c0.042,0.184,0.087,0.367,0.131,0.553
	c0.044,0.184,0.091,0.367,0.138,0.551s0.096,0.367,0.145,0.551c0.049,0.182,0.098,0.363,0.148,0.547
	c0.052,0.182,0.105,0.363,0.156,0.545c0.057,0.182,0.109,0.363,0.166,0.545c0.056,0.182,0.111,0.361,0.17,0.541
	s0.116,0.359,0.177,0.539s0.121,0.357,0.185,0.537c0.061,0.178,0.123,0.355,0.188,0.535c0.063,0.176,0.128,0.354,0.195,0.527
	c0.067,0.178,0.133,0.354,0.203,0.527c0.067,0.178,0.138,0.352,0.207,0.525c0.072,0.176,0.143,0.352,0.217,0.525
	c0.072,0.172,0.147,0.348,0.224,0.521c0.074,0.174,0.151,0.346,0.229,0.518c0.074,0.172,0.154,0.344,0.233,0.516
	c0.079,0.17,0.16,0.342,0.242,0.512c0.081,0.17,0.163,0.34,0.249,0.51c0.082,0.168,0.168,0.338,0.252,0.506s0.172,0.336,0.261,0.502
	c0.086,0.166,0.175,0.334,0.266,0.498c0.089,0.164,0.177,0.33,0.269,0.494c0.093,0.164,0.186,0.326,0.279,0.49
	c0.093,0.162,0.187,0.322,0.281,0.484c0.099,0.162,0.193,0.322,0.289,0.482c0.098,0.16,0.196,0.318,0.297,0.479
	c0.1,0.156,0.199,0.316,0.3,0.475c0.103,0.156,0.203,0.314,0.306,0.467c0.104,0.156,0.207,0.311,0.313,0.465
	c0.104,0.156,0.211,0.307,0.318,0.459c0.103,0.154,0.213,0.305,0.319,0.457c0.11,0.148,0.217,0.301,0.329,0.449
	c0.109,0.148,0.221,0.297,0.333,0.443c0.112,0.148,0.224,0.297,0.335,0.441c0.115,0.146,0.229,0.291,0.346,0.436
	c0.116,0.143,0.23,0.287,0.347,0.428c0.119,0.145,0.235,0.283,0.354,0.426c0.119,0.141,0.237,0.279,0.356,0.418
	c0.121,0.139,0.242,0.277,0.366,0.416c0.123,0.139,0.244,0.273,0.367,0.41c0.124,0.135,0.248,0.27,0.376,0.4
	c0.123,0.133,0.247,0.266,0.375,0.396c0.126,0.133,0.251,0.264,0.38,0.393c0.13,0.127,0.258,0.258,0.387,0.383
	c0.131,0.127,0.259,0.254,0.389,0.381c0.131,0.121,0.264,0.246,0.396,0.371c0.131,0.123,0.264,0.244,0.396,0.365
	c0.135,0.121,0.268,0.24,0.402,0.359c0.133,0.117,0.271,0.236,0.408,0.354c0.135,0.117,0.272,0.232,0.41,0.348
	c0.137,0.115,0.274,0.227,0.414,0.34c0.138,0.111,0.277,0.223,0.418,0.332c0.137,0.111,0.277,0.217,0.419,0.326
	c0.14,0.107,0.282,0.215,0.424,0.318c0.143,0.105,0.282,0.209,0.427,0.313c0.14,0.102,0.284,0.203,0.429,0.305
	c0.142,0.1,0.289,0.199,0.434,0.299c0.145,0.098,0.289,0.193,0.434,0.289c0.146,0.098,0.293,0.191,0.44,0.285
	c0.146,0.094,0.296,0.186,0.442,0.275c0.149,0.092,0.296,0.184,0.447,0.273c0.149,0.086,0.298,0.176,0.45,0.26
	c0.148,0.09,0.298,0.176,0.449,0.258c0.151,0.084,0.303,0.166,0.454,0.248s0.306,0.162,0.457,0.24
	c0.151,0.08,0.306,0.156,0.459,0.234c0.153,0.076,0.306,0.15,0.459,0.223c0.153,0.076,0.31,0.148,0.464,0.219
	c0.154,0.072,0.31,0.145,0.464,0.211c0.156,0.068,0.312,0.137,0.468,0.203c0.156,0.064,0.313,0.131,0.469,0.195
	c0.156,0.063,0.313,0.125,0.471,0.186c0.156,0.063,0.314,0.123,0.473,0.18c0.156,0.059,0.317,0.117,0.476,0.172
	c0.158,0.059,0.314,0.111,0.474,0.164c0.158,0.055,0.318,0.105,0.475,0.154c0.158,0.053,0.319,0.102,0.478,0.15
	c0.161,0.049,0.319,0.094,0.48,0.139c0.158,0.045,0.319,0.09,0.479,0.133c0.158,0.043,0.322,0.084,0.482,0.125
	c0.158,0.039,0.319,0.078,0.48,0.115c0.163,0.037,0.324,0.074,0.484,0.109c0.158,0.033,0.321,0.066,0.482,0.1
	s0.324,0.064,0.487,0.094s0.323,0.057,0.486,0.084c0.163,0.025,0.327,0.053,0.489,0.078c0.161,0.023,0.326,0.047,0.49,0.068
	c0.162,0.021,0.326,0.041,0.486,0.061c0.114,0.012,0.227,0.025,0.338,0.039c0.119,0.012,0.238,0.021,0.356,0.033
	c0.124,0.01,0.249,0.023,0.373,0.031c0.128,0.01,0.257,0.02,0.385,0.027c0.144,0.01,0.288,0.15,0.431,0.16
	c0.028,0.002,0.059,0.137,0.086,0.137h0.015c0.077,0,0.153-0.125,0.232-0.121c0.136,0.004,0.275-0.057,0.413-0.053
	c0.135,0.004,0.268-0.027,0.4-0.025c0.107,0.004,0.215-0.014,0.321-0.014c0.103,0.002,0.21-0.006,0.313-0.006
	c0.163-0.002,0.326-0.008,0.489-0.012c0.161-0.006,0.324-0.012,0.484-0.018c0.164-0.008,0.324-0.018,0.485-0.025
	c0.163-0.01,0.323-0.021,0.484-0.031c0.161-0.016,0.321-0.027,0.482-0.043c0.161-0.014,0.321-0.029,0.479-0.047
	c0.161-0.018,0.319-0.037,0.48-0.057c0.158-0.02,0.319-0.041,0.478-0.064c0.158-0.021,0.317-0.047,0.474-0.072
	c0.158-0.025,0.316-0.051,0.473-0.078c0.158-0.029,0.314-0.059,0.471-0.09c0.158-0.029,0.314-0.061,0.471-0.096
	c0.156-0.029,0.313-0.066,0.469-0.102c0.155-0.037,0.31-0.074,0.465-0.111c0.08-0.021,0.161-0.043,0.243-0.063l17.208-4.439
	c0.289-0.08,0.58-0.156,0.869-0.24c0.291-0.086,0.58-0.176,0.866-0.271c0.287-0.094,0.571-0.193,0.853-0.299
	c0.285-0.104,0.564-0.213,0.842-0.324c0.279-0.115,0.557-0.234,0.832-0.355c0.272-0.121,0.545-0.25,0.815-0.379
	c0.272-0.133,0.54-0.27,0.806-0.41c0.266-0.139,0.529-0.285,0.79-0.432c0.261-0.148,0.52-0.303,0.778-0.459
	c0.254-0.158,0.511-0.318,0.76-0.484c0.254-0.166,0.504-0.336,0.75-0.51c0.247-0.176,0.492-0.352,0.734-0.533
	c0.24-0.184,0.482-0.369,0.718-0.559c0.237-0.189,0.471-0.383,0.701-0.58c0.257-0.219,0.508-0.441,0.757-0.666
	c0.248-0.229,0.492-0.459,0.732-0.697c0.244-0.234,0.482-0.475,0.715-0.719c0.235-0.244,0.469-0.494,0.694-0.748
	c0.231-0.252,0.454-0.51,0.676-0.771c0.198-0.238,0.396-0.479,0.59-0.725c0.101-0.123,0.195-0.254,0.296-0.381
	c-1.557-0.691-2.974-1.695-4.15-2.996C108.458,512.833,107.325,509.659,107.486,506.352z M70.994,517.938
	C60.527,517.418,51.628,507,51.118,494.67s7.563-21.904,18.033-21.383c10.467,0.52,19.367,10.938,19.875,23.268
	C89.537,508.885,81.466,518.459,70.994,517.938z"/>
<path d="M117.301,398.069C117.274,398.067,117.927,398.147,117.301,398.069L117.301,398.069z"/>
<path d="M424.086,361.338C424.063,361.188,424.138,361.672,424.086,361.338L424.086,361.338z"/>
<path d="M294.259,397.194c0.459-0.004,0.988-0.01,1.605-0.014c15.505-0.154,30.983,0.994,46.483,0.994
	c4.075,0,8.153-0.082,12.224-0.295c2.142-0.111,4.281-0.262,6.418-0.457c0.666-0.063,1.936,0.164,2.15-0.576
	c0.289-0.992,0.568-1.99,0.851-2.986c1.649-5.887,3.448-11.711,5.448-17.488c1.404-4.063,2.495-8.24,3.154-12.492
	c0.343-2.231,0.573-4.485,0.573-6.743c-0.002-1.34,0.165-4.586-0.948-5.748c-0.904-0.944-3.438-1.051-4.682-1.363
	c-4.597-1.16-9.213-2.242-13.854-3.209c-7.691-1.605-15.451-2.9-23.257-3.796c-7.815-0.896-15.675-1.384-23.539-1.484
	c-2.146-0.028-4.294-0.028-6.438,0.003c-1.77,1.646-3.477,3.361-5.125,5.131c-2.956,3.172-5.72,6.523-8.292,10.018
	c-8.997,12.211-15.764,26.139-19.785,40.766c9.09-0.086,18.177-0.174,27.265-0.262C294.429,397.192,294.343,397.194,294.259,397.194
	z"/>
<path d="M438.761,406.879c1.646-0.424,3.291-0.848,4.934-1.273c16.711-4.311,33.421-8.621,50.13-12.932
	c10.157-2.619,20.313-5.24,30.471-7.863c-5.45-14.039-16.968-25.327-30.096-32.35c-3.155-1.685-6.438-3.137-9.819-4.307
	c-1.312-0.453-3.91-1.83-5.23-1.49c-1.795,0.465-3.589,0.926-5.381,1.389c-15.954,4.115-31.903,8.23-47.855,12.348
	c-0.694,0.179-1.955,0.13-1.827,0.938c2.034,13.057,7.298,26.145,11.697,38.522C436.335,401.417,437.659,407.165,438.761,406.879z"
	/>
<path fill="#0390A2" d="M380.154,494.502c-0.187-0.01-0.366-0.014-0.548-0.014c-3.663,0-6.193,1.838-7.673,3.377
	c-2.864,2.986-4.388,7.518-4.188,12.432c0.392,9.439,7.158,17.732,14.778,18.113c0.182,0.008,0.363,0.014,0.545,0.014
	c3.662,0,6.193-1.838,7.673-3.379c2.864-2.982,4.39-7.514,4.185-12.43C394.538,503.176,387.771,494.881,380.154,494.502z"/>
<path fill="#0390A2" d="M72.712,479.077c-0.185-0.008-0.366-0.014-0.548-0.014c-3.661,0-6.191,1.838-7.673,3.379
	c-2.864,2.984-4.391,7.516-4.186,12.43c0.39,9.439,7.156,17.734,14.773,18.113c0.184,0.008,0.365,0.014,0.547,0.014
	c3.663,0,6.196-1.838,7.674-3.377c2.863-2.986,4.39-7.516,4.187-12.432C87.095,487.752,80.329,479.456,72.712,479.077z"/>
<path d="M542.409,499.313c-0.069,0.186-0.146,0.375-0.224,0.568c-0.069,0.174-0.149,0.361-0.226,0.549
	c-0.086,0.199-0.163,0.383-0.245,0.566c-0.079,0.182-0.16,0.365-0.244,0.551c-0.084,0.182-0.171,0.367-0.254,0.551
	c-0.087,0.182-0.173,0.361-0.264,0.543c-0.086,0.178-0.175,0.354-0.261,0.529c-0.098,0.191-0.193,0.371-0.284,0.549
	c-0.091,0.17-0.187,0.35-0.287,0.531c-0.084,0.158-0.184,0.336-0.282,0.514c-0.1,0.176-0.197,0.346-0.295,0.518
	c-0.115,0.193-0.217,0.363-0.317,0.531c-0.101,0.164-0.202,0.336-0.31,0.506c-0.107,0.174-0.217,0.348-0.329,0.52
	c-0.101,0.154-0.212,0.326-0.326,0.496c-0.104,0.158-0.217,0.326-0.333,0.492c-0.103,0.154-0.222,0.322-0.338,0.486
	c-0.119,0.164-0.232,0.328-0.35,0.486c-0.116,0.158-0.235,0.316-0.354,0.475c-0.115,0.152-0.233,0.307-0.354,0.463
	c-0.126,0.158-0.247,0.313-0.368,0.463c-0.131,0.164-0.257,0.318-0.387,0.473c-0.124,0.15-0.247,0.297-0.373,0.443
	c-0.133,0.154-0.259,0.301-0.387,0.443c-0.143,0.158-0.271,0.305-0.398,0.443c-0.131,0.143-0.262,0.283-0.392,0.426
	c-0.149,0.156-0.284,0.297-0.422,0.439c-0.135,0.137-0.272,0.275-0.41,0.412c-0.135,0.137-0.277,0.277-0.424,0.418
	c-0.131,0.127-0.271,0.26-0.413,0.393c-0.142,0.133-0.283,0.264-0.428,0.395c-0.152,0.135-0.292,0.262-0.434,0.387
	c-0.143,0.123-0.287,0.25-0.432,0.371c-0.175,0.148-0.321,0.271-0.473,0.396c-0.135,0.109-0.282,0.23-0.432,0.346
	c-0.165,0.135-0.314,0.25-0.463,0.365c-0.149,0.115-0.301,0.229-0.45,0.342c-0.184,0.135-0.345,0.252-0.503,0.365
	c-0.143,0.104-0.299,0.213-0.455,0.32c-0.165,0.115-0.323,0.225-0.484,0.332c-0.16,0.105-0.321,0.211-0.482,0.314
	c-0.156,0.104-0.321,0.209-0.489,0.311c-0.156,0.098-0.323,0.201-0.493,0.301c-0.166,0.1-0.329,0.195-0.494,0.291
	c-0.166,0.096-0.334,0.191-0.502,0.281c-0.158,0.092-0.333,0.186-0.508,0.277c-0.156,0.084-0.326,0.174-0.496,0.26
	c-0.177,0.092-0.345,0.176-0.515,0.258c-0.18,0.088-0.353,0.172-0.526,0.254c-0.17,0.078-0.338,0.156-0.508,0.23
	c-0.183,0.084-0.35,0.158-0.521,0.229c-0.187,0.082-0.382,0.156-0.563,0.23c-0.109,0.045-0.366,0.094-0.366,0.143v0.252
	l-2.982,0.773l-0.123,0.047c-0.356,0.121-0.711,0.209-1.112,0.277l-17.324,4.477l-9.063,0.906l-0.415-0.023
	c-0.363-0.02-0.727-0.043-1.091-0.072c-0.375-0.029-0.755-0.068-1.137-0.113c-0.392-0.045-0.762-0.096-1.133-0.15
	c-0.36-0.053-0.736-0.115-1.108-0.186c-0.366-0.066-0.734-0.141-1.103-0.221c-0.358-0.078-0.72-0.16-1.077-0.25
	c-0.352-0.09-0.708-0.184-1.063-0.283c-0.347-0.098-0.703-0.203-1.058-0.316c-0.347-0.109-0.694-0.225-1.041-0.346
	c-0.35-0.121-0.704-0.252-1.054-0.387c-0.354-0.135-0.701-0.273-1.046-0.418c-0.341-0.145-0.685-0.295-1.027-0.451
	c-0.331-0.15-0.669-0.309-1.005-0.473c-0.338-0.164-0.666-0.334-0.994-0.506c-0.341-0.18-0.664-0.355-0.99-0.539
	c-0.329-0.186-0.65-0.371-0.97-0.563c-0.324-0.195-0.639-0.391-0.953-0.592c-0.317-0.203-0.632-0.408-0.941-0.619
	c-0.313-0.211-0.62-0.426-0.925-0.646c-0.306-0.217-0.611-0.443-0.914-0.67c-0.291-0.225-0.584-0.455-0.878-0.688
	c-0.303-0.242-0.592-0.48-0.881-0.725c-0.296-0.25-0.585-0.5-0.869-0.756c-0.116-0.102-0.249-0.227-0.382-0.348l-1.051-0.961
	l-31.38,8.023c-0.005,0.01-0.007,0.018-0.012,0.029c-0.11,0.367-0.227,0.73-0.345,1.094c-0.124,0.369-0.25,0.732-0.38,1.092
	c-0.131,0.363-0.266,0.719-0.403,1.07c-0.138,0.355-0.279,0.705-0.427,1.055c-0.149,0.354-0.3,0.703-0.459,1.047
	c-0.149,0.332-0.312,0.678-0.478,1.018c-0.158,0.326-0.324,0.656-0.491,0.98c-0.171,0.326-0.343,0.648-0.521,0.967
	c-0.172,0.314-0.354,0.629-0.535,0.941c-0.187,0.313-0.373,0.623-0.566,0.93c-0.2,0.32-0.4,0.631-0.604,0.938
	c-0.198,0.295-0.405,0.6-0.617,0.898c-0.21,0.297-0.427,0.594-0.646,0.887c-0.215,0.287-0.44,0.582-0.674,0.871
	c-0.212,0.27-0.442,0.551-0.676,0.828c-0.261,0.307-0.521,0.607-0.787,0.902c-0.264,0.295-0.536,0.586-0.813,0.871
	c-0.275,0.289-0.555,0.572-0.839,0.85c-0.279,0.271-0.566,0.543-0.857,0.811c-0.296,0.27-0.595,0.529-0.893,0.785
	c-0.268,0.23-0.543,0.457-0.82,0.68c-0.289,0.23-0.573,0.453-0.857,0.666c-0.282,0.211-0.571,0.422-0.864,0.627
	c-0.299,0.213-0.599,0.416-0.902,0.613c-0.277,0.184-0.582,0.377-0.887,0.566c-0.311,0.189-0.618,0.371-0.93,0.549
	c-0.311,0.178-0.623,0.348-0.936,0.514c-0.33,0.174-0.645,0.332-0.962,0.486c-0.328,0.162-0.657,0.314-0.992,0.463
	c-0.317,0.143-0.646,0.281-0.979,0.418c-0.332,0.135-0.668,0.266-1.008,0.393c-0.331,0.121-0.667,0.24-1.01,0.354
	c-0.354,0.117-0.694,0.227-1.046,0.33c-0.321,0.094-0.632,0.18-0.96,0.271l-17.104,4.42c-0.2,0.059-0.41,0.107-0.629,0.148
	c-0.096,0.021-0.41,0.09-0.41,0.09c-0.165,0.037-0.356,0.08-0.55,0.121c-0.182,0.041-0.37,0.078-0.557,0.115
	c-0.187,0.035-0.37,0.07-0.558,0.104c-0.186,0.033-0.372,0.064-0.561,0.094c-0.201,0.031-0.381,0.061-0.563,0.086
	c-0.2,0.027-0.382,0.053-0.563,0.074c-0.2,0.025-0.384,0.047-0.566,0.068c-0.207,0.021-0.396,0.039-0.585,0.057
	c-0.184,0.018-0.367,0.033-0.552,0.047c-0.208,0.014-0.396,0.027-0.587,0.041c-0.191,0.01-0.38,0.02-0.568,0.027
	c-0.199,0.008-0.395,0.016-0.59,0.021l-0.072,0.002c-0.168,0.002-0.334,0.008-0.501,0.008c-0.096,0.004-0.44,0.266-0.515,0.266
	c-0.393,0.09-0.511,0.082-0.916,0.082l-0.484-0.131c-0.608,0-1.019,0.08-1.58-0.117l-0.398-0.168l-0.418-0.107
	c-0.186-0.023-0.382-0.076-0.58-0.105c-0.179-0.023-0.375-0.066-0.57-0.096c-0.182-0.027-0.378-0.066-0.573-0.1
	c-0.185-0.027-0.382-0.066-0.583-0.104c-0.179-0.031-0.361-0.07-0.543-0.105c-0.207-0.041-0.398-0.082-0.587-0.123
	c-0.182-0.039-0.37-0.082-0.56-0.127c-0.19-0.045-0.379-0.09-0.57-0.139c-0.182-0.045-0.371-0.092-0.56-0.143
	c-0.177-0.047-0.377-0.104-0.575-0.158c-0.168-0.049-0.354-0.104-0.541-0.16c-0.2-0.061-0.387-0.115-0.572-0.176
	c-0.176-0.057-0.364-0.119-0.555-0.182c-0.176-0.061-0.366-0.125-0.555-0.191c-0.168-0.059-0.352-0.127-0.536-0.195
	c-0.193-0.07-0.378-0.141-0.56-0.211c-0.182-0.072-0.365-0.145-0.547-0.219c-0.166-0.066-0.359-0.146-0.551-0.229
	c-0.174-0.076-0.352-0.15-0.526-0.229c-0.195-0.086-0.375-0.168-0.552-0.248c-0.173-0.082-0.352-0.164-0.529-0.252
	c-0.18-0.084-0.356-0.17-0.531-0.26c-0.17-0.084-0.354-0.18-0.536-0.271c-0.172-0.09-0.35-0.182-0.524-0.277
	c-0.172-0.092-0.342-0.184-0.512-0.279c-0.191-0.107-0.364-0.205-0.536-0.305c-0.168-0.096-0.345-0.199-0.522-0.305
	c-0.151-0.09-0.321-0.193-0.489-0.297c-0.179-0.111-0.35-0.217-0.521-0.326c-0.171-0.107-0.341-0.219-0.511-0.33
	c-0.156-0.102-0.326-0.217-0.494-0.33c-0.165-0.111-0.326-0.223-0.489-0.336c-0.165-0.117-0.331-0.232-0.496-0.352
	c-0.17-0.123-0.331-0.24-0.489-0.359c-0.163-0.119-0.331-0.246-0.499-0.375c-0.142-0.107-0.3-0.23-0.456-0.354
	c-0.164-0.129-0.326-0.26-0.487-0.391c-0.151-0.123-0.308-0.25-0.466-0.383s-0.314-0.264-0.471-0.398
	c-0.151-0.127-0.311-0.266-0.467-0.404c-0.139-0.123-0.295-0.262-0.449-0.402c-0.145-0.131-0.296-0.271-0.447-0.41
	c-0.156-0.146-0.303-0.285-0.452-0.426c-0.153-0.15-0.303-0.293-0.45-0.439c-0.142-0.137-0.291-0.285-0.438-0.436
	c-0.128-0.127-0.271-0.275-0.412-0.42c-0.154-0.16-0.292-0.305-0.43-0.451c-0.148-0.158-0.288-0.313-0.428-0.467
	c-0.145-0.154-0.287-0.311-0.425-0.471c-0.13-0.145-0.266-0.299-0.4-0.453c-0.131-0.152-0.266-0.311-0.401-0.471
	c-0.137-0.164-0.27-0.322-0.4-0.48c-0.128-0.158-0.259-0.318-0.387-0.479c-0.135-0.17-0.264-0.332-0.389-0.494
	c-0.129-0.162-0.254-0.33-0.383-0.494c-0.128-0.172-0.256-0.342-0.382-0.512c-0.107-0.148-0.23-0.316-0.354-0.486
	c-0.128-0.18-0.249-0.352-0.37-0.521c-0.114-0.166-0.233-0.338-0.35-0.512c-0.119-0.176-0.235-0.346-0.35-0.52
	c-0.116-0.176-0.23-0.352-0.347-0.529c-0.104-0.162-0.222-0.346-0.336-0.533c-0.107-0.166-0.219-0.35-0.328-0.535
	c-0.104-0.166-0.21-0.344-0.317-0.521c-0.116-0.203-0.222-0.379-0.321-0.553c-0.105-0.184-0.21-0.369-0.314-0.555
	c-0.098-0.178-0.201-0.365-0.301-0.551c-0.096-0.178-0.198-0.367-0.299-0.557c-0.035-0.063-0.067-0.135-0.104-0.199l-225.576-12.377
	l-2.402,3.102c-0.087,0.113-0.173,0.227-0.261,0.338c-0.213,0.27-0.443,0.547-0.674,0.824c-0.268,0.314-0.526,0.615-0.792,0.906
	c-0.271,0.303-0.541,0.594-0.815,0.877c-0.273,0.285-0.555,0.568-0.842,0.848c-0.27,0.266-0.559,0.539-0.853,0.807
	c-0.294,0.27-0.59,0.529-0.888,0.783c-0.277,0.234-0.55,0.461-0.825,0.684c-0.284,0.229-0.57,0.449-0.857,0.666
	c-0.289,0.217-0.577,0.426-0.874,0.635c-0.286,0.201-0.58,0.402-0.881,0.6c-0.295,0.193-0.594,0.385-0.895,0.568
	c-0.326,0.201-0.634,0.381-0.941,0.557c-0.303,0.172-0.615,0.344-0.927,0.508c-0.326,0.172-0.646,0.334-0.965,0.49
	c-0.333,0.158-0.657,0.311-0.983,0.457c-0.319,0.143-0.647,0.281-0.979,0.418c-0.343,0.139-0.678,0.268-1.014,0.393
	c-0.343,0.127-0.683,0.244-1.023,0.357c-0.342,0.113-0.693,0.227-1.046,0.328c-0.314,0.094-0.639,0.178-0.958,0.264l-14.596,3.768
	c-1.032,0.264-1.913,0.492-2.693,0.643l0.014,0.049l-0.305,0.078c-0.161,0.039-0.361,0.088-0.564,0.135
	c-0.184,0.041-0.368,0.082-0.55,0.121c-0.17,0.035-0.358,0.072-0.543,0.109c-0.187,0.037-0.375,0.072-0.562,0.105
	c-0.182,0.031-0.368,0.063-0.557,0.096c-0.21,0.031-0.403,0.061-0.599,0.088c-0.159,0.023-0.353,0.049-0.546,0.074
	c-0.179,0.021-0.372,0.045-0.565,0.064c-0.189,0.021-0.38,0.039-0.569,0.057c-0.184,0.018-0.382,0.035-0.584,0.049
	c-0.161,0.012-0.357,0.025-0.553,0.037s-0.392,0.02-0.59,0.027c-0.17,0.008-0.363,0.016-0.555,0.02
	c-0.195,0.004-0.391,0.088-0.589,0.092l-0.587,0.082h-0.185h-0.21c-0.041,0-0.084,0-0.123,0c-0.18,0-0.385,0-0.61,0h-1.809
	l-0.294-0.283c-0.032-0.004-0.488-0.086-0.488-0.086c-0.208-0.023-0.403-0.063-0.602-0.092c-0.156-0.02-0.348-0.053-0.538-0.08
	c-0.208-0.031-0.396-0.066-0.587-0.098c-0.194-0.033-0.385-0.068-0.574-0.102c-0.193-0.037-0.384-0.074-0.575-0.111
	c-0.182-0.037-0.373-0.078-0.563-0.119c-0.191-0.039-0.385-0.084-0.578-0.131c-0.17-0.039-0.361-0.084-0.55-0.133
	c-0.188-0.045-0.378-0.092-0.562-0.145c-0.191-0.051-0.383-0.102-0.573-0.156c-0.177-0.051-0.368-0.105-0.56-0.164
	c-0.18-0.053-0.368-0.113-0.559-0.174c-0.178-0.057-0.369-0.121-0.56-0.184c-0.173-0.057-0.368-0.123-0.563-0.195
	c-0.149-0.051-0.336-0.119-0.522-0.189c-0.198-0.072-0.382-0.143-0.563-0.213c-0.176-0.066-0.359-0.141-0.543-0.215
	c-0.175-0.072-0.364-0.15-0.551-0.229c-0.172-0.074-0.347-0.15-0.521-0.227c-0.198-0.088-0.37-0.168-0.543-0.246
	c-0.177-0.082-0.354-0.164-0.531-0.25c-0.188-0.09-0.361-0.176-0.538-0.264c-0.187-0.092-0.361-0.184-0.536-0.271
	c-0.175-0.094-0.352-0.186-0.529-0.281c-0.174-0.092-0.347-0.188-0.517-0.283c-0.185-0.1-0.361-0.201-0.538-0.303
	c-0.159-0.092-0.326-0.191-0.499-0.291c-0.173-0.104-0.345-0.209-0.518-0.314c-0.175-0.109-0.35-0.217-0.521-0.326
	c-0.138-0.088-0.296-0.191-0.457-0.295c-0.205-0.135-0.373-0.246-0.538-0.359c-0.166-0.113-0.331-0.227-0.494-0.342
	c-0.175-0.123-0.34-0.238-0.506-0.355c-0.137-0.102-0.298-0.219-0.459-0.338c-0.177-0.131-0.34-0.254-0.503-0.379
	c-0.158-0.121-0.317-0.244-0.474-0.365c-0.158-0.125-0.318-0.256-0.479-0.385c-0.161-0.133-0.324-0.266-0.482-0.398
	c-0.126-0.104-0.284-0.236-0.44-0.369c-0.172-0.15-0.333-0.285-0.484-0.426c-0.138-0.119-0.289-0.254-0.438-0.389
	c-0.163-0.148-0.308-0.281-0.454-0.416c-0.156-0.146-0.303-0.285-0.449-0.426l-0.43-0.416c-0.167-0.164-0.312-0.309-0.454-0.453
	c-0.142-0.143-0.284-0.289-0.427-0.438c-0.14-0.143-0.286-0.295-0.428-0.449c-0.145-0.154-0.282-0.301-0.415-0.449
	c-0.145-0.154-0.277-0.305-0.413-0.455c-0.145-0.166-0.284-0.322-0.419-0.48c-0.14-0.162-0.271-0.313-0.401-0.469
	c-0.135-0.16-0.263-0.314-0.394-0.469c-0.14-0.174-0.268-0.332-0.394-0.49c-0.138-0.17-0.268-0.334-0.396-0.5
	c-0.123-0.16-0.254-0.33-0.382-0.5c-0.112-0.148-0.239-0.316-0.363-0.486c-0.126-0.168-0.247-0.338-0.37-0.51
	c-0.126-0.174-0.247-0.346-0.366-0.514c-0.116-0.17-0.242-0.348-0.363-0.529c-0.096-0.139-0.217-0.318-0.336-0.498
	c-0.116-0.176-0.23-0.354-0.345-0.531c-0.105-0.16-0.217-0.338-0.328-0.516c-0.114-0.184-0.222-0.357-0.331-0.537l-0.319-0.531
	c-0.121-0.205-0.224-0.381-0.326-0.561c-0.105-0.18-0.207-0.363-0.311-0.547c-0.102-0.184-0.205-0.369-0.305-0.557
	c-0.103-0.188-0.203-0.375-0.301-0.563c-0.096-0.18-0.191-0.369-0.289-0.559c-0.098-0.195-0.193-0.381-0.284-0.568
	c-0.084-0.168-0.175-0.357-0.268-0.547l-0.271-0.578c-0.094-0.201-0.182-0.393-0.268-0.586c-0.003-0.008-0.005-0.016-0.01-0.021
	C13.755,519.805,0,526.385,0,533.358c0,23.34,153.981,42.26,343.926,42.26c189.946,0,270.182-18.92,270.182-42.26
	c0-14.028-12.601-27.731-68.876-34.202c-0.872-0.101-1.754-0.199-2.647-0.296C542.526,499.008,542.47,499.161,542.409,499.313z"/>
<path d="M553.816,419.989c-2.041-2.505-3.805-4.668-4.77-7.704c-1.613-4.974-2.308-9.812-3.043-14.935
	c-1.061-7.387-2.156-15.026-6.18-22.924c-19.09-37.483-63.325-58.258-131.483-61.749c-6.59-0.328-13.136-0.691-19.645-1.054
	c-47.445-2.639-92.26-5.132-139.033,6.928l-1.805,0.466c-28.109,7.253-57.177,14.752-84.421,27.565
	c-11.677,5.493-22.65,12.06-33.262,18.41c-17.887,10.704-34.877,20.872-54.673,26.086c-23.862,5.011-56.404,13.479-68.222,43.237
	c-1.448,3.673-4.347,21.42-3.806,38.726c-0.008,0.519-0.017,1.038-0.022,1.544c-0.041,3.815,0.038,9.54,1.209,15.178
	c0.878,4.277,2.388,7.848,4.464,10.636c1.118,2.045,2.429,3.815,3.965,5.222c2.155,1.973,5.319,3.803,9.648,3.802
	c2.522,0,5.446-0.635,8.79-2.211c0.209-0.099,0.415-0.188,0.628-0.295l-0.119-0.239c0.098-0.069,0.2-0.123,0.296-0.201
	c1.253-1.015,2.678-3.878,1.969-5.883c-0.437-1.232-1.535-1.998-2.867-1.998c-0.606,0-1.347-1.502-1.537-4.802
	c-0.929-15.728,4.519-30.593,14.567-39.764c13.809-12.572,34.901-11.864,50.157,1.682c3.58,3.179,6.733,6.886,9.415,10.993
	c9.706,1.43,63.762,9.119,123.646,12.3c-2.093-13.65-2.505-25.872-1.962-36.453c-59.401-6.748-108.911-22.611-141.145-45.391
	c18.159-5.938,34.26-15.56,49.926-24.936c10.436-6.244,21.225-12.702,32.522-18.015c26.527-12.476,53.929-19.546,82.938-27.031
	l1.805-0.466c45.504-11.734,89.686-9.275,136.459-6.674c6.525,0.363,13.088,0.728,19.688,1.056
	c64.922,3.325,106.775,22.555,124.398,57.155c3.389,6.654,4.34,13.281,5.347,20.297c0.122,0.853,0.248,1.712,0.376,2.573
	c-44.952,17.839-97.802,31.588-155.073,39.065c-54.061,7.055-105.762,7.704-151.781,2.956c1.149-18.681,4.649-36.11,6.83-45.558
	l0.277,0.141c1.285-5.572,2.936-11.059,4.909-16.428c5.091-13.852,12.326-26.956,21.444-38.565
	c-26.867,1.551-53.572,6.156-78.628,16.247c-11.671,4.695-22.996,10.375-33.966,16.515c-6.103,3.416-12.101,7.023-17.97,10.83
	c-2.876,1.863-5.719,3.771-8.528,5.729c-1.559,1.084-3.104,2.18-4.64,3.293c-0.61,0.443-3.183,2.775-3.611,2.723
	c7.318,0.885,14.782,0.531,22.138,0.484c8.529-0.059,17.06-0.127,25.585-0.197c15.54-0.123,31.079-0.254,46.619-0.393
	c6.957-0.062,13.915-0.124,20.873-0.187c-2.282,10.116-5.664,27.59-6.712,46.149l5.231,0.296
	c-0.46,10.242,0.001,22.005,2.075,35.057c39.623,1.908,81.266,1.72,113.943-3.633c5.518-7.596,13.122-12.96,21.683-14.795
	c7.981-1.757,16.74-0.438,24.661,3.706c2.178,1.147,4.27,2.483,6.268,3.985c7.213-1.28,42.14-7.594,77.253-15.882
	c60.329-14.242,76.292-23.608,80.265-28.221C556.107,422.801,554.935,421.36,553.816,419.989z"/>
<path d="M1298.448,255.864c-30.285-140.654-156.529-242.741-300.18-242.741c-21.711,0-43.581,2.338-65.004,6.951
	c-123.002,26.482-216.49,123.675-238.172,247.61c-0.194,1.111-0.687,2.14-1.396,3.009c-2.211,17.755-2.437,39.248,4.866,56.297
	c0,0-10.552-17.542-14.577-45.528c-13.129,15.775-23.445,33.991-30.145,53.362c-0.166,0.481-0.388,0.941-0.661,1.371
	c-0.164,0.259-0.352,0.504-0.552,0.74c-1.987,9.823-2.908,23.035,2.282,34.548c0,0-6.956-11.945-8.429-30.463
	c-34.295,21.376-54.009,60.437-50.502,100.939c0.085,0.979-0.052,1.965-0.399,2.885c-0.009,0.026-0.045,0.126-0.055,0.153
	l-0.798,2.067c-0.018,0.044-0.035,0.088-0.053,0.132l-0.25,0.607c-0.012,0.031-0.024,0.063-0.038,0.093l-0.993,2.291
	c-0.137,0.304-0.271,0.599-0.41,0.895l-0.782,1.645c-0.134,0.276-0.279,0.568-0.427,0.863l-3.02,5.551
	c-0.202,0.346-0.396,0.668-0.59,0.99l-1.21,1.965c-0.234,0.37-0.449,0.704-0.667,1.041c-0.236,0.361-0.462,0.705-0.691,1.047
	c-0.197,0.301-0.436,0.653-0.68,1.011c-0.229,0.336-0.468,0.684-0.71,1.03l-0.725,1.026c-0.275,0.383-0.53,0.735-0.792,1.089
	l-1.554,2.07c-0.305,0.394-0.578,0.744-0.856,1.097c-0.279,0.353-0.56,0.704-0.843,1.055l-0.093,0.114
	c-0.269,0.329-0.539,0.66-0.813,0.987c-0.275,0.335-0.582,0.705-0.894,1.069c-0.31,0.361-0.617,0.721-0.93,1.078
	c-0.212,0.246-0.475,0.543-0.737,0.84l-0.17,0.191c-0.282,0.319-0.568,0.635-0.854,0.949l-0.114,0.126
	c-0.344,0.375-0.668,0.726-0.994,1.076c-0.352,0.374-0.685,0.723-1.02,1.073c-0.328,0.345-0.674,0.699-1.021,1.055
	c-0.363,0.368-0.707,0.714-1.055,1.061c-0.377,0.373-0.73,0.721-1.085,1.064c-0.278,0.27-0.552,0.531-0.823,0.791l0.889,0.029
	c0.573,0.025,1.063,0.048,1.547,0.073c0.498,0.026,0.992,0.058,1.485,0.088c0.528,0.034,1.027,0.067,1.526,0.107
	c0.492,0.039,0.979,0.079,1.464,0.122c0.492,0.044,0.983,0.091,1.473,0.141c0.492,0.051,0.976,0.103,1.46,0.158
	c0.46,0.052,0.94,0.109,1.421,0.17c0.487,0.062,0.962,0.126,1.435,0.192l4.124,0.646c0.503,0.091,0.944,0.17,1.38,0.254
	c0.408,0.075,0.848,0.16,1.286,0.248l0.232,0.047c0.369,0.075,0.736,0.149,1.102,0.229c0.423,0.09,0.861,0.186,1.294,0.285
	c0.382,0.085,0.813,0.186,1.239,0.287c0.377,0.087,0.808,0.193,1.238,0.302c0.359,0.087,0.783,0.197,1.204,0.309
	c0.383,0.1,0.78,0.207,1.179,0.315c0.338,0.09,0.718,0.198,1.1,0.307l4.473,1.39c0.406,0.138,0.739,0.25,1.067,0.367l0.944,0.333
	c0.378,0.137,0.703,0.256,1.025,0.376c0.356,0.135,0.665,0.251,0.973,0.37l1.81,0.719c0.315,0.13,0.612,0.253,0.908,0.379
	l3.268,1.462c0.221,0.103,0.489,0.231,0.754,0.362c0.176,0.083,0.428,0.207,0.675,0.329c0.188,0.092,0.413,0.206,0.636,0.32
	c0.265,0.134,0.501,0.256,0.736,0.378c0.172,0.088,0.37,0.192,0.568,0.301c0.896,0.455,1.678,1.111,2.282,1.92
	c20.318,27.174,52.646,43.397,86.474,43.397c5.818,0,11.666-0.479,17.454-1.425c-12.935-15.911-15.943-31.191-15.943-31.191
	c3.885,12.647,16.125,23.464,26.169,30.548c0.115,0.056,0.233,0.102,0.346,0.165c20.25,11.33,42.967,18.462,66.046,20.8
	c-12.152-22.407-14.525-40.335-14.525-40.335c8.509,23.466,25.413,41.59,38.283,52.781c51.537,36.122,113.572,55.856,176.575,55.859
	c0.003,0,0.008,0,0.011,0c21.674,0,43.454-2.324,64.739-6.907C1228.348,585.373,1334.122,421.552,1298.448,255.864z"/>
<path d="M343.703,481.008c-20.217,2.985-43.498,4.151-67.458,4.151c-71.252,0-148.509-10.243-169.159-13.175
	c1.514,2.948,2.826,6.042,3.867,9.286c1.609,4.971,2.578,10.177,2.882,15.475c0.155,2.696,0.129,5.419-0.078,8.091
	c-0.229,2.895,0.291,5.018,1.586,6.49c0.697,0.794,1.971,1.759,4.091,1.897c3.413,0.49,6.936,0.553,10.343,0.613
	c1.722,0.03,3.348,0.06,4.967,0.14l192.505,9.459c0.412,0.021,0.917,0.08,1.472,0.144c1.028,0.118,2.209,0.253,3.396,0.253
	c1.751,0,3.516-0.294,4.82-1.374c2.574-2.131,2.04-5.272,1.72-7.149c-0.034-0.205-0.069-0.406-0.099-0.599
	c-1.113-7.362-0.87-14.885,0.705-21.753C340.245,488.677,341.762,484.667,343.703,481.008z M333.849,518.784
	c0.056-0.058,0.114-0.114,0.163-0.174c-0.035,0.063-0.078,0.115-0.13,0.158C333.874,518.774,333.857,518.777,333.849,518.784z"/>
<path d="M478,457.328c-30.897,7.293-61.652,13.062-73.639,15.238c3.687,3.572,6.937,7.783,9.631,12.538
	c1.628,2.859,3.149,5.921,4.621,8.881c2.186,4.398,4.446,8.946,7.162,13.092c3.611,5.742,8.224,8.226,12.979,6.995l104.216-26.889
	l0.582-0.147c2.069-0.525,4.187-1.074,6.106-2.409l3.587,1.003c0.628-2.245,1.205-4.515,1.737-6.785
	c0.587-2.499,1.116-4.996,1.598-7.462c1.111-4.455,1.916-9.4,2.437-14.971c1.551-11.653,1.964-20.346,1.992-20.968l-1.646-0.074
	c-0.017-0.14-0.031-0.28-0.049-0.421l1.669-0.202c-0.268-2.2-0.781-4.114-1.452-5.819C553.288,434.535,534.916,443.892,478,457.328z
	 M545.663,481.39c-0.041,0.019-0.086,0.034-0.128,0.051c0.046-0.027,0.092-0.054,0.138-0.083
	C545.669,481.369,545.666,481.379,545.663,481.39z"/>
</svg>
