<?xml version="1.0" encoding="utf-8"?>
<!-- Generator: Adobe Illustrator 16.0.0, SVG Export Plug-In . SVG Version: 6.00 Build 0)  -->
<!DOCTYPE svg PUBLIC "-//W3C//DTD SVG 1.1//EN" "http://www.w3.org/Graphics/SVG/1.1/DTD/svg11.dtd">
<svg version="1.1" id="Layer_1" xmlns="http://www.w3.org/2000/svg" xmlns:xlink="http://www.w3.org/1999/xlink" x="0px" y="0px"
	 width="313.413px" height="269.576px" viewBox="0 0 313.413 269.576" enable-background="new 0 0 313.413 269.576"
	 xml:space="preserve">
<g>
	<polygon fill="none" points="144.887,37.045 145.626,37.367 146.589,37.636 147.771,37.835 149.01,37.922 150.286,37.919 
		151.642,37.811 152.849,37.622 154.025,37.317 154.938,36.992 155.665,36.606 156.117,36.255 156.311,35.928 156.294,35.866 
		156.116,35.655 155.654,35.342 154.912,35.03 153.943,34.756 152.763,34.56 151.521,34.472 150.217,34.475 148.905,34.582 
		147.655,34.779 146.583,35.053 145.627,35.403 144.887,35.781 144.432,36.134 144.226,36.464 144.24,36.514 144.42,36.728 	"/>
	<polygon fill="none" points="93.234,87.101 103.358,90.751 103.367,90.754 	"/>
	<polygon fill="none" points="199.202,36.385 199.94,36.708 200.906,36.979 202.088,37.178 203.325,37.262 204.604,37.259 
		205.958,37.153 207.163,36.963 208.338,36.659 209.256,36.332 209.98,35.948 210.432,35.596 210.625,35.272 210.607,35.207 
		210.432,34.997 209.969,34.684 209.228,34.37 208.26,34.098 207.078,33.901 205.837,33.814 204.533,33.817 203.219,33.923 
		201.97,34.121 200.898,34.393 199.942,34.746 199.201,35.121 198.749,35.474 198.542,35.806 198.556,35.856 198.734,36.069 	"/>
	<polygon fill="none" points="64.961,70.259 65.698,70.582 66.663,70.851 67.846,71.05 69.083,71.136 70.359,71.133 71.713,71.025 
		72.921,70.836 74.099,70.531 75.012,70.207 75.737,69.82 76.19,69.469 76.383,69.143 76.366,69.08 76.189,68.868 75.729,68.557 
		74.986,68.245 74.016,67.971 72.836,67.773 71.595,67.687 70.288,67.69 68.979,67.796 67.73,67.995 66.656,68.268 65.7,68.618 
		64.96,68.995 64.506,69.348 64.299,69.676 64.314,69.73 64.493,69.942 	"/>
	<polygon fill="none" points="92.472,58.582 93.214,58.905 94.177,59.175 95.357,59.373 96.597,59.46 97.873,59.457 99.229,59.349 
		100.435,59.16 101.609,58.855 102.525,58.529 103.251,58.144 103.703,57.793 103.896,57.467 103.878,57.401 103.703,57.192 
		103.24,56.881 102.498,56.566 101.53,56.294 100.35,56.098 99.108,56.01 97.804,56.013 96.491,56.12 95.243,56.317 94.169,56.589 
		93.213,56.941 92.472,57.317 92.021,57.67 91.813,58.001 91.827,58.052 92.007,58.266 	"/>
	<path fill="none" d="M191.374,70.729c0.037,0.11,0.075,0.292,0.098,0.873l0.01,0.251l-0.413,0.892l-0.413,0.426
		c0.075,0.122,0.133,0.255,0.153,0.405l0.66,4.899l8.008-3.415l0.306-3.2l-8.846-2.726L191.374,70.729z"/>
	<path fill="none" d="M190.209,65.848l4.922,1.517c0.008-1.396,0.063-2.768,0.122-3.962c0.031-0.556,0.068-1.104,0.104-1.65
		c0.027-0.413,0.056-0.826,0.081-1.239c-0.008-0.054-0.008-0.11-0.006-0.167l-5.984,2.503l0.242,0.177l0.566,0.675l0.278,1.012
		l-0.231,1.012L190.209,65.848z"/>
	<polygon fill="none" points="105.502,79.865 105.502,79.865 106.34,82.916 	"/>
	<polygon fill="none" points="105.22,79.203 104.766,79.438 105.22,79.203 	"/>
	<polygon fill="none" points="105.17,76.149 104.707,75.836 103.967,75.523 102.997,75.25 101.817,75.053 100.574,74.965 
		99.271,74.968 97.959,75.075 96.709,75.273 95.638,75.547 94.681,75.898 93.939,76.273 93.487,76.625 93.281,76.958 93.295,77.009 
		93.473,77.221 93.94,77.537 94.681,77.86 95.643,78.13 96.825,78.33 98.064,78.416 99.34,78.413 100.693,78.305 101.902,78.116 
		103.078,77.811 103.994,77.485 104.718,77.1 105.172,76.748 105.364,76.422 105.348,76.361 	"/>
	<polygon fill="none" points="209.765,53.208 208.459,53.21 207.147,53.316 205.899,53.515 204.824,53.787 203.869,54.138 
		203.129,54.514 202.675,54.866 202.47,55.196 202.483,55.249 202.663,55.463 203.128,55.778 203.869,56.101 204.832,56.37 
		206.015,56.569 207.253,56.655 208.53,56.652 209.885,56.545 211.091,56.355 212.268,56.051 213.183,55.725 213.905,55.341 
		214.36,54.988 214.552,54.664 214.534,54.6 214.357,54.389 213.896,54.075 213.157,53.763 212.188,53.492 211.007,53.294 	"/>
	<polygon fill="none" points="159.604,74.795 158.425,74.6 157.18,74.511 155.878,74.514 154.565,74.621 153.317,74.82 
		152.242,75.092 151.287,75.442 150.546,75.82 150.092,76.171 149.886,76.501 149.9,76.554 150.08,76.769 150.545,77.083 
		151.285,77.405 152.249,77.674 153.431,77.873 154.671,77.959 155.947,77.957 157.302,77.851 158.509,77.66 159.682,77.356 
		160.601,77.03 161.324,76.646 161.777,76.293 161.969,75.97 161.95,75.904 161.775,75.692 161.313,75.382 160.571,75.069 	"/>
	<polygon fill="none" points="240.768,57.454 240.435,54.312 240.768,57.454 	"/>
	<polygon fill="none" points="215.32,68.304 215.32,68.304 214.852,64.359 	"/>
	<polygon fill="none" points="227.235,63.211 227.899,62.94 227.903,62.938 	"/>
	<polygon fill="none" points="239.871,47.459 239.575,47.612 239.871,47.459 	"/>
	<path fill="none" d="M226.642,43.55l-4.3-1.271l-0.879-0.18l-0.755-0.007l-0.706,0.135l-0.624,0.269l-0.592,0.417l-0.514,0.554
		l-0.382,0.61c-0.252,4.749,2.234,9.429,6.731,11.756c0.334,0.17,0.671,0.315,1.006,0.454l0.194-2.715l-0.385-0.361L225,52.337
		l-0.019-0.873l0.054-0.238l1.375-4.796l-0.208-0.248l-0.283-1.023l0.255-1.02L226.642,43.55z"/>
	<path fill="none" d="M217.863,56.731l-1.24-1.711l-0.137,0.607l-0.223,0.287l1.29,4.712c0.038,0.113,0.077,0.3,0.1,0.876
		l0.01,0.251l-0.413,0.892l-0.436,0.449l0.518,4.352l7.732-3.297l0.22-3.074l-2.703-0.82
		C220.338,59.485,218.817,57.876,217.863,56.731z"/>
	<path fill="none" d="M242.54,48.247l0.634,2.315c0.039,0.113,0.076,0.291,0.099,0.875l0.009,0.251l-0.412,0.894l-0.457,0.471
		l0.375,3.539l10.456-4.458c-0.788-0.645-1.68-1.162-2.64-1.504L242.54,48.247z"/>
	<polygon fill="none" points="240.172,47.547 240.172,47.547 241.151,51.123 	"/>
	<path fill="none" d="M185.677,43.175l0.888,0.648l0.568,0.677l0.271,1.008l-0.225,1.012l-0.225,0.29l1.292,4.717
		c0.038,0.111,0.074,0.286,0.097,0.871l0.009,0.25l-0.41,0.894l-0.433,0.446l0.674,6.222l7.48-3.129l0.908-12.57l-0.053-0.033
		l-0.63-0.594l-0.436-0.872l-0.02-0.882l0.055-0.23l1.374-4.793l-0.21-0.249l-0.281-1.025l0.254-1.02l0.72-0.904l0.816-0.613
		l0.996-0.496l1.173-0.428l1.223-0.306l1.422-0.225l1.476-0.119l1.463-0.003l1.413,0.102l1.445,0.242l1.214,0.35l1.072,0.476
		l0.889,0.649l0.563,0.674l0.277,1.009l-0.228,1.012l-0.224,0.289l1.289,4.708c0.04,0.116,0.08,0.309,0.101,0.881l0.009,0.25
		l-0.41,0.892l-0.412,0.424c0.014,0.054,0.04,0.102,0.046,0.159l0.853,7.799c0.005,0.046-0.003,0.092-0.004,0.139l0.107,0.031
		l1.074,0.476l0.085,0.063l-0.254-0.688c-0.02-0.054-0.036-0.108-0.05-0.164l-0.33-1.378c-0.012-0.05-0.021-0.1-0.027-0.151
		l-0.181-1.379c-0.007-0.05-0.011-0.1-0.012-0.15l-0.036-1.342c-0.002-0.069,0.001-0.139,0.009-0.207l0.147-1.278
		c0.007-0.062,0.019-0.122,0.033-0.182l0.292-1.188c0.017-0.068,0.038-0.136,0.064-0.201l0.438-1.078
		c0.032-0.079,0.071-0.154,0.116-0.227l0.584-0.933c0.049-0.078,0.104-0.151,0.167-0.219l0.712-0.767
		c0.069-0.074,0.146-0.142,0.229-0.2l0.841-0.593c0.083-0.058,0.171-0.108,0.265-0.148l0.911-0.392
		c0.098-0.042,0.199-0.073,0.304-0.093l1.006-0.192c0.095-0.019,0.189-0.029,0.289-0.026l1.041,0.01
		c0.093,0.001,0.186,0.011,0.277,0.029l1.078,0.22c0.041,0.008,0.081,0.019,0.121,0.03l7.217,2.133l0.776-0.194l1.421-0.227
		l1.477-0.119l1.462-0.003l1.416,0.103l1.443,0.242l1.213,0.351l1.073,0.476l0.885,0.647l0.565,0.674l0.28,1.012l-0.126,0.552
		l9.298,2.748c1.816,0.645,3.397,1.69,4.673,3.032l23.464-10.005l0.658-0.336l0.25-0.186l-0.231-0.178l-0.603-0.295l-0.915-0.321
		l-93.969-27.087l0.594,30.593L185.677,43.175z"/>
	<path fill="none" d="M174.347,22.559l1.478-0.119l1.463-0.003l1.413,0.101l1.445,0.243l1.211,0.35l0.768,0.339l-0.229-11.845
		l-0.816-0.235c-1.341-0.386-2.785-0.583-4.292-0.583c-1.478,0-2.796,0.189-3.806,0.399l0.344,11.517L174.347,22.559z"/>
	<polygon fill="none" points="181.697,44.188 180.456,44.102 179.15,44.105 177.838,44.211 176.591,44.41 175.516,44.683 
		174.561,45.032 173.819,45.409 173.367,45.761 173.16,46.092 173.174,46.144 173.354,46.359 173.82,46.674 174.558,46.995 
		175.522,47.265 176.703,47.463 177.944,47.551 179.22,47.548 180.576,47.44 181.783,47.25 182.959,46.946 183.875,46.62 
		184.598,46.236 185.052,45.884 185.244,45.557 185.227,45.494 185.052,45.285 184.588,44.972 183.847,44.659 182.878,44.385 	"/>
	<polygon fill="none" points="240.156,44.536 240.109,44.48 239.979,44.324 239.516,44.011 238.775,43.698 237.807,43.425 
		236.627,43.229 235.383,43.141 234.081,43.144 232.768,43.25 231.52,43.449 230.445,43.722 229.489,44.073 229.093,44.274 
		228.748,44.449 228.296,44.801 228.089,45.133 228.103,45.184 228.282,45.397 228.749,45.713 229.488,46.035 230.453,46.305 
		231.636,46.504 232.873,46.589 234.15,46.586 235.507,46.48 236.193,46.372 236.711,46.291 237.888,45.986 238.802,45.66 
		239.527,45.275 239.979,44.924 240.173,44.598 	"/>
	<polygon fill="none" points="169.914,26.523 169.929,26.577 170.107,26.79 170.573,27.104 171.313,27.426 172.278,27.697 
		173.459,27.895 174.699,27.982 175.976,27.979 177.328,27.871 178.536,27.682 179.711,27.377 180.629,27.052 181.353,26.668 
		181.805,26.316 181.999,25.989 181.981,25.925 181.806,25.715 181.343,25.402 180.602,25.09 179.631,24.816 178.451,24.62 
		177.211,24.533 175.906,24.536 174.592,24.642 173.344,24.841 172.271,25.113 171.313,25.464 170.574,25.839 170.12,26.193 	"/>
	<path fill="none" d="M164.983,81.974c0.013,0.02,0.061,0.147,0.086,0.834l0.009,0.25l-0.41,0.891l-0.302,0.311l0.695,5.474
		l8.373-3.57l0.304-3.587l-9.399-2.955L164.983,81.974z"/>
	<path fill="none" d="M89.671,123.627l-15.333,6.471l16.918,5.788c1.244-2.046,0.981-4.914,0.823-5.977
		C91.793,127.994,91.018,125.608,89.671,123.627z"/>
	<path fill="none" d="M169.623,78.217c-0.006-1.384,0.035-2.77,0.098-4.076c0.023-0.407,0.04-0.792,0.057-1.175
		c0.027-0.617,0.055-1.226,0.104-1.866l0.006-0.079l-6.998,2.919l0.402,0.294l0.563,0.675l0.276,1.007l-0.119,0.535L169.623,78.217z
		"/>
	<polygon fill="none" points="64.457,125.881 65.925,127.22 65.925,127.22 	"/>
	<path fill="none" d="M80.965,119.26c0.091,0.766,0.167,1.548,0.232,2.337C81.133,120.807,81.056,120.026,80.965,119.26z"/>
	<path fill="none" d="M54.682,119.125c1.393,2.804,3.711,5.164,6.764,6.562L62.359,126l-0.055-1.525
		c-0.044-1.62-0.033-3.302,0.031-5.149c0.026-0.695,0.057-1.388,0.091-2.078h-0.001l0.031-1.105l0.014-0.26l-7.676,3.208
		C54.758,119.106,54.72,119.113,54.682,119.125z"/>
	<path fill="none" d="M53.683,109.188c-0.65,2.418-0.621,4.893-0.018,7.205l0.001,0l8.978-3.752l0.025-0.471l-7.958-2.679
		C54.335,109.362,54.002,109.268,53.683,109.188z"/>
	<polygon fill="none" points="158.034,92.671 159.518,92.099 159.524,92.096 	"/>
	<path fill="none" d="M137.751,92.82c0.014,0.025,0.06,0.15,0.087,0.828l0.01,0.252l-0.413,0.895l-0.24,0.248l0.779,5.382
		c1.498-0.155,2.983-0.488,4.398-1.015l10.153-4.33l-15.479-4.829L137.751,92.82z"/>
	<path fill="none" d="M114.999,76.008c0.028-0.734,0.059-1.234,0.095-1.836l0.106-1.439l0.907-16.918l-0.119-0.075l-0.634-0.596
		l-0.436-0.873l-0.016-0.861l0.052-0.251l1.374-4.794l-0.209-0.249l-0.281-1.022l0.254-1.018l0.721-0.91l0.815-0.609l1-0.499
		l1.171-0.424l1.222-0.305l1.419-0.227l1.478-0.119l1.462-0.003l1.414,0.101l1.443,0.242l1.215,0.35l1.073,0.476l0.887,0.648
		l0.565,0.674l0.278,1.013l-0.23,1.011l-0.223,0.288l1.302,4.757c0.013,0.019,0.061,0.146,0.087,0.831l0.01,0.252l-0.412,0.891
		l-0.533,0.551l1.038,10.122l0.649,0.475l0.567,0.676l0.257,0.933l6.227,1.954c-0.006-1.3,0.015-2.625,0.082-3.98
		c0.048-1.033,0.107-2.071,0.177-3.104l0.005-0.344l1.284-16.448l-0.334-0.21l-0.634-0.593l-0.438-0.876l-0.015-0.854l0.051-0.256
		l1.374-4.796l-0.207-0.246l-0.284-1.023l0.255-1.021l0.722-0.909l0.813-0.605l1.001-0.504l1.171-0.421l1.222-0.307l1.424-0.226
		l1.473-0.119l1.463-0.003l1.415,0.102l1.445,0.243l1.208,0.35l1.078,0.476l0.886,0.648l0.566,0.675l0.278,1.012l-0.231,1.011
		l-0.223,0.287l1.292,4.715c0.037,0.111,0.075,0.292,0.097,0.875l0.009,0.248l-0.409,0.894l-0.758,0.78l-0.049,0.033l0.936,8.644
		l0.499,0.221l0.891,0.651l0.563,0.676l0.276,1.009l-0.229,1.012l-0.224,0.288l0.626,2.284c0.033,0.008,0.06,0.002,0.095,0.013
		l4.912,1.513l0.007-1.459c-0.036-1.45-0.01-3.055,0.082-4.88l0.176-2.991c0.001-0.007,0.001-0.099,0.002-0.106l1.261-16.288
		l-0.181-0.113l-0.635-0.597l-0.432-0.872l-0.02-0.879l0.055-0.232l1.374-4.793l-0.21-0.25l-0.28-1.021l0.25-1.021l0.722-0.908
		l0.815-0.611l0.89-0.445l-0.342-11.468L32.887,66.169l-0.755,0.354l-0.672,0.491l0.066,0.065l0.458,0.274l0.801,0.315l28.477,9.313
		l-0.051-0.101l-0.016-0.859l0.052-0.251l1.374-4.794l-0.209-0.248l-0.281-1.025l0.252-1.02l0.723-0.907l0.814-0.609l0.999-0.499
		l1.172-0.424l1.223-0.306l1.421-0.226l1.471-0.119l1.466-0.003l1.415,0.101l1.444,0.244l1.211,0.35l1.076,0.475l0.89,0.65
		l0.562,0.675l0.278,1.009l-0.231,1.011l-0.222,0.287l1.289,4.71c0.04,0.116,0.08,0.308,0.101,0.881l0.009,0.25l-0.411,0.89
		l-0.328,0.339l0.831,5.511l8.471,2.77l1.375-19.413l-0.268-0.252l-0.439-0.874l-0.015-0.855l0.051-0.256l1.375-4.797l-0.205-0.245
		l-0.287-1.023l0.256-1.022l0.719-0.906l0.815-0.612l0.998-0.498l1.174-0.426l1.224-0.305l1.421-0.226l1.474-0.119l1.464-0.003
		l1.414,0.102l1.443,0.242l1.214,0.35l1.07,0.475l0.892,0.649l0.563,0.675l0.276,1.011l-0.229,1.012l-0.224,0.288l1.305,4.754
		c0.017,0.043,0.059,0.163,0.084,0.833l0.009,0.249l-0.408,0.895l-0.76,0.781l-0.155,0.103l1.246,8.644l0.323,0.385l0.278,1.012
		l-0.231,1.012l-0.02,0.025l0.033,0.233l7.615,2.444C114.915,78.819,114.938,77.474,114.999,76.008z"/>
	<path fill="none" d="M296.983,44.091l-146.811,63.133l3.712,132.605c0.014,0.117,0.008,0.232,0.017,0.35l138.613-66.721
		c0.214-0.105,0.456-0.224,0.685-0.359c0.421-0.24,0.766-0.46,1.085-0.689c0.225-0.169,0.541-0.412,0.813-0.667
		c0.302-0.284,0.536-0.527,0.714-0.739c0.267-0.32,0.448-0.563,0.601-0.798c0.172-0.271,0.336-0.576,0.49-0.882
		c0.138-0.294,0.248-0.562,0.322-0.798c0.088-0.272,0.156-0.559,0.221-0.919c0.076-0.385,0.109-0.665,0.111-0.91
		c-0.024-0.222-0.024-0.445-0.002-0.665L296.983,44.091z"/>
	<path fill="none" d="M150.961,239.98l-3.686-131.678c-4.256,1.354-8.714,2.038-13.173,2.038c-3.378,0-6.75-0.415-10.039-1.199
		l4.205,131.742c0.002,0.058,0.001,0.115-0.004,0.173c-0.046,0.534,0.02,1.057,0.163,1.551l2.51,0.941
		c0.256,0.09,0.56,0.197,0.873,0.305c0.489,0.145,1.048,0.304,1.578,0.42c0.565,0.125,1.128,0.21,1.712,0.299
		c0.487,0.076,1.003,0.129,1.64,0.168c0.035,0.002,0.07,0.005,0.104,0.008c0.937,0.088,2.209,0.066,3.451,0.027
		c0.491-0.031,1.057-0.084,1.625-0.155c0.588-0.071,1.146-0.161,1.705-0.266c0.554-0.104,1.126-0.249,1.665-0.39
		c0.537-0.153,1.057-0.302,1.487-0.473c0.035-0.014,0.069-0.027,0.104-0.039c0.482-0.173,0.937-0.373,1.4-0.575l0.128-0.056
		l2.485-1.196c0.106-0.485,0.142-0.989,0.075-1.497C150.966,240.079,150.962,240.03,150.961,239.98z"/>
	<path fill="none" d="M87.575,121.336c-0.99-0.803-1.896-1.421-2.977-1.785l-1.548-0.521c0.155,1.318,0.267,2.686,0.351,4.067
		L87.575,121.336z"/>
	<path fill="none" d="M15.175,73.299l6.015,123.853c0.008,0.059,0.014,0.117,0.018,0.177c0.023,0.334,0.056,0.686,0.104,1.007
		c0.043,0.248,0.117,0.545,0.22,0.848c0.108,0.336,0.22,0.623,0.368,0.954c0.169,0.332,0.33,0.615,0.477,0.844
		c0.184,0.273,0.384,0.542,0.569,0.762c0.215,0.254,0.433,0.482,0.697,0.73c0.252,0.237,0.514,0.456,0.785,0.655
		c0.275,0.196,0.605,0.429,0.903,0.6c0.368,0.216,0.741,0.412,1.128,0.594c0.132,0.06,0.313,0.132,0.493,0.206l0.406,0.167
		l97.982,36.754c-0.001-0.185-0.014-0.367,0-0.554l-4.231-132.576L15.175,73.299z M90.25,140.411
		c-0.64,0.26-1.353,0.392-2.119,0.392c-1.795,0-3.587-0.693-5.168-1.306c-0.427-0.166-0.835-0.324-1.214-0.454l-27.084-9.32
		c-0.038-0.013-0.074-0.027-0.11-0.043c-3.598-1.574-6.451-4.618-7.829-8.352c-1.806-4.884-1.85-8.836-0.128-11.748
		c1.337-2.269,3.283-3.57,5.34-3.57l0.178,0.003c1.417,0.048,2.58,0.383,3.531,0.706l29.886,10.061
		c1.677,0.564,2.973,1.522,4.122,2.474c3.189,2.638,4.838,7.011,5.317,10.225C95.763,134.798,93.997,138.885,90.25,140.411z"/>
	<path fill="none" d="M108.377,82.429c0.013,0.019,0.061,0.146,0.087,0.832l0.01,0.251l-0.413,0.894l-0.548,0.566l1.075,7.489
		l1.337,0.437l7.445-3.111l0.385-5.719l-9.789-3.142L108.377,82.429z"/>
	<path fill="none" d="M121.201,68.512l0.74,0.324l0.961,0.268l1.184,0.198l1.239,0.086l1.275-0.003l1.356-0.106l1.207-0.189
		l1.175-0.304l0.916-0.325l0.724-0.387l0.376-0.29c0.064-0.126,0.146-0.237,0.24-0.336l0.03-0.051l-0.017-0.062l-0.178-0.212
		l-0.463-0.313l-0.739-0.312l-0.969-0.272l-1.182-0.197l-1.241-0.087l-1.306,0.003l-1.313,0.106l-1.247,0.198l-1.074,0.272
		l-0.955,0.351l-0.741,0.378l-0.454,0.351l-0.206,0.333l0.014,0.05l0.181,0.215L121.201,68.512z"/>
	<path fill="none" d="M134.845,75.873l0.868,6.219l8.36-3.71l0.363-5.014l-9.635-3.022l0.824,3.016
		c0.039,0.113,0.078,0.301,0.099,0.878l0.009,0.25l-0.411,0.89L134.845,75.873z"/>
	<polygon fill="none" points="159.01,55.698 158.548,55.386 157.807,55.073 156.838,54.801 155.657,54.605 154.416,54.518 
		153.11,54.521 151.797,54.627 150.551,54.825 149.476,55.099 148.521,55.448 147.779,55.825 147.328,56.176 147.121,56.507 
		147.135,56.558 147.315,56.774 147.78,57.089 148.519,57.412 149.483,57.681 150.664,57.879 151.903,57.963 153.18,57.961 
		154.538,57.855 155.744,57.667 156.917,57.362 157.834,57.036 158.558,56.652 159.011,56.3 159.204,55.974 159.186,55.909 	"/>
	<polygon fill="none" points="118.668,47.647 119.407,47.969 120.372,48.238 121.506,48.431 122.792,48.523 124.069,48.521 
		125.425,48.415 126.629,48.224 127.805,47.919 128.722,47.595 129.446,47.21 129.899,46.86 130.092,46.531 130.075,46.468 
		129.899,46.258 129.435,45.944 128.695,45.631 127.726,45.359 126.545,45.163 125.304,45.076 124,45.079 122.686,45.185 
		121.438,45.384 120.364,45.656 119.41,46.006 118.668,46.383 118.215,46.734 118.009,47.067 118.022,47.119 118.201,47.332 	"/>
	<polygon fill="none" points="117.005,95.214 117.151,93.049 114.181,94.29 	"/>
	<polygon fill="none" points="184.823,63.392 183.583,63.306 182.277,63.309 180.966,63.416 179.717,63.613 178.645,63.886 
		177.688,64.235 176.948,64.613 176.493,64.966 176.287,65.295 176.303,65.35 176.48,65.562 176.946,65.877 177.688,66.2 
		178.649,66.469 179.832,66.667 181.072,66.754 182.348,66.751 183.702,66.644 184.909,66.454 186.087,66.149 187.002,65.824 
		187.724,65.44 188.178,65.088 188.371,64.761 188.354,64.699 188.178,64.488 187.714,64.175 186.974,63.862 186.005,63.588 	"/>
	<path fill="none" d="M148.147,104.91l148.821-63.998l-0.007-1.427l-0.24-0.241l-0.536-0.391l-0.825-0.44l-1.074-0.448l-1.352-0.44
		L188.097,7.43c-3.045-0.779-6.27-1.186-9.499-1.186c-4.165,0-8.277,0.669-12.225,1.99L18.335,66.351l-1.247,0.542l-0.965,0.532
		l-0.684,0.478l-0.501,0.541l0.084,1.725l107.936,35.682C131.178,108.222,140.122,107.888,148.147,104.91z M30.8,70.032
		c-0.075-0.029-0.146-0.065-0.216-0.106l-0.709-0.425c-0.098-0.059-0.188-0.129-0.271-0.209l-0.49-0.479
		c-0.127-0.124-0.23-0.271-0.306-0.432l-0.229-0.497c-0.092-0.199-0.138-0.416-0.135-0.635l0.008-0.526
		c0.004-0.226,0.06-0.449,0.164-0.65l0.267-0.516c0.067-0.13,0.153-0.25,0.256-0.354l0.5-0.508c0.075-0.076,0.158-0.144,0.248-0.202
		l0.738-0.478c0.057-0.037,0.116-0.07,0.177-0.098l0.931-0.434L169.897,9.029c0.132-0.051,3.027-1.148,6.889-1.148
		c1.781,0,3.498,0.235,5.103,0.697l97.806,28.196l1.075,0.375c0.054,0.019,0.106,0.041,0.158,0.066l0.812,0.397
		c0.088,0.043,0.171,0.095,0.248,0.154l0.589,0.452c0.101,0.077,0.19,0.167,0.268,0.267l0.37,0.479
		c0.119,0.155,0.206,0.332,0.256,0.521l0.129,0.49c0.064,0.243,0.064,0.497,0.002,0.74l-0.129,0.497
		c-0.049,0.187-0.134,0.361-0.25,0.515l-0.37,0.489c-0.083,0.11-0.182,0.208-0.292,0.29l-0.606,0.452
		c-0.065,0.049-0.136,0.093-0.209,0.13l-0.813,0.415c-0.03,0.015-0.061,0.029-0.092,0.042l-137.383,58.578
		c-2.399,0.897-4.85,1.339-7.346,1.339c-1.958,0-3.906-0.275-5.79-0.819L31.794,70.421L30.8,70.032z"/>
	<polygon fill="none" points="134.08,86.226 133.339,85.912 132.37,85.639 131.19,85.442 129.948,85.356 128.644,85.359 
		127.331,85.465 126.083,85.663 125.01,85.936 124.054,86.286 123.314,86.663 122.861,87.016 122.653,87.346 122.668,87.398 
		122.847,87.611 123.314,87.927 124.053,88.25 125.016,88.52 126.199,88.717 127.438,88.803 128.715,88.8 130.071,88.695 
		131.274,88.504 132.452,88.199 133.367,87.874 134.091,87.49 134.544,87.138 134.737,86.813 134.72,86.749 134.544,86.538 	"/>
	<polygon fill="none" points="147.34,90.398 147.687,85.007 147.233,84.582 146.798,83.707 146.779,82.835 146.833,82.596 
		147.568,80.031 136.133,85.105 136.144,85.179 136.622,85.752 136.901,86.763 136.82,87.116 	"/>
	<path fill="none" d="M161.296,64.581l0.879,6.488l7.972-3.326l0.195-2.478l-8.04-2.478c0,0.01,0.001,0.015,0.001,0.025l0.009,0.249
		l-0.408,0.893L161.296,64.581z"/>
	<path fill="#058FA1" d="M174.95,42.661l1.223-0.306l1.42-0.227l1.476-0.119l1.464-0.003l1.413,0.101l0.887,0.149l-0.597-6.541
		l-0.139,0.064l-1.079,0.375l-1.302,0.333l-1.426,0.237l-1.453,0.155l-1.521,0.056l-1.43-0.04l-1.407-0.122l-1.32-0.231
		l-1.051-0.279l-1.376,18.544c-0.088,1.766-0.114,3.319-0.079,4.742l-0.011,2.296l1.92,0.635l0.606-7.699l-0.025-0.016l-0.635-0.593
		l-0.438-0.875l-0.016-0.861l0.052-0.251l1.376-4.794l-0.207-0.248l-0.287-1.022l0.257-1.021l0.722-0.908l0.812-0.607l1.002-0.501
		L174.95,42.661z"/>
	<path fill="#058FA1" d="M143.093,70.146l0.001,0.038l1.557,0.224l0.383-5.291l-0.564-0.528l-0.438-0.875l-0.016-0.861l0.052-0.251
		l1.375-4.796l-0.206-0.247l-0.287-1.021l0.256-1.022l0.722-0.909L146.739,54l1.001-0.5l1.17-0.422l1.224-0.306l1.419-0.226
		l1.476-0.119l1.465-0.003l1.413,0.102l1.048,0.175l-0.747-6.909l-0.873,0.305l-1.307,0.333l-1.423,0.237l-1.455,0.156l-1.521,0.055
		l-1.431-0.042l-1.405-0.12l-1.32-0.231l-0.895-0.237l-1.229,15.981c-0.069,1.071-0.129,2.094-0.177,3.117
		C143.091,66.992,143.064,68.606,143.093,70.146z"/>
	<polygon fill="#058FA1" points="240.768,57.454 240.435,54.312 240.273,54.387 239.195,54.763 237.89,55.097 236.466,55.333 
		235.012,55.489 233.492,55.545 232.061,55.504 230.652,55.382 229.335,55.153 228.035,54.807 227.843,54.728 227.235,63.211 
		227.903,62.938 	"/>
	<polygon fill="#058FA1" points="163.055,90.59 162.421,85.593 162.07,85.756 160.994,86.132 159.687,86.465 158.264,86.702 
		156.811,86.859 155.288,86.915 153.858,86.874 152.45,86.751 151.13,86.521 149.829,86.177 149.717,86.13 149.405,90.979 
		150.274,91.313 156.511,93.259 158.034,92.671 159.524,92.096 	"/>
	<polygon fill="#058FA1" points="106.362,91.733 105.563,86.167 105.466,86.212 104.388,86.588 103.081,86.922 101.656,87.158 
		100.202,87.313 98.682,87.369 97.252,87.328 95.845,87.208 94.526,86.978 93.26,86.641 93.234,87.101 103.367,90.754 	"/>
	<path fill="#058FA1" d="M118.863,69.23l-0.209-0.25l-0.283-1.021l0.255-1.018l0.721-0.912l0.814-0.606l0.999-0.5l1.173-0.424
		l1.223-0.305l1.419-0.226l1.475-0.119l1.465-0.003l1.414,0.102l1.444,0.242l0.318,0.092l-0.82-7.996l-0.078,0.037l-1.078,0.375
		l-1.306,0.333l-1.423,0.237l-1.455,0.156l-1.521,0.056l-1.431-0.042l-1.406-0.121l-1.32-0.231l-1.096-0.291l-0.968,17.503
		c-0.035,0.587-0.064,1.074-0.092,1.794c-0.069,1.625-0.091,3.096-0.067,4.487l0.98-0.295l0.248-3.68
		c0.005-0.071,0.032-0.133,0.05-0.199l-0.419-0.394l-0.435-0.875l-0.019-0.868l0.054-0.243L118.863,69.23z"/>
	<polygon fill="#058FA1" points="92.084,75.058 92.901,74.446 93.899,73.95 95.07,73.526 96.292,73.219 97.715,72.993 
		99.188,72.873 100.651,72.87 102.067,72.972 103.512,73.214 104.599,73.528 103.708,67.356 102.92,67.632 101.612,67.965 
		100.189,68.201 98.735,68.357 97.215,68.414 95.784,68.372 94.377,68.25 93.058,68.021 91.757,67.675 91.447,67.548 90.39,82.479 
		91.601,78.255 91.393,78.007 91.111,76.982 91.366,75.966 	"/>
	<polygon fill="#058FA1" points="76.483,78.934 75.405,79.309 74.101,79.643 72.676,79.878 71.221,80.033 70.651,80.054 
		77.352,82.246 76.834,78.812 76.692,78.836 	"/>
	<path fill="#058FA1" d="M70.337,128.729c0.129-0.129,0.283-0.237,0.462-0.313l10.556-4.455c-0.04-0.792-0.093-1.583-0.157-2.365
		c-0.065-0.789-0.142-1.571-0.232-2.337l-0.045-0.396c-0.021-0.191-0.044-0.382-0.066-0.573l-16.115-5.425l-0.112,2.013
		l-0.015,0.271h0.003l-0.034,1.108c-0.059,1.04-0.106,2.093-0.146,3.146c-0.063,1.8-0.073,3.439-0.031,5.009l0.055,1.469
		l1.468,1.339L70.337,128.729z"/>
	<path fill="#058FA1" d="M76.324,71.879l-0.539,0.28l-1.075,0.378l-1.416,0.365l-1.337,0.206l-1.513,0.124h-1.438l-1.412-0.101
		l-1.441-0.244l-1.229-0.353l-0.501-0.229l-1.126,3.928l0.003,0.135l0.057,0.115l0.276,0.26l0.543,0.323l0.782,0.311l1.036,0.271
		l1.146,0.201l1.251,0.105l1.3,0.036l1.381-0.049l1.324-0.142l1.278-0.209l1.128-0.289l0.935-0.329l0.777-0.368l0.524-0.36
		l0.335-0.429c-0.003-0.05-0.007-0.101-0.012-0.141L76.324,71.879z"/>
	<path d="M309.703,175.348l-2.188-0.709c-1.985-0.643-4.054-0.962-5.906-0.98c0.021-0.031,0.039-0.054,0.06-0.085
		c0.268-0.421,0.531-0.89,0.841-1.506c0.3-0.632,0.507-1.146,0.664-1.647c0.167-0.518,0.304-1.077,0.406-1.653
		c0.147-0.744,0.22-1.43,0.22-2.093c0-0.055,0-0.123-0.002-0.203c0.002-0.042,0.002-0.085,0.002-0.128l-0.595-127.151v-0.178
		c0-0.276-0.036-0.55-0.108-0.816l-0.198-0.732c-0.075-0.278-0.189-0.544-0.338-0.792l-0.435-0.723
		c-0.13-0.217-0.287-0.418-0.467-0.598l-0.692-0.693c-0.115-0.115-0.239-0.222-0.37-0.317l-0.91-0.663
		c-0.118-0.085-0.241-0.163-0.369-0.231l-1.148-0.612c-0.087-0.047-0.177-0.089-0.268-0.127l-1.327-0.554
		c-0.077-0.033-0.156-0.062-0.236-0.088l-1.523-0.496c-0.034-0.011-0.069-0.021-0.104-0.032L189.732,1.405
		c-8.357-2.143-17.258-1.814-25.423,0.936c-0.049,0.016-0.097,0.034-0.145,0.053L16.002,60.559
		c-0.035,0.014-0.069,0.028-0.104,0.042l-1.435,0.623c-0.09,0.039-0.179,0.083-0.265,0.13l-1.237,0.683
		c-0.096,0.053-0.188,0.111-0.278,0.173l-1.019,0.711c-0.133,0.093-0.259,0.196-0.376,0.309l-0.782,0.751
		c-0.151,0.145-0.287,0.305-0.406,0.477l-0.534,0.773c-0.146,0.213-0.268,0.444-0.357,0.687l-0.287,0.773
		c-0.104,0.281-0.168,0.575-0.188,0.874l-0.04,0.583c-0.008,0.122-0.009,0.244-0.003,0.365L14.965,197.7
		c0.005,0.112,0.017,0.223,0.033,0.331c0.034,0.415,0.08,0.846,0.146,1.287c0.107,0.633,0.26,1.239,0.454,1.818
		c0.177,0.548,0.381,1.069,0.642,1.643c0.018,0.038,0.035,0.076,0.055,0.114c0.148,0.294,0.295,0.565,0.443,0.825
		c-1.425,0.688-3.24,1.64-5.189,2.738l-8.473,4.777c-4.309,2.428-4.06,5.877,0.552,7.662l128.013,49.572
		c4.611,1.787,11.967,1.367,16.346-0.934l162.31-85.238C314.675,179.998,314.407,176.871,309.703,175.348z M15.022,70.168
		l-0.084-1.725l0.501-0.541l0.684-0.478l0.965-0.532l1.247-0.542L166.373,8.234c3.947-1.32,8.06-1.99,12.225-1.99
		c3.229,0,6.454,0.407,9.499,1.186l104.838,30.095l1.352,0.44l1.074,0.448l0.825,0.44l0.536,0.391l0.24,0.241l0.007,1.427
		L148.147,104.91c-8.025,2.978-16.97,3.312-25.189,0.939L15.022,70.168z M125.34,241.448l-97.982-36.754l-0.406-0.167
		c-0.181-0.074-0.361-0.146-0.493-0.206c-0.387-0.182-0.76-0.378-1.128-0.594c-0.298-0.171-0.628-0.403-0.903-0.6
		c-0.271-0.199-0.533-0.418-0.785-0.655c-0.265-0.248-0.482-0.477-0.697-0.73c-0.186-0.22-0.386-0.488-0.569-0.762
		c-0.146-0.229-0.308-0.512-0.477-0.844c-0.148-0.331-0.26-0.618-0.368-0.954c-0.103-0.303-0.177-0.6-0.22-0.848
		c-0.048-0.321-0.08-0.673-0.104-1.007c-0.004-0.06-0.01-0.118-0.018-0.177L15.175,73.299l105.934,35.02l4.231,132.576
		C125.326,241.081,125.339,241.264,125.34,241.448z M150.896,241.625l-2.485,1.196l-0.128,0.056c-0.464,0.202-0.918,0.402-1.4,0.575
		c-0.035,0.012-0.069,0.025-0.104,0.039c-0.431,0.171-0.95,0.319-1.487,0.473c-0.539,0.141-1.111,0.286-1.665,0.39
		c-0.559,0.104-1.117,0.194-1.705,0.266c-0.568,0.071-1.134,0.124-1.625,0.155c-1.242,0.039-2.515,0.061-3.451-0.027
		c-0.034-0.003-0.069-0.006-0.104-0.008c-0.637-0.039-1.152-0.092-1.64-0.168c-0.584-0.089-1.146-0.174-1.712-0.299
		c-0.53-0.116-1.089-0.275-1.578-0.42c-0.313-0.107-0.617-0.215-0.873-0.305l-2.51-0.941c-0.144-0.494-0.209-1.017-0.163-1.551
		c0.005-0.058,0.006-0.115,0.004-0.173l-4.205-131.742c3.289,0.785,6.661,1.199,10.039,1.199c4.459,0,8.917-0.683,13.173-2.038
		l3.686,131.678c0.001,0.05,0.005,0.099,0.011,0.147C151.038,240.636,151.003,241.14,150.896,241.625z M297.444,167.606
		c-0.064,0.36-0.133,0.646-0.221,0.919c-0.074,0.236-0.185,0.504-0.322,0.798c-0.154,0.306-0.318,0.611-0.49,0.882
		c-0.152,0.235-0.334,0.478-0.601,0.798c-0.178,0.212-0.412,0.455-0.714,0.739c-0.271,0.255-0.588,0.498-0.813,0.667
		c-0.319,0.229-0.664,0.449-1.085,0.689c-0.229,0.136-0.471,0.254-0.685,0.359l-138.613,66.721c-0.009-0.117-0.003-0.232-0.017-0.35
		l-3.712-132.605l146.811-63.133l0.57,121.94c-0.022,0.22-0.022,0.443,0.002,0.665C297.554,166.941,297.521,167.222,297.444,167.606
		z"/>
	<path d="M89.654,119.253c-1.149-0.951-2.445-1.909-4.122-2.474l-29.886-10.061c-0.951-0.322-2.114-0.658-3.531-0.706l-0.178-0.003
		c-2.057,0-4.003,1.302-5.34,3.57c-1.722,2.911-1.678,6.864,0.128,11.748c1.378,3.734,4.231,6.778,7.829,8.352
		c0.036,0.016,0.072,0.03,0.11,0.043l27.084,9.32c0.379,0.13,0.787,0.289,1.214,0.454c1.581,0.612,3.373,1.306,5.168,1.306
		c0.767,0,1.479-0.131,2.119-0.392c3.747-1.525,5.513-5.612,4.722-10.933C94.492,126.264,92.844,121.891,89.654,119.253z
		 M84.599,119.552c1.08,0.363,1.986,0.981,2.977,1.785l-4.174,1.761c-0.084-1.381-0.195-2.749-0.351-4.067L84.599,119.552z
		 M62.457,116.143l-0.031,1.105h0.001c-0.034,0.69-0.064,1.383-0.091,2.078c-0.064,1.847-0.075,3.529-0.031,5.149L62.359,126
		l-0.914-0.313c-3.053-1.398-5.371-3.758-6.764-6.562c0.038-0.012,0.076-0.019,0.113-0.035l7.676-3.208L62.457,116.143z
		 M62.644,112.64l-8.978,3.752l-0.001,0c-0.604-2.312-0.633-4.786,0.018-7.205c0.319,0.081,0.652,0.175,1.028,0.302l7.958,2.679
		L62.644,112.64z M64.457,125.881l-0.055-1.469c-0.042-1.569-0.032-3.209,0.031-5.009c0.04-1.053,0.088-2.105,0.146-3.146
		l0.034-1.108h-0.003l0.015-0.271l0.112-2.013l16.115,5.425c0.022,0.191,0.045,0.382,0.066,0.573l0.045,0.396
		c0.091,0.766,0.168,1.547,0.232,2.337c0.064,0.782,0.117,1.573,0.157,2.365l-10.556,4.455c-0.179,0.075-0.333,0.184-0.462,0.313
		l-4.412-1.509l0,0L64.457,125.881z M91.256,135.885l-16.918-5.788l15.333-6.471c1.347,1.981,2.122,4.367,2.408,6.282
		C92.237,130.971,92.5,133.839,91.256,135.885z"/>
	<path fill="#058FA1" d="M90.813,64.692l0.057,0.113l0.278,0.261l0.543,0.324l0.781,0.31l1.035,0.272l1.144,0.199l1.256,0.105
		l1.302,0.037l1.379-0.049l1.322-0.144l1.279-0.209l1.129-0.288l0.933-0.331l0.775-0.368l0.529-0.361l0.332-0.426
		c-0.004-0.062-0.009-0.125-0.014-0.171l-1.035-3.766l-0.541,0.28l-1.076,0.378l-1.412,0.366l-1.337,0.206l-1.514,0.124H96.52
		l-1.413-0.102l-1.442-0.244l-1.224-0.353l-0.504-0.229l-1.126,3.927L90.813,64.692z"/>
	<path fill="#058FA1" d="M117.009,53.758l0.057,0.114l0.276,0.26l0.543,0.322l0.784,0.313l1.033,0.271l1.146,0.201l1.253,0.105
		l1.302,0.037l1.38-0.049l1.322-0.143l1.277-0.211l1.131-0.289l0.935-0.329l0.774-0.367l0.526-0.361l0.334-0.429
		c-0.004-0.066-0.009-0.131-0.016-0.176h0.001l-1.033-3.759l-0.542,0.281l-1.078,0.377l-1.409,0.363l-1.336,0.208l-1.517,0.122
		h-1.436l-1.513-0.111l-1.344-0.234l-1.225-0.352l-0.504-0.229l-1.126,3.928L117.009,53.758z"/>
	<path fill="#058FA1" d="M143.227,43.156l0.057,0.113l0.276,0.258l0.544,0.325l0.781,0.311l1.036,0.271l1.146,0.201l1.252,0.104
		l1.303,0.037l1.381-0.048l1.321-0.143l1.278-0.211l1.13-0.288l0.935-0.331l0.775-0.367l0.525-0.361l0.334-0.427
		c-0.003-0.053-0.007-0.106-0.012-0.148l-1.038-3.788l-0.539,0.279l-1.074,0.379l-1.416,0.365l-1.337,0.206l-1.514,0.124h-1.438
		l-1.413-0.102l-1.441-0.243l-1.225-0.353l-0.504-0.229l-1.125,3.926L143.227,43.156z"/>
	<path fill="#058FA1" d="M94.976,84.93l1.143,0.199l1.255,0.105l1.301,0.036l1.381-0.049l1.323-0.142l1.278-0.209l1.129-0.289
		l0.934-0.33l0.774-0.368l0.527-0.361l0.335-0.427c-0.005-0.066-0.01-0.133-0.017-0.178l0.001,0l-0.838-3.051
		c-0.148-0.192-0.242-0.421-0.282-0.662l-0.454,0.235l-1.076,0.378l-1.414,0.366l-1.339,0.206l-1.512,0.124h-1.437l-1.413-0.101
		l-1.445-0.245l-1.223-0.354l-0.504-0.229l-1.126,3.928l0.002,0.135l0.059,0.117l0.275,0.26l0.544,0.323l0.784,0.312L94.976,84.93z"
		/>
	<polygon fill="#058FA1" points="121.459,85.447 122.272,84.839 123.271,84.337 124.444,83.914 125.666,83.608 127.088,83.382 
		128.563,83.264 130.024,83.261 131.439,83.361 132.884,83.603 133.843,83.88 132.897,77.105 132.727,77.185 131.65,77.562 
		130.341,77.896 128.917,78.132 127.464,78.287 125.943,78.343 124.516,78.303 123.105,78.182 121.787,77.951 120.514,77.614 
		120.292,77.635 119.142,94.729 119.563,94.47 119.547,93.678 119.601,93.44 120.975,88.645 120.768,88.398 120.481,87.373 
		120.739,86.353 	"/>
	<path fill="#058FA1" d="M119.542,74.623l0.058,0.117l0.274,0.257l0.543,0.324l0.784,0.312l1.034,0.27l1.145,0.201l1.256,0.105
		l1.3,0.035l1.381-0.049l1.321-0.142l1.278-0.21l1.132-0.288l0.932-0.331l0.776-0.367l0.526-0.36l0.334-0.429
		c-0.003-0.051-0.007-0.102-0.012-0.143l-1.037-3.792l-0.54,0.281l-1.078,0.378l-1.412,0.364l-1.338,0.206l-1.516,0.122h-1.435
		l-1.412-0.1l-1.445-0.243l-1.223-0.353l-0.503-0.229l-1.127,3.929L119.542,74.623z"/>
	<polygon fill="#058FA1" points="159.305,65.763 158.229,66.139 156.922,66.472 155.5,66.708 154.042,66.864 152.523,66.92 
		151.091,66.879 149.685,66.758 148.365,66.527 147.063,66.182 147.061,66.181 146.23,77.664 147.895,77.174 147.716,76.53 
		147.97,75.511 148.692,74.601 149.505,73.995 150.505,73.493 151.678,73.07 152.9,72.765 154.319,72.538 155.795,72.418 
		157.258,72.415 158.675,72.518 160.119,72.76 160.292,72.81 159.336,65.749 	"/>
	<path fill="#058FA1" d="M159.146,58.709l-0.54,0.279l-1.077,0.379l-1.412,0.365l-1.338,0.206l-1.517,0.121h-1.435l-1.413-0.099
		l-1.441-0.243l-1.228-0.353l-0.502-0.229l-1.126,3.927l0.003,0.136l0.057,0.114l0.276,0.259l0.544,0.325l0.781,0.311l1.036,0.271
		l1.145,0.201l1.252,0.105l1.304,0.036l1.379-0.049l1.325-0.142l1.276-0.211l1.131-0.288l0.931-0.33l0.777-0.369l0.527-0.361
		l0.332-0.426c-0.004-0.067-0.009-0.133-0.016-0.179L159.146,58.709z"/>
	<path fill="#058FA1" d="M161.913,78.703l-0.541,0.28l-1.079,0.378l-1.409,0.363l-1.339,0.208l-1.515,0.122h-1.437l-1.414-0.102
		l-1.441-0.243l-1.224-0.352l-0.504-0.229l-1.128,3.93l0.003,0.132l0.059,0.117l0.274,0.258l0.545,0.324l0.783,0.313l1.031,0.268
		l1.148,0.201l1.254,0.106l1.301,0.036l1.381-0.048l1.32-0.145l1.279-0.21l1.131-0.288l0.932-0.33l0.776-0.366l0.525-0.361
		l0.335-0.429c-0.004-0.066-0.009-0.133-0.016-0.178L161.913,78.703z"/>
	<path fill="#058FA1" d="M201.274,53.297l0.814-0.609l0.999-0.499l1.172-0.424l1.223-0.305l1.42-0.227l1.475-0.119l1.464-0.003
		l1.415,0.101l0.404,0.068l-0.684-6.262l-0.167,0.003l-0.083,0.039l-1.077,0.376l-1.31,0.332l-1.422,0.237l-1.454,0.155
		l-1.519,0.056l-1.433-0.041l-1.406-0.122l-1.318-0.228l-1.184-0.316l-1.065,14.734c0.008,0.061,0.01,0.123,0.007,0.185
		c-0.029,0.488-0.062,0.975-0.095,1.463c-0.036,0.54-0.072,1.081-0.103,1.622c-0.07,1.426-0.14,3.119-0.118,4.795
		c0,0.041,0,0.083,0,0.124l2.8,0.824l0.509-5.33l-0.091-0.057l-0.632-0.594l-0.438-0.873l-0.016-0.864l0.052-0.249l1.375-4.794
		l-0.208-0.249l-0.282-1.022l0.253-1.02L201.274,53.297z"/>
	<path fill="#058FA1" d="M197.542,42.493l0.059,0.118l0.274,0.259l0.544,0.324l0.783,0.31l1.036,0.274l1.142,0.197l1.255,0.107
		l1.303,0.036l1.379-0.049l1.321-0.142l1.277-0.212l1.134-0.287l0.931-0.329l0.775-0.369l0.528-0.362l0.334-0.426
		c-0.003-0.05-0.007-0.1-0.012-0.141l-1.039-3.794l-0.538,0.277l-1.078,0.38l-1.413,0.365l-1.337,0.207l-1.514,0.122h-1.437
		l-1.412-0.099l-1.443-0.245l-1.229-0.354l-0.5-0.228l-1.127,3.932L197.542,42.493z"/>
	<path fill="#058FA1" d="M240.172,47.547l-0.301-0.088l-0.296,0.153l-1.076,0.379l-1.413,0.365l-1.337,0.208l-1.516,0.121h-1.436
		l-1.412-0.099l-1.445-0.245l-1.224-0.353l-0.504-0.229l-1.128,3.932l0.003,0.13l0.059,0.118l0.277,0.26l0.543,0.324l0.783,0.311
		l1.035,0.272l1.142,0.199l1.256,0.106l1.301,0.036l1.38-0.049l1.322-0.143l1.278-0.209l1.129-0.289l0.935-0.33l0.776-0.369
		l0.526-0.361l0.334-0.426c-0.004-0.053-0.008-0.105-0.013-0.147L240.172,47.547z"/>
	<path fill="#058FA1" d="M175.093,63.397l0.813-0.608l1.002-0.502l1.171-0.422l1.222-0.306l1.422-0.225l1.473-0.119l1.464-0.003
		l1.412,0.1l1.143,0.191l-0.677-6.244l-0.194,0.09l-1.076,0.375l-1.305,0.333l-1.425,0.235l-1.453,0.157l-1.521,0.057l-1.431-0.041
		l-1.409-0.124l-1.315-0.229l-1.215-0.322l-1.219,15.389c-0.048,0.7-0.073,1.287-0.1,1.88c-0.017,0.392-0.034,0.787-0.058,1.193
		c-0.073,1.534-0.137,3.188-0.097,4.82c0,0.087,0,0.172,0.001,0.255l2.229,0.748l0.507-5.988l-0.191-0.12l-0.632-0.594l-0.432-0.873
		l-0.022-0.895l0.038-0.144l1.392-4.865l-0.209-0.249l-0.281-1.025l0.252-1.019L175.093,63.397z"/>
	<path fill="#058FA1" d="M172.217,52.897l0.276,0.258l0.546,0.326l0.782,0.312l1.034,0.271l1.144,0.199l1.256,0.108l1.299,0.035
		l1.381-0.05l1.323-0.144l1.279-0.209l1.128-0.289l0.934-0.329l0.776-0.367l0.526-0.362l0.334-0.427
		c-0.004-0.053-0.008-0.105-0.012-0.147l-1.039-3.788l-0.537,0.278l-1.078,0.379l-1.412,0.363l-1.337,0.208l-1.516,0.124h-1.438
		l-1.414-0.102l-1.442-0.243l-1.225-0.354l-0.502-0.228l-1.127,3.927l0.003,0.136L172.217,52.897z"/>
	<polygon fill="#058FA1" points="188.037,74.703 187.395,74.927 186.088,75.26 184.664,75.496 183.211,75.652 181.689,75.709 
		180.26,75.668 178.851,75.545 177.533,75.316 176.482,75.037 175.62,85.232 178.989,83.795 189.436,79.105 188.847,74.732 	"/>
	<path fill="#058FA1" d="M176.164,72.685l0.783,0.312l1.035,0.271l1.144,0.199l1.257,0.107l1.298,0.036l1.381-0.05l1.323-0.143
		l1.279-0.209l1.129-0.288l0.934-0.33l0.774-0.368l0.527-0.361l0.334-0.426c-0.003-0.053-0.007-0.104-0.012-0.146l-1.039-3.789
		l-0.538,0.278l-1.076,0.378l-1.413,0.365l-1.338,0.208l-1.514,0.123h-1.438l-1.413-0.102l-1.444-0.243l-1.221-0.353l-0.505-0.229
		l-1.127,3.936l0.003,0.126l0.059,0.118l0.273,0.257L176.164,72.685z"/>
	<path fill="#058FA1" d="M181.94,28.726l-0.542,0.28l-1.077,0.377l-1.411,0.365l-1.338,0.206l-1.512,0.124h-1.438l-1.414-0.102
		l-1.441-0.243l-1.225-0.354l-0.503-0.228l-1.127,3.932l0.003,0.131l0.057,0.115l0.275,0.259l0.544,0.324l0.783,0.311l1.034,0.271
		l1.146,0.201l1.252,0.106l1.3,0.034l1.383-0.049l1.321-0.142l1.278-0.21l1.127-0.289l0.938-0.33l0.776-0.366l0.525-0.361
		l0.333-0.428c-0.004-0.066-0.009-0.131-0.016-0.176h0.001L181.94,28.726z"/>
	<polygon fill="#058FA1" points="214.655,64.451 213.577,64.829 212.269,65.161 210.848,65.398 209.392,65.554 207.87,65.608 
		206.441,65.568 205.034,65.448 203.713,65.216 202.554,64.908 201.696,73.897 206.384,72.114 215.32,68.304 214.852,64.359 	"/>
	<path fill="#058FA1" d="M214.493,57.398l-0.537,0.278l-1.077,0.38l-1.414,0.365l-1.338,0.207l-1.514,0.122h-1.437l-1.412-0.1
		l-1.444-0.244l-1.223-0.353l-0.505-0.229l-1.127,3.928l0.003,0.136l0.057,0.113l0.276,0.26l0.543,0.324l0.784,0.311l1.035,0.271
		l1.146,0.202l1.251,0.104l1.303,0.035l1.382-0.047l1.322-0.142l1.276-0.212l1.132-0.287l0.932-0.331l0.776-0.367l0.526-0.361
		l0.334-0.427c-0.003-0.051-0.007-0.102-0.012-0.143L214.493,57.398z"/>
	<path fill="#058FA1" d="M135.867,100.515l-0.596-4.116l-0.433,0.202l-1.077,0.376l-1.308,0.332l-1.421,0.237l-1.457,0.157
		l-1.521,0.055l-1.429-0.041l-1.409-0.122l-1.318-0.231l-1.033-0.273l-0.007,0.037l8.322,2.722
		C132.684,100.282,134.269,100.497,135.867,100.515z"/>
	<path fill="#058FA1" d="M124.348,95.316l1.146,0.201l1.254,0.106l1.301,0.035l1.381-0.047l1.323-0.144l1.277-0.212l1.132-0.287
		l0.931-0.329l0.775-0.368l0.528-0.362l0.333-0.425c-0.004-0.065-0.009-0.129-0.016-0.174l-1.033-3.762l-0.541,0.279l-1.076,0.378
		l-1.412,0.364l-1.336,0.208l-1.517,0.121h-1.436l-1.412-0.1l-1.446-0.244l-1.223-0.353l-0.504-0.229l-1.127,3.931l0.003,0.132
		l0.058,0.115l0.277,0.26l0.543,0.325l0.781,0.311L124.348,95.316z"/>
	<path d="M136.11,103.464c2.496,0,4.946-0.442,7.346-1.339l137.383-58.578c0.031-0.013,0.062-0.027,0.092-0.042l0.813-0.415
		c0.073-0.037,0.144-0.081,0.209-0.13l0.606-0.452c0.11-0.082,0.209-0.18,0.292-0.29l0.37-0.489c0.116-0.154,0.201-0.329,0.25-0.515
		l0.129-0.497c0.063-0.243,0.063-0.497-0.002-0.74l-0.129-0.49c-0.05-0.189-0.137-0.366-0.256-0.521l-0.37-0.479
		c-0.077-0.1-0.167-0.189-0.268-0.267l-0.589-0.452c-0.077-0.059-0.16-0.111-0.248-0.154l-0.812-0.397
		c-0.052-0.025-0.104-0.047-0.158-0.066l-1.075-0.375L181.889,8.579c-1.604-0.462-3.321-0.697-5.103-0.697
		c-3.861,0-6.757,1.097-6.889,1.148L31.732,63.483l-0.931,0.434c-0.061,0.028-0.12,0.061-0.177,0.098l-0.738,0.478
		c-0.09,0.058-0.173,0.125-0.248,0.202l-0.5,0.508c-0.103,0.104-0.188,0.224-0.256,0.354l-0.267,0.516
		c-0.104,0.201-0.16,0.424-0.164,0.65l-0.008,0.526c-0.003,0.219,0.043,0.436,0.135,0.635l0.229,0.497
		c0.075,0.161,0.179,0.308,0.306,0.432l0.49,0.479c0.082,0.08,0.173,0.15,0.271,0.209l0.709,0.425
		c0.069,0.042,0.141,0.077,0.216,0.106l0.994,0.389l98.526,32.224C132.204,103.188,134.152,103.464,136.11,103.464z M135.725,74.239
		c-0.021-0.577-0.06-0.765-0.099-0.878l-0.824-3.016l9.635,3.022l-0.363,5.014l-8.36,3.71l-0.868-6.219l0.478-0.494l0.411-0.89
		L135.725,74.239z M144.35,39.091l0.504,0.229l1.225,0.353l1.441,0.243l1.413,0.102h1.438l1.514-0.124l1.337-0.206l1.416-0.365
		l1.074-0.379l0.539-0.279l1.038,3.788c0.005,0.042,0.009,0.096,0.012,0.148l-0.334,0.427l-0.525,0.361l-0.775,0.367l-0.935,0.331
		l-1.13,0.288l-1.278,0.211l-1.321,0.143l-1.381,0.048l-1.303-0.037l-1.252-0.104l-1.146-0.201l-1.036-0.271l-0.781-0.311
		l-0.544-0.325l-0.276-0.258l-0.057-0.113l-0.002-0.138L144.35,39.091z M144.226,36.464l0.206-0.33l0.455-0.353l0.74-0.378
		l0.956-0.35l1.072-0.274l1.25-0.198l1.312-0.106l1.304-0.003l1.242,0.087l1.181,0.196l0.969,0.274l0.742,0.312l0.462,0.313
		l0.178,0.211l0.017,0.062l-0.193,0.327l-0.452,0.351l-0.728,0.386l-0.912,0.326l-1.177,0.305l-1.207,0.189l-1.355,0.108
		l-1.276,0.003l-1.239-0.087l-1.182-0.199l-0.963-0.269l-0.739-0.322l-0.467-0.317l-0.18-0.214L144.226,36.464z M162.303,62.813
		c0-0.01-0.001-0.015-0.001-0.025l8.04,2.478l-0.195,2.478l-7.972,3.326l-0.879-6.488l0.607-0.626l0.408-0.893L162.303,62.813z
		 M171.967,44.191l-0.722,0.908l-0.257,1.021l0.287,1.022l0.207,0.248l-1.376,4.794l-0.052,0.251l0.016,0.861l0.438,0.875
		l0.635,0.593l0.025,0.016l-0.606,7.699l-1.92-0.635l0.011-2.296c-0.035-1.423-0.009-2.977,0.079-4.742l1.376-18.544l1.051,0.279
		l1.32,0.231l1.407,0.122l1.43,0.04l1.521-0.056l1.453-0.155l1.426-0.237l1.302-0.333l1.079-0.375l0.139-0.064l0.597,6.541
		l-0.887-0.149l-1.413-0.101l-1.464,0.003l-1.476,0.119l-1.42,0.227l-1.223,0.306l-1.17,0.422l-1.002,0.501L171.967,44.191z
		 M173.284,48.721l0.502,0.228l1.225,0.354l1.442,0.243l1.414,0.102h1.438l1.516-0.124l1.337-0.208l1.412-0.363l1.078-0.379
		l0.537-0.278l1.039,3.788c0.004,0.042,0.008,0.095,0.012,0.147l-0.334,0.427l-0.526,0.362l-0.776,0.367l-0.934,0.329l-1.128,0.289
		l-1.279,0.209l-1.323,0.144l-1.381,0.05l-1.299-0.035l-1.256-0.108l-1.144-0.199l-1.034-0.271l-0.782-0.312l-0.546-0.326
		l-0.276-0.258l-0.057-0.114l-0.003-0.136L173.284,48.721z M162.626,83.067l-0.525,0.361l-0.776,0.366l-0.932,0.33l-1.131,0.288
		l-1.279,0.21l-1.32,0.145l-1.381,0.048l-1.301-0.036l-1.254-0.106l-1.148-0.201l-1.031-0.268l-0.783-0.313l-0.545-0.324
		l-0.274-0.258l-0.059-0.117l-0.003-0.132l1.128-3.93l0.504,0.229l1.224,0.352l1.441,0.243l1.414,0.102h1.437l1.515-0.122
		l1.339-0.208l1.409-0.363l1.079-0.378l0.541-0.28l1.032,3.757c0.007,0.045,0.012,0.112,0.016,0.178L162.626,83.067z
		 M161.313,75.382l0.462,0.31l0.175,0.211l0.019,0.066l-0.191,0.324l-0.453,0.352l-0.724,0.385l-0.919,0.326l-1.173,0.304
		l-1.207,0.19l-1.354,0.106l-1.276,0.003l-1.24-0.087l-1.182-0.199l-0.964-0.269l-0.74-0.322l-0.465-0.314l-0.18-0.215l-0.015-0.053
		l0.206-0.331l0.454-0.351l0.741-0.378l0.955-0.35l1.075-0.272l1.248-0.199l1.313-0.107l1.302-0.003l1.245,0.089l1.18,0.196
		l0.967,0.273L161.313,75.382z M160.119,72.76l-1.444-0.242l-1.417-0.103l-1.463,0.003l-1.476,0.12l-1.419,0.227l-1.223,0.305
		l-1.173,0.423l-1,0.502l-0.813,0.605l-0.723,0.91l-0.254,1.019l0.179,0.645l-1.664,0.49l0.83-11.483l0.003,0.001l1.302,0.345
		l1.319,0.231l1.406,0.121l1.433,0.041l1.519-0.056l1.458-0.155l1.422-0.237l1.307-0.333l1.076-0.376l0.031-0.015l0.956,7.062
		L160.119,72.76z M159.862,63.072l-0.527,0.361l-0.777,0.369l-0.931,0.33l-1.131,0.288l-1.276,0.211l-1.325,0.142l-1.379,0.049
		l-1.304-0.036l-1.252-0.105l-1.145-0.201l-1.036-0.271l-0.781-0.311l-0.544-0.325l-0.276-0.259l-0.057-0.114l-0.003-0.136
		l1.126-3.927l0.502,0.229l1.228,0.353l1.441,0.243l1.413,0.099h1.435l1.517-0.121l1.338-0.206l1.412-0.365l1.077-0.379l0.54-0.279
		l1.032,3.757c0.007,0.045,0.012,0.112,0.016,0.179L159.862,63.072z M159.011,56.3l-0.453,0.352l-0.724,0.384l-0.917,0.327
		l-1.173,0.304l-1.206,0.188l-1.358,0.106l-1.276,0.002l-1.239-0.084l-1.181-0.199l-0.965-0.269l-0.738-0.323l-0.465-0.315
		l-0.181-0.216l-0.014-0.051l0.207-0.332l0.451-0.351l0.742-0.377l0.954-0.35l1.075-0.273l1.246-0.198l1.313-0.106l1.306-0.003
		l1.241,0.087l1.181,0.196l0.969,0.272l0.741,0.313l0.462,0.312l0.176,0.211l0.019,0.065L159.011,56.3z M143.349,62.227
		l1.229-15.981l0.895,0.237l1.32,0.231l1.405,0.12l1.431,0.042l1.521-0.055l1.455-0.156l1.423-0.237l1.307-0.333l0.873-0.305
		l0.747,6.909l-1.048-0.175l-1.413-0.102l-1.465,0.003l-1.476,0.119l-1.419,0.226l-1.224,0.306l-1.17,0.422l-1.001,0.5l-0.813,0.607
		l-0.722,0.909l-0.256,1.022l0.287,1.021l0.206,0.247l-1.375,4.796l-0.052,0.251l0.016,0.861l0.438,0.875l0.564,0.528l-0.383,5.291
		l-1.557-0.224l-0.001-0.038c-0.028-1.539-0.002-3.154,0.079-4.802C143.22,64.321,143.279,63.298,143.349,62.227z M136.622,85.752
		l-0.479-0.573l-0.011-0.074l11.436-5.074l-0.735,2.565l-0.054,0.239l0.019,0.872l0.436,0.875l0.453,0.425l-0.347,5.391
		l-10.52-3.282l0.081-0.354L136.622,85.752z M142.372,99.409c-1.415,0.527-2.9,0.86-4.398,1.015l-0.779-5.382l0.24-0.248
		l0.413-0.895l-0.01-0.252c-0.027-0.678-0.073-0.803-0.087-0.828l-0.704-2.569l15.479,4.829L142.372,99.409z M158.034,92.671
		l-1.523,0.588l-6.236-1.946l-0.869-0.334l0.312-4.849l0.112,0.046l1.301,0.344l1.32,0.231l1.408,0.122l1.43,0.041l1.522-0.055
		l1.453-0.158l1.423-0.236l1.308-0.333l1.076-0.376l0.351-0.163l0.634,4.997l-3.53,1.506l-0.007,0.003L158.034,92.671z
		 M163.854,74.91l-0.563-0.675l-0.402-0.294l6.998-2.919l-0.006,0.079c-0.05,0.64-0.077,1.25-0.104,1.866
		c-0.017,0.382-0.033,0.768-0.057,1.175c-0.063,1.306-0.104,2.692-0.098,4.076l-5.611-1.765l0.119-0.535L163.854,74.91z
		 M173.435,86.164l-8.373,3.57l-0.695-5.474l0.302-0.311l0.41-0.891l-0.009-0.25c-0.025-0.687-0.073-0.815-0.086-0.834l-0.645-2.353
		l9.399,2.955L173.435,86.164z M174.4,66.349l0.209,0.249l-1.392,4.865l-0.038,0.144l0.022,0.895l0.432,0.873l0.632,0.594
		l0.191,0.12l-0.507,5.988l-2.229-0.748c-0.001-0.083-0.001-0.168-0.001-0.255c-0.04-1.632,0.023-3.286,0.097-4.82
		c0.023-0.407,0.041-0.802,0.058-1.193c0.026-0.593,0.052-1.18,0.1-1.88l1.219-15.389l1.215,0.322l1.315,0.229l1.409,0.124
		l1.431,0.041l1.521-0.057l1.453-0.157l1.425-0.235l1.305-0.333l1.076-0.375l0.194-0.09l0.677,6.244l-1.143-0.191l-1.412-0.1
		l-1.464,0.003l-1.473,0.119l-1.422,0.225l-1.222,0.306l-1.171,0.422l-1.002,0.502l-0.813,0.608l-0.722,0.908l-0.252,1.019
		L174.4,66.349z M186.974,63.862l0.74,0.313l0.464,0.313l0.177,0.211l0.017,0.063l-0.193,0.327l-0.454,0.353l-0.722,0.383
		l-0.915,0.325l-1.178,0.305l-1.207,0.19l-1.354,0.107l-1.275,0.003l-1.24-0.087l-1.183-0.198l-0.962-0.27l-0.741-0.322
		l-0.466-0.315l-0.178-0.212l-0.016-0.054l0.206-0.33l0.455-0.353l0.74-0.377l0.956-0.35l1.072-0.273l1.249-0.197l1.312-0.106
		l1.306-0.003l1.24,0.086l1.182,0.196L186.974,63.862z M175.288,71.986l-0.003-0.126l1.127-3.936l0.505,0.229l1.221,0.353
		l1.444,0.243l1.413,0.102h1.438l1.514-0.123l1.338-0.208l1.413-0.365l1.076-0.378l0.538-0.278l1.039,3.789
		c0.005,0.042,0.009,0.094,0.012,0.146l-0.334,0.426l-0.527,0.361l-0.774,0.368l-0.934,0.33l-1.129,0.288l-1.279,0.209l-1.323,0.143
		l-1.381,0.05l-1.298-0.036l-1.257-0.107l-1.144-0.199l-1.035-0.271l-0.783-0.312l-0.544-0.324l-0.273-0.257L175.288,71.986z
		 M178.989,83.795l-3.369,1.437l0.862-10.195l1.051,0.279l1.317,0.229l1.409,0.123l1.43,0.041l1.521-0.058l1.453-0.156l1.424-0.235
		l1.307-0.333l0.643-0.224l0.81,0.029l0.589,4.373L178.989,83.795z M190.257,63.702l-0.566-0.675l-0.242-0.177l5.984-2.503
		c-0.002,0.056-0.002,0.112,0.006,0.167c-0.025,0.413-0.054,0.826-0.081,1.239c-0.036,0.547-0.073,1.095-0.104,1.65
		c-0.059,1.194-0.114,2.565-0.122,3.962l-4.922-1.517l0.095-0.123l0.231-1.012L190.257,63.702z M199.477,75.06l-8.008,3.415
		l-0.66-4.899c-0.021-0.149-0.078-0.283-0.153-0.405l0.413-0.426l0.413-0.892l-0.01-0.251c-0.022-0.581-0.061-0.762-0.098-0.873
		l-0.438-1.595l8.846,2.726L199.477,75.06z M200.582,56.248l0.208,0.249l-1.375,4.794l-0.052,0.249l0.016,0.864l0.438,0.873
		l0.632,0.594l0.091,0.057l-0.509,5.33l-2.8-0.824c0-0.042,0-0.083,0-0.124c-0.021-1.676,0.048-3.369,0.118-4.795
		c0.03-0.541,0.066-1.082,0.103-1.622c0.033-0.488,0.065-0.976,0.095-1.463c0.003-0.063,0.001-0.125-0.007-0.185l1.065-14.734
		l1.184,0.316l1.318,0.228l1.406,0.122l1.433,0.041l1.519-0.056l1.454-0.155l1.422-0.237l1.31-0.332l1.077-0.376l0.083-0.039
		l0.167-0.003l0.684,6.262l-0.404-0.068l-1.415-0.101l-1.464,0.003l-1.475,0.119l-1.42,0.227l-1.223,0.305l-1.172,0.424
		l-0.999,0.499l-0.814,0.609l-0.722,0.909l-0.253,1.02L200.582,56.248z M198.666,38.433l0.5,0.228l1.229,0.354l1.443,0.245
		l1.412,0.099h1.437l1.514-0.122l1.337-0.207l1.413-0.365l1.078-0.38l0.538-0.277l1.039,3.794c0.005,0.041,0.009,0.09,0.012,0.141
		l-0.334,0.426l-0.528,0.362l-0.775,0.369l-0.931,0.329l-1.134,0.287l-1.277,0.212l-1.321,0.142l-1.379,0.049l-1.303-0.036
		l-1.255-0.107l-1.142-0.197l-1.036-0.274l-0.783-0.31l-0.544-0.324l-0.274-0.259l-0.059-0.118l-0.003-0.128L198.666,38.433z
		 M198.542,35.806l0.207-0.332l0.452-0.353l0.741-0.375l0.956-0.354l1.071-0.272l1.249-0.197l1.314-0.106l1.304-0.003l1.241,0.087
		l1.182,0.197l0.968,0.272l0.741,0.314l0.463,0.313l0.176,0.21l0.018,0.065l-0.193,0.324l-0.451,0.352l-0.725,0.383l-0.918,0.327
		l-1.175,0.304l-1.205,0.19l-1.354,0.106l-1.278,0.003l-1.237-0.084l-1.182-0.199l-0.966-0.27l-0.738-0.323l-0.468-0.316
		l-0.179-0.212L198.542,35.806z M212.188,53.492l0.97,0.271l0.738,0.312l0.462,0.313l0.177,0.211l0.018,0.064l-0.191,0.324
		l-0.455,0.353l-0.723,0.384l-0.915,0.327l-1.177,0.304l-1.206,0.19l-1.354,0.106l-1.277,0.003l-1.238-0.085l-1.183-0.199
		l-0.963-0.27l-0.741-0.323l-0.465-0.315l-0.18-0.214l-0.014-0.052l0.205-0.33l0.454-0.353l0.74-0.376l0.955-0.351l1.075-0.272
		l1.248-0.199l1.312-0.106l1.306-0.003l1.242,0.086L212.188,53.492z M215.32,68.304l-8.937,3.81l-4.688,1.783l0.857-8.989
		l1.159,0.308l1.321,0.232l1.407,0.12l1.429,0.041l1.521-0.055l1.456-0.155l1.421-0.237l1.309-0.333l1.078-0.377l0.196-0.092
		L215.32,68.304L215.32,68.304z M215.21,61.761l-0.526,0.361l-0.776,0.367l-0.932,0.331l-1.132,0.287l-1.276,0.212l-1.322,0.142
		l-1.382,0.047l-1.303-0.035l-1.251-0.104l-1.146-0.202l-1.035-0.271l-0.784-0.311l-0.543-0.324l-0.276-0.26l-0.057-0.113
		l-0.003-0.136l1.127-3.928l0.505,0.229l1.223,0.353l1.444,0.244l1.412,0.1h1.437l1.514-0.122l1.338-0.207l1.414-0.365l1.077-0.38
		l0.537-0.278l1.039,3.792c0.005,0.041,0.009,0.092,0.012,0.143L215.21,61.761z M225.064,64.149l-7.732,3.297l-0.518-4.352
		l0.436-0.449l0.413-0.892l-0.01-0.251c-0.022-0.576-0.062-0.763-0.1-0.876l-1.29-4.712l0.223-0.287l0.137-0.607l1.24,1.711
		c0.954,1.145,2.475,2.753,4.718,3.524l2.703,0.82L225.064,64.149z M226.202,46.183l0.208,0.248l-1.375,4.796l-0.054,0.238
		L225,52.337l0.438,0.875l0.385,0.361l-0.194,2.715c-0.335-0.139-0.672-0.284-1.006-0.454c-4.497-2.327-6.983-7.007-6.731-11.756
		l0.382-0.61l0.514-0.554l0.592-0.417l0.624-0.269l0.706-0.135l0.755,0.007l0.879,0.18l4.3,1.271l-0.468,0.589l-0.255,1.02
		L226.202,46.183z M227.235,63.211l0.607-8.483l0.192,0.079l1.3,0.346l1.317,0.229l1.408,0.122l1.432,0.041l1.52-0.057l1.454-0.156
		l1.424-0.235l1.306-0.334l1.078-0.376l0.161-0.075l0.333,3.142l0,0l-12.864,5.485l-0.004,0.002L227.235,63.211z M240.83,51.696
		l-0.526,0.361l-0.776,0.369l-0.935,0.33l-1.129,0.289l-1.278,0.209l-1.322,0.143l-1.38,0.049l-1.301-0.036l-1.256-0.106
		l-1.142-0.199l-1.035-0.272l-0.783-0.311l-0.543-0.324l-0.277-0.26l-0.059-0.118l-0.003-0.13l1.128-3.932l0.504,0.229l1.224,0.353
		l1.445,0.245l1.412,0.099h1.436l1.516-0.121l1.337-0.208l1.413-0.365l1.076-0.379l0.296-0.153l0,0l0.301,0.088l0,0l0.979,3.575
		c0.005,0.042,0.009,0.094,0.013,0.147L240.83,51.696z M239.979,44.924l-0.452,0.351l-0.726,0.385l-0.914,0.326l-1.177,0.304
		l-0.518,0.082l-0.687,0.108l-1.356,0.105l-1.277,0.003l-1.237-0.084l-1.183-0.199l-0.965-0.27l-0.739-0.322l-0.467-0.316
		l-0.18-0.213l-0.014-0.05l0.207-0.332l0.452-0.352l0.345-0.175l0.396-0.201l0.956-0.351l1.074-0.273l1.248-0.199l1.313-0.106
		l1.302-0.003l1.244,0.088l1.18,0.196l0.969,0.273l0.74,0.313l0.463,0.313l0.131,0.156l0.047,0.056l0.017,0.062L239.979,44.924z
		 M242.787,56.592l-0.375-3.539l0.457-0.471l0.412-0.894l-0.009-0.251c-0.022-0.585-0.06-0.763-0.099-0.875l-0.634-2.315
		l8.063,2.382c0.96,0.342,1.852,0.859,2.64,1.504L242.787,56.592z M278.805,39.56l0.915,0.321l0.603,0.295l0.231,0.178l-0.25,0.186
		l-0.658,0.336l-23.464,10.005c-1.275-1.342-2.856-2.387-4.673-3.032l-9.298-2.748l0.126-0.552l-0.28-1.012l-0.565-0.674
		l-0.885-0.647l-1.073-0.476l-1.213-0.351l-1.443-0.242l-1.416-0.103l-1.462,0.003l-1.477,0.119l-1.421,0.227l-0.776,0.194
		l-7.217-2.133c-0.04-0.012-0.08-0.022-0.121-0.03l-1.078-0.22c-0.092-0.019-0.185-0.028-0.277-0.029l-1.041-0.01
		c-0.1-0.003-0.194,0.007-0.289,0.026l-1.006,0.192c-0.104,0.02-0.206,0.051-0.304,0.093l-0.911,0.392
		c-0.094,0.04-0.182,0.09-0.265,0.148l-0.841,0.593c-0.083,0.059-0.16,0.126-0.229,0.2l-0.712,0.767
		c-0.063,0.068-0.118,0.141-0.167,0.219l-0.584,0.933c-0.045,0.072-0.084,0.148-0.116,0.227l-0.438,1.078
		c-0.026,0.065-0.048,0.132-0.064,0.201l-0.292,1.188c-0.015,0.06-0.026,0.12-0.033,0.182l-0.147,1.278
		c-0.008,0.068-0.011,0.138-0.009,0.207l0.036,1.342c0.001,0.05,0.005,0.101,0.012,0.15l0.181,1.379
		c0.007,0.051,0.016,0.101,0.027,0.151l0.33,1.378c0.014,0.056,0.03,0.11,0.05,0.164l0.254,0.688l-0.085-0.063l-1.074-0.476
		l-0.107-0.031c0.001-0.046,0.009-0.092,0.004-0.139l-0.853-7.799c-0.006-0.057-0.032-0.105-0.046-0.159l0.412-0.424l0.41-0.892
		l-0.009-0.25c-0.021-0.572-0.061-0.766-0.101-0.881l-1.289-4.708l0.224-0.289l0.228-1.012l-0.277-1.009l-0.563-0.674l-0.889-0.649
		l-1.072-0.476l-1.214-0.35l-1.445-0.242l-1.413-0.102l-1.463,0.003l-1.476,0.119l-1.422,0.225l-1.223,0.306l-1.173,0.428
		l-0.996,0.496l-0.816,0.613l-0.72,0.904l-0.254,1.02l0.281,1.025l0.21,0.249l-1.374,4.793l-0.055,0.23l0.02,0.882l0.436,0.872
		l0.63,0.594l0.053,0.033l-0.908,12.57l-7.48,3.129l-0.674-6.222l0.433-0.446l0.41-0.894l-0.009-0.25
		c-0.022-0.585-0.059-0.76-0.097-0.871l-1.292-4.717l0.225-0.29l0.225-1.012l-0.271-1.008l-0.568-0.677l-0.888-0.648l-0.247-0.109
		l-0.594-30.593L278.805,39.56z M184.588,44.972l0.464,0.313l0.175,0.209l0.018,0.063l-0.192,0.328l-0.454,0.352l-0.723,0.384
		l-0.916,0.326l-1.176,0.303l-1.207,0.19l-1.356,0.108l-1.275,0.003l-1.241-0.088l-1.181-0.198l-0.965-0.27l-0.737-0.321
		l-0.466-0.315l-0.181-0.216l-0.014-0.052l0.207-0.331l0.452-0.352l0.741-0.377l0.955-0.35l1.075-0.273l1.247-0.199l1.313-0.106
		l1.306-0.003l1.241,0.086l1.181,0.196l0.969,0.274L184.588,44.972z M182.988,32.66l-0.333,0.428l-0.525,0.361l-0.776,0.366
		l-0.938,0.33l-1.127,0.289l-1.278,0.21l-1.321,0.142l-1.383,0.049l-1.3-0.034l-1.252-0.106l-1.146-0.201l-1.034-0.271l-0.783-0.311
		l-0.544-0.324l-0.275-0.259l-0.057-0.115l-0.003-0.131l1.127-3.932l0.503,0.228l1.225,0.354l1.441,0.243l1.414,0.102h1.438
		l1.512-0.124l1.338-0.206l1.411-0.365l1.077-0.377l0.542-0.28l1.033,3.758h-0.001C182.979,32.529,182.984,32.594,182.988,32.66z
		 M176.786,10.807c1.507,0,2.951,0.196,4.292,0.583l0.816,0.235l0.229,11.845l-0.768-0.339l-1.211-0.35l-1.445-0.243l-1.413-0.101
		l-1.463,0.003l-1.478,0.119l-1.022,0.164l-0.344-11.517C173.99,10.996,175.309,10.807,176.786,10.807z M171.313,25.464l0.958-0.351
		l1.073-0.272l1.248-0.199l1.314-0.106l1.305-0.003l1.24,0.086l1.18,0.196l0.971,0.274l0.741,0.313l0.463,0.313l0.176,0.21
		l0.018,0.064l-0.194,0.327l-0.452,0.352l-0.724,0.384l-0.918,0.325l-1.175,0.305l-1.208,0.189l-1.353,0.108l-1.276,0.003
		l-1.24-0.087l-1.181-0.198l-0.965-0.271l-0.74-0.322l-0.466-0.314l-0.179-0.213l-0.015-0.054l0.206-0.33l0.454-0.354
		L171.313,25.464z M77.352,82.246l-6.7-2.191l0.569-0.021l1.455-0.155l1.425-0.235l1.305-0.333l1.078-0.375l0.209-0.098l0.142-0.024
		L77.352,82.246z M77.04,76.244l-0.524,0.36l-0.777,0.368L74.804,77.3l-1.128,0.289l-1.278,0.209l-1.324,0.142l-1.381,0.049
		l-1.3-0.036l-1.251-0.105l-1.146-0.201l-1.036-0.271l-0.782-0.311l-0.543-0.323l-0.276-0.26l-0.057-0.115l-0.003-0.135l1.126-3.928
		l0.501,0.229l1.229,0.353l1.441,0.244l1.412,0.101h1.438l1.513-0.124l1.337-0.206l1.416-0.365l1.075-0.378l0.539-0.28l1.039,3.795
		c0.005,0.04,0.009,0.09,0.012,0.141L77.04,76.244z M64.299,69.676l0.207-0.329l0.454-0.353l0.74-0.376l0.956-0.351l1.074-0.273
		l1.249-0.198l1.309-0.106l1.307-0.003l1.241,0.086l1.18,0.198l0.971,0.274l0.742,0.313l0.461,0.311l0.177,0.211l0.017,0.063
		l-0.192,0.327l-0.453,0.351l-0.726,0.386l-0.913,0.325l-1.178,0.305l-1.208,0.189l-1.354,0.108l-1.276,0.003l-1.237-0.086
		l-1.183-0.199l-0.965-0.269l-0.737-0.323l-0.468-0.317l-0.179-0.212L64.299,69.676z M91.393,78.007l0.208,0.248l-1.211,4.224
		l1.058-14.932l0.31,0.127l1.301,0.346l1.319,0.229l1.407,0.121l1.431,0.042l1.521-0.056l1.454-0.157l1.423-0.235l1.308-0.333
		l0.788-0.276l0.891,6.172l-1.087-0.314l-1.444-0.243l-1.416-0.102l-1.463,0.003l-1.474,0.12l-1.423,0.226l-1.222,0.307
		l-1.171,0.424l-0.998,0.497l-0.817,0.612l-0.718,0.908l-0.255,1.016L91.393,78.007z M91.937,60.628l0.504,0.229l1.224,0.353
		l1.442,0.244l1.413,0.102h1.438l1.514-0.124l1.337-0.206l1.412-0.366l1.076-0.378l0.541-0.28l1.035,3.766
		c0.005,0.046,0.01,0.109,0.014,0.171l-0.332,0.426l-0.529,0.361l-0.775,0.368l-0.933,0.331l-1.129,0.288l-1.279,0.209l-1.322,0.144
		l-1.379,0.049l-1.302-0.037l-1.256-0.105l-1.144-0.199l-1.035-0.272l-0.781-0.31l-0.543-0.324l-0.278-0.261l-0.057-0.113
		l-0.002-0.137L91.937,60.628z M91.813,58.001l0.207-0.331l0.451-0.353l0.741-0.375l0.956-0.352l1.074-0.272l1.248-0.198
		l1.313-0.106l1.305-0.003l1.241,0.087l1.181,0.197l0.968,0.272l0.742,0.314l0.463,0.312l0.175,0.209l0.019,0.066l-0.193,0.326
		l-0.452,0.351l-0.726,0.385l-0.916,0.326l-1.175,0.305l-1.206,0.189l-1.355,0.108l-1.276,0.003l-1.239-0.087l-1.181-0.198
		l-0.963-0.27l-0.742-0.323l-0.465-0.315l-0.18-0.214L91.813,58.001z M105.172,76.748l-0.454,0.353l-0.724,0.385l-0.916,0.326
		l-1.176,0.305l-1.209,0.189l-1.354,0.108l-1.275,0.003l-1.239-0.086l-1.183-0.199l-0.962-0.27l-0.74-0.323l-0.468-0.316
		l-0.178-0.211l-0.014-0.051l0.206-0.333l0.452-0.352l0.741-0.375l0.957-0.352l1.071-0.274l1.25-0.198l1.313-0.107l1.303-0.003
		l1.243,0.088l1.18,0.196l0.97,0.274l0.74,0.313l0.463,0.313l0.178,0.212l0.017,0.061L105.172,76.748z M92.613,84.023l-0.275-0.26
		l-0.059-0.117l-0.002-0.135l1.126-3.928l0.504,0.229l1.223,0.354l1.445,0.245l1.413,0.101h1.437l1.512-0.124l1.339-0.206
		l1.414-0.366l1.076-0.378l0.454-0.235l0,0c0.04,0.241,0.134,0.47,0.282,0.662l0,0l0.838,3.051l-0.001,0
		c0.007,0.045,0.012,0.111,0.017,0.178l-0.335,0.427l-0.527,0.361l-0.774,0.368l-0.934,0.33l-1.129,0.289l-1.278,0.209l-1.323,0.142
		l-1.381,0.049l-1.301-0.036l-1.255-0.105l-1.143-0.199l-1.034-0.272l-0.784-0.312L92.613,84.023z M93.234,87.101l0.025-0.46
		l1.267,0.337l1.318,0.229l1.407,0.121l1.43,0.041l1.521-0.056l1.454-0.155l1.425-0.235l1.307-0.334l1.078-0.376l0.098-0.045
		l0.799,5.566l-2.995-0.979l-0.009-0.003L93.234,87.101z M107.277,77.411l0.02-0.025l0.231-1.012l-0.278-1.012l-0.323-0.385
		l-1.246-8.644l0.155-0.103l0.76-0.781l0.408-0.895l-0.009-0.249c-0.025-0.669-0.067-0.79-0.084-0.833l-1.305-4.754l0.224-0.288
		l0.229-1.012l-0.276-1.011l-0.563-0.675l-0.892-0.649l-1.07-0.475l-1.214-0.35l-1.443-0.242l-1.414-0.102l-1.464,0.003
		l-1.474,0.119l-1.421,0.226l-1.224,0.305l-1.174,0.426l-0.998,0.498l-0.815,0.612l-0.719,0.906l-0.256,1.022l0.287,1.023
		l0.205,0.245l-1.375,4.797l-0.051,0.256l0.015,0.855l0.439,0.874l0.268,0.252l-1.375,19.413l-8.471-2.77l-0.831-5.511l0.328-0.339
		l0.411-0.89l-0.009-0.25c-0.021-0.574-0.061-0.766-0.101-0.881l-1.289-4.71l0.222-0.287l0.231-1.011l-0.278-1.009l-0.562-0.675
		l-0.89-0.65l-1.076-0.475l-1.211-0.35l-1.444-0.244l-1.415-0.101l-1.466,0.003l-1.471,0.119l-1.421,0.226l-1.223,0.306
		l-1.172,0.424l-0.999,0.499l-0.814,0.609l-0.723,0.907l-0.252,1.02l0.281,1.025l0.209,0.248l-1.374,4.794l-0.052,0.251l0.016,0.859
		l0.051,0.101L32.785,67.67l-0.801-0.315l-0.458-0.274l-0.066-0.065l0.672-0.491l0.755-0.354l137.194-54.068l0.342,11.468
		l-0.89,0.445l-0.815,0.611l-0.722,0.908l-0.25,1.021l0.28,1.021l0.21,0.25l-1.374,4.793l-0.055,0.232l0.02,0.879l0.432,0.872
		l0.635,0.597l0.181,0.113l-1.261,16.288c-0.001,0.007-0.001,0.099-0.002,0.106l-0.176,2.991c-0.092,1.826-0.118,3.431-0.082,4.88
		l-0.007,1.459l-4.912-1.513c-0.035-0.011-0.062-0.004-0.095-0.013l-0.626-2.284l0.224-0.288l0.229-1.012l-0.276-1.009l-0.563-0.676
		l-0.891-0.651l-0.499-0.221l-0.936-8.644l0.049-0.033l0.758-0.78l0.409-0.894l-0.009-0.248c-0.021-0.583-0.06-0.764-0.097-0.875
		l-1.292-4.715l0.223-0.287l0.231-1.011l-0.278-1.012l-0.566-0.675l-0.886-0.648l-1.078-0.476l-1.208-0.35l-1.445-0.243
		l-1.415-0.102l-1.463,0.003l-1.473,0.119l-1.424,0.226l-1.222,0.307l-1.171,0.421l-1.001,0.504l-0.813,0.605l-0.722,0.909
		l-0.255,1.021l0.284,1.023l0.207,0.246l-1.374,4.796l-0.051,0.256l0.015,0.854l0.438,0.876l0.634,0.593l0.334,0.21l-1.284,16.448
		l-0.005,0.344c-0.069,1.033-0.129,2.071-0.177,3.104c-0.067,1.355-0.088,2.68-0.082,3.98l-6.227-1.954l-0.257-0.933l-0.567-0.676
		l-0.649-0.475l-1.038-10.122l0.533-0.551l0.412-0.891l-0.01-0.252c-0.026-0.684-0.074-0.812-0.087-0.831l-1.302-4.757l0.223-0.288
		l0.23-1.011l-0.278-1.013l-0.565-0.674l-0.887-0.648l-1.073-0.476l-1.215-0.35l-1.443-0.242l-1.414-0.101l-1.462,0.003
		l-1.478,0.119l-1.419,0.227l-1.222,0.305l-1.171,0.424l-1,0.499l-0.815,0.609l-0.721,0.91l-0.254,1.018l0.281,1.022l0.209,0.249
		l-1.374,4.794l-0.052,0.251l0.016,0.861l0.436,0.873l0.634,0.596l0.119,0.075L115.2,72.732l-0.106,1.439
		c-0.036,0.602-0.066,1.102-0.095,1.836c-0.062,1.466-0.084,2.811-0.073,4.08l-7.615-2.444L107.277,77.411z M134.737,86.813
		l-0.193,0.326l-0.453,0.352l-0.724,0.384l-0.915,0.325l-1.178,0.305l-1.203,0.19l-1.356,0.105l-1.276,0.003l-1.239-0.086
		l-1.184-0.198l-0.963-0.27l-0.738-0.322l-0.468-0.316l-0.179-0.213l-0.015-0.052l0.208-0.331l0.453-0.353l0.739-0.377l0.956-0.351
		l1.073-0.273l1.248-0.198l1.313-0.105l1.305-0.003l1.242,0.086l1.18,0.196l0.969,0.273l0.741,0.314l0.464,0.313l0.176,0.21
		L134.737,86.813z M120.666,70.56l0.503,0.229l1.223,0.353l1.445,0.243l1.412,0.1h1.435l1.516-0.122l1.338-0.206l1.412-0.364
		l1.078-0.378l0.54-0.281l1.037,3.792c0.005,0.041,0.009,0.092,0.012,0.143l-0.334,0.429l-0.526,0.36l-0.776,0.367l-0.932,0.331
		l-1.132,0.288l-1.278,0.21l-1.321,0.142l-1.381,0.049l-1.3-0.035l-1.256-0.105l-1.145-0.201l-1.034-0.27l-0.784-0.312l-0.543-0.324
		L119.6,74.74l-0.058-0.117l-0.003-0.134L120.666,70.56z M120.541,67.933l0.206-0.333l0.454-0.351l0.741-0.378l0.955-0.351
		l1.074-0.272l1.247-0.198l1.313-0.106l1.306-0.003l1.241,0.087l1.182,0.197l0.969,0.272l0.739,0.312l0.463,0.313l0.178,0.212
		l0.017,0.062l-0.03,0.051c-0.094,0.099-0.176,0.21-0.24,0.336l-0.376,0.29l-0.724,0.387l-0.916,0.325l-1.175,0.304l-1.207,0.189
		l-1.356,0.106l-1.275,0.003l-1.239-0.086l-1.184-0.198l-0.961-0.268l-0.74-0.324l-0.466-0.314l-0.181-0.215L120.541,67.933z
		 M118.132,49.694l0.504,0.229l1.225,0.352l1.344,0.234l1.513,0.111h1.436l1.517-0.122l1.336-0.208l1.409-0.363l1.078-0.377
		l0.542-0.281l1.033,3.759h-0.001c0.007,0.045,0.012,0.11,0.016,0.176l-0.334,0.429l-0.526,0.361l-0.774,0.367l-0.935,0.329
		l-1.131,0.289l-1.277,0.211l-1.322,0.143l-1.38,0.049l-1.302-0.037l-1.253-0.105l-1.146-0.201l-1.033-0.271l-0.784-0.313
		l-0.543-0.322l-0.276-0.26l-0.057-0.114l-0.003-0.136L118.132,49.694z M118.009,47.067l0.206-0.333l0.453-0.351l0.742-0.376
		l0.954-0.351l1.074-0.272l1.247-0.199L124,45.079l1.304-0.003l1.241,0.086l1.181,0.197l0.97,0.272l0.739,0.313l0.465,0.314
		l0.176,0.209l0.017,0.063l-0.192,0.329l-0.453,0.35l-0.725,0.385l-0.917,0.325l-1.176,0.305l-1.204,0.19l-1.355,0.106l-1.277,0.003
		l-1.286-0.093l-1.134-0.192l-0.965-0.269l-0.739-0.322l-0.467-0.316l-0.179-0.212L118.009,47.067z M117.005,95.214l-2.824-0.924
		l2.971-1.241L117.005,95.214z M117.37,89.787l-7.445,3.111l-1.337-0.437l-1.075-7.489l0.548-0.566l0.413-0.894l-0.01-0.251
		c-0.026-0.686-0.074-0.813-0.087-0.832l-0.411-1.503l9.789,3.142L117.37,89.787z M117.454,75.136l0.435,0.875l0.419,0.394
		c-0.018,0.066-0.045,0.128-0.05,0.199l-0.248,3.68l-0.98,0.295c-0.023-1.392-0.002-2.863,0.067-4.487
		c0.027-0.72,0.057-1.207,0.092-1.794l0.968-17.503l1.096,0.291l1.32,0.231l1.406,0.121l1.431,0.042l1.521-0.056l1.455-0.156
		l1.423-0.237l1.306-0.333l1.078-0.375l0.078-0.037l0.82,7.996l-0.318-0.092l-1.444-0.242l-1.414-0.102l-1.465,0.003l-1.475,0.119
		l-1.419,0.226l-1.223,0.305l-1.173,0.424l-0.999,0.5l-0.814,0.606l-0.721,0.912l-0.255,1.018l0.283,1.021l0.209,0.25l-1.374,4.794
		l-0.054,0.243L117.454,75.136z M120.768,88.398l0.207,0.247l-1.374,4.795l-0.054,0.238l0.017,0.792l-0.422,0.258l1.15-17.093
		l0.222-0.021l1.273,0.337l1.318,0.23l1.41,0.121l1.428,0.041l1.521-0.056l1.453-0.155l1.424-0.236l1.31-0.333l1.076-0.377
		l0.171-0.08l0.945,6.774l-0.959-0.277l-1.444-0.242l-1.415-0.1l-1.462,0.003l-1.475,0.118l-1.422,0.226l-1.222,0.306l-1.173,0.424
		l-0.999,0.501l-0.813,0.608l-0.72,0.906l-0.258,1.02L120.768,88.398z M121.988,94.411l-0.277-0.26l-0.058-0.115l-0.003-0.132
		l1.127-3.931l0.504,0.229l1.223,0.353l1.446,0.244l1.412,0.1h1.436l1.517-0.121l1.336-0.208l1.412-0.364l1.076-0.378l0.541-0.279
		l1.033,3.762c0.007,0.045,0.012,0.109,0.016,0.174l-0.333,0.425l-0.528,0.362l-0.775,0.368l-0.931,0.329l-1.132,0.287l-1.277,0.212
		l-1.323,0.144l-1.381,0.047l-1.301-0.035l-1.254-0.106l-1.146-0.201l-1.035-0.27l-0.781-0.311L121.988,94.411z M122.865,97.091
		l1.033,0.273l1.318,0.231l1.409,0.122l1.429,0.041l1.521-0.055l1.457-0.157l1.421-0.237l1.308-0.332l1.077-0.376l0.433-0.202
		l0.596,4.116c-1.599-0.019-3.184-0.233-4.687-0.666l-8.322-2.722L122.865,97.091z"/>
</g>
</svg>
