<svg width="14px" height="8px" viewBox="0 0 14 8" version="1.1" xmlns="http://www.w3.org/2000/svg" xmlns:xlink="http://www.w3.org/1999/xlink" xml:space="preserve" xmlns:serif="http://www.serif.com/" style="fill-rule:evenodd;clip-rule:evenodd;stroke-linejoin:round;stroke-miterlimit:2;"><path d="M7.712,0.568c-0.557,-0.503 -1.414,-0.503 -1.971,0l-5.355,5.098c-0.234,0.229 -0.366,0.543 -0.366,0.871c0,0.668 0.55,1.218 1.218,1.218c0.33,0 0.647,-0.135 0.876,-0.372l4.467,-4.211c0.114,-0.101 0.288,-0.101 0.402,0l5.025,4.369c0.219,0.183 0.496,0.284 0.783,0.284c0.669,0 1.22,-0.551 1.22,-1.221c0,-0.343 -0.144,-0.67 -0.397,-0.902l-5.902,-5.134Z" style="fill-rule:nonzero;"/></svg>
