<?xml version="1.0" encoding="UTF-8" standalone="no"?><!DOCTYPE svg PUBLIC "-//W3C//DTD SVG 1.1//EN" "http://www.w3.org/Graphics/SVG/1.1/DTD/svg11.dtd"><svg width="100%" height="100%" viewBox="0 0 11 11" version="1.1" xmlns="http://www.w3.org/2000/svg" xmlns:xlink="http://www.w3.org/1999/xlink" xml:space="preserve" xmlns:serif="http://www.serif.com/" style="fill-rule:evenodd;clip-rule:evenodd;stroke-linejoin:round;stroke-miterlimit:1.41421;"><path d="M4.739,0.367c0.081,-0.221 0.284,-0.367 0.511,-0.367c0.227,0 0.43,0.146 0.511,0.367l1.113,3.039l3.107,0.168c0.227,0.013 0.422,0.17 0.492,0.395c0.07,0.225 0,0.473 -0.176,0.622l-2.419,2.046l0.807,3.142c0.059,0.229 -0.024,0.472 -0.207,0.612c-0.183,0.139 -0.43,0.146 -0.62,0.017l-2.608,-1.774l-2.608,1.774c-0.19,0.129 -0.437,0.122 -0.62,-0.017c-0.183,-0.14 -0.266,-0.383 -0.207,-0.612l0.807,-3.142l-2.419,-2.046c-0.176,-0.149 -0.246,-0.397 -0.176,-0.622c0.07,-0.225 0.265,-0.382 0.492,-0.395l3.107,-0.168l1.113,-3.039Z"/></svg>