<?xml version="1.0" encoding="utf-8"?>
<!-- Generator: Adobe Illustrator 16.0.0, SVG Export Plug-In . SVG Version: 6.00 Build 0)  -->
<!DOCTYPE svg PUBLIC "-//W3C//DTD SVG 1.1//EN" "http://www.w3.org/Graphics/SVG/1.1/DTD/svg11.dtd">
<svg version="1.1" id="Layer_1" xmlns="http://www.w3.org/2000/svg" xmlns:xlink="http://www.w3.org/1999/xlink" x="0px" y="0px"
	 width="128px" height="128px" viewBox="0 0 128 128" enable-background="new 0 0 128 128" xml:space="preserve">
<pattern  x="-365.5" y="-365.5" width="183.277" height="183.277" patternUnits="userSpaceOnUse" id="New_Pattern_Swatch_2" viewBox="0 -183.277 183.277 183.277" overflow="visible">
	<g>
		<polygon fill="none" points="0,0 183.277,0 183.277,-183.277 0,-183.277 		"/>
		<polygon fill="#0394A6" points="183.277,0 0,0 0,-183.277 183.277,-183.277 		"/>
	</g>
</pattern>
<pattern  x="-365.5" y="-365.5" width="183.277" height="183.277" patternUnits="userSpaceOnUse" id="New_Pattern_Swatch_3" viewBox="0 -183.277 183.277 183.277" overflow="visible">
	<g>
		<polygon fill="none" points="0,0 183.277,0 183.277,-183.277 0,-183.277 		"/>
		<polygon fill="#F9A33F" points="183.277,0 0,0 0,-183.277 183.277,-183.277 		"/>
	</g>
</pattern>
<g>
	<path fill="url(#New_Pattern_Swatch_2)" d="M38.568,78.268c0-0.006,0.002-0.011,0.002-0.018h-0.001
		C38.569,78.25,38.568,78.277,38.568,78.268z"/>
	<path fill="url(#New_Pattern_Swatch_2)" d="M82.771,78.25c-0.012-1.059-0.749-2.088-1.782-2.492
		c-0.026-0.009-0.052-0.024-0.078-0.035c-0.054-0.019-0.106-0.024-0.161-0.04c0-0.002,0.001,0.004,0.002,0.002
		c-5.047-1.791-12.225-2.907-20.188-2.907c-7.786,0-14.818,1.072-19.846,2.794c0.003,0.005-0.004-0.005,0,0
		c-1.233,0.288-2.083,1.361-2.092,2.679l0,0v7.16v2.159v12.677h44.257V87.475V85.41L82.771,78.25L82.771,78.25z M79.184,77.633
		c-0.049,0.163-0.198,0.268-0.359,0.268c-0.035,0-0.071-0.005-0.107-0.016c-5.041-1.502-11.554-2.328-18.336-2.328
		c-6.506,0-12.816,0.769-17.769,2.164c-0.199,0.058-0.406-0.06-0.462-0.259s0.06-0.406,0.259-0.462
		c5.017-1.414,11.398-2.192,17.972-2.192c6.853,0,13.441,0.838,18.551,2.359C79.13,77.227,79.242,77.435,79.184,77.633z"/>
	<path fill="url(#New_Pattern_Swatch_2)" d="M125.085,2.915v122.17H2.915V2.915H125.085 M128,0H0v128h128V0L128,0z"/>
	<path fill="url(#New_Pattern_Swatch_2)" d="M103.379,47.774h-0.027c-1.63-2.02-4.802-3.433-8.402-3.433
		c-3.628,0-6.795,1.388-8.414,3.433h-0.027c-2.94,3.518-5.358,12.524-6.653,25.153c0.528,0.16,1.046,0.324,1.544,0.499
		c0.104,0.024,0.204,0.054,0.305,0.09l0.13,0.047l0.087,0.042c1.894,0.775,3.174,2.621,3.196,4.618l0.005,0.291h0.694
		c0.552,0,1.068,0.286,1.351,0.767c0.281,0.48,0.288,1.104,0.018,1.586c-0.299,0.531-0.816,0.828-1.54,0.828h-0.114
		c-0.117,0-0.238,0.017-0.358,0.044l0.058,3.634v6.707c0.221,0.098,0.567,0.104,0.924,0.154c0.505,0.072,0.707,0.562,0.742,0.661
		c0.002,0.006,0.008,0.012,0.01,0.018c0.012,0.044,0.029,0.089,0.037,0.134l0.019,0.029c0.078,0.511,0.142,1.05,0.157,1.604h23.939
		C111.057,70.83,107.809,53.074,103.379,47.774z M86.533,48.795c1.611-2.062,4.781-3.835,8.428-3.835c3.62,0,6.77,1.752,8.392,3.79
		L86.533,48.795z"/>
	<g>
		<path fill="url(#New_Pattern_Swatch_2)" d="M80.177,62.168l-4.065-11.092c-0.102-0.276,0.014-0.64,0.256-0.808
			c0,0,2.019-1.398,7.692-0.6C84.06,49.669,81.372,54.408,80.177,62.168z"/>
	</g>
	<path fill="url(#New_Pattern_Swatch_3)" d="M106.485,50.953c0.506,1.194,0.961,2.497,1.369,3.846
		c2.97,0.431,5.686,1.392,6.728,3.37c0.995,1.889,0.636,5.014-1.038,9.038c-0.691,1.66-1.561,3.367-2.493,5.023
		c0.176,1.663,0.331,3.377,0.465,5.138C118.929,66.526,127.616,50.982,106.485,50.953z"/>
	<path fill="#FFFFFF" d="M99.811,81.101c0,2.615-2.12,4.736-4.736,4.736c-2.615,0-4.736-2.121-4.736-4.736l1.285-19.318
		c0-1.905,1.545-3.451,3.451-3.451s3.452,1.546,3.452,3.451L99.811,81.101z"/>
	<path fill="url(#New_Pattern_Swatch_3)" d="M96.135,66.854H93.75c-0.293,0-0.53-0.237-0.53-0.53c0-0.292,0.237-0.53,0.53-0.53
		h2.385c0.292,0,0.53,0.238,0.53,0.53C96.665,66.617,96.427,66.854,96.135,66.854z"/>
	<path fill="url(#New_Pattern_Swatch_3)" d="M96.135,72.686H93.75c-0.293,0-0.53-0.237-0.53-0.53s0.237-0.53,0.53-0.53h2.385
		c0.292,0,0.53,0.237,0.53,0.53S96.427,72.686,96.135,72.686z"/>
	<path fill="url(#New_Pattern_Swatch_3)" d="M96.135,78.515H93.75c-0.293,0-0.53-0.237-0.53-0.529c0-0.293,0.237-0.53,0.53-0.53
		h2.385c0.292,0,0.53,0.237,0.53,0.53C96.665,78.277,96.427,78.515,96.135,78.515z"/>
	<g>
		<path fill="none" d="M27.298,40.241c0.126,0.334,0.262,0.666,0.41,0.992c2.578-2.325,5.988-3.743,9.724-3.743
			c2.848,0,5.503,0.826,7.748,2.247c0.361-0.166,0.72-0.335,1.063-0.519c-2.507-1.731-5.542-2.747-8.812-2.747
			C33.563,36.472,30.022,37.896,27.298,40.241z"/>
		<path fill="none" d="M41.978,42c3.333,1.517,5.783,4.646,6.344,8.388c1.188,0.112,2.418,0.36,3.613,0.741
			c-0.292-4.793-2.919-8.964-6.755-11.392c-0.676,0.311-1.356,0.622-1.938,1.059C42.739,41.172,42.323,41.574,41.978,42z"/>
		<path fill="none" d="M51.966,52.024c0,6.79-4.681,12.505-10.983,14.094c-0.1,0.361-0.172,0.724-0.196,1.091
			c6.969-1.538,12.199-7.76,12.199-15.185c0-0.177-0.008-0.352-0.014-0.527c-0.34-0.134-0.688-0.257-1.037-0.368
			C51.954,51.426,51.966,51.724,51.966,52.024z"/>
		<path fill="none" d="M23.066,49.812c0.849,0.732,1.601,1.645,2.544,2.24c0.275,0.174,0.55,0.321,0.822,0.449
			c-0.007-0.158-0.012-0.316-0.012-0.477c0-2.982,1.194-5.69,3.127-7.676c-0.703-0.951-1.333-2.006-1.84-3.115
			C25.275,43.427,23.585,46.429,23.066,49.812z"/>
		<path fill="none" d="M22.897,52.024c0-0.752,0.059-1.491,0.169-2.213c-0.29-0.25-0.592-0.477-0.917-0.665
			c-0.175,0.933-0.271,1.895-0.271,2.878c0,6.496,4.004,12.07,9.671,14.396c0.257-0.259,0.504-0.528,0.742-0.803
			C26.809,63.536,22.897,58.229,22.897,52.024z"/>
		<path fill="none" d="M48.423,36.761c-0.031,0.12-0.069,0.24-0.118,0.361c-0.413,1.03-1.186,1.624-2.062,2.097
			c3.934,2.713,6.558,7.189,6.729,12.278c1.161,0.456,2.265,1.042,3.237,1.758c0.026-0.406,0.044-0.816,0.044-1.23
			C56.253,45.747,53.162,40.182,48.423,36.761z"/>
		<path fill="none" d="M26.47,36.74c3.09-2.223,6.874-3.536,10.962-3.536c4.102,0,7.897,1.322,10.991,3.557
			c0.142-0.532,0.118-1.055-0.028-1.565c-3.155-2.063-6.92-3.266-10.963-3.266c-4.053,0-7.828,1.21-10.988,3.282
			C26.412,35.716,26.425,36.227,26.47,36.74z"/>
		<path fill="none" d="M41.063,68.868c-0.242-0.567-0.312-1.118-0.276-1.659c-1.08,0.239-2.202,0.369-3.354,0.369
			c-2.08,0-4.065-0.414-5.882-1.158c-0.865,0.876-1.827,1.653-2.853,2.269c2.612,1.375,5.583,2.158,8.734,2.158
			c1.661,0,3.271-0.219,4.806-0.625C41.728,69.911,41.32,69.471,41.063,68.868z"/>
		<path fill="none" d="M22.149,49.146c0.665-3.534,2.527-6.647,5.148-8.905c-0.433-1.146-0.725-2.329-0.828-3.501
			c-3.983,2.864-6.807,7.244-7.618,12.289c0.446-0.261,0.949-0.405,1.52-0.396C21.055,48.645,21.632,48.845,22.149,49.146z"/>
		<path fill="none" d="M32.432,52.741c-0.033-0.234-0.057-0.473-0.057-0.717c0-1.232,0.441-2.361,1.175-3.238
			c-0.917-0.924-1.666-1.798-1.995-2.198c-0.529-0.481-1.046-1.029-1.532-1.629c-1.756,1.84-2.838,4.328-2.838,7.065
			c0,0.267,0.014,0.529,0.034,0.789C28.969,53.382,30.676,53.131,32.432,52.741z"/>
		<path fill="none" d="M53.692,68.445c2.946-1.472,5.768-4.09,6.15-7.545c0.105-0.956,0.044-1.846-0.148-2.676
			c-1.097,3.935-3.21,7.448-6.039,10.239C53.668,68.458,53.682,68.452,53.692,68.445z"/>
		<path fill="none" d="M42.104,61.14c-0.134-1.859-1.021-3.332-2.08-4.779c-0.759,0.456-1.644,0.722-2.593,0.722
			c-0.133,0-0.263-0.01-0.393-0.02c-0.655,1.666-1.505,3.241-1.846,3.837c-0.132,0.336-0.279,0.675-0.443,1.013
			c0.855,0.233,1.754,0.359,2.682,0.359C39.114,62.271,40.702,61.861,42.104,61.14z"/>
		<path fill="none" d="M37.432,41.778c1.453,0,2.836,0.306,4.09,0.854c0.138-0.217,0.287-0.427,0.456-0.633
			c-1.388-0.633-2.926-0.986-4.546-0.986c-3.088,0-5.882,1.28-7.884,3.335c0.154,0.209,0.313,0.412,0.475,0.61
			C31.89,43.001,34.52,41.778,37.432,41.778z"/>
		<path fill="none" d="M47.679,52.024c0,3.968-2.268,7.413-5.574,9.115c0.021,0.273,0.024,0.557,0.01,0.849
			c3.736-1.764,6.329-5.565,6.329-9.964c0-0.556-0.042-1.103-0.122-1.637c-0.265-0.024-0.526-0.043-0.785-0.055
			C47.629,50.883,47.679,51.448,47.679,52.024z"/>
		<path fill="none" d="M34.393,62.605c0.126-0.23,0.245-0.461,0.357-0.693c-4.107-1.114-7.196-4.726-7.531-9.099
			c-0.261-0.084-0.522-0.189-0.786-0.313C26.639,57.309,29.941,61.325,34.393,62.605z"/>
		<path fill="none" d="M42.114,61.988c-1.422,0.671-3.009,1.048-4.683,1.048c-1.054,0-2.073-0.152-3.039-0.431
			c-0.568,1.039-1.279,2.066-2.101,3.012c1.599,0.606,3.331,0.941,5.14,0.941c1.225,0,2.413-0.154,3.551-0.44
			c0.313-1.14,0.896-2.259,1.063-3.427C42.081,62.45,42.104,62.217,42.114,61.988z"/>
		<path fill="none" d="M57.399,54.264c-0.366-0.361-0.767-0.696-1.19-1.009c-0.53,8.172-6.297,14.938-13.972,16.967
			c0.622,0.379,1.398,0.565,2.259,0.613C51.432,68.221,56.552,61.88,57.399,54.264z"/>
		<path fill="none" d="M48.395,35.195c5.494,3.591,9.134,9.791,9.134,16.829c0,0.758-0.046,1.504-0.129,2.239
			c1.115,1.097,1.938,2.42,2.295,3.961c0.551-1.975,0.847-4.053,0.847-6.2c0-11.587-8.574-21.21-19.712-22.857
			C43.615,30.357,47.645,32.598,48.395,35.195z"/>
		<path fill="none" d="M40.829,29.167c-0.68-0.292-1.288-0.521-1.754-0.677c-3.124-1.042-6.971-1.186-9.684,0.987
			c-0.563,0.452-1.034,0.945-1.426,1.468c2.891-1.303,6.095-2.029,9.466-2.029C38.586,28.916,39.721,29.002,40.829,29.167z"/>
		<path fill="none" d="M44.496,70.835c-2.199,0.828-4.578,1.285-7.064,1.285c-3.68,0-7.129-0.999-10.098-2.732
			c-1.378,0.59-2.837,0.863-4.314,0.686c3.954,3.164,8.967,5.06,14.412,5.06c0.336,0,0.669-0.011,1.001-0.024
			c0.158-0.098,0.334-0.184,0.533-0.252l1.938-0.664c2.219-0.76,4.75-1.373,7.49-1.831c1.937-1.048,3.707-2.363,5.261-3.897
			C51.855,69.356,47.627,71.01,44.496,70.835z"/>
		<path fill="none" d="M26.443,35.212c0.096-1.527,0.565-2.99,1.522-4.267c-8.035,3.623-13.642,11.709-13.642,21.079
			c0,2.64,0.445,5.176,1.264,7.541c-0.007-2.356,0.339-6.543,1.808-8.995C17.857,44.148,21.347,38.555,26.443,35.212z"/>
		<path fill="none" d="M64.827,52.024c0-15.104-12.289-27.395-27.396-27.395c-15.105,0-27.395,12.29-27.395,27.395
			c0,15.011,12.136,27.234,27.109,27.389v-1.802c0.006-0.194,0.035-0.552,0.155-0.952c-7.309-0.038-13.873-3.273-18.364-8.378
			c0.322,0.277,0.671,0.527,1.047,0.748c1.006,0.589,2.024,0.923,3.035,1.044c-3.381-2.705-5.987-6.337-7.432-10.508
			c0.001,0.285,0.006,0.546,0.016,0.771c0.078,1.789,0.483,3.68,1.315,5.318c-2.604-3.905-4.124-8.594-4.124-13.63
			c0-13.584,11.052-24.638,24.637-24.638c13.586,0,24.638,11.054,24.638,24.638c0,8.129-3.959,15.349-10.048,19.838
			c1.511-0.166,3.067-0.289,4.657-0.364C61.706,66.528,64.827,59.635,64.827,52.024z"/>
		<path fill="none" d="M18.611,52.024c0-1.02,0.084-2.02,0.24-2.995c-0.578,0.338-1.058,0.876-1.456,1.541
			c-0.035,0.48-0.058,0.965-0.058,1.454c0,7.401,4.023,13.876,9.996,17.363c0.465-0.199,0.92-0.434,1.363-0.699
			C22.706,65.535,18.611,59.25,18.611,52.024z"/>
		<path fill="url(#New_Pattern_Swatch_3)" d="M37.432,36.472c3.27,0,6.305,1.016,8.812,2.747c0.876-0.473,1.648-1.066,2.062-2.097
			c0.049-0.121,0.087-0.241,0.118-0.361c-3.094-2.234-6.89-3.557-10.991-3.557c-4.088,0-7.872,1.313-10.962,3.536
			c0.104,1.172,0.396,2.355,0.828,3.501C30.022,37.896,33.563,36.472,37.432,36.472z"/>
		<path fill="url(#New_Pattern_Swatch_3)" d="M37.432,31.93c4.043,0,7.808,1.203,10.963,3.266c-0.75-2.598-4.779-4.838-7.565-6.028
			c-1.108-0.165-2.243-0.251-3.397-0.251c-3.371,0-6.575,0.727-9.466,2.029c-0.957,1.276-1.427,2.739-1.522,4.267
			C29.604,33.14,33.379,31.93,37.432,31.93z"/>
		<path fill="url(#New_Pattern_Swatch_3)" d="M37.432,41.014c1.62,0,3.158,0.354,4.546,0.986c0.346-0.426,0.762-0.828,1.265-1.204
			c0.581-0.437,1.262-0.748,1.938-1.059c-2.245-1.421-4.9-2.247-7.748-2.247c-3.735,0-7.146,1.418-9.724,3.743
			c0.507,1.109,1.137,2.164,1.84,3.115C31.55,42.294,34.344,41.014,37.432,41.014z"/>
		<path fill="url(#New_Pattern_Swatch_3)" d="M31.555,46.588c0.329,0.4,1.078,1.274,1.995,2.198c0.928-1.11,2.321-1.818,3.882-1.818
			c0.96,0,1.855,0.272,2.62,0.737c0.246-1.819,0.508-3.563,1.47-5.072c-1.254-0.549-2.637-0.854-4.09-0.854
			c-2.912,0-5.542,1.223-7.409,3.181C30.509,45.559,31.025,46.106,31.555,46.588z"/>
		<path fill="url(#New_Pattern_Swatch_3)" d="M48.443,52.024c0,4.398-2.593,8.2-6.329,9.964c-0.011,0.229-0.033,0.462-0.068,0.703
			c-0.168,1.168-0.75,2.287-1.063,3.427c6.303-1.589,10.983-7.304,10.983-14.094c0-0.301-0.012-0.599-0.031-0.896
			c-1.195-0.381-2.425-0.629-3.613-0.741C48.401,50.922,48.443,51.469,48.443,52.024z"/>
		<path fill="url(#New_Pattern_Swatch_3)" d="M46.214,50.331c-0.658-0.065-2.344-0.19-4.067-0.125
			c0.219,0.565,0.343,1.177,0.343,1.818c0,1.844-0.99,3.453-2.465,4.336c1.059,1.447,1.946,2.92,2.08,4.779
			c3.307-1.702,5.574-5.147,5.574-9.115c0-0.576-0.05-1.142-0.143-1.691C47.086,50.313,46.643,50.311,46.214,50.331z"/>
		<path fill="url(#New_Pattern_Swatch_3)" d="M52.985,52.024c0,7.425-5.23,13.646-12.199,15.185
			c-0.035,0.541,0.034,1.092,0.276,1.659c0.258,0.603,0.665,1.043,1.175,1.354c7.675-2.029,13.441-8.795,13.972-16.967
			c-0.973-0.716-2.076-1.302-3.237-1.758C52.978,51.673,52.985,51.848,52.985,52.024z"/>
		<path fill="url(#New_Pattern_Swatch_3)" d="M44.496,70.835c3.131,0.175,7.359-1.479,9.159-2.371
			c2.829-2.791,4.942-6.305,6.039-10.239c-0.357-1.541-1.18-2.864-2.295-3.961C56.552,61.88,51.432,68.221,44.496,70.835z"/>
		<path fill="url(#New_Pattern_Swatch_3)" d="M27.334,69.388c-5.973-3.487-9.996-9.962-9.996-17.363
			c0-0.489,0.022-0.974,0.058-1.454c-1.469,2.452-1.814,6.639-1.808,8.995c1.444,4.171,4.051,7.803,7.432,10.508
			C24.497,70.251,25.956,69.978,27.334,69.388z"/>
		<path fill="url(#New_Pattern_Swatch_3)" d="M26.433,52.501c-0.272-0.128-0.547-0.275-0.822-0.449
			c-0.943-0.596-1.695-1.508-2.544-2.24c-0.11,0.722-0.169,1.461-0.169,2.213c0,6.205,3.911,11.512,9.395,13.593
			c0.821-0.945,1.532-1.973,2.101-3.012C29.941,61.325,26.639,57.309,26.433,52.501z"/>
		<path fill="url(#New_Pattern_Swatch_3)" d="M37.039,57.063c-2.369-0.183-4.276-1.996-4.607-4.321
			c-1.756,0.39-3.463,0.641-5.213,0.072c0.335,4.373,3.424,7.984,7.531,9.099c0.164-0.338,0.312-0.677,0.443-1.013
			C35.534,60.304,36.384,58.729,37.039,57.063z"/>
		<path fill="url(#New_Pattern_Swatch_3)" d="M21.879,52.024c0-0.983,0.096-1.945,0.271-2.878c-0.518-0.302-1.095-0.502-1.778-0.514
			c-0.57-0.009-1.073,0.136-1.52,0.396c-0.156,0.976-0.24,1.976-0.24,2.995c0,7.226,4.095,13.511,10.086,16.664
			c1.025-0.615,1.987-1.393,2.853-2.269C25.883,64.095,21.879,58.521,21.879,52.024z"/>
		<path fill="url(#New_Pattern_Swatch_2)" d="M10.037,52.024c0-15.104,12.289-27.395,27.395-27.395
			c15.106,0,27.396,12.29,27.396,27.395c0,7.61-3.121,14.504-8.148,19.474c0.836-0.04,1.681-0.068,2.533-0.082
			c4.599-5.159,7.4-11.953,7.4-19.392c0-16.089-13.091-29.179-29.181-29.179c-16.089,0-29.179,13.09-29.179,29.179
			c0,15.995,12.936,29.018,28.894,29.172v-1.783C22.173,79.259,10.037,67.035,10.037,52.024z"/>
		<path fill="url(#New_Pattern_Swatch_2)" d="M23.02,70.073c-1.011-0.121-2.029-0.455-3.035-1.044
			c-0.376-0.221-0.725-0.471-1.047-0.748c4.491,5.104,11.056,8.34,18.364,8.378c0.16-0.537,0.484-1.15,1.131-1.551
			c-0.332,0.014-0.665,0.024-1.001,0.024C31.986,75.133,26.974,73.237,23.02,70.073z"/>
		<path fill="url(#New_Pattern_Swatch_2)" d="M62.069,52.024c0-13.584-11.052-24.638-24.638-24.638
			c-13.585,0-24.637,11.054-24.637,24.638c0,5.036,1.521,9.725,4.124,13.63c-0.832-1.639-1.237-3.529-1.315-5.318
			c-0.01-0.225-0.015-0.485-0.016-0.771c-0.818-2.365-1.264-4.901-1.264-7.541c0-9.37,5.606-17.456,13.642-21.079
			c0.392-0.522,0.862-1.016,1.426-1.468c2.713-2.173,6.56-2.029,9.684-0.987c0.466,0.156,1.074,0.385,1.754,0.677
			c11.138,1.647,19.712,11.271,19.712,22.857c0,2.147-0.296,4.226-0.847,6.2c0.192,0.83,0.254,1.72,0.148,2.676
			c-0.383,3.455-3.204,6.073-6.15,7.545c-0.011,0.007-0.024,0.013-0.037,0.019c-1.554,1.534-3.324,2.85-5.261,3.897
			c1.173-0.195,2.384-0.361,3.627-0.499C58.11,67.373,62.069,60.153,62.069,52.024z"/>
		<path fill="url(#New_Pattern_Swatch_2)" d="M37.432,70.847c-3.151,0-6.122-0.783-8.734-2.158c-0.443,0.266-0.898,0.5-1.363,0.699
			c2.969,1.733,6.418,2.732,10.098,2.732c2.486,0,4.865-0.457,7.064-1.285c-0.86-0.048-1.637-0.234-2.259-0.613
			C40.703,70.628,39.093,70.847,37.432,70.847z"/>
		<path fill="url(#New_Pattern_Swatch_2)" d="M48.423,36.761c4.739,3.421,7.83,8.986,7.83,15.264c0,0.414-0.018,0.824-0.044,1.23
			c0.424,0.313,0.824,0.647,1.19,1.009c0.083-0.735,0.129-1.481,0.129-2.239c0-7.038-3.64-13.238-9.134-16.829
			C48.541,35.706,48.564,36.229,48.423,36.761z"/>
		<path fill="url(#New_Pattern_Swatch_2)" d="M18.852,49.029c0.812-5.045,3.635-9.425,7.618-12.289
			c-0.045-0.514-0.058-1.024-0.026-1.528c-5.097,3.343-8.586,8.937-9.048,15.358C17.794,49.905,18.273,49.367,18.852,49.029z"/>
		<path fill="url(#New_Pattern_Swatch_2)" d="M27.708,41.233c-0.148-0.326-0.284-0.658-0.41-0.992
			c-2.621,2.258-4.483,5.371-5.148,8.905c0.325,0.188,0.627,0.415,0.917,0.665C23.585,46.429,25.275,43.427,27.708,41.233z"/>
		<path fill="url(#New_Pattern_Swatch_2)" d="M37.432,66.559c-1.809,0-3.541-0.335-5.14-0.941c-0.238,0.274-0.485,0.544-0.742,0.803
			c1.816,0.744,3.802,1.158,5.882,1.158c1.152,0,2.274-0.13,3.354-0.369c0.024-0.367,0.097-0.729,0.196-1.091
			C39.845,66.404,38.656,66.559,37.432,66.559z"/>
		<path fill="url(#New_Pattern_Swatch_2)" d="M51.935,51.129c0.35,0.111,0.697,0.234,1.037,0.368
			c-0.171-5.089-2.795-9.565-6.729-12.278c-0.344,0.184-0.702,0.353-1.063,0.519C49.016,42.165,51.643,46.336,51.935,51.129z"/>
		<path fill="url(#New_Pattern_Swatch_2)" d="M42.104,61.14c-1.402,0.722-2.99,1.132-4.673,1.132c-0.928,0-1.826-0.126-2.682-0.359
			c-0.112,0.232-0.231,0.463-0.357,0.693c0.966,0.278,1.985,0.431,3.039,0.431c1.674,0,3.261-0.377,4.683-1.048
			C42.129,61.696,42.125,61.413,42.104,61.14z"/>
		<path fill="url(#New_Pattern_Swatch_2)" d="M27.185,52.024c0-2.737,1.082-5.226,2.838-7.065c-0.162-0.198-0.32-0.401-0.475-0.61
			c-1.933,1.985-3.127,4.693-3.127,7.676c0,0.16,0.005,0.318,0.012,0.477c0.264,0.123,0.525,0.229,0.786,0.313
			C27.198,52.554,27.185,52.291,27.185,52.024z"/>
		<path fill="url(#New_Pattern_Swatch_2)" d="M47.536,50.333c0.259,0.012,0.521,0.03,0.785,0.055
			c-0.561-3.741-3.011-6.871-6.344-8.388c-0.169,0.206-0.318,0.416-0.456,0.633C44.645,43.997,46.959,46.874,47.536,50.333z"/>
		<path fill="url(#New_Pattern_Swatch_2)" d="M16.102,94.945c-0.22,0-0.397-0.178-0.397-0.397c0-0.219,0.178-0.397,0.397-0.397
			h21.045V82.684c-1.769-0.017-3.505-0.179-5.189-0.482c-0.026,1.534-0.035,3.092-0.038,4.669
			c-10.764,0.982-18.733,4.538-18.733,8.774v2.746h23.96l0.001-3.445H16.102z"/>
	</g>
	<g>
		<path fill="url(#New_Pattern_Swatch_3)" d="M38.362,101.307v1.46c0,0.592,0.596,1.189,1.188,1.189h42.242
			c0.591,0,1.092-0.598,1.092-1.189v-1.46H38.362z"/>
		<path fill="url(#New_Pattern_Swatch_3)" d="M44.041,103.691c0,0.795-1.038,1.463-2.319,1.463s-2.318-0.668-2.318-1.463H44.041z"/>
		<path fill="url(#New_Pattern_Swatch_3)" d="M81.959,103.691c0,0.795-1.039,1.463-2.319,1.463c-1.281,0-2.318-0.668-2.318-1.463
			H81.959z"/>
	</g>
	<path fill="url(#New_Pattern_Swatch_3)" d="M85.815,79.575c-0.519,0-1.036,0-1.556,0c-0.231,0-0.463,0-0.693,0
		c-0.041,0-0.152,0.008-0.152,0.047c0,0.108,0,0.217,0,0.327c0,0.55,0,1.101,0,1.65c0.53-0.646,1.264-1.041,2.052-1.041
		c0.267,0,0.598,0.03,0.754-0.248C86.403,79.984,86.189,79.575,85.815,79.575z"/>
	<path fill="url(#New_Pattern_Swatch_3)" d="M86.064,94.955c0,0,0-0.002,0-0.003c0-0.614-0.077-1.194-0.157-1.712
		c-0.027-0.151-0.179-0.3-0.334-0.31c0,0-0.038,0-0.038-0.001c-0.572-0.022-1.061-0.137-1.591-0.32v-0.365
		c0-0.128-0.126-0.231-0.266-0.231c-0.139,0-0.265,0.104-0.265,0.231v5.423c0,0.129,0.126,0.231,0.265,0.231
		c0.14,0,0.266-0.103,0.266-0.231v-0.365c0.53-0.183,1.012-0.298,1.586-0.32c-0.001-0.002,0.013-0.003,0.012-0.005
		c0.158-0.009,0.335-0.162,0.359-0.315l0,0c0.079-0.515,0.163-1.091,0.163-1.7C86.064,94.958,86.064,94.956,86.064,94.955z"/>
	<path fill="none" stroke="#FFFFFF" stroke-width="0.7492" stroke-linecap="round" stroke-miterlimit="10" d="M40.546,77.99"/>
	<path fill="none" stroke="#FFFFFF" stroke-width="0.7492" stroke-linecap="round" stroke-miterlimit="10" d="M80.565,78.098"/>
	<g>
		<path fill="url(#New_Pattern_Swatch_2)" d="M82.354,97.667v-1.926h-3.444v2.649h3.681C82.442,98.184,82.354,97.935,82.354,97.667z
			"/>
		<path fill="url(#New_Pattern_Swatch_2)" d="M87.09,95.741c-0.029,0.372-0.074,0.735-0.128,1.083l-0.028,0.012
			c-0.011,0.066-0.028,0.132-0.048,0.195c-0.048,0.127-0.253,0.578-0.735,0.646c-0.562,0.081-1.101,0.046-1.159,0.444
			c-0.036,0.097-0.089,0.185-0.148,0.269h26.133v-2.649H87.09z"/>
	</g>
	<circle fill="url(#New_Pattern_Swatch_2)" cx="37.429" cy="52.006" r="2.49"/>
</g>
</svg>
