<?xml version="1.0" encoding="utf-8"?>
<!-- Generator: Adobe Illustrator 16.0.0, SVG Export Plug-In . SVG Version: 6.00 Build 0)  -->
<!DOCTYPE svg PUBLIC "-//W3C//DTD SVG 1.1//EN" "http://www.w3.org/Graphics/SVG/1.1/DTD/svg11.dtd">
<svg version="1.1" id="Layer_1" xmlns="http://www.w3.org/2000/svg" xmlns:xlink="http://www.w3.org/1999/xlink" x="0px" y="0px"
	 width="128px" height="128px" viewBox="0 0 128 128" enable-background="new 0 0 128 128" xml:space="preserve">
<pattern  x="-72.5" y="-365.5" width="183.277" height="183.277" patternUnits="userSpaceOnUse" id="New_Pattern_Swatch_2" viewBox="0 -183.277 183.277 183.277" overflow="visible">
	<g>
		<polygon fill="none" points="0,0 183.277,0 183.277,-183.277 0,-183.277 		"/>
		<polygon fill="#0394A6" points="183.277,0 0,0 0,-183.277 183.277,-183.277 		"/>
	</g>
</pattern>
<pattern  x="-72.5" y="-365.5" width="183.277" height="183.277" patternUnits="userSpaceOnUse" id="New_Pattern_Swatch_3" viewBox="0 -183.277 183.277 183.277" overflow="visible">
	<g>
		<polygon fill="none" points="0,0 183.277,0 183.277,-183.277 0,-183.277 		"/>
		<polygon fill="#F9A33F" points="183.277,0 0,0 0,-183.277 183.277,-183.277 		"/>
	</g>
</pattern>
<g>
	<path fill="url(#New_Pattern_Swatch_2)" d="M125.085,2.915v122.17H2.915V2.915H125.085 M128,0H0v128h128V0L128,0z"/>
	<path fill="#058FA1" d="M28.233,28.233v40.671h71.533V28.233H28.233z M95.221,66.99H32.779V30.147h62.442V66.99z"/>
	<path fill="#058FA1" d="M28.233,84.693v15.073h71.533V84.693H28.233z M61.967,97.374H31.104V87.087h30.862V97.374z M97.374,97.374
		H66.273V87.087h31.101V97.374z"/>
	<path fill="url(#New_Pattern_Swatch_3)" d="M33.257,91.633v4.306h26.795v-4.306H33.257z M55.064,94.9
		c-0.501,0-0.908-0.415-0.908-0.927s0.407-0.926,0.908-0.926c0.502,0,0.909,0.414,0.909,0.926S55.567,94.9,55.064,94.9z
		 M58.405,94.542c-0.307,0-0.557-0.255-0.557-0.568s0.25-0.568,0.557-0.568c0.308,0,0.557,0.255,0.557,0.568
		S58.713,94.542,58.405,94.542z"/>
	<path fill="url(#New_Pattern_Swatch_3)" d="M67.229,89.719v6.22h29.188v-6.22H67.229z M75.603,90.676h11.962v2.152H75.603V90.676z
		 M94.981,94.503H69.144v-0.479h25.838V94.503z M94.46,92.319c-0.307,0-0.557-0.254-0.557-0.567c0-0.314,0.25-0.568,0.557-0.568
		c0.308,0,0.557,0.254,0.557,0.568C95.017,92.065,94.768,92.319,94.46,92.319z"/>
	<circle fill="url(#New_Pattern_Swatch_3)" cx="17.387" cy="59.101" r="1.791"/>
	<g>
		<path fill="#058FA1" d="M9.333,42.588v57.179h16.268V42.588H9.333z M17.387,81.502c-3.488,0-6.326-2.839-6.326-6.327
			s2.838-6.326,6.326-6.326c3.489,0,6.327,2.838,6.327,6.326S20.876,81.502,17.387,81.502z M17.387,65.428
			c-3.488,0-6.326-2.838-6.326-6.327c0-3.488,2.838-6.326,6.326-6.326c3.489,0,6.327,2.838,6.327,6.326
			C23.714,62.59,20.876,65.428,17.387,65.428z"/>
		<path fill="#058FA1" d="M17.387,53.067c-3.327,0-6.033,2.707-6.033,6.033c0,3.327,2.707,6.034,6.033,6.034
			c3.327,0,6.034-2.707,6.034-6.034C23.421,55.774,20.714,53.067,17.387,53.067z M17.387,63.741c-2.562,0-4.641-2.077-4.641-4.641
			c0-2.563,2.079-4.64,4.641-4.64c2.563,0,4.64,2.077,4.64,4.64C22.027,61.664,19.95,63.741,17.387,63.741z"/>
		<path fill="#058FA1" d="M17.387,69.142c-3.327,0-6.033,2.706-6.033,6.033s2.707,6.034,6.033,6.034
			c3.327,0,6.034-2.707,6.034-6.034S20.714,69.142,17.387,69.142z M17.387,79.815c-2.562,0-4.641-2.077-4.641-4.641
			c0-2.563,2.079-4.64,4.641-4.64c2.563,0,4.64,2.077,4.64,4.64C22.027,77.738,19.95,79.815,17.387,79.815z"/>
	</g>
	<circle fill="url(#New_Pattern_Swatch_3)" cx="17.387" cy="75.175" r="1.791"/>
	<path fill="#058FA1" d="M110.423,53.067c-3.327,0-6.034,2.707-6.034,6.033c0,3.327,2.707,6.034,6.034,6.034
		s6.033-2.707,6.033-6.034C116.457,55.774,113.75,53.067,110.423,53.067z M110.423,63.741c-2.563,0-4.64-2.077-4.64-4.641
		c0-2.563,2.078-4.64,4.64-4.64s4.64,2.077,4.64,4.64C115.063,61.664,112.986,63.741,110.423,63.741z"/>
	<circle fill="url(#New_Pattern_Swatch_3)" cx="110.423" cy="59.101" r="1.79"/>
	<g>
		<path fill="#058FA1" d="M110.423,69.142c-3.327,0-6.034,2.706-6.034,6.033s2.707,6.034,6.034,6.034s6.033-2.707,6.033-6.034
			S113.75,69.142,110.423,69.142z M110.423,79.815c-2.563,0-4.64-2.077-4.64-4.641c0-2.563,2.078-4.64,4.64-4.64
			s4.64,2.077,4.64,4.64C115.063,77.738,112.986,79.815,110.423,79.815z"/>
		<path fill="#058FA1" d="M102.398,42.588v57.179h16.269V42.588H102.398z M110.423,81.502c-3.488,0-6.327-2.839-6.327-6.327
			s2.839-6.326,6.327-6.326s6.326,2.838,6.326,6.326S113.912,81.502,110.423,81.502z M110.423,65.428
			c-3.488,0-6.327-2.838-6.327-6.327c0-3.488,2.839-6.326,6.327-6.326s6.326,2.838,6.326,6.326
			C116.75,62.59,113.912,65.428,110.423,65.428z"/>
	</g>
	<circle fill="url(#New_Pattern_Swatch_3)" cx="110.423" cy="75.175" r="1.79"/>
</g>
</svg>
