<?xml version="1.0" encoding="utf-8"?>
<!-- Generator: Adobe Illustrator 16.0.0, SVG Export Plug-In . SVG Version: 6.00 Build 0)  -->
<!DOCTYPE svg PUBLIC "-//W3C//DTD SVG 1.1//EN" "http://www.w3.org/Graphics/SVG/1.1/DTD/svg11.dtd">
<svg version="1.1" id="Layer_1" xmlns="http://www.w3.org/2000/svg" xmlns:xlink="http://www.w3.org/1999/xlink" x="0px" y="0px"
	 width="1020.608px" height="718.293px" viewBox="0 0 1020.608 718.293" enable-background="new 0 0 1020.608 718.293"
	 xml:space="preserve">
<polygon points="916.332,315.157 916.163,315.387 890.837,349.62 865.307,383.703 862.78,387.052 891.159,367.534 924.17,318.124 
	"/>
<polygon points="920.845,294.043 931.518,291.944 939.71,280.949 933.418,278.67 "/>
<polygon points="949.221,327.602 925.2,318.513 892.69,366.482 "/>
<polygon points="946.268,285.048 946.257,283.959 946.852,284.174 946.852,284.174 946.257,283.958 946.25,283.316 944.055,282.521 
	941.063,281.478 933.285,292.069 939.943,294.516 "/>
<polygon points="932.007,278.271 925.424,275.974 907.156,296.735 919.033,294.399 "/>
<path d="M948.733,284.793l11.814,4.283l0.102,11.415l0.02,0.007l0.02,2.214l0.117,0.043v2.73h-0.092l0.035,4.113l-0.188,0.449
	l-0.592,0.448l-0.967,0.404l-1.301,0.328l-1.545,0.245l-1.705,0.131l-1.762,0.017l-1.719-0.088l-1.557-0.203l-1.346-0.304
	l-1.012-0.375l-0.648-0.446c0,0-0.229-0.461-0.229-0.49l-0.045-4.229h-0.047v-4.561v-0.032l-0.061-5.766l0.006,0.003l0.341,0.125
	l-0.082-7.865l-5.132,7.573l1.559,0.573l0.148,14.207c0.006,0.799,0.273,1.332,0.582,1.947l0.381,0.759l0.699,0.482l0.648,0.447
	l0.342,0.233l0.385,0.143l1.01,0.376l0.209,0.078l0.217,0.048l1.346,0.304l0.148,0.032l0.152,0.021l1.557,0.202l0.129,0.016
	l0.129,0.008l1.719,0.088l0.102,0.007l0.1-0.002l1.764-0.017l0.109-0.002l0.111-0.008l1.705-0.131l0.131-0.01l0.131-0.021
	l1.547-0.244l0.148-0.024l0.145-0.037l1.301-0.329l0.24-0.06l0.23-0.097l0.967-0.405l0.381-0.161l0.332-0.25l0.592-0.447
	l0.719-0.541l0.344-0.831l0.188-0.451l0.26-0.625l-0.006-0.675l-0.051-5.636l12.982,4.767l13.027-8.958L948.733,284.793z"/>
<polygon points="975.739,338.22 975.739,338.214 975.728,338.216 "/>
<polygon points="948.154,284.645 948.154,284.645 948.565,284.793 "/>
<g>
	<polygon fill="#0390A2" points="571.487,278.154 622.731,490.152 693.842,526.125 642.657,307.997 	"/>
</g>
<g>
	<path d="M1017.778,323.676L976.991,308.7l-28.133,19.35l26.852,10.16v0.011l0.019-0.004l0.011-0.002l42.039-8.643l-0.029-5.89
		L1017.778,323.676z"/>
</g>
<path d="M1019.944,150.829l-135.545-41.157l-18.197-4.237l0.286,18.788l-1.903-0.583L58.974,0L0,437.242l380.854,281.052
	l272.502-187.213c2.966,1.644,6.146,3.546,9.461,5.532c13.158,7.881,28.021,16.784,41.405,16.784c0.396,0,0.791-0.008,1.185-0.023
	c14.828-0.596,30.5-5.037,45.657-9.331c7.036-1.994,13.682-3.877,20.178-5.374c10.707-2.467,32.988-7.601,32.063-24.767
	l-1.418-26.337l-0.009-0.11c-1.62-15.239-5.568-34.552-9.053-51.59c-0.042-0.207-0.084-0.41-0.126-0.617l1.388-0.953
	c11.523,21.434,32.835,60.538,40.91,71.844c4.293,6.009,10.084,9.186,16.748,9.186c9.047,0,16.68-5.894,17.002-6.144l2.357-1.846
	l-1.076-2.794l-12.06-31.357l-35.911-86.851c-0.373-0.677-4.334-7.254-15.407-4.068l-0.003-0.012l-10.287,2.575l-27.398,6.859
	l-0.6,0.149c-15.659,3.896-31.324,7.766-46.996,11.616c-20.648,5.076-26.271-12.721-30.361-28.927
	c-1.158-4.59-15.074-51.317-9.615-52.523c1.549-0.342,3.291,3.38,4.999,8.854c1.727,7.607,4.1,17.905,6.481,27.758
	c0.978,4.986,1.677,8.784,1.945,9.877c3.714,15.079,6.262,33.395,25.15,29.941c2.662-0.088,4.508-0.543,4.615-0.57
	c3.061-0.752,75.074-18.447,80.08-19.999c0.248-0.077,0.482-0.17,0.723-0.257c0.02,0.039,0.041,0.079,0.063,0.118
	c12.202-3.463,18.967,2.777,20.845,6.57l0.065,0.145l8.905,21.537l24.83-17.077l4.272-5.894l25.116-34.389l25.206-34.082
	l-8.097-3.063l-65.437,80.012l-0.133-0.107l64.579-80.279l-8.354-3.161l-16.965,19.111l-11.475,12.757l-11.495,12.738
	l-11.541,12.698l-11.61,12.637l-0.127-0.113l11.168-13.029l11.236-12.968l11.282-12.928l11.304-12.909l16.532-18.634l-4.383-1.658
	l-0.072-5.747l13.384-2.632l19.647-21.951l-6.775-2.453l-95.474,97.567l-0.123-0.119l94.011-97.748l-7.173-2.501l-21.825,20.78
	l-22.235,20.964l-11.193,10.403l-11.213,10.381l-11.255,10.337l-11.316,10.271l-0.117-0.124l10.914-10.699l10.976-10.632
	l11.018-10.589l11.037-10.567l22.225-20.976l21.78-20.355l-7.438-2.693l-0.057,0.049l-92.161,78.728l-0.111-0.129l90.508-78.855
	l-7.98-2.781l-25.807,20.527l-13.095,10.333l-13.106,10.318c-8.787,6.817-17.538,13.68-26.354,20.459l-13.223,10.171l-13.278,10.101
	l-0.105-0.134l12.917-10.56l12.972-10.488c8.647-6.994,17.359-13.905,26.036-20.861l13.088-10.342l13.101-10.327l25.767-20.152
	l-8.342-3.021l-0.295,0.21l-100.256,71.392l-0.1-0.139l98.523-71.588l-7.636-2.661l-0.479-0.167l0.009-0.512l0.004-0.239
	l-0.217-0.078l-25.488,16.837l-13.45,8.809l-13.463,8.792c-9.017,5.796-18.002,11.642-27.046,17.397l-13.563,8.637l-13.612,8.563
	l-0.094-0.143l13.294-9.049l13.343-8.975c8.893-5.986,17.846-11.881,26.766-17.826l13.443-8.82l13.455-8.802l24.994-16.21
	l-0.139-9.078l-131.55,77.351l-0.088-0.146l131.614-78.703l-0.131-8.603l-30.844,16.672l-34.323,18.38l-34.446,18.151l-17.26,9.009
	l-17.304,8.925l-0.08-0.15l17.021-9.454l17.065-9.37l34.203-18.606l34.326-18.376l31.617-16.769l-0.125-8.192l-137.179,65.203
	l-0.074-0.154l137.23-66.484l-0.119-7.834l-32.993,14.231l-37.073,15.826l-37.176,15.587l-18.618,7.724l-18.655,7.637l-0.066-0.157
	l18.419-8.188l18.457-8.101l36.974-16.062l37.076-15.823l33.633-14.204l-0.115-7.533l-155.247,57.731l-0.061-0.16l155.286-58.959
	l-0.11-7.261l-39.141,12.981l-43.773,14.357l-43.854,14.111l-21.951,6.984l-21.98,6.893l-0.053-0.162l21.793-7.463l21.823-7.373
	l43.694-14.601l43.774-14.354l39.645-12.856l-0.108-7.068l-163.264,44.761l-0.045-0.164l163.288-45.949l-0.105-6.877l-36.242,8.496
	l-41.384,9.545l-41.442,9.293l-20.738,4.573l-20.76,4.48l-0.039-0.166l20.625-5.064l20.646-4.972l41.327-9.795l41.385-9.543
	l36.601-8.302l-0.104-6.736l-164.482,29.75l-0.031-0.168l164.494-30.907l-0.102-6.624l-39.706,5.645l-45.333,6.292l-45.369,6.035
	l-22.694,2.943l-22.708,2.849l-0.023-0.169l22.626-3.442l22.639-3.348l45.298-6.546l45.333-6.289l39.917-5.403l-0.101-6.54
	l-202.013,18.319l-0.016-0.17l202.009-19.466l-0.1-6.491l-46.192,2.382l-52.289,2.544l-52.302,2.287l-26.154,1.068l-26.159,0.974
	l-0.008-0.171l26.13-1.57l26.135-1.476l52.276-2.801l52.289-2.543l46.253-2.116l-0.099-6.488l-203.426,0.397v-0.171l203.405-1.539
	l-0.099-6.455l-45.837-1.727l-52.398-2.125l-52.388-2.383l-26.191-1.267l-26.188-1.361l0.008-0.171l26.211,0.765l26.207,0.858
	l52.409,1.868l52.398,2.125l45.747,1.988l-0.018-1.129l-0.371-0.033l-0.09-5.779c-0.555-0.034-1.134-0.07-1.746-0.108
	c-2.859-0.167-6.329-0.399-10.308-0.683c-3.979-0.282-8.468-0.601-13.365-0.949c-4.895-0.373-10.197-0.776-15.806-1.204
	c-5.609-0.415-11.518-0.938-17.634-1.432c-12.223-1.107-25.26-2.288-38.296-3.469c-52.146-4.741-104.292-9.483-104.292-9.483
	l0.014-0.17c0,0,52.197,4.146,104.394,8.292c13.049,1.041,26.098,2.082,38.331,3.058c6.111,0.547,12.023,1.03,17.622,1.57
	c5.601,0.528,10.896,1.026,15.782,1.487c4.886,0.486,9.363,0.931,13.333,1.325c3.969,0.394,7.428,0.752,10.274,1.07
	c0.592,0.064,1.15,0.125,1.688,0.184l-0.021-1.403l6.726,1.304l0.002,0l2.595,0.503l-0.084-6.225l125.168,38.622l0.781,133.368
	l-8.543,5.603l-3.117,2.145l19.123,6.924l11.467-10.197L1019.944,150.829z M680.594,374.361c2.135,9.219,4.949,50.531,18.277,52.724
	c3.602,0.604,7.438,0.545,11.422,0.065c1.53,0.084,3.111,0.116,4.582,0.042l0.764-0.038c4.629-0.229,6.188-0.307,13.484-2.22
	c7.307-1.916,36.785-8.987,37.082-9.059c0.086-0.021,0.179-0.035,0.268-0.054c0.585,0.063,1.16,0.152,1.735,0.246
	c6.159-0.487,16.628,0.9,19.296,15.175c0.082,0.281,0.163,0.566,0.244,0.861c0.308,1.509,0.62,3.041,0.94,4.606
	c3.46,16.925,7.382,36.106,8.985,51.137l1.415,26.281c0.733,13.621-18.476,18.047-28.795,20.425
	c-6.598,1.52-13.293,3.417-20.381,5.425c-14.92,4.228-30.348,8.6-44.676,9.175c-12.448,0.495-27.209-8.353-40.25-16.164
	c-2.687-1.609-5.272-3.149-7.759-4.567l0.545-0.375c-10.018-5.104-20.035-10.207-30.055-15.312
	c-7.752-3.946-14.207-8.384-16.455-17.674c-0.994-4.114-1.99-8.228-2.984-12.341c-4.891-20.223-9.781-40.444-14.674-60.666
	c-11.154-46.124-22.311-92.247-33.469-138.372c-0.941-3.902-1.887-7.805-2.83-11.707c-3.35-13.85,10.344-24.263,22.912-19.152
	c0.977,0.396,1.953,0.793,2.93,1.19l40.488,19.078c-0.119,0.152-0.248,0.286-0.361,0.449c14.271,7.485,37.197,14.073,41.26,31.583
	C669.887,328.202,675.241,351.282,680.594,374.361z M763.024,332.085l0.02,0.041c0.336,0,0.678,0,1.016,0.031
	c0.643,0.06,1.277,0.215,1.898,0.418c0.605,0.189,1.209,0.434,1.779,0.725c0.559,0.287,1.104,0.634,1.609,1.008
	c0.5,0.392,0.957,0.81,1.385,1.257c0.42,0.451,0.803,0.923,1.148,1.445c0.34,0.506,0.635,1.038,0.896,1.604
	c0.258,0.578,0.475,1.168,0.641,1.775c0.182,0.65,0.303,1.316,0.371,1.978c0.063,0.636,0.072,1.274,0.033,1.907
	c-0.033,0.578-0.107,1.154-0.223,1.72c-0.113,0.548-0.266,1.068-0.457,1.603c-0.18,0.506-0.396,1.025-0.67,1.488
	c-0.123,0.216-0.262,0.435-0.404,0.649l-36.889,1.53l-3.762-20.16L763.024,332.085z M697.692,265.089
	c1.088,0.823,2.172,1.673,3.246,2.568c1.025,0.869,2.051,1.763,3.068,2.686c0.99,0.928,1.969,1.881,2.947,2.89
	c0.838,0.852,1.668,1.75,2.49,2.686c0.75,0.839,1.504,1.732,2.238,2.631c0.738,0.924,1.459,1.876,2.168,2.859
	c0.455,0.633,0.893,1.27,1.334,1.936c0.412,0.604,0.807,1.212,1.205,1.847c0.443,0.692,0.877,1.442,1.285,2.193
	c0.428,0.78,0.832,1.59,1.193,2.399c0.389,0.881,0.738,1.762,1.049,2.656c0.189,0.548,0.369,1.096,0.514,1.674
	c0.078,0.292,0.148,0.608,0.219,0.899l0.045,0.13l11.547,60.551l-0.127-0.81l67.912-2.02v0.042c0.369-0.016,0.676-0.042,1.037-0.029
	c0.662,0.013,1.268,0.143,1.918,0.304c0.635,0.161,1.258,0.375,1.861,0.636c0.607,0.274,1.186,0.591,1.732,0.954
	c0.549,0.375,1.055,0.779,1.531,1.226c0.479,0.46,0.926,0.955,1.316,1.488c0.389,0.533,0.736,1.098,1.039,1.688
	c0.305,0.607,0.563,1.227,0.75,1.879c0.217,0.676,0.375,1.384,0.449,2.092c0.072,0.68,0.072,1.371,0.072,2.051l-0.109,0.359
	c-1.424,2.396-4.213,6.065-8.486,7.391c-1.478,0.458-9.369,2.462-19.652,5.035c-24.5-14.346-64.441,5.93-75.191-27.324
	c-5.369-16.615-5.535-37.507-16.783-51.656c-3.514-4.417-7.409-7.407-10.851-10.314c-0.004-0.004-0.008-0.006-0.013-0.01
	c-11.477-9.896-31.336-16.376-31.336-16.376l0.002,0c-6.848-1.303-13.723-3.374-19.048-2.717c0.406-0.532,0.828-1.05,1.269-1.545
	c0.65-0.726,1.314-1.417,2.021-2.054c0.83-0.75,1.713-1.442,2.629-2.108c0.83-0.577,1.689-1.126,2.578-1.602
	c0.824-0.448,1.668-0.823,2.512-1.197l4.039-0.526c5.027,2.04,10.521,3.167,16.271,3.167c8.342,0,16.137-2.367,22.758-6.461
	c0.443,0.198,0.887,0.401,1.33,0.61c1.375,0.637,2.754,1.333,4.125,2.084c1.342,0.75,2.686,1.56,4.014,2.425
	C695.11,263.238,696.411,264.136,697.692,265.089z M700.331,219.383c0,13.649-7.104,25.632-17.809,32.476
	c-4.354,2.9-9.337,4.93-14.701,5.823c-0.027,0.004-0.057,0.009-0.082,0.013c-2.006,0.329-4.059,0.502-6.154,0.502
	c-13.932,0-26.123-7.564-32.704-18.795c-3.556-5.834-5.604-12.688-5.604-20.02c0-21.278,17.25-38.528,38.527-38.528
	C683.083,180.854,700.331,198.105,700.331,219.383z"/>
<path d="M672.063,211.56c-6.891-14.702-17.762-19.078-31.821-18.774c-7.739,6.287-12.696,15.872-12.696,26.597
	c0,18.891,15.368,34.259,34.258,34.259c4.562,0,8.914-0.903,12.898-2.529C676.666,237.354,678.217,224.815,672.063,211.56z"/>
<path fill="#0390A2" d="M992.894,289.006l0.237-120.906c0.003-1.486-1.198-2.692-2.685-2.695c-0.001,0-0.003,0-0.005,0
	c-1.483,0-2.687,1.201-2.689,2.685l-0.233,118.428l-111.667-39.954c-1.401-0.5-2.938,0.228-3.438,1.626
	c-0.501,1.399,0.228,2.938,1.626,3.439l115.256,41.238l0.904-0.636l2.691-1.892L992.894,289.006z"/>
</svg>
