<?xml version="1.0" encoding="utf-8"?>
<!-- Generator: Adobe Illustrator 16.0.0, SVG Export Plug-In . SVG Version: 6.00 Build 0)  -->
<!DOCTYPE svg PUBLIC "-//W3C//DTD SVG 1.1//EN" "http://www.w3.org/Graphics/SVG/1.1/DTD/svg11.dtd">
<svg version="1.1" id="Layer_1" xmlns="http://www.w3.org/2000/svg" xmlns:xlink="http://www.w3.org/1999/xlink" x="0px" y="0px"
	 width="446.157px" height="333.545px" viewBox="0 0 446.157 333.545" enable-background="new 0 0 446.157 333.545"
	 xml:space="preserve">
<g>
	<path fill="none" d="M328.084,182.125c-0.001,0.002-0.001,0.003-0.002,0.005c-0.003,0.009-0.003,0.013-0.005,0.021l0.007-0.008
		V182.125z"/>
	<polygon fill="none" points="152.864,247.208 152.912,247.372 152.961,247.351 	"/>
	<path fill="none" d="M236.812,206.171c-0.175-6.017-6.508-8.326-6.777-8.422l-59.155-20.303c-4.644-1.594-6.362-1.405-6.626-1.362
		c-0.152,0.065-0.313,0.111-0.479,0.138c-21.394,3.412-41.379,13.044-49.612,17.395l8.557,2.85c0.122,0.042,0.237,0.094,0.347,0.154
		c0.384,0.137,0.741,0.273,1.113,0.446c0.354,0.162,0.715,0.362,1.065,0.563c0.315,0.192,0.574,0.361,0.82,0.521l0.115,0.075
		c0.367,0.245,0.688,0.492,1.009,0.74c0.431,0.341,0.846,0.688,1.242,1.051c0.624,0.558,1.247,1.202,1.886,1.954
		c0.59,0.711,1.124,1.424,1.652,2.198c0.625,0.965,1.085,1.747,1.476,2.503c0.381,0.729,0.755,1.513,1.138,2.387
		c0.359,0.814,0.631,1.48,0.878,2.155c0.26,0.668,0.51,1.383,0.729,2.088c0.363,1.132,0.69,2.348,0.969,3.599
		c0.287,1.311,0.526,2.631,0.711,3.933c0.202,1.461,0.354,2.886,0.469,4.363c0.122,1.58,0.206,3.26,0.25,4.994
		c0.065,2.281,0.063,4.617,0.054,6.626l-0.009,1.228c-0.015,1.868-0.029,3.727-0.022,5.573c0.003,0.769,0.01,1.47,0.019,2.146
		c0.803,0.119,1.913,0.269,2.521,0.347c1.112,0.158,2.286,0.21,3.188,0.238c0.636,0.012,1.283,0.012,1.897-0.001
		c0.545-0.015,1.129-0.054,1.725-0.116c0.582-0.06,1.135-0.132,1.655-0.22c0.42-0.079,1.844-0.417,2.48-0.583
		c23.58-15.814,53.604-29.13,84.754-37.616C236.84,207.249,236.827,206.699,236.812,206.171z"/>
	<path fill="none" d="M327.088,164.178c-0.212-0.42-0.453-0.826-0.714-1.188c-0.304-0.427-0.598-0.773-0.904-1.07
		c-0.374-0.365-0.731-0.662-1.102-0.912c-0.472-0.33-0.871-0.56-1.248-0.719c-0.279-0.121-0.56-0.207-0.833-0.295l-0.173-0.056
		c-0.106-0.034-0.209-0.077-0.308-0.128l-63.499-19.908c-0.146-0.016-0.291-0.048-0.434-0.098l-0.15-0.053
		c-0.105-0.038-0.211-0.077-0.316-0.105c-0.413-0.122-0.841-0.165-1.249-0.195c-0.498-0.034-0.91-0.033-1.285,0.005
		c-0.3,0.026-0.607,0.077-1.024,0.167c-0.086,0.019-0.173,0.031-0.26,0.039c-1.104,0.232-2.213,0.47-3.312,0.717
		c-2.321,0.524-4.822,1.147-7.644,1.905c-2.669,0.722-5.263,1.477-7.706,2.242c-2.506,0.773-5.121,1.64-7.781,2.579
		c-2.696,0.954-5.335,1.939-7.843,2.927c-2.538,0.998-5.122,2.065-7.9,3.264c-2.588,1.129-5.259,2.346-7.931,3.614
		c-2.667,1.267-5.349,2.596-7.971,3.948c-2.606,1.352-5.295,2.797-7.987,4.295c-2.85,1.578-5.464,3.093-7.995,4.633
		c-1.346,0.807-2.678,1.63-4.012,2.453l-1.611,0.993c-0.117,0.087-0.245,0.163-0.383,0.225c-0.002,0.002-0.006,0.004-0.009,0.006
		c-0.149,0.09-0.311,0.214-0.483,0.359l58.361,20.031c0.279,0.096,5.081,1.824,7.767,6.191c0.443,0.076,0.863,0.144,1.146,0.181
		c1.104,0.157,2.276,0.207,3.178,0.234c0.644,0.014,1.287,0.015,1.897-0.001c0.549-0.013,1.13-0.051,1.728-0.114
		c0.595-0.059,1.144-0.133,1.666-0.22c0.283-0.055,0.574-0.119,0.866-0.192c0.083-0.081,0.174-0.155,0.27-0.221
		c22.023-15.074,50.147-27.785,77.399-35.028C327.232,164.513,327.166,164.344,327.088,164.178z"/>
	<path fill="none" d="M411.842,83.621c0.386-1.385,0.791-2.693,1.244-3.964c0.386-1.144,0.793-2.221,1.235-3.258
		c0.439-1.063,0.875-1.99,1.322-2.815c0.422-0.766,0.819-1.41,1.223-1.983c0.503-0.698,0.955-1.259,1.396-1.735
		c0.467-0.515,1.011-1.023,1.646-1.536c0.526-0.417,1.098-0.811,1.711-1.176c0.387-0.229,0.794-0.431,1.206-0.627L345.34,46.051
		c-3.115-0.825-6.363-0.48-10.83,1.151l0.518,14.254L411.842,83.621z"/>
	<path fill="none" d="M321.266,105.715c-2.412,0.743-4.817,1.534-7.142,2.348c-2.312,0.797-4.735,1.694-7.213,2.668
		c-2.437,0.954-4.88,1.963-7.265,3.002c-2.501,1.091-4.957,2.211-7.298,3.33c-2.5,1.195-4.974,2.428-7.353,3.663
		c-2.532,1.322-5.006,2.664-7.348,3.984c-2.764,1.554-5.177,2.964-7.38,4.312c-1.761,1.071-3.514,2.173-5.27,3.288
		c-0.073,0.051-0.149,0.099-0.229,0.142c-0.047,0.027-0.092,0.052-0.137,0.077c-0.246,0.151-0.524,0.38-0.847,0.696
		c-0.352,0.355-0.653,0.697-0.901,1.022c-0.289,0.402-0.525,0.8-0.691,1.176c-0.047,0.118-0.104,0.29-0.161,0.461l-0.108,0.318
		c0-0.001,0-0.001,0-0.001c0.001,0-0.054,0.181-0.135,0.472l61.577,19.305c0.118,0.037,0.231,0.084,0.338,0.14
		c0.354,0.114,0.708,0.236,1.044,0.382c0.627,0.266,1.273,0.632,1.959,1.111c0.537,0.363,1.068,0.803,1.601,1.319
		c0.582,0.063,1.414,0.139,1.99,0.191c0.77,0.07,1.465,0.136,1.773,0.175c1.121,0.16,2.288,0.209,3.182,0.236
		c0.641,0.012,1.284,0.013,1.901-0.001c0.525-0.013,1.093-0.05,1.729-0.114c0.579-0.06,1.126-0.129,1.646-0.219
		c0.35-0.066,0.7-0.146,1.05-0.237c19.979-13.846,44.211-24.629,70.15-31.238l0.001-0.083c-0.003-0.018-0.007-0.044-0.01-0.063
		h-0.006l-0.001-0.048c-0.154-1.07-0.633-3.461-1.461-4.716c-0.021-0.032-0.029-0.071-0.049-0.104
		c-0.014-0.02-0.025-0.04-0.04-0.059c-0.272-0.355-0.582-0.704-0.906-1.017c-0.33-0.304-0.683-0.584-1.044-0.826
		c-0.428-0.288-0.813-0.498-1.186-0.646c-0.272-0.109-0.563-0.194-0.849-0.28l-0.165-0.05c-0.1-0.031-0.196-0.068-0.289-0.113
		l-63.005-18.148c-0.157-0.013-0.313-0.043-0.468-0.095c-0.202-0.067-0.355-0.122-0.508-0.156c-0.347-0.082-0.703-0.125-1.215-0.149
		c-0.46-0.021-0.847-0.007-1.212,0.041c-0.126,0.019-0.28,0.053-0.436,0.086l-0.222,0.046c-0.104,0.021-0.21,0.035-0.315,0.04
		l-0.788,0.162c-0.725,0.148-1.452,0.297-2.172,0.456c-2.177,0.471-4.476,1.026-7.035,1.7
		C326.08,104.297,323.763,104.956,321.266,105.715z"/>
	<path fill="none" d="M257.438,219.222c1.01-0.324,2.017-0.668,3.02-1.01l1.146-0.39c0.189-0.073,25.942-9.834,36.346-15.599
		l0.397-0.213c2.059-1.101,4.101-2.191,6.13-3.324c2.411-1.353,4.895-2.803,7.587-4.43c2.06-1.259,4.782-2.938,7.501-4.725
		c1.8-1.172,3.592-2.371,5.371-3.571c0.02-0.013,0.039-0.025,0.059-0.038c0.332-0.25,0.691-0.528,0.976-0.798
		c0.287-0.268,0.556-0.579,0.889-1.029c0.288-0.419,0.541-0.854,0.714-1.243c0.101-0.228,0.241-0.435,0.416-0.611l0.067-0.068
		c0.008-0.08,0.009-0.162,0.025-0.24l-0.142-13.151c-25.602,6.855-51.924,18.595-73.041,32.556c1.02,2.98,2.301,9.007,0.972,18.364
		C256.392,219.54,256.923,219.387,257.438,219.222z"/>
	<path fill="none" d="M411.684,134.469c0-0.008,0-0.015,0-0.023l0.017-2.453c-23.251,6.038-45.049,15.48-63.494,27.495
		c0.4,2.168,1.187,8.252-0.102,17.932c0.114-0.037,0.229-0.074,0.344-0.111l1.058-0.344c0.161-0.062,24.158-8.965,33.787-14.349
		c1.984-1.058,4.192-2.235,6.33-3.431c2.182-1.236,4.469-2.585,6.984-4.121c2.384-1.456,4.65-2.895,6.928-4.397
		c1.668-1.098,3.336-2.236,5.002-3.374c0.02-0.013,0.038-0.025,0.058-0.038l0.088-0.069c0.278-0.216,0.561-0.431,0.813-0.674
		c0.295-0.284,0.561-0.597,0.786-0.928c0.303-0.414,0.53-0.806,0.738-1.261c0.179-0.417,0.324-0.833,0.427-1.23
		c0.105-0.422,0.164-0.791,0.175-1.116c0.01-0.173,0.01-0.298,0.002-0.42c-0.009-0.161,0-0.32,0.027-0.476L411.684,134.469z"/>
	<path fill="none" d="M160.021,264.372c1.329-0.433,2.648-0.889,3.967-1.344l1.494-0.514c0.219-0.079,24.547-8.794,39.265-17.053
		c2.182-1.155,4.459-2.365,6.73-3.623c2.688-1.499,5.467-3.112,8.256-4.791c2.964-1.777,5.639-3.437,8.182-5.074
		c1.665-1.074,3.332-2.187,4.987-3.29l0.615-0.41c0.053-0.045,0.107-0.087,0.165-0.126c0.323-0.22,0.663-0.459,0.954-0.713
		c0.302-0.251,0.584-0.56,0.927-1.005c0.319-0.412,0.567-0.799,0.763-1.188c0.199-0.367,0.359-0.758,0.504-1.179
		c0.033-2.156,0.099-7.119,0.072-11.987c-30.378,8.388-59.59,21.396-82.554,36.807c0.884,2.835,2.258,8.781,1.656,16.755
		C157.406,265.214,158.732,264.796,160.021,264.372z"/>
	<path fill="none" d="M437.376,85.487c0.54-3.529,1.098-7.178,0.926-10.381c-0.345-3.782-2.688-5.174-7.771-6.579
		c-0.639,0.141-1.278,0.273-1.917,0.423c-0.868,0.204-1.714,0.409-2.528,0.688c-0.887,0.297-1.653,0.642-2.356,1.059
		c-0.451,0.27-0.871,0.557-1.243,0.853c-0.456,0.368-0.847,0.731-1.184,1.103c-0.34,0.367-0.687,0.8-1.076,1.34
		c-0.303,0.43-0.622,0.95-0.964,1.569c-0.371,0.685-0.746,1.485-1.139,2.434c-0.408,0.957-0.778,1.936-1.141,3.012
		c-0.481,1.352-0.902,2.703-1.298,4.166c-0.453,1.687-0.855,3.535-1.195,5.487c-0.3,1.807-0.53,3.654-0.681,5.473
		c-0.179,2.032-0.231,4.049-0.26,5.756c-0.016,1.782,0.01,3.636,0.079,5.651c0.055,1.782,0.128,3.542,0.201,5.292l0.015,0.367
		c0.086,2.097,0.159,3.991,0.191,5.95v1.869c0.192,0.31,0.367,0.622,0.524,0.943c0.273,0.545,0.518,1.15,0.737,1.834
		c0.227,0.71,0.377,1.403,0.447,2.065c0.061,0.434,0.073,0.899,0.083,1.313c0.005,0.037,0.009,0.07,0.012,0.091
		c0.011,0.087,0.016,0.174,0.015,0.262l-0.047,6.973c0,0.004,0,0.008,0,0.012l-0.033,6.936c0,0.096-0.007,0.19-0.021,0.282
		c0.001,0.146-0.004,0.291-0.012,0.436c-0.019,0.569-0.116,1.221-0.297,1.942c-0.159,0.621-0.373,1.234-0.655,1.89
		c-0.318,0.697-0.661,1.282-1.048,1.827c-0.771,2.215-2.274,3.822-4.232,5.154c-3.029,2.066-6.082,4.094-9.191,6.037
		c-5.398,3.373-10.931,6.486-16.551,9.471c-7.695,4.088-15.91,7.273-24.014,10.451c-6.914,2.713-13.76,5.129-20.988,6.951
		c-1.501,0.381-2.942,0.803-4.506,0.824c-1.002,0.016-3.002-0.824-3.637-0.18c-1.481,1.502-2.219,3.328-4.009,4.631
		c-5.598,3.779-11.28,7.422-17.117,10.822c-14.651,8.533-30.228,14.992-46.038,21.031c-4.222,1.611-8.604,2.869-12.967,4.029
		c-2.54,0.664-5,1.549-7.662,1.27c-0.984-0.082-1.969-0.662-2.916-0.488c-0.207,0.039-0.381,0.171-0.538,0.346
		c-0.098,0.148-0.208,0.299-0.317,0.448c-0.369,0.661-0.631,1.564-0.978,2.071c-1.562,2.266-4.089,3.598-6.337,5.08
		c-2.975,1.961-5.992,3.855-9.039,5.703c-5.723,3.469-11.584,6.637-17.452,9.846c-11.328,6.197-23.464,11.027-35.552,15.527
		c-4.927,1.836-9.914,3.498-14.967,4.965c-3.388,0.982-7.566,2.814-11.164,2.068c-0.062-0.014-0.117-0.025-0.176-0.041
		c-0.981-0.44-1.754-1.041-2.376-1.706c-0.905-0.229-1.907-0.644-2.558-1.406c-0.048-0.048-0.104-0.104-0.163-0.17
		c-0.163-0.182-0.318-0.387-0.461-0.608c-0.163-0.236-0.316-0.513-0.502-0.905c-0.14-0.294-0.341-0.747-0.51-1.323
		c-0.07-0.217-0.153-0.519-0.234-0.827c-0.048-0.186-0.069-0.373-0.066-0.558l-0.297-1.329c-0.243-1.145-0.465-2.376-0.682-3.785
		c-0.188-1.285-0.322-2.342-0.421-3.339c-0.116-1.078-0.216-2.271-0.303-3.63c-0.109-1.576-0.189-3.249-0.239-4.963
		c-0.056-1.633-0.086-3.435-0.095-5.658c-0.008-1.863,0.007-3.738,0.021-5.622l0.01-1.218c0.008-1.971,0.011-4.266-0.053-6.492
		c-0.042-1.671-0.122-3.278-0.239-4.787c-0.107-1.396-0.252-2.739-0.44-4.11c-0.17-1.191-0.391-2.41-0.654-3.615
		c-0.25-1.123-0.544-2.216-0.873-3.243c-0.198-0.633-0.417-1.259-0.656-1.877c-0.23-0.625-0.471-1.216-0.795-1.951
		c-0.343-0.779-0.686-1.5-1.022-2.145c-0.331-0.642-0.729-1.314-1.252-2.123c-0.427-0.627-0.886-1.238-1.375-1.828
		c-0.499-0.587-0.994-1.101-1.495-1.548c-0.342-0.313-0.681-0.596-1.017-0.862c-0.228-0.176-0.471-0.366-0.736-0.543l-0.101-0.065
		c-0.214-0.141-0.44-0.288-0.665-0.427c-0.188-0.105-0.438-0.249-0.694-0.366c-0.329-0.153-0.692-0.28-1.078-0.414
		c-0.019-0.006-0.034-0.017-0.052-0.023l-0.002,0.005c-0.31-0.102-0.673-0.214-1.022-0.275c-0.361-0.062-0.816-0.061-1.381,0.004
		c-0.516,0.06-1.061,0.172-1.667,0.343c-0.987,0.273-2.062,0.703-3.39,1.354c-1.017,0.509-2.139,1.129-3.517,1.945
		c-0.664,0.397-1.337,0.812-2.01,1.225c-1.387,0.853-2.82,1.733-4.263,2.531c-4.186,2.745-6.348,7.695-5.51,12.631l17.621,89.813
		c0.01,0.048,0.018,0.098,0.023,0.146c0.095,0.771,0.329,1.503,0.671,2.174c0.021,0.009,0.041,0.017,0.062,0.025
		c2.437,1.013,5.029,1.949,7.493,1.949c1.503,0,2.947-0.344,4.417-1.049l294.208-141.187c4.593-2.205,5.358-6.759,6.074-13.997
		c0.076-0.77,0.151-1.53,0.235-2.277c1.166-10.416,2.332-20.832,3.502-31.249l3.807-33.951
		C436.858,88.872,437.122,87.151,437.376,85.487z"/>
	<path fill="none" d="M34.084,126.944c-0.404-4.841,1.137-9.673,4.217-13.411l-17.094-2.359c-3.987,2.73-6.291,5.24-6.752,9.703
		c-0.104,1.012-0.118,2.065-0.067,3.146L34.084,126.944z"/>
	<path fill="none" d="M94.281,217.479c0.18-5.415,2.959-10.463,7.604-13.473c0.041-0.026,0.083-0.052,0.125-0.075
		c1.38-0.761,2.795-1.63,4.162-2.47c0.687-0.422,1.372-0.843,2.058-1.255c1.475-0.872,2.678-1.537,3.798-2.097
		c0.372-0.183,0.727-0.349,1.07-0.503l-87.624-29.184c-0.206,0.087-0.418,0.162-0.642,0.21c-3.081,0.656-6.013,2.37-9.117,4.185
		c-0.711,0.415-1.418,0.828-2.124,1.227c-2.988,1.688-4.87,2.852-5.864,5.378c-0.774,1.97-0.595,3.875,0.049,6.86L94.281,217.479z"
		/>
	<path fill="none" d="M44.082,113.699l-0.119,0.075c-4.483,3.354-6.654,9.053-5.533,14.542c2.215,12.938,6.688,31.299,12.64,44.226
		l-0.076,0.035l57.818,19.257c4.407-2.526,27.808-15.4,54.066-19.645c0.976-0.351,2.697-0.448,5.728,0.284
		c0.344-0.428,0.718-0.846,1.164-1.272c0.384-0.37,0.989-0.92,1.738-1.35c0.032-0.019,0.065-0.036,0.099-0.053l1.733-1.069
		c1.35-0.833,2.697-1.666,4.048-2.475c2.567-1.563,5.229-3.104,8.124-4.707c2.725-1.517,5.449-2.981,8.096-4.353
		c2.664-1.375,5.388-2.724,8.096-4.011c2.712-1.287,5.423-2.522,8.059-3.672c2.827-1.22,5.452-2.305,8.031-3.318
		c2.551-1.005,5.235-2.007,7.978-2.978c2.715-0.958,5.383-1.842,7.933-2.628c2.485-0.779,5.132-1.549,7.856-2.286
		c2.879-0.773,5.433-1.41,7.811-1.947c1.203-0.27,2.416-0.53,3.62-0.782c0.083-0.018,0.167-0.029,0.25-0.037
		c0.471-0.095,0.864-0.153,1.247-0.187c0.577-0.058,1.228-0.063,1.963-0.013c0.42,0.031,0.892,0.095,1.377,0.188
		c0.103-0.367,0.175-0.599,0.181-0.618l0.114-0.338c0.087-0.257,0.174-0.512,0.277-0.763c0.305-0.692,0.681-1.335,1.172-2.015
		c0.388-0.512,0.805-0.985,1.306-1.491c0.613-0.602,1.147-1.024,1.704-1.352c0.037-0.022,0.075-0.042,0.113-0.062
		c1.81-1.148,3.616-2.284,5.425-3.385c2.243-1.372,4.699-2.807,7.505-4.385c2.379-1.341,4.892-2.703,7.466-4.048
		c2.424-1.258,4.938-2.511,7.479-3.726c2.384-1.139,4.884-2.279,7.429-3.39c2.433-1.06,4.925-2.089,7.405-3.061
		c2.529-0.995,5.008-1.912,7.366-2.725c2.363-0.829,4.819-1.636,7.289-2.396c2.555-0.776,4.922-1.449,7.242-2.059
		c1.755-0.462,3.385-0.866,4.944-1.229l-1.893-52.118c-0.136-1.199-0.217-2.023-0.248-3.115l-0.157-3.952
		c-0.363-3.96-0.701-9.191-1.195-14.45c-0.094-0.999-0.166-2.044-0.239-3.115c-0.224-3.264-0.46-6.607-1.375-9.325
		c-37.38,3.901-91.087,12.022-137.472,28.653C138.819,60.172,89.828,84.615,44.082,113.699z"/>
	<path fill="none" d="M188.245,37.189c45.952-16.476,98.912-24.661,136.412-28.667c-1.254-0.854-2.993-0.996-6.05-1.071
		c-0.549-0.014-1.103-0.027-1.662-0.05c-2.237-0.09-4.877-0.184-7.497-0.184c-3.427,0-6.392,0.155-9.329,0.486
		c-11.476,1.298-23.008,2.94-34.275,4.88c-43.777,7.538-87.506,20.514-129.971,38.568c-29.861,12.694-60.039,27.822-89.695,44.965
		c-6.369,3.676-12.943,7.592-19.559,11.642l15.716,2.169C88.184,80.823,137.273,56.349,188.245,37.189z"/>
	<path fill="#058FA1" d="M18.946,143.126c3.573,12.081,6.339,17.167,7.244,18.956c0.543,1.074,1.152,1.965,1.485,2.728l18.159,6.048
		c-6.085-14.6-9.683-32.003-11.077-39.645l-19.869-2.946c0.68,3.843,1.91,7.843,3.052,11.548
		C18.289,140.95,18.63,142.057,18.946,143.126z"/>
	<path fill="#058FA1" d="M343.028,162.84c-0.576,0.164-1.153,0.301-1.765,0.416c-0.606,0.105-1.237,0.189-1.962,0.264
		c-0.744,0.076-1.416,0.12-2.055,0.135c-0.34,0.008-0.686,0.012-1.037,0.012c-0.348,0-0.701-0.004-1.059-0.011
		c-1.021-0.03-2.336-0.087-3.636-0.272c-0.072-0.009-0.181-0.021-0.307-0.033c0.131,0.345,0.245,0.686,0.341,1.023
		c0.205,0.661,0.354,1.38,0.429,2.086c0.028,0.346,0.037,0.664,0.04,0.975c0.021,0.112,0.032,0.228,0.033,0.346l0.144,13.272
		c0.241,0.041,0.508,0.076,0.807,0.093c0.514,0.031,1.042,0.009,1.446-0.016c0.484-0.027,0.802-0.076,1.061-0.163
		c0.047-0.016,0.095-0.029,0.143-0.041l3.461-0.879c1.696-0.44,3.205-0.856,4.625-1.27c1.26-8.116,1.003-13.78,0.667-16.743
		c-0.253,0.174-0.512,0.342-0.763,0.517C343.455,162.68,343.247,162.778,343.028,162.84z"/>
	<path fill="#058FA1" d="M241.228,222.535c0.339,0.116,0.742,0.19,1.247,0.232c0.522,0.055,0.997,0.063,1.493,0.041
		c0.491-0.014,0.885-0.064,1.226-0.154c0.041-0.011,0.083-0.021,0.125-0.028c0.037-0.008,0.073-0.02,0.11-0.034
		c0.19-0.075,0.389-0.121,0.588-0.139l3.421-0.896c0.688-0.183,1.372-0.382,2.059-0.572c1.515-8.675,0.674-14.302-0.155-17.258
		c-0.031,0.011-0.059,0.029-0.09,0.038c-0.571,0.163-1.146,0.3-1.76,0.417c-0.657,0.11-1.296,0.196-1.974,0.264
		c-0.695,0.073-1.389,0.119-2.048,0.135c-0.336,0.008-0.683,0.012-1.034,0.012s-0.709-0.004-1.069-0.012
		c-0.745-0.022-1.651-0.06-2.583-0.149c0.081,0.519,0.133,1.058,0.149,1.62c0.152,5.257,0.094,12.472,0.043,16.392
		C241.059,222.475,241.142,222.507,241.228,222.535z"/>
	<path fill="#058FA1" d="M150.344,250.069c-0.641,0.109-1.283,0.193-1.957,0.263c-0.697,0.073-1.389,0.119-2.051,0.138
		c-0.344,0.007-0.692,0.011-1.045,0.011c-0.349,0-0.701-0.004-1.058-0.011c-1.031-0.032-2.353-0.092-3.635-0.274
		c-0.281-0.036-1.076-0.141-1.865-0.252c0.049,1.39,0.113,2.749,0.202,4.037c0.084,1.31,0.179,2.444,0.29,3.48
		c0.094,0.948,0.22,1.943,0.397,3.149c0.202,1.317,0.41,2.474,0.633,3.521l0.411,1.84c0.028,0.125,0.044,0.252,0.049,0.377
		c0.017,0.056,0.033,0.11,0.05,0.163c0.103,0.348,0.206,0.58,0.295,0.77c0.062,0.131,0.114,0.245,0.171,0.33
		c0.012,0.018,0.058,0.085,0.068,0.103c0.025,0.04,0.047,0.07,0.063,0.089c0.058,0.052,0.112,0.108,0.165,0.168
		c0.271,0.138,0.981,0.283,1.428,0.314c0.069,0.004,0.138,0.013,0.206,0.024c0.119,0.021,0.225,0.043,0.339,0.068
		c0.398,0.084,0.906,0.089,1.345,0.076c0.55-0.017,1.002-0.061,1.407-0.138c0.249-0.046,0.483-0.112,0.72-0.177l0.139-0.038
		c0.114-0.03,0.229-0.052,0.345-0.063c0.569-0.154,1.139-0.307,1.708-0.458c0.691-0.186,1.383-0.369,2.072-0.558
		c0.18-0.05,0.341-0.098,0.518-0.147c0.882-8.193-0.553-14.237-1.36-16.816C150.379,250.063,150.357,250.066,150.344,250.069z"/>
	<path fill="#058FA1" d="M94.729,222.023L8.818,191.041l17.19,78.477c0.811,3.701,2.207,5.779,4.668,6.951
		c0.746,0.354,1.553,0.674,2.408,1.012c0.455,0.18,0.909,0.359,1.357,0.546l24.955,10.368c17.352,7.21,34.703,14.417,52.057,21.623
		l-5.007-28.267L94.729,222.023z"/>
	<path fill="#058FA1" d="M409.7,95.783c0.159-1.92,0.403-3.88,0.724-5.813c0.14-0.799,0.291-1.575,0.449-2.336l-75.688-21.839
		l1.133,31.167c0.617,0.054,1.344,0.125,2.152,0.218c0.093-0.017,0.186-0.038,0.278-0.051c0.641-0.084,1.258-0.11,1.971-0.076
		c0.525,0.025,1.214,0.076,1.953,0.25c0.155,0.035,0.32,0.082,0.489,0.134c0.108,0.013,0.218,0.034,0.325,0.065l63.698,18.348
		c0.12,0.035,0.235,0.08,0.345,0.134c0.347,0.105,0.695,0.217,1.024,0.349c0.434,0.172,0.866,0.4,1.304,0.656
		c-0.036-1.164-0.082-2.352-0.134-3.618l-0.015-0.365c-0.073-1.765-0.147-3.54-0.202-5.329c-0.071-2.068-0.098-3.98-0.081-5.838
		C409.455,100.042,409.511,97.933,409.7,95.783z"/>
	<path d="M441.876,168.754l-0.152-0.051c-2.442-0.798-4.931-0.841-7.08-0.273c1.021-3.209,1.362-6.625,1.667-9.709
		c0.073-0.736,0.145-1.466,0.226-2.183c1.166-10.416,2.332-20.831,3.502-31.248l3.807-33.954c0.169-1.52,0.41-3.093,0.665-4.759
		c0.599-3.916,1.218-7.965,0.994-11.934c-0.002-0.035-0.005-0.07-0.008-0.105c-0.857-9.988-9.771-12.192-15.67-13.65
		c-0.667-0.165-1.328-0.328-1.973-0.499l-80.669-21.316c-3.279-0.87-6.714-0.891-10.502-0.044
		c-0.026-4.882-0.276-9.873-0.745-14.857c-0.089-0.939-0.155-1.924-0.225-2.934c-0.334-4.883-0.714-10.418-3.454-14.886
		c-3.6-5.874-9.074-6.009-13.475-6.117c-0.51-0.013-1.025-0.025-1.546-0.046c-2.31-0.094-5.041-0.19-7.79-0.19
		c-3.704,0-6.926,0.169-10.139,0.532c-11.615,1.313-23.286,2.976-34.69,4.94c-44.326,7.632-88.593,20.767-131.569,39.038
		c-30.131,12.808-60.574,28.069-90.481,45.357c-6.841,3.948-13.915,8.165-21.023,12.532l-0.213,0.131
		c-6.422,3.942-13.063,8.018-14.055,17.606c-0.74,7.188,1.654,14.953,3.766,21.804c0.341,1.107,0.674,2.187,0.983,3.231
		c1.752,5.925,4.118,13.068,6.569,17.95c-2.293,0.994-4.428,2.241-6.52,3.464c-0.68,0.398-1.356,0.794-2.032,1.175
		c-3.141,1.774-7.049,3.983-9.03,9.021c-1.602,4.073-1.002,7.769-0.25,11.206l18.197,83.073c0.411,1.876,0.996,3.528,1.724,5.008
		c-2.109-0.011-4.551,0.477-6.938,1.494l-6.719,2.865c-5.323,2.27-5.378,6.107-0.122,8.528l92.967,42.816
		c5.257,2.421,13.827,2.354,19.046-0.146L442.39,176.569C447.608,174.068,447.377,170.551,441.876,168.754z M345.34,46.051
		l77.486,20.475c-0.412,0.197-0.819,0.398-1.206,0.627c-0.613,0.366-1.185,0.759-1.711,1.176c-0.636,0.513-1.18,1.021-1.646,1.536
		c-0.441,0.476-0.894,1.037-1.396,1.735c-0.403,0.573-0.801,1.218-1.223,1.983c-0.447,0.825-0.883,1.752-1.322,2.815
		c-0.442,1.037-0.85,2.114-1.235,3.258c-0.453,1.271-0.858,2.579-1.244,3.964l-76.814-22.165l-0.518-14.254
		C338.977,45.571,342.225,45.226,345.34,46.051z M409.507,107.675c0.055,1.79,0.129,3.564,0.202,5.329l0.015,0.365
		c0.052,1.266,0.098,2.454,0.134,3.618c-0.438-0.255-0.87-0.483-1.304-0.656c-0.329-0.131-0.678-0.243-1.024-0.349
		c-0.109-0.054-0.225-0.099-0.345-0.134l-63.698-18.348c-0.107-0.031-0.217-0.052-0.325-0.065c-0.169-0.052-0.334-0.099-0.489-0.134
		c-0.739-0.175-1.428-0.226-1.953-0.25c-0.713-0.034-1.33-0.008-1.971,0.076c-0.093,0.014-0.186,0.034-0.278,0.051
		c-0.809-0.093-1.535-0.165-2.152-0.218l-1.133-31.167l75.688,21.839c-0.158,0.762-0.31,1.537-0.449,2.336
		c-0.32,1.934-0.564,3.893-0.724,5.813c-0.189,2.15-0.245,4.259-0.274,6.054C409.409,103.695,409.436,105.607,409.507,107.675z
		 M335.385,102.001c0.72-0.159,1.447-0.308,2.172-0.456l0.788-0.162c0.105-0.005,0.211-0.018,0.315-0.04l0.222-0.046
		c0.155-0.033,0.31-0.067,0.436-0.086c0.365-0.048,0.752-0.062,1.212-0.041c0.512,0.024,0.868,0.067,1.215,0.149
		c0.152,0.034,0.306,0.089,0.508,0.156c0.154,0.051,0.311,0.082,0.468,0.095l63.005,18.148c0.093,0.044,0.189,0.082,0.289,0.113
		l0.165,0.05c0.285,0.086,0.576,0.171,0.849,0.28c0.372,0.148,0.758,0.357,1.186,0.646c0.361,0.242,0.714,0.521,1.044,0.826
		c0.324,0.313,0.634,0.662,0.906,1.017c0.015,0.02,0.026,0.04,0.04,0.059c0.02,0.034,0.027,0.072,0.049,0.104
		c0.828,1.255,1.307,3.646,1.461,4.716l0.001,0.048h0.006c0.003,0.019,0.007,0.045,0.01,0.063l-0.001,0.083
		c-25.939,6.609-50.172,17.393-70.15,31.238c-0.35,0.092-0.7,0.171-1.05,0.237c-0.52,0.09-1.066,0.159-1.646,0.219
		c-0.636,0.064-1.203,0.102-1.729,0.114c-0.617,0.014-1.261,0.013-1.901,0.001c-0.894-0.027-2.061-0.076-3.182-0.236
		c-0.309-0.039-1.004-0.104-1.773-0.175c-0.576-0.053-1.408-0.129-1.99-0.191c-0.532-0.517-1.063-0.956-1.601-1.319
		c-0.686-0.479-1.332-0.846-1.959-1.111c-0.336-0.146-0.69-0.268-1.044-0.382c-0.106-0.056-0.22-0.103-0.338-0.14l-61.577-19.305
		c0.081-0.291,0.136-0.472,0.135-0.472c0,0,0,0,0,0.001l0.108-0.318c0.058-0.172,0.114-0.343,0.161-0.461
		c0.166-0.375,0.402-0.774,0.691-1.176c0.248-0.325,0.55-0.667,0.901-1.022c0.322-0.316,0.601-0.545,0.847-0.696
		c0.045-0.024,0.09-0.049,0.137-0.077c0.08-0.043,0.156-0.09,0.229-0.142c1.756-1.114,3.509-2.216,5.27-3.288
		c2.203-1.348,4.616-2.758,7.38-4.312c2.342-1.32,4.815-2.662,7.348-3.984c2.379-1.235,4.853-2.468,7.353-3.663
		c2.341-1.118,4.797-2.239,7.298-3.33c2.385-1.039,4.828-2.049,7.265-3.002c2.478-0.975,4.901-1.871,7.213-2.668
		c2.324-0.814,4.729-1.605,7.142-2.348c2.497-0.759,4.814-1.417,7.084-2.014C330.909,103.027,333.208,102.472,335.385,102.001z
		 M411.622,141.978c-0.011,0.325-0.069,0.694-0.175,1.116c-0.103,0.398-0.248,0.814-0.427,1.23
		c-0.208,0.455-0.436,0.847-0.738,1.261c-0.226,0.331-0.491,0.645-0.786,0.928c-0.253,0.243-0.535,0.458-0.813,0.674l-0.088,0.069
		c-0.02,0.012-0.038,0.025-0.058,0.038c-1.666,1.138-3.334,2.276-5.002,3.374c-2.277,1.502-4.544,2.941-6.928,4.397
		c-2.516,1.536-4.803,2.885-6.984,4.121c-2.138,1.195-4.346,2.373-6.33,3.431c-9.629,5.384-33.626,14.287-33.787,14.349
		l-1.058,0.344c-0.114,0.037-0.229,0.074-0.344,0.111c1.288-9.68,0.502-15.764,0.102-17.932
		c18.445-12.015,40.243-21.457,63.494-27.495l-0.017,2.453c0,0.008,0,0.015,0,0.023l-0.032,6.613
		c-0.027,0.156-0.036,0.315-0.027,0.476C411.632,141.68,411.632,141.805,411.622,141.978z M343.737,178.776
		c-1.42,0.413-2.929,0.829-4.625,1.27l-3.461,0.879c-0.048,0.012-0.096,0.025-0.143,0.041c-0.259,0.087-0.576,0.136-1.061,0.163
		c-0.404,0.024-0.933,0.047-1.446,0.016c-0.299-0.017-0.565-0.052-0.807-0.093l-0.144-13.272c-0.001-0.118-0.013-0.233-0.033-0.346
		c-0.003-0.311-0.012-0.629-0.04-0.975c-0.074-0.706-0.224-1.425-0.429-2.086c-0.096-0.338-0.21-0.679-0.341-1.023
		c0.126,0.013,0.234,0.024,0.307,0.033c1.3,0.186,2.615,0.242,3.636,0.272c0.357,0.007,0.711,0.011,1.059,0.011
		c0.352,0,0.697-0.004,1.037-0.012c0.639-0.015,1.311-0.059,2.055-0.135c0.725-0.074,1.355-0.158,1.962-0.264
		c0.611-0.115,1.188-0.252,1.765-0.416c0.219-0.062,0.427-0.16,0.613-0.29c0.251-0.175,0.51-0.343,0.763-0.517
		C344.74,164.996,344.997,170.66,343.737,178.776z M254.898,201.337c21.117-13.961,47.439-25.7,73.041-32.556l0.142,13.151
		c-0.017,0.078-0.018,0.16-0.025,0.24l-0.067,0.068c-0.175,0.177-0.315,0.384-0.416,0.611c-0.173,0.389-0.426,0.824-0.714,1.243
		c-0.333,0.45-0.602,0.762-0.889,1.029c-0.284,0.27-0.644,0.548-0.976,0.798c-0.02,0.013-0.039,0.025-0.059,0.038
		c-1.779,1.2-3.571,2.399-5.371,3.571c-2.719,1.786-5.441,3.466-7.501,4.725c-2.692,1.627-5.176,3.077-7.587,4.43
		c-2.029,1.133-4.071,2.224-6.13,3.324l-0.397,0.213c-10.403,5.765-36.156,15.525-36.346,15.599l-1.146,0.39
		c-1.003,0.342-2.01,0.686-3.02,1.01c-0.516,0.165-1.047,0.318-1.568,0.479C257.199,210.344,255.918,204.317,254.898,201.337z
		 M240.933,206.052c-0.017-0.563-0.068-1.102-0.149-1.62c0.932,0.09,1.838,0.127,2.583,0.149c0.36,0.008,0.718,0.012,1.069,0.012
		s0.698-0.004,1.034-0.012c0.659-0.016,1.353-0.062,2.048-0.135c0.678-0.067,1.316-0.153,1.974-0.264
		c0.613-0.117,1.188-0.254,1.76-0.417c0.031-0.009,0.059-0.027,0.09-0.038c0.829,2.956,1.67,8.583,0.155,17.258
		c-0.687,0.19-1.37,0.39-2.059,0.572l-3.421,0.896c-0.199,0.018-0.397,0.063-0.588,0.139c-0.037,0.015-0.073,0.026-0.11,0.034
		c-0.042,0.008-0.084,0.018-0.125,0.028c-0.341,0.09-0.734,0.141-1.226,0.154c-0.496,0.022-0.971,0.014-1.493-0.041
		c-0.505-0.042-0.908-0.116-1.247-0.232c-0.086-0.028-0.169-0.061-0.252-0.092C241.026,218.523,241.085,211.309,240.933,206.052z
		 M249.9,199.711c-0.096,0.065-0.187,0.14-0.27,0.221c-0.292,0.073-0.583,0.138-0.866,0.192c-0.522,0.087-1.071,0.161-1.666,0.22
		c-0.598,0.063-1.179,0.102-1.728,0.114c-0.61,0.016-1.254,0.015-1.897,0.001c-0.901-0.027-2.074-0.077-3.178-0.234
		c-0.283-0.037-0.703-0.104-1.146-0.181c-2.686-4.367-7.487-6.096-7.767-6.191l-58.361-20.031c0.173-0.146,0.334-0.27,0.483-0.359
		c0.003-0.002,0.007-0.004,0.009-0.006c0.138-0.062,0.266-0.138,0.383-0.225l1.611-0.993c1.334-0.823,2.666-1.646,4.012-2.453
		c2.531-1.54,5.146-3.055,7.995-4.633c2.692-1.498,5.381-2.943,7.987-4.295c2.622-1.352,5.304-2.681,7.971-3.948
		c2.672-1.268,5.343-2.485,7.931-3.614c2.778-1.199,5.362-2.266,7.9-3.264c2.508-0.988,5.146-1.973,7.843-2.927
		c2.66-0.939,5.275-1.806,7.781-2.579c2.443-0.765,5.037-1.52,7.706-2.242c2.821-0.758,5.322-1.381,7.644-1.905
		c1.099-0.247,2.208-0.485,3.312-0.717c0.087-0.007,0.174-0.02,0.26-0.039c0.417-0.09,0.725-0.141,1.024-0.167
		c0.375-0.039,0.787-0.04,1.285-0.005c0.408,0.03,0.836,0.073,1.249,0.195c0.105,0.028,0.211,0.068,0.316,0.105l0.15,0.053
		c0.143,0.05,0.288,0.082,0.434,0.098l63.499,19.908c0.099,0.051,0.201,0.094,0.308,0.128l0.173,0.056
		c0.273,0.088,0.554,0.174,0.833,0.295c0.377,0.159,0.776,0.389,1.248,0.719c0.37,0.25,0.728,0.547,1.102,0.912
		c0.307,0.297,0.601,0.644,0.904,1.07c0.261,0.361,0.502,0.768,0.714,1.188c0.078,0.166,0.145,0.335,0.212,0.505
		C300.048,171.926,271.924,184.637,249.9,199.711z M154.348,248.883c22.964-15.41,52.176-28.419,82.554-36.807
		c0.026,4.868-0.039,9.831-0.072,11.987c-0.145,0.421-0.305,0.812-0.504,1.179c-0.195,0.389-0.443,0.775-0.763,1.188
		c-0.343,0.445-0.625,0.754-0.927,1.005c-0.291,0.254-0.631,0.493-0.954,0.713c-0.058,0.039-0.112,0.081-0.165,0.126l-0.615,0.41
		c-1.655,1.104-3.322,2.216-4.987,3.29c-2.543,1.638-5.218,3.297-8.182,5.074c-2.789,1.679-5.568,3.292-8.256,4.791
		c-2.271,1.258-4.549,2.468-6.73,3.623c-14.718,8.259-39.046,16.974-39.265,17.053l-1.494,0.514
		c-1.318,0.455-2.638,0.911-3.967,1.344c-1.288,0.424-2.614,0.842-4.017,1.266C156.605,257.664,155.231,251.718,154.348,248.883z
		 M152.864,247.208l0.097,0.143l-0.049,0.021L152.864,247.208z M151.754,266.876c-0.177,0.05-0.338,0.098-0.518,0.147
		c-0.689,0.188-1.381,0.372-2.072,0.558c-0.569,0.151-1.139,0.304-1.708,0.458c-0.115,0.011-0.23,0.032-0.345,0.063l-0.139,0.038
		c-0.236,0.064-0.471,0.131-0.72,0.177c-0.405,0.077-0.857,0.121-1.407,0.138c-0.438,0.013-0.946,0.008-1.345-0.076
		c-0.114-0.025-0.22-0.048-0.339-0.068c-0.068-0.012-0.137-0.021-0.206-0.024c-0.446-0.031-1.156-0.177-1.428-0.314
		c-0.053-0.06-0.107-0.116-0.165-0.168c-0.017-0.019-0.038-0.049-0.063-0.089c-0.011-0.018-0.057-0.085-0.068-0.103
		c-0.057-0.085-0.109-0.199-0.171-0.33c-0.089-0.189-0.192-0.422-0.295-0.77c-0.017-0.053-0.033-0.107-0.05-0.163
		c-0.005-0.125-0.021-0.252-0.049-0.377l-0.411-1.84c-0.223-1.048-0.431-2.204-0.633-3.521c-0.178-1.206-0.304-2.201-0.397-3.149
		c-0.111-1.036-0.206-2.171-0.29-3.48c-0.089-1.288-0.153-2.647-0.202-4.037c0.789,0.111,1.584,0.216,1.865,0.252
		c1.282,0.183,2.604,0.242,3.635,0.274c0.356,0.007,0.709,0.011,1.058,0.011c0.353,0,0.701-0.004,1.045-0.011
		c0.662-0.019,1.354-0.064,2.051-0.138c0.674-0.069,1.316-0.153,1.957-0.263c0.014-0.003,0.035-0.007,0.05-0.01
		C151.201,252.639,152.636,258.683,151.754,266.876z M152.097,245.428c-0.637,0.166-2.061,0.504-2.48,0.583
		c-0.521,0.088-1.073,0.16-1.655,0.22c-0.596,0.063-1.18,0.102-1.725,0.116c-0.614,0.013-1.262,0.013-1.897,0.001
		c-0.902-0.028-2.076-0.08-3.188-0.238c-0.608-0.078-1.719-0.228-2.521-0.347c-0.009-0.676-0.016-1.377-0.019-2.146
		c-0.007-1.847,0.008-3.705,0.022-5.573l0.009-1.228c0.009-2.009,0.012-4.345-0.054-6.626c-0.044-1.734-0.128-3.414-0.25-4.994
		c-0.114-1.478-0.267-2.902-0.469-4.363c-0.185-1.302-0.424-2.622-0.711-3.933c-0.278-1.251-0.605-2.467-0.969-3.599
		c-0.22-0.705-0.47-1.42-0.729-2.088c-0.247-0.675-0.519-1.341-0.878-2.155c-0.383-0.874-0.757-1.657-1.138-2.387
		c-0.391-0.756-0.851-1.538-1.476-2.503c-0.528-0.774-1.063-1.487-1.652-2.198c-0.639-0.752-1.262-1.396-1.886-1.954
		c-0.396-0.363-0.812-0.71-1.242-1.051c-0.32-0.248-0.642-0.495-1.009-0.74l-0.115-0.075c-0.246-0.16-0.505-0.329-0.82-0.521
		c-0.351-0.2-0.711-0.4-1.065-0.563c-0.372-0.173-0.729-0.31-1.113-0.446c-0.109-0.061-0.225-0.112-0.347-0.154l-8.557-2.85
		c8.233-4.351,28.219-13.982,49.612-17.395c0.165-0.026,0.326-0.072,0.479-0.138c0.264-0.043,1.982-0.231,6.626,1.362l59.155,20.303
		c0.27,0.096,6.603,2.405,6.777,8.422c0.016,0.528,0.028,1.078,0.039,1.641C205.701,216.298,175.677,229.613,152.097,245.428z
		 M328.082,182.13c0.001-0.002,0.001-0.003,0.002-0.005v0.019l-0.007,0.008C328.079,182.143,328.079,182.139,328.082,182.13z
		 M328.514,21.732c0.073,1.071,0.146,2.117,0.239,3.115c0.494,5.259,0.832,10.49,1.195,14.45l0.157,3.952
		c0.031,1.092,0.112,1.917,0.248,3.115l1.893,52.118c-1.56,0.364-3.189,0.768-4.944,1.229c-2.32,0.609-4.688,1.282-7.242,2.059
		c-2.47,0.761-4.926,1.568-7.289,2.396c-2.358,0.813-4.837,1.73-7.366,2.725c-2.48,0.972-4.973,2.001-7.405,3.061
		c-2.545,1.11-5.045,2.25-7.429,3.39c-2.541,1.215-5.056,2.468-7.479,3.726c-2.574,1.345-5.087,2.708-7.466,4.048
		c-2.806,1.578-5.262,3.014-7.505,4.385c-1.809,1.101-3.615,2.237-5.425,3.385c-0.038,0.02-0.076,0.04-0.113,0.062
		c-0.557,0.328-1.091,0.75-1.704,1.352c-0.501,0.505-0.918,0.979-1.306,1.491c-0.491,0.68-0.867,1.323-1.172,2.015
		c-0.104,0.251-0.19,0.506-0.277,0.763l-0.114,0.338c-0.006,0.019-0.078,0.251-0.181,0.618c-0.485-0.093-0.957-0.157-1.377-0.188
		c-0.735-0.05-1.386-0.045-1.963,0.013c-0.383,0.034-0.776,0.092-1.247,0.187c-0.083,0.007-0.167,0.019-0.25,0.037
		c-1.204,0.252-2.417,0.512-3.62,0.782c-2.378,0.537-4.932,1.173-7.811,1.947c-2.725,0.737-5.371,1.507-7.856,2.286
		c-2.55,0.786-5.218,1.67-7.933,2.628c-2.742,0.971-5.427,1.973-7.978,2.978c-2.579,1.014-5.204,2.098-8.031,3.318
		c-2.636,1.149-5.347,2.385-8.059,3.672c-2.708,1.287-5.432,2.636-8.096,4.011c-2.646,1.371-5.371,2.836-8.096,4.353
		c-2.895,1.603-5.557,3.145-8.124,4.707c-1.351,0.809-2.698,1.642-4.048,2.475l-1.733,1.069c-0.033,0.017-0.066,0.034-0.099,0.053
		c-0.749,0.43-1.354,0.979-1.738,1.35c-0.446,0.427-0.82,0.845-1.164,1.272c-3.03-0.732-4.752-0.635-5.728-0.284
		c-26.259,4.244-49.659,17.118-54.066,19.645l-57.818-19.257l0.076-0.035c-5.952-12.927-10.425-31.288-12.64-44.226
		c-1.121-5.489,1.05-11.188,5.533-14.542l0.119-0.075c45.747-29.084,94.738-53.527,145.585-72.639
		c46.385-16.631,100.092-24.751,137.472-28.653C328.054,15.125,328.29,18.468,328.514,21.732z M34.756,131.212
		c1.394,7.642,4.992,25.045,11.077,39.645l-18.159-6.048c-0.333-0.763-0.942-1.653-1.485-2.728
		c-0.904-1.789-3.67-6.875-7.244-18.956c-0.316-1.069-0.657-2.177-1.007-3.312c-1.142-3.706-2.372-7.706-3.052-11.548
		L34.756,131.212z M46.178,96.116c29.656-17.143,59.834-32.271,89.695-44.965c42.465-18.054,86.193-31.03,129.971-38.568
		c11.268-1.94,22.8-3.583,34.275-4.88c2.938-0.332,5.902-0.486,9.329-0.486c2.62,0,5.26,0.093,7.497,0.184
		c0.56,0.023,1.113,0.037,1.662,0.05c3.057,0.075,4.796,0.218,6.05,1.071c-37.5,4.007-90.46,12.192-136.412,28.667
		c-50.972,19.16-100.062,43.634-145.91,72.738l-15.716-2.169C33.234,103.708,39.809,99.792,46.178,96.116z M14.455,120.877
		c0.461-4.463,2.765-6.973,6.752-9.703l17.094,2.359c-3.08,3.737-4.621,8.57-4.217,13.411l-19.696-2.92
		C14.337,122.942,14.351,121.889,14.455,120.877z M7.728,179.422c0.994-2.526,2.875-3.689,5.864-5.378
		c0.706-0.398,1.413-0.812,2.124-1.227c3.104-1.814,6.037-3.528,9.117-4.185c0.224-0.048,0.436-0.123,0.642-0.21l87.624,29.184
		c-0.344,0.154-0.698,0.32-1.07,0.503c-1.12,0.56-2.323,1.225-3.798,2.097c-0.686,0.412-1.371,0.833-2.058,1.255
		c-1.367,0.84-2.782,1.709-4.162,2.47c-0.042,0.023-0.084,0.049-0.125,0.075c-4.646,3.01-7.425,8.058-7.604,13.473L7.777,186.282
		C7.133,183.297,6.954,181.392,7.728,179.422z M59.396,288.395l-24.955-10.368c-0.449-0.187-0.903-0.366-1.357-0.546
		c-0.855-0.338-1.662-0.658-2.408-1.012c-2.461-1.172-3.857-3.25-4.668-6.951l-17.19-78.477l85.911,30.982l11.718,59.728
		l5.007,28.267C94.1,302.812,76.748,295.604,59.396,288.395z M429.364,155.734c-0.084,0.747-0.159,1.508-0.235,2.277
		c-0.716,7.238-1.481,11.792-6.074,13.997L128.847,313.195c-1.47,0.705-2.914,1.049-4.417,1.049c-2.464,0-5.057-0.937-7.493-1.949
		c-0.021-0.009-0.041-0.017-0.062-0.025c-0.342-0.671-0.576-1.402-0.671-2.174c-0.006-0.049-0.014-0.099-0.023-0.146L98.56,220.136
		c-0.838-4.936,1.324-9.886,5.51-12.631c1.442-0.798,2.876-1.679,4.263-2.531c0.673-0.413,1.346-0.827,2.01-1.225
		c1.378-0.816,2.5-1.437,3.517-1.945c1.328-0.651,2.402-1.081,3.39-1.354c0.606-0.171,1.151-0.283,1.667-0.343
		c0.564-0.064,1.02-0.065,1.381-0.004c0.35,0.062,0.713,0.174,1.022,0.275l0.002-0.005c0.018,0.007,0.033,0.018,0.052,0.023
		c0.386,0.134,0.749,0.261,1.078,0.414c0.257,0.117,0.506,0.261,0.694,0.366c0.225,0.139,0.451,0.286,0.665,0.427l0.101,0.065
		c0.266,0.177,0.509,0.367,0.736,0.543c0.336,0.267,0.675,0.549,1.017,0.862c0.501,0.447,0.996,0.961,1.495,1.548
		c0.489,0.59,0.948,1.201,1.375,1.828c0.523,0.809,0.921,1.481,1.252,2.123c0.337,0.645,0.68,1.365,1.022,2.145
		c0.324,0.735,0.564,1.326,0.795,1.951c0.239,0.618,0.458,1.244,0.656,1.877c0.329,1.027,0.623,2.12,0.873,3.243
		c0.264,1.205,0.484,2.424,0.654,3.615c0.188,1.371,0.333,2.715,0.44,4.11c0.117,1.509,0.197,3.116,0.239,4.787
		c0.063,2.227,0.061,4.521,0.053,6.492l-0.01,1.218c-0.015,1.884-0.029,3.759-0.021,5.622c0.009,2.224,0.039,4.025,0.095,5.658
		c0.05,1.714,0.13,3.387,0.239,4.963c0.087,1.358,0.187,2.552,0.303,3.63c0.099,0.997,0.232,2.054,0.421,3.339
		c0.217,1.409,0.438,2.641,0.682,3.785l0.297,1.329c-0.003,0.185,0.019,0.372,0.066,0.558c0.081,0.309,0.164,0.61,0.234,0.827
		c0.169,0.576,0.37,1.029,0.51,1.323c0.186,0.393,0.339,0.669,0.502,0.905c0.143,0.222,0.298,0.427,0.461,0.608
		c0.06,0.066,0.115,0.122,0.163,0.17c0.65,0.763,1.652,1.177,2.558,1.406c0.622,0.665,1.395,1.266,2.376,1.706
		c0.059,0.016,0.114,0.027,0.176,0.041c3.598,0.746,7.776-1.086,11.164-2.068c5.053-1.467,10.04-3.129,14.967-4.965
		c12.088-4.5,24.224-9.33,35.552-15.527c5.868-3.209,11.729-6.377,17.452-9.846c3.047-1.848,6.064-3.742,9.039-5.703
		c2.248-1.482,4.775-2.814,6.337-5.08c0.347-0.507,0.608-1.41,0.978-2.071c0.109-0.149,0.22-0.3,0.317-0.448
		c0.157-0.175,0.331-0.307,0.538-0.346c0.947-0.174,1.932,0.406,2.916,0.488c2.662,0.279,5.122-0.605,7.662-1.27
		c4.363-1.16,8.745-2.418,12.967-4.029c15.811-6.039,31.387-12.498,46.038-21.031c5.837-3.4,11.52-7.043,17.117-10.822
		c1.79-1.303,2.527-3.129,4.009-4.631c0.635-0.645,2.635,0.195,3.637,0.18c1.563-0.021,3.005-0.443,4.506-0.824
		c7.229-1.822,14.074-4.238,20.988-6.951c8.104-3.178,16.318-6.363,24.014-10.451c5.62-2.984,11.152-6.098,16.551-9.471
		c3.109-1.943,6.162-3.971,9.191-6.037c1.958-1.332,3.461-2.939,4.232-5.154c0.387-0.545,0.729-1.129,1.048-1.827
		c0.282-0.656,0.496-1.27,0.655-1.89c0.181-0.721,0.278-1.373,0.297-1.942c0.008-0.145,0.013-0.291,0.012-0.436
		c0.014-0.092,0.021-0.187,0.021-0.282l0.033-6.936c0-0.004,0-0.008,0-0.012l0.047-6.973c0.001-0.087-0.004-0.175-0.015-0.262
		c-0.003-0.021-0.007-0.055-0.012-0.091c-0.01-0.415-0.022-0.879-0.083-1.313c-0.07-0.663-0.221-1.355-0.447-2.065
		c-0.22-0.684-0.464-1.289-0.737-1.834c-0.157-0.321-0.332-0.633-0.524-0.943v-1.869c-0.032-1.959-0.105-3.853-0.191-5.95
		l-0.015-0.367c-0.073-1.75-0.146-3.51-0.201-5.292c-0.069-2.015-0.095-3.869-0.079-5.651c0.028-1.707,0.081-3.725,0.26-5.756
		c0.15-1.819,0.381-3.666,0.681-5.473c0.34-1.953,0.742-3.8,1.195-5.487c0.396-1.463,0.816-2.814,1.298-4.166
		c0.362-1.076,0.732-2.055,1.141-3.012c0.393-0.949,0.768-1.749,1.139-2.434c0.342-0.62,0.661-1.139,0.964-1.569
		c0.39-0.541,0.736-0.973,1.076-1.34c0.337-0.371,0.728-0.735,1.184-1.103c0.372-0.295,0.792-0.583,1.243-0.853
		c0.703-0.417,1.47-0.762,2.356-1.059c0.814-0.279,1.66-0.484,2.528-0.688c0.639-0.15,1.278-0.282,1.917-0.423
		c5.083,1.405,7.427,2.797,7.771,6.579c0.172,3.203-0.386,6.852-0.926,10.381c-0.254,1.664-0.518,3.385-0.703,5.048l-3.807,33.951
		C431.696,134.902,430.53,145.319,429.364,155.734z"/>
</g>
</svg>
