<?xml version="1.0" encoding="utf-8"?>
<!-- Generator: Adobe Illustrator 16.0.0, SVG Export Plug-In . SVG Version: 6.00 Build 0)  -->
<!DOCTYPE svg PUBLIC "-//W3C//DTD SVG 1.1//EN" "http://www.w3.org/Graphics/SVG/1.1/DTD/svg11.dtd">
<svg version="1.1" id="Layer_1" xmlns="http://www.w3.org/2000/svg" xmlns:xlink="http://www.w3.org/1999/xlink" x="0px" y="0px"
	 width="754.484px" height="463.842px" viewBox="0 0 754.484 463.842" enable-background="new 0 0 754.484 463.842"
	 xml:space="preserve">
<path fill="none" d="M23.706,70.731l1.559,0.656l1.646,0.421l2.019,0.183l1.726-0.122l1.991-0.472l1.573-0.653l1.453-0.873
	l1.538-1.308l1.079-1.278l1.014-1.714l0.587-1.537l0.344-1.604l0.093-1.308l-0.114-1.631l-0.365-1.592l-0.61-1.525l-0.842-1.417
	l-1.054-1.277l-1.245-1.113l-1.704-1.076l-1.563-0.66l-1.984-0.479l-1.707-0.128l-1.705,0.122l-1.997,0.472l-1.876,0.812
	l-1.696,1.125l-1.453,1.396l-1.169,1.623l-0.73,1.487l-0.557,1.891l-0.19,1.631l-0.007,0.323l0.115,1.632l0.369,1.595l0.612,1.521
	l0.843,1.415l1.292,1.514l1.278,1.071L23.706,70.731z M21.709,62.197l-0.077-0.958l0.102-1.285l0.335-1.252l0.551-1.162l0.75-1.049
	l0.928-0.905l1.076-0.732l1.187-0.536l1.262-0.325l1.298-0.105l1.299,0.119l1.255,0.338l1.176,0.549l1.06,0.744l0.91,0.916
	l0.73,1.062l0.526,1.172l0.306,1.247l0.076,0.963l-0.103,1.284l-0.333,1.242l-0.554,1.167l-0.751,1.049l-0.931,0.906l-1.072,0.729
	l-1.185,0.535l-1.261,0.325l-1.297,0.105c-0.006,0-0.013,0-0.019,0c-0.016,0-0.031,0-0.046,0l-1.23-0.118l-1.258-0.338l-1.172-0.545
	l-1.062-0.744l-0.912-0.917l-0.73-1.061l-0.526-1.169L21.709,62.197z"/>
<path fill="none" d="M210.303,21.482l-4.761-2.391c0.083,6.852-3.468,13.358-9.363,17.082c-0.543,0.343-1.105,0.648-1.677,0.937
	l5.711,2.859l-1.311,2.618l-2.055-1.029l-1.876,5.902l-0.425,3.057l0.006,0.047c0.279-0.193,0.638-0.482,1.051-0.889
	c1.762-1.734,3.231-3.865,4.586-5.898c2.644-3.967,5.174-8.432,7.735-13.653c2.738-5.576,4.665-10.203,6.066-14.56l0.121-0.376
	c0.65-2.017,1.388-4.303,1.315-6.308c-0.001-0.016-0.001-0.031-0.002-0.046c-0.066,0.043-0.14,0.095-0.223,0.159
	c-2.485,1.913-4.737,5.483-6.555,8.381l2.969,1.491L210.303,21.482z"/>
<path fill="none" d="M216.898,16.088l-0.12,0.373c-1.445,4.496-3.423,9.247-6.225,14.954c-2.619,5.337-5.213,9.912-7.927,13.986
	c-1.44,2.161-3.01,4.432-4.969,6.361c-0.198,0.195-0.391,0.372-0.581,0.539l8.735,4.368c0.284-0.059,0.969-0.474,2.532-2.41
	l0.267-0.328c1.435-1.725,2.844-3.711,4.436-6.249c2.735-4.364,5.271-9.033,7.538-13.877c2.059-4.397,3.553-8.039,4.703-11.461
	c0.566-1.686,1.191-3.676,1.531-5.66l0.047-0.262c0.212-1.172,0.26-1.918,0.143-2.22l-8.672-4.358
	C218.211,12.009,217.521,14.159,216.898,16.088z"/>
<path fill="none" d="M226.224,32.325c0.834-2.095,1.681-4.331,2.062-6.613l0.029-0.169c0.05-0.287,0.152-0.883,0.097-1.085
	c-0.071-0.083-0.344-0.216-0.637-0.345c-1.146,3.287-2.596,6.786-4.537,10.933c-2.317,4.952-4.911,9.727-7.71,14.191
	c-0.47,0.749-0.923,1.443-1.368,2.109c0.236,0.132,0.472,0.25,0.625,0.287c0.361-0.193,0.771-0.635,1.106-0.997
	c1.64-1.772,2.981-3.92,4.11-5.795l2.508,1.511c-0.686,1.139-1.459,2.371-2.325,3.589l1.767,0.885
	c0.043-0.037,0.083-0.073,0.112-0.099c1.363-1.212,2.413-2.933,3.43-4.597c2.223-3.641,3.985-7.248,5.282-10.79l0.109-0.297
	c0.524-1.427,1.066-2.902,1.141-4.281c0.002-0.039,0.003-0.071,0.004-0.099l-1.758-0.883c-0.41,1.278-0.879,2.503-1.326,3.627
	L226.224,32.325z"/>
<path fill="none" d="M22.511,81.825c5.098,1.504,11.577,1.633,15.912,0.286l0,0l139.272-44.226
	c-4.139-1.609-7.637-4.518-9.892-8.332c-0.158,0.148-0.346,0.263-0.557,0.33L50.678,66.898c-0.146,0.046-0.295,0.068-0.443,0.068
	c-0.362,0-0.718-0.135-0.992-0.388c-0.387-0.356-0.553-0.893-0.435-1.405c1.472-6.385-0.35-13.069-4.87-17.88
	c-0.363-0.386-0.489-0.938-0.33-1.443c0.16-0.505,0.58-0.885,1.099-0.992l119.925-24.902c0.188-0.038,0.381-0.034,0.566,0
	c0.02-2.986,0.739-5.994,2.165-8.788c0.225-0.44,0.47-0.867,0.725-1.288L24.031,39.776C14.125,41.884,6.817,50.13,6.275,59.825
	c-0.534,9.549,5.913,18.607,15.329,21.536C21.934,81.464,22.236,81.625,22.511,81.825z M18.939,70.873l-1.133-1.25l-0.969-1.374
	l-0.79-1.48l-0.601-1.563l-0.401-1.625l-0.196-1.665l-0.02-0.837l0.116-1.668l0.324-1.646l0.523-1.593l0.721-1.523l0.902-1.427
	l1.072-1.311l1.224-1.175l1.36-1.023l1.474-0.856l1.972-0.819l1.652-0.442l1.696-0.246l1.283-0.054l2.131,0.161l1.673,0.352
	l2.009,0.712l1.514,0.776l1.403,0.947l1.279,1.109l1.13,1.25l0.967,1.376l0.789,1.485l0.599,1.564l0.398,1.625l0.194,1.661
	l0.019,0.837l-0.12,1.672l-0.326,1.644l-0.524,1.588l-0.723,1.525l-0.901,1.422l-1.072,1.309l-1.223,1.172l-1.716,1.25l-1.497,0.811
	l-1.993,0.759l-2.086,0.461l-2.132,0.152c-0.006,0-0.011,0-0.017,0c-0.01,0-0.019,0-0.027,0l-2.086-0.16l-2.078-0.468l-1.597-0.59
	l-1.513-0.774l-1.405-0.946L18.939,70.873z"/>
<path fill="none" d="M372.61,362.875c-1.783-1.033-3.716-1.697-5.758-2.015c-5.204,6.243-9.595,13.588-12.77,20.458
	c-1.518,3.317-2.896,6.76-4.217,10.194l34.088-12.42C382.538,374.251,379.352,366.784,372.61,362.875z"/>
<path fill="none" d="M216.381,341.872c-1.416-4.842-4.603-12.309-11.344-16.218c-0.523-0.304-1.063-0.568-1.61-0.811l-6.67,24.179
	L216.381,341.872z"/>
<path fill="none" d="M280.411,60.266c0.391,0.413,0.759,0.803,1.121,0.987c1.013,0.515,2.26,0.034,2.794-0.96
	c0.236-0.441,0.412-1.129-0.098-1.9l-30.182-45.611c-0.004-0.006-0.009-0.012-0.013-0.019c-1.799-2.688-4.448-3.089-5.87-3.089
	c-3.239,0-6.878,2.09-7.564,6.085c-0.377,2.198,0.427,4.437,2.264,6.306L280.411,60.266z"/>
<path fill="none" d="M39.302,84.904c-2.271,0.708-5.065,1.058-7.97,1.058c-2.11,0-4.267-0.207-6.337-0.572l62.356,90.975
	c0.304,0.442,0.471,0.948,0.521,1.463l6.436-12.202c1.616-2.989,3.572-5.61,5.822-7.802c5.935-5.785,14.19-9.103,22.649-9.103
	c2.688,0,5.354,0.333,7.923,0.992c4.836,1.239,9.243,3.655,12.88,6.88c-0.605-0.846-1.248-1.641-1.885-2.329L68.964,75.486
	l-15.563,4.942l55.892,60.416c0.329,0.355,0.461,0.85,0.353,1.322c-0.108,0.472-0.443,0.859-0.895,1.036l-2.962,1.275l-2.814,1.511
	l-2.667,1.743l-2.499,1.96l-2.311,2.164l-2.104,2.347l-0.78,0.986c-0.277,0.358-0.705,0.566-1.156,0.566
	c-0.016,0-0.032,0-0.049-0.001c-0.469-0.015-0.902-0.255-1.165-0.644L42.231,83.975l-2.922,0.928"/>
<path fill="none" d="M164.825,27.581c-0.547-1.434-0.938-2.916-1.169-4.432L47.7,47.227c3.485,4.643,5.053,10.417,4.385,16.152
	L164.825,27.581z"/>
<path fill="none" d="M273.025,312.848c-1.169,0.423-2.338,0.847-3.507,1.271c-3.744,1.355-7.487,2.711-11.231,4.067
	c-7.52,2.724-15.039,5.447-22.559,8.171c-1.611,0.584-3.231,1.291-4.958,1.43c-1.851,0.147-3.619-0.324-5.163-1.238
	c0.996,3.298,1.772,6.725,2.321,10.25c7.514-2.731,15.024-5.468,22.536-8.204c20.604-7.508,41.898-15.268,62.905-22.788
	c0.275-2.658,0.632-5.313,1.085-7.955l-28.126,10.341c-0.017,0.007-0.033,0.012-0.05,0.018l-0.135,0.05l-0.001-0.009
	c-0.122,0.033-0.249,0.057-0.381,0.057c-0.022,0-0.046,0-0.069-0.002c-0.808-0.037-1.432-0.723-1.394-1.53l0.061-1.351
	c0.535-12.413,0.714-24.709,0.533-36.546c-0.181-11.891-0.735-24.003-1.646-36.001c-0.861-11.346-2.998-26.712-4.579-38.052
	l-10.718-2.222c0.68,5.291,1.712,10.555,2.407,15.847c0.655,4.984,1.258,9.974,1.774,14.974c1.209,11.712,2.056,23.458,2.525,35.224
	c0.478,11.95,0.563,23.911,0.32,35.868c-0.062,3.015-0.158,6.027-0.263,9.04c-0.052,1.482-0.117,2.964-0.18,4.445
	c-0.031,0.736-0.065,1.473-0.101,2.209c-0.021,0.459,0.161,1.822-0.107,2.166C274.146,312.608,273.289,312.752,273.025,312.848z"/>
<path fill="none" d="M37.236,280.248c-0.489,0-0.948-0.244-1.221-0.655c-0.288-0.435-0.322-0.989-0.092-1.457
	c0.106-0.215,0.191-0.434,0.27-0.654c-5.103,0.299-11.292,0.71-14.949,3.343c1.703,1.127,7.512,2.21,10.343,2.32
	c1.771,0.067,3.561,0.046,5.396-0.061l54.314-3.191c0.163-0.913,0.313-1.868,0.453-2.85l-54.428,3.202
	C37.293,280.247,37.265,280.248,37.236,280.248z"/>
<path fill="none" d="M33.878,308.664c-4.133,0-7.564-0.481-10.491-1.473c-1.16-0.393-4.242-1.436-4.384-4.06l-0.324-6.006
	c-3.359,2.177-5.018,4.245-4.902,6.157l0.011,0.127l-0.006,0.001l0.2,3.666c1.921,2.003,5.003,3.49,7.796,4.643
	c4.154,1.715,8.874,2.979,15.305,4.1c9.746,1.698,20.479,2.422,32.804,2.22c3.787-0.063,7.551-0.232,11.286-0.488
	c0.082-4.863,0.425-8.82,0.764-11.618l-43.952,2.6C36.478,308.621,35.135,308.664,33.878,308.664z"/>
<path fill="none" d="M235.063,34.819c0.007,0.033,0.015,0.067,0.018,0.085c0.003,0.017,0.008,0.054,0.013,0.092
	c0.893,1.016,1.555,2.193,1.949,3.453l6.334-11.686l-2.546-2.589L235.063,34.819z"/>
<path fill="none" d="M138.258,176.378l-0.937-1.848l-1.181-1.711l-1.407-1.548l-1.607-1.354l-1.787-1.144l-1.931-0.907l-2.042-0.655
	l-2.121-0.392l-2.159-0.12l-2.164,0.153l-2.128,0.423l-2.058,0.687l-1.947,0.939l-1.807,1.173l-1.632,1.386l-1.433,1.577
	l-1.206,1.737l-0.962,1.869l-0.7,1.965l-0.43,2.034l-0.149,2.063l0.13,2.063l0.408,2.017l0.681,1.951l0.94,1.845l1.184,1.707
	l1.409,1.543l1.609,1.353l1.784,1.138l1.93,0.901l2.039,0.651l0.412,0.075c1.431-1.778,2.943-3.497,4.512-5.165l-0.661,0.057
	c-0.009,0-0.018,0-0.026,0c-0.012,0-0.023,0-0.035,0l-1.808-0.162l-1.449-0.355l-1.381-0.551l-1.292-0.739l-1.166-0.909
	l-1.024-1.066l-0.855-1.196l-0.67-1.305l-0.472-1.39l-0.263-1.439l-0.056-1.098l0.115-1.469l0.328-1.433l0.533-1.374l0.731-1.293
	l0.903-1.172l1.067-1.041l1.203-0.885l1.32-0.713l1.763-0.626l1.478-0.28l1.123-0.077l1.498,0.079l1.468,0.281l1.414,0.482
	l1.325,0.669l1.218,0.85l1.078,1.009l0.921,1.153l0.74,1.268l0.546,1.361l0.341,1.426l0.126,1.462l-0.069,1.128
	c1.831-1.518,3.688-2.975,5.56-4.367l-0.148-0.74L138.258,176.378z"/>
<path fill="none" d="M65.884,321.001c-10.84,0-20.46-0.756-29.304-2.297c-6.65-1.159-11.561-2.479-15.92-4.277
	c-1.562-0.645-4.141-1.714-6.461-3.349l1.196,21.957c0.047,0.85,0.061,1.726,0.074,2.61c0.047,3.187,0.092,6.196,1.82,8.046
	c2.875,3.078,7.627,4.811,12.333,6.225c8.727,2.622,18.762,4.041,31.581,4.466c8.572,0.282,16.701,0.134,24.385-0.425
	c-3.368-12.884-4.378-24.464-4.434-33.471c-3.715,0.25-7.456,0.418-11.221,0.48C68.565,320.989,67.215,321.001,65.884,321.001z"/>
<path fill="none" d="M227.391,51.053c-0.36,0-0.721-0.033-1.08-0.072l-6.322,11.698l3.638,0.523l6.858-12.654
	C229.479,50.873,228.438,51.053,227.391,51.053z"/>
<path fill="none" d="M217.911,65.438c-2.085,0-3.945,0.712-5.379,2.061c-2.121,1.995-2.797,5.22-1.644,7.842
	c1.141,2.591,3.964,4.307,6.9,4.186l56.15-2.239c1.217-0.053,1.841-0.98,1.917-1.876c0.032-0.377,0.022-1.634-1.465-1.957
	c-1.647-0.358-3.408-0.57-5.112-0.776c-0.871-0.105-1.74-0.21-2.599-0.333l-47.31-6.798
	C218.852,65.473,218.374,65.438,217.911,65.438z"/>
<path fill="none" d="M129.976,152.549c-2.332-0.598-4.753-0.9-7.196-0.9c-7.702,0-15.213,3.015-20.606,8.271
	c-2.037,1.986-3.814,4.37-5.282,7.085L40.149,274.6c-0.358,0.68-0.522,1.362-0.714,2.152c-0.034,0.145-0.07,0.292-0.107,0.442
	l52.801-3.106c0.319-2.9,0.534-6.072,0.606-9.537c0.558-26.63,4.66-39.23,24.271-64.102l-1.063-0.324l-1.849-0.779l-1.755-0.964
	l-1.641-1.139l-1.506-1.3l-1.358-1.449l-1.19-1.58l-1.014-1.696l-0.822-1.791l-0.623-1.866l-0.416-1.928l-0.204-1.959l-0.022-0.986
	l0.117-1.967l0.329-1.949l0.539-1.907l0.74-1.841l0.936-1.759l1.12-1.658l1.288-1.534l1.447-1.399l1.587-1.245l1.711-1.08
	l1.813-0.902l1.898-0.715l1.965-0.521l2.006-0.32l2.027-0.117l2.025,0.088l2.004,0.292l1.96,0.494l1.894,0.689l1.807,0.878
	l1.7,1.056l1.576,1.226l1.432,1.38l1.274,1.519l1.101,1.644l0.915,1.749l0.72,1.835l0.16,0.588c2.747-1.954,5.495-3.775,8.185-5.454
	C147.314,162.528,139.564,155.007,129.976,152.549z"/>
<path fill="none" d="M227.706,48.114c1.271-0.058,2.533-0.458,3.644-1.185c1.719-1.125,2.864-2.889,3.143-4.84
	c0.243-1.704-0.249-3.461-1.323-4.848c-1.325,3.433-3.038,6.907-5.136,10.343C227.928,47.759,227.814,47.938,227.706,48.114z"/>
<polygon fill="none" points="91.561,151.828 93.406,149.805 95.903,147.468 98.603,145.351 101.481,143.469 104.518,141.84 
	105.714,141.287 50.319,81.406 45.141,83.051 "/>
<path fill="none" d="M466.385,381.304l40.448-15.922c1.398-23.681,1.62-47.421,0.419-71.115
	c-0.803-15.826-2.261-31.605-4.322-47.316c-0.278-2.193-0.675-4.301-1.047-6.03l-31.243,11.426
	c-0.591,0.215-1.208,0.422-1.854,0.622c-0.642,0.198-1.312,0.389-2.009,0.572c-0.345,0.092-0.701,0.181-1.063,0.269l-1.104,0.256
	c-0.741,0.164-1.504,0.32-2.286,0.465c-0.367,0.068-0.738,0.148-1.111,0.237c-0.377,0.089-0.753,0.187-1.13,0.296
	c-0.386,0.108-0.768,0.226-1.15,0.353c-0.393,0.127-0.779,0.263-1.169,0.406c-0.392,0.144-0.784,0.297-1.179,0.457l-0.522,0.217
	c-0.276,0.116-0.473,0.203-0.669,0.289c-0.395,0.174-0.787,0.355-1.178,0.541c-0.394,0.188-0.782,0.38-1.171,0.578
	c-0.783,0.396-1.557,0.815-2.325,1.252l-1.139,0.665c-0.39,0.232-0.765,0.462-1.136,0.693c-0.743,0.466-1.471,0.942-2.186,1.427
	c-0.717,0.485-1.418,0.98-2.106,1.481c-0.689,0.502-1.366,1.012-2.029,1.527l-0.987,0.778c-0.319,0.257-0.639,0.515-0.952,0.774
	c-0.63,0.52-1.241,1.037-1.833,1.553c-0.594,0.518-1.17,1.032-1.73,1.543c-0.558,0.512-1.101,1.021-1.627,1.527l-0.776,0.753
	c-0.258,0.252-0.505,0.497-0.748,0.742c-0.49,0.492-0.961,0.974-1.413,1.446l-1.209,1.29c-0.014,0.016-0.027,0.03-0.036,0.04
	c-0.005,0.006-0.016,0.017-0.027,0.029c-0.022,0.025-0.047,0.052-0.071,0.076c-0.115,0.115-0.249,0.211-0.396,0.282
	c-0.539,0.262-13.271,6.314-19.599-1.479c-0.197-0.021-0.713,0.021-1.597,0.402c-0.642,0.237-7.893,2.827-18.282,6.537
	c0.409,2.114,0.883,4.218,1.514,6.246c0.939,3.032,2.366,5.688,4.49,8.362l65.109,81.994c1.414,1.78,2.623,2.998,4.275,3.565
	c0.6,0.205,1.221,0.283,1.85,0.284L466.385,381.304z"/>
<path fill="none" d="M524.388,276.491c0.842,11.695,1.363,23.716,1.551,35.729c0.232,14.823-0.063,30.273-0.87,45.982l98.766-38.879
	l-1.045-1.089c-0.035-0.037-0.07-0.073-0.105-0.11l-0.972-1.012l0.03-0.028c-0.045-0.058-0.088-0.114-0.127-0.169
	c-0.515-0.546-0.767-0.816-0.834-0.897c-0.295-0.357-0.58-0.712-0.86-1.067s-0.556-0.713-0.827-1.073
	c-0.271-0.362-0.537-0.725-0.798-1.088c-0.262-0.365-0.519-0.731-0.77-1.1c-0.25-0.365-0.496-0.735-0.737-1.105
	c-0.193-0.298-0.385-0.597-0.572-0.896c-0.188-0.303-0.373-0.604-0.554-0.905c-0.18-0.302-0.358-0.604-0.532-0.906
	c-0.172-0.3-0.341-0.601-0.508-0.9c-0.171-0.312-0.334-0.614-0.492-0.917c-0.163-0.307-0.322-0.618-0.479-0.928
	c-0.156-0.313-0.31-0.623-0.457-0.932c-0.147-0.312-0.292-0.621-0.433-0.93c-0.14-0.308-0.277-0.618-0.41-0.928
	s-0.262-0.617-0.386-0.925c-0.12-0.297-0.237-0.592-0.35-0.887c-0.113-0.297-0.223-0.591-0.328-0.885
	c-0.104-0.297-0.207-0.588-0.304-0.879s-0.189-0.581-0.279-0.871c-0.089-0.289-0.175-0.578-0.255-0.866
	c-0.083-0.289-0.162-0.583-0.236-0.873c-0.074-0.291-0.144-0.578-0.21-0.863c-0.065-0.296-0.125-0.576-0.182-0.855
	c-0.058-0.291-0.108-0.57-0.155-0.846c-0.047-0.283-0.088-0.56-0.125-0.831c-0.031-0.23-0.059-0.454-0.082-0.676
	c-0.024-0.229-0.045-0.449-0.062-0.666c-0.017-0.22-0.029-0.437-0.039-0.651c-0.009-0.219-0.016-0.434-0.017-0.646
	c-0.002-0.207,0.001-0.418,0.006-0.626c0.006-0.219,0.016-0.436,0.032-0.643l0.017-0.181c0.001-0.02,0.002-0.04,0.004-0.06
	c1.266-15.314,6.293-30.434,14.194-42.754l-96.257-19.624c-0.201,0.111-0.582,0.445-0.689,1.396
	c0.787,3.794-4.669,5.981-7.128,6.898l-0.073,0.09c2.858,11.855,3.74,24.443,4.575,36.64
	C524.144,273.014,524.264,274.759,524.388,276.491z"/>
<path fill="none" d="M490.733,178.656c0.715,0.881,1.412,1.77,2.104,2.658c0.133,0.049,0.265,0.096,0.396,0.146l0.634,0.243
	c0.215,0.084,0.427,0.17,0.64,0.257c0.212,0.087,0.425,0.175,0.635,0.266c0.213,0.091,0.423,0.183,0.633,0.276
	c0.205,0.091,0.415,0.188,0.623,0.283c0.216,0.1,0.424,0.198,0.632,0.299l1.845,0.943c0.202,0.108,0.407,0.221,0.609,0.334
	c0.199,0.112,0.4,0.227,0.601,0.342c0.197,0.115,0.397,0.232,0.596,0.352c0.177,0.105,0.36,0.217,0.543,0.33l0.507,0.317
	c0.201,0.128,0.398,0.255,0.593,0.384c0.194,0.127,0.39,0.258,0.583,0.389c0.19,0.129,0.384,0.263,0.577,0.397
	c0.193,0.136,0.385,0.271,0.575,0.409l0.564,0.414c0.193,0.145,0.382,0.286,0.568,0.431c0.182,0.139,0.368,0.285,0.556,0.433
	c0.186,0.148,0.37,0.295,0.554,0.445l0.544,0.451c0.186,0.156,0.367,0.311,0.546,0.467c0.178,0.152,0.356,0.311,0.534,0.469
	c0.179,0.16,0.355,0.32,0.532,0.482c0.173,0.158,0.35,0.322,0.523,0.486c0.176,0.165,0.349,0.332,0.521,0.5l1.021,1.023
	c0.176,0.181,0.344,0.355,0.51,0.533c0.165,0.176,0.332,0.354,0.497,0.535c0.163,0.178,0.327,0.36,0.49,0.543
	c0.162,0.184,0.325,0.368,0.486,0.555l0.48,0.563c0.161,0.193,0.319,0.383,0.476,0.576c0.156,0.189,0.313,0.385,0.468,0.582
	c0.151,0.189,0.306,0.387,0.459,0.584c0.15,0.195,0.302,0.395,0.452,0.596l0.441,0.598c0.147,0.202,0.293,0.406,0.438,0.609
	c0.146,0.209,0.291,0.414,0.433,0.621l0.838,1.256c0.14,0.215,0.277,0.43,0.412,0.645c0.134,0.211,0.268,0.428,0.401,0.647
	c0.131,0.214,0.263,0.435,0.395,0.655l1.504,2.699c0.12,0.229,0.24,0.462,0.358,0.695l0.692,1.412
	c0.113,0.238,0.226,0.479,0.336,0.719l1.741,4.18c0.096,0.253,0.189,0.506,0.281,0.762l1.022,3.049
	c0.078,0.25,0.155,0.506,0.231,0.761l0.652,2.347c0.068,0.265,0.135,0.528,0.2,0.793l0.704,3.308
	c0.437-0.245,0.862-0.388,1.192-0.427c0.153-0.018,0.313-0.012,0.464,0.02l97.863,19.951c1.363-1.708,4.074-4.786,8.06-7.883
	c0.031-3.225,0.047-6.451,0.037-9.677c-0.027-9.287-1.311-19.369,4.15-27.501c1.888-2.826,4.477-4.136,6.873-6.267
	c4.79-3.832,4.326-10.693,0.002-14.196l0.005-0.002c-3.591-2.436-7.403-4.85-11.331-7.178c-7.299-4.327-15.196-8.478-23.475-12.338
	c-35.005-16.33-69.235-25.055-101.739-25.933c-1.791-0.048-3.623-0.073-5.445-0.073c-5.264,0-10.487,0.207-15.612,0.564
	c9.591,5.146,21.239,14.723,25.357,22.585c4.873,9.314,6.849,19.844,7.985,28.209l113.942,22.506l-0.566,2.873L518.714,186.23
	c-0.617-0.122-1.087-0.623-1.168-1.246c-1.084-8.281-2.952-18.979-7.815-28.275c-4.551-8.686-18.998-19.646-28.6-23.465
	c-12.971,1.197-25.141,3.251-35.492,5.247C463.069,149.743,478.227,163.241,490.733,178.656z"/>
<path fill="none" d="M440.308,137.499c0.107-0.591,0.565-1.057,1.155-1.174c16.538-3.283,38.431-7.052,61.116-7.052
	c1.849,0,3.707,0.025,5.524,0.074c32.907,0.889,67.527,9.706,102.898,26.206c8.364,3.901,16.348,8.098,23.729,12.473
	c3.983,2.36,7.85,4.81,11.493,7.281c3.09,2.095,6.435,4.741,7.816,8.484c1.382,3.803-0.163,7.686-4.347,10.939l-0.329,0.257
	c-2.397,1.861-4.29,3.332-5.775,5.878c-2.432,4.17-3.431,8.902-3.34,15.824c0.309,23.752-0.36,48.2-1.989,72.666
	c-0.387,5.803-0.849,11.826-1.412,18.415c-0.248,2.903-0.512,5.807-0.793,8.707c-0.029,0.303-0.046,0.555-0.061,0.768
	c-0.121,1.765-0.53,2.297-2.306,2.997L523.93,363.533c-0.174,0.068-0.355,0.102-0.537,0.102c-0.304,0-0.604-0.095-0.857-0.277
	c-0.405-0.293-0.633-0.771-0.604-1.27c0.968-17.033,1.331-33.796,1.08-49.822c-0.187-11.958-0.706-23.924-1.543-35.563
	c-0.125-1.737-0.245-3.485-0.365-5.242c-0.85-12.42-1.728-25.261-4.726-37.161c-0.669-0.932-1.017-2.4-1.414-4.306
	c-0.131-0.625-0.254-1.215-0.374-1.62c-0.727-2.449-1.563-4.947-2.486-7.426c-1.788-4.797-3.947-9.637-6.416-14.385
	c-4.634-8.916-10.43-17.684-17.227-26.061c-13.041-16.074-29.017-30.036-47.484-41.498
	C440.465,138.688,440.2,138.09,440.308,137.499z M353.008,176.393c2.229-2.32,4.97-4.267,7.621-6.148
	c0.844-0.599,1.678-1.19,2.479-1.784c3.988-2.955,7.754-5.562,11.51-7.969c12.987-8.327,26.902-14.586,41.356-18.605
	c3.63-1.008,7.408-1.92,11.231-2.709c0.255-0.053,0.523-0.079,0.799-0.079c2.646,0,5.871,2.479,8.463,4.47
	c0.659,0.506,1.249,0.961,1.724,1.284c6.749,4.592,13.252,9.622,19.328,14.95c12.074,10.586,22.448,22.266,30.833,34.715
	c4.375,6.494,8.185,13.189,11.324,19.902c1.657,3.543,3.149,7.142,4.437,10.697c0.243,0.674,0.534,1.414,0.84,2.191
	c1.21,3.08,2.577,6.561,2.549,9.422c3.271,12.113,4.237,25.09,5.172,37.64c0.128,1.722,0.256,3.435,0.389,5.136
	c0.927,11.88,1.498,24.081,1.697,36.266c0.199,12.212,0.062,24.497-0.409,36.514c-0.101,2.588-0.214,5.177-0.35,7.766
	c-0.01,0.185-0.007,0.553-0.006,1.021c0.014,4.938-0.183,6.451-1.504,6.973l-39.031,15.395c-1.531,0.604-3.358,1.222-5.299,1.222
	c-0.988,0-1.959-0.161-2.885-0.479c-2.579-0.885-4.252-2.794-5.618-4.515l-65.109-81.994c-2.356-2.966-3.943-5.926-4.993-9.314
	c-1.204-3.871-1.87-7.896-2.514-11.79c-0.493-2.982-1.004-6.066-1.749-9.009c-1.908-7.528-4.588-14.692-8.192-21.902
	c-2.492-4.985-5.182-9.969-7.783-14.788c-5.258-9.744-10.694-19.818-14.805-30.455l-0.454-1.164
	C351.564,192.891,347.39,182.245,353.008,176.393z"/>
<path fill="none" d="M210.247,300.121c5.657,5.723,10.259,12.809,13.412,20.812c0.317,0.799,0.617,1.61,0.907,2.428l0.262,0.152
	l0.285,0.153l0.29,0.142l0.294,0.13l0.296,0.119l0.3,0.107l0.304,0.097l0.306,0.084l0.309,0.073l0.313,0.062l0.313,0.05l0.315,0.038
	l0.318,0.026l0.319,0.015l0.321,0.003l0.323-0.009l0.324-0.02l0.325-0.032l0.326-0.044l0.327-0.056l0.327-0.066l0.328-0.079
	l0.328-0.09l0.327-0.102l0.327-0.113c12.02-4.354,24.039-8.706,36.059-13.06c1.229-0.445,1.066-1.604,1.114-2.667
	c0.069-1.531,0.136-3.063,0.194-4.594c0.117-3.051,0.209-6.103,0.282-9.155c0.143-5.917,0.189-11.837,0.147-17.755
	c-0.084-11.868-0.536-23.73-1.35-35.571c-0.788-11.485-1.945-22.953-3.492-34.361c-0.691-5.097-1.671-10.166-2.338-15.262
	l-75.981-15.744l35.537,79.698L210.247,300.121z"/>
<path fill="none" d="M357.243,199.357c4.044,10.465,9.437,20.458,14.651,30.121c2.611,4.84,5.312,9.844,7.825,14.87
	c3.699,7.399,6.451,14.757,8.411,22.492c0.115,0.454,0.215,0.913,0.319,1.37l4.925-1.781c0.028-0.323,0.058-0.646,0.086-0.97
	c1.048-11.795,1.85-23.611,2.414-35.439c0.553-11.576,0.856-23.164,0.919-34.753c0.031-5.724,0.011-11.45-0.086-17.174
	c-0.133-7.83-1.341-16.202,2.119-23.502l2.328-4.571c-8.612,3.485-16.963,7.81-24.957,12.935c-3.7,2.372-7.412,4.941-11.348,7.856
	c-0.817,0.605-1.667,1.209-2.526,1.819c-2.541,1.804-5.168,3.668-7.205,5.79c-4.319,4.5-0.573,14.053,1.665,19.761L357.243,199.357z
	"/>
<path fill="none" d="M406.127,151.874l-0.065,0.081c-6.116,7.841-4.584,18.155-4.435,27.435c0.096,5.901,0.103,11.804,0.072,17.706
	c-0.06,11.811-0.397,23.629-0.993,35.426c-0.59,11.67-1.401,23.324-2.438,34.964l-9.261,3.354c0.341,1.762,0.638,3.523,0.924,5.252
	c0.122,0.74,0.249,1.487,0.376,2.234c10.139-3.621,17.175-6.135,17.732-6.337c0.413-0.179,0.793-0.312,1.146-0.408
	c-0.063-0.44-0.125-0.882-0.183-1.325c-0.065-0.517-0.127-1.032-0.184-1.55c-0.058-0.515-0.11-1.034-0.159-1.556
	c-0.05-0.522-0.094-1.047-0.135-1.572c-0.04-0.526-0.076-1.054-0.108-1.583c-0.032-0.524-0.06-1.048-0.083-1.574
	c-0.023-0.522-0.043-1.049-0.059-1.578c-0.016-0.528-0.026-1.059-0.034-1.589c-0.008-0.531-0.01-1.063-0.01-1.598
	c0.001-0.536,0.006-1.071,0.015-1.606c0.007-0.421,0.017-0.844,0.029-1.267c0.012-0.424,0.025-0.85,0.043-1.274
	c0.018-0.424,0.037-0.849,0.06-1.273c0.021-0.428,0.048-0.861,0.075-1.295s0.058-0.867,0.091-1.302
	c0.033-0.431,0.068-0.865,0.107-1.301c0.045-0.515,0.094-1.032,0.146-1.548c0.054-0.521,0.109-1.037,0.17-1.555
	c0.06-0.518,0.124-1.037,0.192-1.556c0.066-0.516,0.138-1.035,0.214-1.554c0.073-0.515,0.151-1.033,0.233-1.551
	c0.088-0.548,0.18-1.096,0.274-1.644c0.095-0.549,0.194-1.098,0.298-1.645s0.211-1.092,0.321-1.637
	c0.112-0.546,0.228-1.091,0.347-1.633c0.119-0.546,0.243-1.088,0.369-1.628c0.101-0.428,0.203-0.853,0.309-1.277
	c0.104-0.422,0.211-0.846,0.321-1.271c0.108-0.42,0.222-0.843,0.337-1.266c0.115-0.426,0.233-0.852,0.354-1.277
	c0.12-0.427,0.244-0.852,0.37-1.275c0.125-0.424,0.254-0.846,0.385-1.268c0.155-0.502,0.314-1.002,0.478-1.501
	c0.162-0.498,0.327-0.995,0.495-1.489c0.17-0.496,0.342-0.989,0.517-1.48c0.176-0.492,0.354-0.981,0.536-1.469
	c0.182-0.486,0.366-0.971,0.554-1.454c0.196-0.503,0.395-1.003,0.598-1.501c0.202-0.497,0.408-0.992,0.617-1.484
	s0.421-0.982,0.636-1.469c0.217-0.489,0.437-0.975,0.659-1.455c0.222-0.482,0.446-0.961,0.675-1.436
	c0.218-0.455,0.438-0.904,0.661-1.352c0.223-0.445,0.448-0.891,0.678-1.332c0.228-0.441,0.458-0.878,0.69-1.313
	c0.235-0.438,0.473-0.869,0.712-1.299c0.239-0.428,0.48-0.855,0.726-1.278c0.244-0.421,0.49-0.841,0.739-1.255
	c0.25-0.417,0.502-0.828,0.756-1.237c0.255-0.409,0.511-0.815,0.77-1.217c0.26-0.402,0.521-0.801,0.783-1.194
	c0.266-0.396,0.531-0.785,0.798-1.172c0.286-0.412,0.573-0.818,0.863-1.221c0.289-0.402,0.582-0.802,0.877-1.195
	c0.293-0.391,0.591-0.779,0.889-1.164c0.301-0.386,0.603-0.765,0.906-1.14c0.304-0.376,0.609-0.745,0.917-1.11
	c0.243-0.288,0.487-0.572,0.73-0.853c0.248-0.284,0.493-0.563,0.741-0.837c0.246-0.274,0.496-0.548,0.747-0.816
	c0.252-0.271,0.507-0.543,0.764-0.809c0.256-0.267,0.514-0.529,0.771-0.789c0.26-0.262,0.52-0.518,0.78-0.771
	c0.312-0.303,0.623-0.598,0.936-0.89c0.316-0.294,0.632-0.581,0.95-0.864c0.315-0.281,0.635-0.561,0.956-0.833
	c0.316-0.271,0.638-0.538,0.962-0.802c0.322-0.263,0.646-0.52,0.971-0.771c0.34-0.264,0.678-0.52,1.018-0.771
	c0.346-0.254,0.687-0.499,1.03-0.739c0.345-0.241,0.689-0.476,1.036-0.704c0.345-0.229,0.692-0.452,1.04-0.669
	c0.349-0.218,0.698-0.429,1.049-0.635c0.33-0.194,0.663-0.384,0.997-0.569c0.336-0.186,0.671-0.365,1.007-0.539
	c0.337-0.175,0.675-0.344,1.011-0.507c0.34-0.164,0.677-0.321,1.015-0.474c0.34-0.153,0.678-0.3,1.016-0.441
	c0.339-0.141,0.68-0.277,1.019-0.407c0.339-0.131,0.681-0.256,1.021-0.375c0.343-0.12,0.683-0.234,1.023-0.342
	c0.341-0.108,0.683-0.211,1.023-0.308c0.342-0.097,0.684-0.188,1.023-0.274c0.362-0.091,0.724-0.175,1.084-0.253
	c0.36-0.078,0.721-0.149,1.083-0.214c0.361-0.065,0.722-0.124,1.082-0.176c0.358-0.052,0.719-0.098,1.079-0.137
	c0.358-0.039,0.717-0.071,1.075-0.097c0.283-0.02,0.564-0.037,0.844-0.049c0.219-0.009,0.434-0.014,0.649-0.019
	c-5.788-5.696-11.933-10.996-18.307-15.83c-4.998-3.842-14.994-10.872-21.228-14.814c-2.052,0.487-4.081,1-6.06,1.549
	c-2.212,0.615-4.405,1.302-6.59,2.023L406.127,151.874z"/>
<path fill="none" d="M500.869,236.74c-1.077-4.489-2.64-8.909-4.371-13.184c-1.102-2.754-2.326-5.456-3.623-8.125
	c-0.03,0.013-0.059,0.027-0.09,0.041l0.243,0.668c-0.177,0.078-0.395,0.182-0.612,0.29c-0.227,0.112-0.456,0.228-0.684,0.35
	c-0.215,0.114-0.428,0.233-0.64,0.356c-0.217,0.125-0.429,0.252-0.64,0.383c-0.218,0.136-0.436,0.274-0.65,0.418
	c-0.217,0.145-0.431,0.292-0.646,0.445c-0.216,0.153-0.429,0.31-0.641,0.47c-0.209,0.158-0.42,0.323-0.63,0.493
	c-0.216,0.173-0.425,0.346-0.633,0.523c-0.21,0.178-0.418,0.359-0.625,0.547c-0.219,0.197-0.438,0.399-0.654,0.605
	c-0.214,0.205-0.431,0.417-0.645,0.633c-0.214,0.217-0.427,0.436-0.639,0.66c-0.211,0.225-0.421,0.453-0.63,0.687
	c-0.198,0.22-0.393,0.444-0.587,0.672c-0.196,0.229-0.388,0.46-0.578,0.694c-0.197,0.242-0.391,0.485-0.583,0.732
	c-0.188,0.242-0.378,0.492-0.565,0.746c-0.193,0.259-0.378,0.515-0.563,0.773c-0.18,0.256-0.362,0.518-0.542,0.785
	c-0.182,0.268-0.36,0.537-0.537,0.811c-0.176,0.271-0.351,0.547-0.522,0.825c-0.181,0.292-0.361,0.589-0.537,0.888
	c-0.181,0.305-0.354,0.607-0.527,0.913c-0.172,0.305-0.342,0.613-0.509,0.925c-0.168,0.313-0.334,0.63-0.498,0.949
	c-0.153,0.297-0.305,0.601-0.453,0.906c-0.151,0.307-0.297,0.613-0.441,0.923c-0.151,0.32-0.295,0.636-0.436,0.952
	c-0.144,0.323-0.283,0.645-0.42,0.969c-0.137,0.323-0.271,0.648-0.402,0.976c-0.132,0.326-0.262,0.655-0.387,0.984
	c-0.128,0.333-0.251,0.664-0.372,0.997c-0.121,0.334-0.239,0.668-0.354,1.004c-0.1,0.291-0.198,0.584-0.294,0.879
	c-0.1,0.302-0.192,0.598-0.285,0.894c-0.092,0.296-0.182,0.593-0.269,0.892c-0.089,0.302-0.174,0.601-0.259,0.901
	c-0.082,0.296-0.163,0.597-0.242,0.898c-0.078,0.298-0.155,0.6-0.229,0.903c-0.074,0.301-0.145,0.599-0.215,0.898
	c-0.068,0.297-0.136,0.599-0.201,0.898c-0.064,0.3-0.127,0.601-0.187,0.9c-0.016,0.078-0.03,0.155-0.045,0.232l29.192-10.676
	C501.006,237.222,500.869,236.74,500.869,236.74z"/>
<path fill="none" d="M286.167,232.656c0.915,12.056,1.472,24.228,1.654,36.177c0.178,11.647,0.003,23.738-0.508,35.945
	l27.714-10.021c4.652-22.82,6.374-40.389,5.584-56.948l-0.009-0.17c-0.406-8.524-1.645-34.466-12.355-36.686l-26.535-5.499
	C283.282,206.722,285.325,221.561,286.167,232.656z"/>
<path d="M23.137,73.7l1.597,0.59l2.078,0.468l2.086,0.16c0.009,0,0.018,0,0.027,0c0.006,0,0.011,0,0.017,0l2.132-0.152l2.086-0.461
	l1.993-0.759l1.497-0.811l1.716-1.25l1.223-1.172l1.072-1.309l0.901-1.422l0.723-1.525l0.524-1.588l0.326-1.644l0.12-1.672
	l-0.019-0.837l-0.194-1.661l-0.398-1.625l-0.599-1.564l-0.789-1.485l-0.967-1.376l-1.13-1.25l-1.279-1.109l-1.403-0.947
	l-1.514-0.776l-2.009-0.712l-1.673-0.352l-2.131-0.161l-1.283,0.054l-1.696,0.246l-1.652,0.442l-1.972,0.819l-1.474,0.856
	l-1.36,1.023l-1.224,1.175l-1.072,1.311l-0.902,1.427l-0.721,1.523l-0.523,1.593l-0.324,1.646L14.83,61.08l0.02,0.837l0.196,1.665
	l0.401,1.625l0.601,1.563l0.79,1.48l0.969,1.374l1.133,1.25l1.279,1.107l1.405,0.946L23.137,73.7z M19.697,67.27l-0.843-1.415
	l-0.612-1.521l-0.369-1.595l-0.115-1.632l0.007-0.323l0.19-1.631l0.557-1.891l0.73-1.487l1.169-1.623l1.453-1.396l1.696-1.125
	l1.876-0.812l1.997-0.472l1.705-0.122l1.707,0.128l1.984,0.479l1.563,0.66l1.704,1.076l1.245,1.113l1.054,1.277l0.842,1.417
	l0.61,1.525l0.365,1.592l0.114,1.631l-0.093,1.308l-0.344,1.604l-0.587,1.537l-1.014,1.714l-1.079,1.278l-1.538,1.308l-1.453,0.873
	l-1.573,0.653l-1.991,0.472l-1.726,0.122l-2.019-0.183l-1.646-0.421l-1.559-0.656l-1.438-0.876l-1.278-1.071L19.697,67.27z"/>
<polygon fill="#058FA1" points="25.198,63.355 25.933,64.233 26.89,64.9 28.008,65.305 28.962,65.412 30.189,65.262 31.295,64.816 
	32.238,64.109 32.954,63.194 33.394,62.139 33.53,61.021 33.359,59.904 32.894,58.877 32.158,57.997 31.199,57.328 30.084,56.925 
	29.092,56.816 27.9,56.967 26.792,57.414 25.849,58.123 25.134,59.038 24.697,60.087 24.559,61.217 24.729,62.322 "/>
<path d="M23.273,65.677l0.912,0.917l1.062,0.744l1.172,0.545l1.258,0.338l1.23,0.118c0.015,0,0.03,0,0.046,0
	c0.006,0,0.013,0,0.019,0l1.297-0.105l1.261-0.325l1.185-0.535l1.072-0.729l0.931-0.906l0.751-1.049l0.554-1.167l0.333-1.242
	l0.103-1.284l-0.076-0.963l-0.306-1.247l-0.526-1.172l-0.73-1.062l-0.91-0.916l-1.06-0.744l-1.176-0.549l-1.255-0.338l-1.299-0.119
	l-1.298,0.105l-1.262,0.325l-1.187,0.536l-1.076,0.732l-0.928,0.905l-0.75,1.049l-0.551,1.162l-0.335,1.252l-0.102,1.285
	l0.077,0.958l0.308,1.25l0.526,1.169L23.273,65.677z M24.559,61.217l0.139-1.129l0.437-1.05l0.715-0.915l0.943-0.708l1.108-0.447
	l1.191-0.151l0.992,0.109l1.115,0.403l0.959,0.668l0.735,0.881l0.466,1.027l0.171,1.117l-0.137,1.118l-0.439,1.055l-0.716,0.916
	l-0.943,0.707l-1.105,0.446l-1.228,0.15l-0.954-0.107L26.89,64.9l-0.957-0.667l-0.734-0.878l-0.469-1.033L24.559,61.217z"/>
<path d="M140.755,174.786l-0.915-1.749l-1.101-1.644l-1.274-1.519l-1.432-1.38l-1.576-1.226l-1.7-1.056l-1.807-0.878l-1.894-0.689
	l-1.96-0.494l-2.004-0.292l-2.025-0.088l-2.027,0.117l-2.006,0.32l-1.965,0.521l-1.898,0.715l-1.813,0.902l-1.711,1.08l-1.587,1.245
	l-1.447,1.399l-1.288,1.534l-1.12,1.658l-0.936,1.759l-0.74,1.841l-0.539,1.907l-0.329,1.949l-0.117,1.967l0.022,0.986l0.204,1.959
	l0.416,1.928l0.623,1.866l0.822,1.791l1.014,1.696l1.19,1.58l1.358,1.449l1.506,1.3l1.641,1.139l1.755,0.964l1.849,0.779
	l1.063,0.324c0.626-0.794,1.267-1.6,1.925-2.419c0.021-0.026,0.045-0.053,0.066-0.08l-0.412-0.075l-2.039-0.651l-1.93-0.901
	l-1.784-1.138l-1.609-1.353l-1.409-1.543l-1.184-1.707l-0.94-1.845l-0.681-1.951l-0.408-2.017l-0.13-2.063l0.149-2.063l0.43-2.034
	l0.7-1.965l0.962-1.869l1.206-1.737l1.433-1.577l1.632-1.386l1.807-1.173l1.947-0.939l2.058-0.687l2.128-0.423l2.164-0.153
	l2.159,0.12l2.121,0.392l2.042,0.655l1.931,0.907l1.787,1.144l1.607,1.354l1.407,1.548l1.181,1.711l0.937,1.848l0.675,1.95
	l0.148,0.74c0.85-0.633,1.701-1.252,2.554-1.859l-0.16-0.588L140.755,174.786z"/>
<polygon fill="#058FA1" points="129.945,179.338 129.106,178.018 127.991,176.9 126.644,176.031 125.127,175.457 123.508,175.206 
	123.232,175.196 121.591,175.337 120.008,175.81 118.567,176.59 117.327,177.643 116.347,178.917 115.672,180.344 115.323,181.873 
	115.277,182.653 115.444,184.191 115.945,185.661 116.762,186.996 117.855,188.129 119.186,189.02 120.689,189.617 122.296,189.895 
	122.824,189.914 124.488,189.744 126.059,189.245 127.489,188.439 128.702,187.372 129.661,186.084 130.311,184.645 
	130.632,183.114 130.664,182.335 130.472,180.801 "/>
<path d="M133.465,180.846l-0.341-1.426l-0.546-1.361l-0.74-1.268l-0.921-1.153l-1.078-1.009l-1.218-0.85l-1.325-0.669l-1.414-0.482
	l-1.468-0.281l-1.498-0.079l-1.123,0.077l-1.478,0.28l-1.763,0.626l-1.32,0.713l-1.203,0.885l-1.067,1.041l-0.903,1.172
	l-0.731,1.293l-0.533,1.374l-0.328,1.433l-0.115,1.469l0.056,1.098l0.263,1.439l0.472,1.39l0.67,1.305l0.855,1.196l1.024,1.066
	l1.166,0.909l1.292,0.739l1.381,0.551l1.449,0.355l1.808,0.162c0.012,0,0.023,0,0.035,0c0.009,0,0.018,0,0.026,0l0.661-0.057
	c3.141-3.342,6.522-6.457,10.013-9.35l0.069-1.128L133.465,180.846z M130.632,183.114l-0.321,1.53l-0.649,1.439l-0.959,1.288
	l-1.213,1.067l-1.431,0.806l-1.57,0.499l-1.664,0.17l-0.528-0.02l-1.606-0.277l-1.504-0.598l-1.33-0.891l-1.094-1.133l-0.816-1.335
	l-0.501-1.47l-0.167-1.538l0.046-0.78l0.349-1.529l0.675-1.427l0.98-1.274l1.24-1.053l1.44-0.78l1.583-0.473l1.642-0.142l0.275,0.01
	l1.619,0.251l1.517,0.575l1.348,0.869l1.115,1.117l0.839,1.32l0.526,1.463l0.192,1.534L130.632,183.114z"/>
<path d="M191.771,51.832c0.246,1.031,0.822,1.509,1.29,1.734l11.658,5.827c0.358,0.151,0.713,0.218,1.062,0.218
	c2.005,0,3.804-2.228,4.842-3.513l0.24-0.295c0.534-0.643,1.066-1.334,1.601-2.055c0.704,0.418,1.527,0.828,2.381,0.828
	c0.311,0,0.625-0.054,0.938-0.182c0.987-0.4,1.72-1.19,2.255-1.768c0.102-0.109,0.189-0.229,0.289-0.34l2.74,1.373
	c0.133,0.066,0.262,0.107,0.39,0.143l-4.75,8.79c-2.348,0.245-4.484,1.179-6.181,2.774c-3.009,2.83-3.961,7.417-2.317,11.154
	c1.563,3.553,5.297,5.941,9.292,5.941c0.135,0,0.27-0.002,0.405-0.008l56.155-2.24c2.556-0.111,4.493-1.983,4.713-4.552
	c0.21-2.458-1.337-4.541-3.762-5.067c-1.781-0.387-3.611-0.608-5.382-0.821c-0.85-0.103-1.697-0.205-2.534-0.325l-40.381-5.802
	l18.808-34.698l28.823,29.318l3.937,4.012c0.52,0.549,1.107,1.172,1.922,1.586c0.706,0.359,1.455,0.541,2.225,0.541
	c1.829,0,3.586-1.07,4.476-2.725c0.844-1.571,0.756-3.403-0.235-4.901l-30.169-45.592c-0.006-0.008-0.011-0.017-0.017-0.025
	c-1.866-2.806-4.898-4.415-8.32-4.415c-4.466,0-9.49,2.926-10.449,8.518c-0.376,2.185,0.05,4.363,1.174,6.349l-4.155,7.671
	c-0.17-0.392-0.456-0.728-0.824-0.948l-0.026,0.044c-0.156-0.117-0.331-0.228-0.534-0.33l-2.322-1.167
	c0.046-0.23,0.108-0.458,0.147-0.689l0.026-0.155c0.123-0.714,0.31-1.794-0.095-2.727c-0.459-1.053-1.502-1.605-2.418-1.993
	c0.397-1.307,0.772-2.708,1.018-4.141l0.043-0.237c0.24-1.33,0.739-4.097-1.266-5.273l-11.564-5.815l-0.053,0.106
	c-0.014-0.006-0.027-0.016-0.04-0.021c-0.693-0.326-1.847-0.466-3.407,0.735c-2.928,2.252-5.355,6.125-7.307,9.237l-0.092,0.145
	l-0.869-0.437C203.318,6.659,195.189,0,185.412,0c-1.485,0-2.973,0.164-4.422,0.485c-1.076,0.239-2.129,0.573-3.148,0.992
	L22.747,33.666C10.077,36.361,0.74,46.975,0.041,59.477c-0.67,11.977,7.082,23.338,18.572,27.467l1.076,1.745
	c0.026,0.042,0.054,0.084,0.082,0.125l61.384,89.557l-47.077,92.985c-5.916,0.386-12.719,1.164-17.385,5.093
	c-1.31,1.1-2.065,2.332-2.247,3.662l-0.012,0.743l0.613,11.161c-3.01,1.953-7.81,5.811-7.51,11.544H7.536l1.625,29.815
	c0.041,0.77,0.053,1.563,0.064,2.365c0.058,3.833,0.129,8.604,3.502,12.216c3.887,4.16,9.554,6.275,15.099,7.941
	c9.258,2.781,19.798,4.283,33.171,4.726c2.944,0.098,5.838,0.146,8.686,0.146c6.127,0,12.02-0.233,17.686-0.684
	c-0.067-0.195-0.146-0.384-0.208-0.584c-0.576-1.873-1.095-3.72-1.571-5.544c-7.684,0.559-15.813,0.707-24.385,0.425
	c-12.819-0.425-22.854-1.844-31.581-4.466c-4.706-1.414-9.458-3.146-12.333-6.225c-1.729-1.85-1.773-4.859-1.82-8.046
	c-0.014-0.885-0.027-1.761-0.074-2.61l-1.196-21.957c2.32,1.635,4.899,2.704,6.461,3.349c4.359,1.799,9.27,3.118,15.92,4.277
	c8.844,1.541,18.464,2.297,29.304,2.297c1.331,0,2.682-0.012,4.051-0.034c3.765-0.063,7.506-0.23,11.221-0.48
	c-0.006-1.014,0.001-1.989,0.017-2.936c-3.735,0.256-7.499,0.425-11.286,0.488c-12.324,0.202-23.058-0.521-32.804-2.22
	c-6.431-1.121-11.15-2.385-15.305-4.1c-2.793-1.152-5.875-2.64-7.796-4.643l-0.2-3.666l0.006-0.001l-0.011-0.127
	c-0.115-1.912,1.543-3.98,4.902-6.157l0.324,6.006c0.142,2.624,3.224,3.667,4.384,4.06c2.927,0.991,6.358,1.473,10.491,1.473
	c1.257,0,2.6-0.043,4.105-0.132l43.952-2.6c0.144-1.19,0.286-2.177,0.406-2.929l-44.53,2.634c-1.447,0.086-2.734,0.127-3.934,0.127
	c-3.812,0-6.938-0.432-9.562-1.319c-2.15-0.728-2.408-1.271-2.419-1.47l-0.551-10.223l-0.383-8.877
	c3.975,1.812,10.421,2.162,10.511,2.165c1.867,0.071,3.746,0.049,5.677-0.063l53.558-3.147c0.207-0.939,0.404-1.914,0.588-2.938
	l-54.314,3.191c-1.835,0.106-3.625,0.128-5.396,0.061c-2.831-0.11-8.64-1.193-10.343-2.32c3.657-2.633,9.847-3.044,14.949-3.343
	c-0.078,0.221-0.163,0.439-0.27,0.654c-0.23,0.468-0.196,1.022,0.092,1.457c0.272,0.411,0.731,0.655,1.221,0.655
	c0.028,0,0.057-0.001,0.086-0.003l54.428-3.202c0.137-0.955,0.266-1.933,0.379-2.955l-52.801,3.106
	c0.037-0.15,0.073-0.298,0.107-0.442c0.191-0.79,0.355-1.473,0.714-2.152l56.741-107.594c1.468-2.715,3.245-5.099,5.282-7.085
	c5.394-5.257,12.904-8.271,20.606-8.271c2.443,0,4.864,0.303,7.196,0.9c9.589,2.458,17.339,9.979,19.844,19.206
	c0.869-0.542,1.729-1.067,2.584-1.581c-0.634-2.082-1.501-4.081-2.584-5.961h0.013c0-4.327-3.916-9.701-5.985-11.937l-71.802-77.77
	l111.198-35.311c0.669,0.064,1.343,0.109,2.026,0.109c0.001,0,0.002,0,0.002,0c1.896,0,3.762-0.262,5.554-0.762l3.358,1.682
	l-1.645,4.92l-0.773,3.516l-0.146,1.883l0.01,0.29l0.139,0.981 M39.31,84.902l2.922-0.928l48.012,71.135
	c0.263,0.389,0.696,0.629,1.165,0.644c0.017,0.001,0.033,0.001,0.049,0.001c0.451,0,0.879-0.208,1.156-0.566l0.78-0.986l2.104-2.347
	l2.311-2.164l2.499-1.96l2.667-1.743l2.814-1.511l2.962-1.275c0.451-0.176,0.786-0.564,0.895-1.036
	c0.108-0.472-0.023-0.967-0.353-1.322L53.401,80.428l15.563-4.942l72.733,78.779c0.637,0.688,1.279,1.482,1.885,2.329
	c-3.637-3.225-8.044-5.641-12.88-6.88c-2.569-0.659-5.234-0.992-7.923-0.992c-8.459,0-16.715,3.317-22.649,9.103
	c-2.25,2.192-4.206,4.813-5.822,7.802l-6.436,12.202c-0.05-0.515-0.217-1.021-0.521-1.463L24.995,85.39
	c2.07,0.366,4.227,0.572,6.337,0.572c2.904,0,5.698-0.35,7.97-1.058 M45.141,83.051l5.179-1.645l55.395,59.88l-1.196,0.553
	l-3.036,1.629l-2.879,1.881l-2.699,2.117l-2.497,2.337l-1.846,2.022L45.141,83.051z M38.423,82.111
	c-4.335,1.347-10.814,1.218-15.912-0.286c-0.274-0.2-0.577-0.361-0.906-0.464C12.188,78.432,5.741,69.375,6.275,59.825
	c0.542-9.695,7.85-17.941,17.756-20.049L168.087,9.88c-0.255,0.421-0.5,0.848-0.725,1.288c-1.426,2.794-2.146,5.802-2.165,8.788
	c-0.186-0.035-0.378-0.038-0.566,0L44.706,44.858c-0.519,0.107-0.938,0.487-1.099,0.992c-0.159,0.505-0.033,1.057,0.33,1.443
	c4.521,4.812,6.342,11.496,4.87,17.88c-0.118,0.512,0.048,1.048,0.435,1.405c0.274,0.253,0.63,0.388,0.992,0.388
	c0.148,0,0.298-0.022,0.443-0.068l116.569-37.015c0.211-0.067,0.398-0.182,0.557-0.33c2.255,3.814,5.753,6.723,9.892,8.332
	L38.423,82.111z M47.7,47.227l115.956-24.078c0.23,1.517,0.622,2.999,1.169,4.432L52.085,63.379
	C52.753,57.644,51.186,51.869,47.7,47.227z M185.271,36.068L185.271,36.068c-6.864,0-12.986-3.899-15.598-9.933
	c-1.842-4.255-1.633-9.174,0.572-13.496c2.325-4.556,6.604-7.918,11.447-8.994c1.218-0.271,2.47-0.408,3.719-0.408
	c9.099,0,16.52,6.811,16.894,15.497c0.219,5.871-2.791,11.504-7.855,14.702C191.724,35.158,188.55,36.068,185.271,36.068z
	 M194.553,50.565l-0.006-0.047l0.425-3.057l1.876-5.902l2.055,1.029l1.311-2.618l-5.711-2.859c0.571-0.288,1.134-0.594,1.677-0.937
	c5.896-3.724,9.446-10.23,9.363-17.082l4.761,2.391l1.314-2.616l-2.969-1.491c1.817-2.898,4.069-6.469,6.555-8.381
	c0.083-0.063,0.156-0.116,0.223-0.159c0.001,0.015,0.001,0.03,0.002,0.046c0.072,2.005-0.665,4.291-1.315,6.308l-0.121,0.376
	c-1.401,4.357-3.328,8.983-6.066,14.56c-2.562,5.221-5.092,9.686-7.735,13.653c-1.354,2.034-2.824,4.165-4.586,5.898
	C195.19,50.083,194.832,50.372,194.553,50.565z M208.611,53.931l-0.267,0.328c-1.563,1.936-2.248,2.352-2.532,2.41l-8.735-4.368
	c0.19-0.167,0.383-0.344,0.581-0.539c1.959-1.929,3.528-4.2,4.969-6.361c2.714-4.074,5.308-8.649,7.927-13.986
	c2.802-5.707,4.779-10.458,6.225-14.954l0.12-0.373c0.623-1.929,1.313-4.08,1.438-6.245l8.672,4.358
	c0.117,0.302,0.069,1.048-0.143,2.22l-0.047,0.262c-0.34,1.984-0.965,3.975-1.531,5.66c-1.15,3.422-2.645,7.064-4.703,11.461
	c-2.267,4.844-4.803,9.513-7.538,13.877C211.455,50.22,210.046,52.206,208.611,53.931z M220.184,49.941
	c0.866-1.218,1.64-2.45,2.325-3.589l-2.508-1.511c-1.129,1.875-2.471,4.023-4.11,5.795c-0.335,0.361-0.745,0.803-1.106,0.997
	c-0.153-0.037-0.389-0.154-0.625-0.287c0.445-0.666,0.898-1.36,1.368-2.109c2.799-4.464,5.393-9.239,7.71-14.191
	c1.941-4.147,3.392-7.646,4.537-10.933c0.293,0.128,0.565,0.261,0.637,0.345c0.056,0.202-0.047,0.798-0.097,1.085l-0.029,0.169
	c-0.381,2.282-1.228,4.518-2.062,6.613l2.721,1.083c0.447-1.124,0.916-2.349,1.326-3.627l1.758,0.883
	c-0.001,0.028-0.002,0.061-0.004,0.099c-0.074,1.379-0.616,2.854-1.141,4.281l-0.109,0.297c-1.297,3.542-3.06,7.148-5.282,10.79
	c-1.017,1.664-2.066,3.384-3.43,4.597c-0.029,0.026-0.069,0.062-0.112,0.099L220.184,49.941z M266.681,72.345
	c0.858,0.123,1.728,0.228,2.599,0.333c1.704,0.206,3.465,0.418,5.112,0.776c1.487,0.323,1.497,1.58,1.465,1.957
	c-0.076,0.896-0.7,1.823-1.917,1.876l-56.15,2.239c-2.937,0.121-5.76-1.595-6.9-4.186c-1.153-2.622-0.478-5.847,1.644-7.842
	c1.434-1.348,3.294-2.061,5.379-2.061c0.463,0,0.94,0.035,1.46,0.109L266.681,72.345z M223.626,63.201l-3.638-0.523l6.322-11.698
	c0.359,0.04,0.72,0.072,1.08,0.072c1.047,0,2.089-0.18,3.094-0.505 M234.492,42.09c-0.278,1.951-1.424,3.715-3.143,4.84
	c-1.11,0.727-2.372,1.127-3.644,1.185c0.108-0.176,0.222-0.355,0.327-0.529c2.098-3.436,3.811-6.91,5.136-10.343
	C234.243,38.628,234.735,40.386,234.492,42.09z M237.043,38.449c-0.395-1.26-1.057-2.438-1.949-3.453
	c-0.005-0.038-0.01-0.075-0.013-0.092c-0.003-0.018-0.011-0.052-0.018-0.085l5.768-10.646l2.546,2.589L237.043,38.449z
	 M284.326,60.293c-0.534,0.994-1.781,1.475-2.794,0.96c-0.362-0.184-0.73-0.574-1.121-0.987l-37.548-38.202
	c-1.837-1.869-2.641-4.108-2.264-6.306c0.687-3.995,4.325-6.085,7.564-6.085c1.422,0,4.071,0.401,5.87,3.089
	c0.004,0.007,0.009,0.013,0.013,0.019l30.182,45.611C284.738,59.165,284.563,59.852,284.326,60.293z"/>
<path fill="#058FA1" d="M177.542,20.94c0.449,2.915,2.624,5.321,5.542,6.129c2.807,0.777,5.957-0.125,8.019-2.26
	c1.474-1.527,2.245-3.505,2.172-5.569c-0.237-4.651-4.26-7.171-7.924-7.171c-1.735,0-3.379,0.543-4.753,1.571
	C178.321,15.342,177.122,18.208,177.542,20.94z"/>
<path d="M175.079,21.318c0.599,3.882,3.479,7.082,7.339,8.152c0.898,0.249,1.826,0.375,2.758,0.375c2.878,0,5.691-1.205,7.72-3.306
	c1.947-2.018,2.967-4.642,2.868-7.407c-0.317-6.207-5.602-9.555-10.413-9.555c-2.277,0-4.437,0.715-6.245,2.067
	C176.102,13.892,174.521,17.688,175.079,21.318z M185.351,12.068c3.664,0,7.687,2.521,7.924,7.171
	c0.073,2.064-0.698,4.042-2.172,5.569c-2.062,2.135-5.212,3.037-8.019,2.26c-2.918-0.808-5.093-3.214-5.542-6.129
	c-0.42-2.732,0.779-5.598,3.056-7.3C181.972,12.612,183.615,12.068,185.351,12.068z"/>
<path fill="#058FA1" d="M374.078,360.342c5.942,3.445,10.469,9.974,12.821,18.431l36.46,8.27c-0.395-4.427-1.104-8.643-2.157-12.601
	c-1.521-5.768-7.724-24.836-23.766-28.367c-1.651-0.385-3.29-0.575-4.908-0.575c-8.504,0-16.589,5.348-23.454,12.819
	C370.825,358.757,372.5,359.428,374.078,360.342z"/>
<path fill="#058FA1" d="M720.496,290.829l1.974-0.199l1.621-0.466l0.008,0.019c0.058-0.026,0.106-0.063,0.166-0.086
	c0.009-0.003,0.018-0.006,0.025-0.01c3.948-1.572,5.623-5.548,5.598-13.286c-0.053-13.035-2.339-31.097-12.936-43.105
	c-4.878-5.488-10.771-8.274-17.508-8.274c-7.366,0-15.146,3.38-21.906,9.519c-7.4,6.729-13.583,15.672-18.456,26.672
	c0.944,0.204,1.802,0.628,3.427,1.57c5.876,3.406,10.442,9.665,13.044,17.776l43.501,9.775L720.496,290.829z"/>
<path fill="#058FA1" d="M132.039,365.6h4.12c9.045-0.067,17.335-1.307,25.219-3.776c2.458-14.817,10.476-32.646,25.892-39.347
	c2.996-1.302,6.206-1.989,9.283-1.989c3.589,0,6.938,0.886,9.953,2.634c5.746,3.332,10.174,9.543,12.587,17.598
	c0.631-0.304,1.262-0.623,1.908-0.953c1.32-0.674,2.685-1.361,4.122-1.929c-0.822-5.571-2.224-10.894-4.187-15.827
	c-4.875-12.375-13.346-22.439-23.851-28.344c-6.386-3.572-13.277-5.094-20.573-6.704c-1.044-0.23-2.09-0.461-3.136-0.698
	c-0.758-0.173-1.518-0.355-2.279-0.538c-2.184-0.524-4.442-1.067-6.648-1.351c-5.308-0.681-11.049,0.085-16.609,2.213
	c-10.848,4.123-23.408,16.966-30.78,27.461c0.798,1.504,1.604,2.987,2.401,4.434c4.266,7.734,8.294,15.041,9.113,24.573
	C129.232,350.745,130.398,358.309,132.039,365.6z"/>
<path fill="#058FA1" d="M492.435,214.506l0.351,0.967c0.031-0.014,0.06-0.028,0.09-0.041
	C492.726,215.124,492.586,214.813,492.435,214.506z"/>
<path fill="#058FA1" d="M462.593,176.725c-0.255,0.004-0.509,0.011-0.764,0.021c-0.251,0.011-0.505,0.025-0.76,0.044
	c-0.32,0.023-0.646,0.052-0.97,0.088c-0.326,0.035-0.651,0.076-0.976,0.124c-0.328,0.047-0.655,0.1-0.983,0.159
	c-0.327,0.06-0.654,0.124-0.982,0.194c-0.33,0.071-0.658,0.148-0.987,0.23c-0.313,0.078-0.625,0.162-0.937,0.251
	c-0.313,0.089-0.625,0.183-0.938,0.282s-0.628,0.205-0.942,0.314c-0.31,0.109-0.624,0.225-0.938,0.345s-0.627,0.246-0.94,0.377
	c-0.314,0.131-0.629,0.268-0.943,0.409c-0.313,0.141-0.626,0.287-0.939,0.439c-0.312,0.15-0.626,0.308-0.938,0.47
	c-0.312,0.162-0.625,0.329-0.938,0.502c-0.311,0.173-0.622,0.351-0.934,0.534c-0.33,0.191-0.654,0.389-0.98,0.592
	c-0.327,0.204-0.651,0.414-0.976,0.628c-0.326,0.216-0.649,0.437-0.973,0.662c-0.324,0.227-0.647,0.458-0.97,0.694
	c-0.318,0.236-0.641,0.48-0.961,0.729c-0.306,0.238-0.611,0.481-0.918,0.73c-0.305,0.248-0.608,0.5-0.91,0.758
	c-0.307,0.262-0.608,0.523-0.908,0.791c-0.303,0.27-0.603,0.543-0.901,0.821c-0.297,0.276-0.595,0.56-0.892,0.847
	c-0.248,0.242-0.496,0.488-0.744,0.736c-0.245,0.246-0.491,0.499-0.737,0.754c-0.245,0.256-0.488,0.514-0.731,0.774
	c-0.24,0.258-0.477,0.518-0.713,0.78c-0.238,0.265-0.474,0.531-0.708,0.801c-0.233,0.268-0.468,0.54-0.7,0.816
	c-0.295,0.35-0.589,0.705-0.881,1.065c-0.292,0.361-0.582,0.727-0.871,1.097c-0.286,0.367-0.572,0.742-0.855,1.121
	c-0.285,0.38-0.566,0.762-0.845,1.148c-0.281,0.391-0.557,0.781-0.832,1.179c-0.258,0.372-0.516,0.751-0.771,1.132
	c-0.253,0.38-0.506,0.767-0.757,1.154c-0.25,0.389-0.498,0.781-0.744,1.176c-0.245,0.395-0.489,0.794-0.731,1.197
	c-0.241,0.402-0.479,0.809-0.716,1.217c-0.237,0.41-0.471,0.822-0.702,1.238c-0.231,0.414-0.461,0.834-0.688,1.256
	c-0.225,0.421-0.449,0.848-0.673,1.275c-0.222,0.428-0.439,0.857-0.655,1.292c-0.218,0.435-0.431,0.871-0.643,1.312
	c-0.221,0.461-0.439,0.926-0.655,1.393c-0.215,0.469-0.429,0.94-0.639,1.414c-0.208,0.473-0.416,0.947-0.619,1.428
	s-0.403,0.962-0.602,1.447c-0.197,0.484-0.39,0.971-0.581,1.459c-0.183,0.469-0.361,0.941-0.539,1.416
	c-0.177,0.474-0.351,0.949-0.521,1.427c-0.171,0.479-0.339,0.96-0.504,1.442c-0.163,0.48-0.324,0.964-0.482,1.45
	c-0.157,0.485-0.313,0.972-0.464,1.46c-0.127,0.41-0.252,0.822-0.375,1.234c-0.122,0.414-0.242,0.827-0.36,1.241
	c-0.117,0.415-0.233,0.831-0.346,1.247c-0.112,0.411-0.222,0.82-0.327,1.231c-0.107,0.413-0.213,0.825-0.313,1.237
	c-0.103,0.417-0.203,0.832-0.301,1.246c-0.123,0.526-0.243,1.057-0.36,1.587c-0.115,0.528-0.229,1.06-0.337,1.592
	c-0.108,0.529-0.212,1.063-0.313,1.597c-0.102,0.532-0.197,1.065-0.29,1.599c-0.093,0.534-0.183,1.068-0.267,1.603
	c-0.08,0.504-0.156,1.007-0.229,1.511c-0.073,0.506-0.143,1.01-0.208,1.515c-0.067,0.506-0.13,1.008-0.188,1.512
	c-0.059,0.508-0.114,1.011-0.166,1.517c-0.051,0.501-0.098,1.005-0.143,1.509c-0.037,0.423-0.072,0.844-0.104,1.266
	c-0.033,0.424-0.062,0.846-0.089,1.266s-0.052,0.84-0.073,1.26c-0.022,0.418-0.04,0.832-0.058,1.244
	c-0.018,0.411-0.031,0.823-0.043,1.233c-0.011,0.411-0.021,0.822-0.027,1.233c-0.009,0.521-0.014,1.041-0.015,1.561
	c0,0.518,0.002,1.034,0.01,1.552c0.008,0.517,0.019,1.033,0.032,1.547c0.016,0.511,0.035,1.023,0.059,1.533
	c0.021,0.512,0.049,1.02,0.079,1.525c0.032,0.513,0.066,1.024,0.106,1.536c0.039,0.509,0.081,1.016,0.129,1.521
	c0.049,0.506,0.1,1.01,0.155,1.512c0.055,0.503,0.114,1.001,0.178,1.497c0.064,0.496,0.134,0.991,0.203,1.486l-0.669,0.094
	c0.854,0.203,1.326,0.69,1.542,0.99c4.482,5.53,14.171,1.541,15.815,0.808c0.015-0.015,0.027-0.028,0.028-0.029l1.109-1.183
	c0.468-0.49,0.952-0.985,1.456-1.491c0.251-0.253,0.51-0.51,0.773-0.768l0.805-0.78c0.537-0.517,1.096-1.041,1.674-1.57
	c0.577-0.528,1.171-1.059,1.783-1.591c0.61-0.532,1.241-1.065,1.891-1.602c0.321-0.267,0.652-0.534,0.987-0.803l1.034-0.814
	c0.675-0.524,1.375-1.054,2.089-1.572c0.715-0.521,1.443-1.034,2.187-1.538c0.743-0.505,1.502-1.001,2.277-1.486
	c0.39-0.243,0.782-0.484,1.18-0.721l1.194-0.698c0.814-0.462,1.629-0.902,2.45-1.319c0.409-0.209,0.823-0.413,1.239-0.611
	c0.415-0.198,0.835-0.392,1.257-0.577c0.212-0.094,0.424-0.187,0.638-0.276l0.638-0.265c0.418-0.17,0.842-0.335,1.266-0.49
	c0.422-0.155,0.844-0.303,1.265-0.44c0.417-0.138,0.84-0.267,1.259-0.386c0.418-0.12,0.839-0.229,1.258-0.329
	c0.417-0.1,0.837-0.189,1.253-0.268c0.749-0.139,1.479-0.287,2.188-0.445l1.045-0.241c0.345-0.083,0.68-0.168,1.007-0.255
	c0.66-0.173,1.289-0.352,1.892-0.538c0.318-0.099,0.611-0.204,0.915-0.307l0.01-0.061c0.053-0.317,0.109-0.635,0.169-0.95
	c0.059-0.313,0.119-0.626,0.182-0.938c0.063-0.314,0.128-0.631,0.196-0.944c0.067-0.313,0.139-0.627,0.21-0.938
	c0.073-0.316,0.147-0.628,0.225-0.938c0.077-0.315,0.158-0.631,0.239-0.945c0.084-0.318,0.169-0.633,0.256-0.944
	c0.088-0.316,0.177-0.629,0.269-0.939c0.092-0.312,0.186-0.624,0.283-0.937c0.097-0.313,0.195-0.622,0.297-0.933
	c0.098-0.302,0.202-0.61,0.308-0.918c0.121-0.354,0.245-0.706,0.372-1.056c0.127-0.349,0.256-0.697,0.39-1.044
	c0.131-0.343,0.267-0.688,0.404-1.031c0.139-0.343,0.279-0.684,0.422-1.021c0.145-0.341,0.292-0.68,0.441-1.017
	c0.15-0.338,0.304-0.675,0.461-1.008c0.148-0.32,0.304-0.645,0.462-0.969c0.157-0.319,0.316-0.639,0.479-0.956
	c0.173-0.336,0.347-0.667,0.522-0.995c0.177-0.329,0.356-0.655,0.538-0.979c0.183-0.324,0.368-0.645,0.558-0.963
	c0.185-0.314,0.375-0.629,0.567-0.939c0.184-0.297,0.368-0.59,0.556-0.879c0.187-0.287,0.377-0.572,0.567-0.855
	c0.19-0.281,0.385-0.563,0.58-0.839c0.2-0.281,0.398-0.555,0.599-0.824c0.196-0.267,0.4-0.534,0.605-0.798
	c0.208-0.269,0.415-0.529,0.624-0.785c0.204-0.252,0.413-0.502,0.623-0.748c0.208-0.244,0.42-0.486,0.633-0.725
	c0.224-0.25,0.451-0.498,0.68-0.74c0.228-0.242,0.458-0.48,0.689-0.713c0.233-0.235,0.468-0.465,0.703-0.689
	c0.238-0.228,0.477-0.447,0.715-0.662c0.229-0.205,0.456-0.404,0.686-0.602c0.231-0.197,0.462-0.388,0.695-0.574
	c0.228-0.186,0.464-0.368,0.699-0.547c0.238-0.181,0.475-0.354,0.712-0.523c0.238-0.169,0.478-0.334,0.718-0.494
	c0.242-0.162,0.485-0.317,0.729-0.469c0.238-0.148,0.479-0.293,0.723-0.432c0.238-0.139,0.48-0.273,0.724-0.403
	c0.254-0.136,0.509-0.265,0.765-0.392c0.264-0.13,0.523-0.254,0.785-0.366c-6.834-13.474-16.054-25.8-26.65-36.722
	c-0.252,0.001-0.574,0.002-0.89,0.004c-0.504,0.002-0.969,0.002-1.026,0.002C463.084,176.717,462.839,176.719,462.593,176.725z"/>
<path fill="#058FA1" d="M521.56,218.091l-1.2-3.649c-0.089-0.244-0.179-0.485-0.269-0.727l-1.662-3.987
	c-0.105-0.231-0.212-0.458-0.319-0.685l-0.659-1.344c-0.112-0.222-0.225-0.44-0.34-0.658l-1.433-2.57
	c-0.122-0.209-0.246-0.414-0.372-0.619c-0.127-0.209-0.253-0.412-0.381-0.615c-0.131-0.209-0.261-0.41-0.391-0.611l-0.798-1.195
	c-0.133-0.193-0.268-0.387-0.405-0.58c-0.135-0.191-0.272-0.384-0.412-0.574l-0.423-0.572c-0.14-0.188-0.281-0.375-0.425-0.559
	c-0.145-0.189-0.289-0.373-0.435-0.555c-0.149-0.189-0.296-0.371-0.443-0.553l-1.361-1.596c-0.153-0.173-0.308-0.344-0.464-0.515
	c-0.156-0.172-0.312-0.339-0.469-0.505c-0.16-0.17-0.318-0.335-0.477-0.5l-1.45-1.432c-0.164-0.154-0.329-0.309-0.495-0.459
	c-0.168-0.156-0.335-0.307-0.502-0.455c-0.168-0.15-0.335-0.297-0.504-0.444c-0.172-0.149-0.342-0.294-0.512-0.437l-0.515-0.426
	c-0.172-0.141-0.345-0.279-0.519-0.416c-0.172-0.138-0.345-0.272-0.52-0.406c-0.182-0.141-0.358-0.273-0.534-0.405l-0.533-0.39
	c-0.179-0.129-0.356-0.256-0.537-0.383c-0.177-0.124-0.356-0.248-0.537-0.369c-0.186-0.127-0.367-0.248-0.549-0.367
	c-0.186-0.121-0.369-0.24-0.553-0.357l-0.479-0.299c-0.168-0.104-0.336-0.207-0.507-0.309c-0.192-0.115-0.377-0.225-0.563-0.332
	c-0.188-0.109-0.376-0.216-0.564-0.321c-0.189-0.106-0.377-0.209-0.565-0.31l-1.098-0.562c4.525,6.25,8.517,12.667,11.896,19.167
	c2.524,4.854,4.731,9.805,6.563,14.715c0.946,2.539,1.804,5.102,2.549,7.615c0.154,0.521,0.29,1.168,0.433,1.854
	c0.129,0.615,0.352,1.669,0.59,2.42c5.479-2.076,5.418-3.416,5.347-3.668c-0.018-0.061-0.011-0.124-0.021-0.187l-0.019,0.003
	l-0.988-5.338L521.56,218.091z"/>
<path fill="#058FA1" d="M612.32,288.881l-0.021,0.215c-0.013,0.149-0.019,0.312-0.022,0.476c-0.005,0.175-0.008,0.351-0.006,0.529
	c0.001,0.182,0.006,0.359,0.015,0.539c0.008,0.184,0.019,0.369,0.033,0.558c0.015,0.191,0.033,0.386,0.053,0.583
	c0.021,0.189,0.046,0.39,0.072,0.59c0.032,0.239,0.069,0.486,0.111,0.736c0.042,0.246,0.089,0.502,0.139,0.76
	c0.051,0.25,0.106,0.513,0.166,0.778c0.059,0.253,0.122,0.519,0.191,0.787c0.067,0.266,0.141,0.534,0.217,0.805
	c0.075,0.268,0.153,0.531,0.235,0.798c0.083,0.27,0.17,0.538,0.26,0.809c0.092,0.274,0.187,0.548,0.284,0.823
	c0.097,0.271,0.2,0.547,0.305,0.822c0.105,0.275,0.215,0.553,0.328,0.831c0.117,0.289,0.238,0.579,0.362,0.869
	c0.124,0.288,0.252,0.579,0.385,0.869c0.134,0.295,0.271,0.589,0.411,0.883c0.139,0.291,0.282,0.584,0.43,0.877
	c0.146,0.29,0.297,0.584,0.451,0.876c0.153,0.29,0.309,0.579,0.467,0.868c0.156,0.281,0.319,0.57,0.485,0.86
	c0.164,0.287,0.333,0.573,0.505,0.859c0.171,0.286,0.346,0.571,0.523,0.856c0.177,0.282,0.358,0.567,0.543,0.851
	c0.229,0.352,0.463,0.702,0.701,1.052c0.239,0.351,0.482,0.697,0.73,1.043c0.249,0.348,0.503,0.692,0.76,1.036
	c0.257,0.34,0.519,0.682,0.785,1.02s0.538,0.675,0.813,1.009c0.178,0.202,2.114,2.242,3.785,4.002l2.289-0.901
	c0.097-1.009,0.196-2.017,0.29-3.025c2.175-23.3,3.58-46.68,3.985-70.08c0.029-1.648,0.045-3.297,0.067-4.946
	c-3.917,3.382-6.176,6.444-6.556,6.978l-0.016,0.021c-0.023,0.032-0.042,0.06-0.044,0.063h-0.001l-0.016,0.022
	c-8.06,12.076-13.213,27.18-14.492,42.499C612.325,288.813,612.323,288.847,612.32,288.881z"/>
<path fill="#FFFFFF" d="M672.96,283.041c-1.493-5.119-4.861-13.04-12.004-17.182c-1.684-0.976-2.127-1.229-3.123-1.309
	c-1.138,2.783-2.197,5.686-3.175,8.712c-1.997,6.181-3.477,12.423-4.447,18.689L672.96,283.041z"/>
<g>
	<path d="M741.454,286.478c7.263-8.572,7.888-21.245,7.573-31.944c-0.276-9.43-0.959-18.934-2.234-28.283
		c-2.384-17.459-7.744-35.563-21.414-47.584c-8.148-7.167-18.432-11.261-28.827-13.95c-11.664-3.017-23.676-4.251-35.583-5.896
		c-6.169-0.852-12.332-1.814-18.402-3.218c-2.973-0.688-5.923-1.483-8.823-2.432c-2.471-1.28-4.956-2.532-7.456-3.755
		c-10.085-4.937-20.397-9.407-30.887-13.415c-22.013-8.412-44.778-14.762-67.863-19.452c-7.535-1.531-15.108-2.884-22.666-4.292
		c-12.145-2.265-24.289-4.529-36.434-6.793c-11.165-2.082-22.329-4.163-33.494-6.245c-11.506-2.145-22.987-4.097-34.73-4.438
		c-13.835-0.402-27.63,0.989-40.816,5.244c-9.68,3.124-19.359,6.248-29.039,9.371c-10.05,3.243-20.076,6.553-30.117,9.806
		c-24.912,8.071-49.872,15.995-74.831,23.918c-12.101,3.841-24.167,7.865-35.863,12.824c-11.253,4.768-22.188,10.361-32.491,16.941
		c-18.654,11.913-35.645,27.358-46.464,46.884c-5.279,9.527-9.225,20.033-10.5,30.889c-1.367,11.633-0.072,23.693-3.164,35.095
		c-0.716,2.637-1.687,5.206-2.967,7.623c-1.19,2.248-2.64,4.316-3.681,6.649c-2.001,4.482-3.03,9.346-3.455,14.221
		c-0.868,9.981,0.633,20.047,2.592,29.816c0.945,4.718,1.933,9.443,3.119,14.107c1.417,5.574,3.275,11.143,6.402,16.012
		c2.98,4.642,7.105,8.321,12.252,10.377c4.666,1.864,9.656,2.544,14.508,3.742c8.306,2.051,16.611,4.102,24.918,6.152
		c-8.579,3.098-17.158,6.194-25.737,9.292c-4.24,1.531-16.509,6.605-11.391,13.079c2.983,3.773,8.572,5.128,13.009,6.229
		c5.439,1.35,10.879,2.699,16.318,4.05c10.514,2.608,21.026,5.218,31.539,7.826c12.717,3.156,25.433,6.312,38.148,9.468
		c12.049,2.99,24.098,5.979,36.146,8.97c8.511,2.112,17.021,4.225,25.532,6.337c6.419,1.593,12.716,3.117,19.35,3.696
		c10.2,0.892,20.565,0.473,30.69-1.008c6.705-0.98,13.41-2.435,19.748-4.872c1.894-0.728,3.787-1.456,5.682-2.185
		c4.559-1.753,9.119-3.507,13.678-5.26c6.838-2.629,13.675-5.258,20.512-7.888c8.727-3.355,17.452-6.711,26.179-10.066
		c10.227-3.933,20.454-7.865,30.681-11.798c11.34-4.361,22.68-8.722,34.02-13.082c12.063-4.639,24.127-9.278,36.191-13.917
		c12.399-4.769,24.799-9.536,37.198-14.305c12.348-4.748,24.695-9.496,37.042-14.244c11.906-4.578,23.813-9.157,35.72-13.735
		c11.077-4.26,22.155-8.52,33.232-12.779c9.86-3.792,19.72-7.583,29.58-11.375c8.255-3.174,16.509-6.349,24.764-9.522
		c6.26-2.407,12.521-4.814,18.781-7.222c3.878-1.492,7.756-2.983,11.634-4.475c3.72-1.43,7.514-2.776,10.868-4.971
		c2.503-1.637,6.055-4.692,4.264-8.041c-0.866-1.62-2.56-2.697-4.155-3.496C747.211,287.843,744.318,287.069,741.454,286.478
		 M349.866,391.513c2.189-5.69,4.534-11.31,7.494-16.648c1.452-2.62,3.021-5.178,4.71-7.651c0.818-1.198,1.664-2.377,2.54-3.531
		c0.437-0.576,0.881-1.146,1.332-1.708c0.226-0.281,0.452-0.56,0.681-0.837c0.349-0.422,0.74-0.197,1.241-0.089
		c5.081,1.1,9.178,4.619,11.972,8.888c0.487,0.743,4.8,8.909,4.01,9.197c-9.746,3.551-19.492,7.102-29.237,10.652
		C353.027,390.361,351.447,390.937,349.866,391.513z M386.899,378.772c-2.487-8.942-8.288-18.065-17.825-20.454
		c7.381-8.032,17.499-14.899,28.874-12.126c7.919,1.932,13.841,7.974,17.793,14.849c4.563,7.936,6.811,16.935,7.618,26.001
		c-9.706-2.201-19.412-4.403-29.118-6.604C391.794,379.883,389.347,379.327,386.899,378.772z M650.211,291.952
		c0.981-6.335,2.477-12.59,4.447-18.689c0.95-2.941,2.005-5.851,3.175-8.712c2.021,0.16,4.104,1.808,5.628,3.026
		c3.636,2.908,6.22,6.941,7.998,11.202c0.16,0.384,1.682,4.19,1.451,4.281c-0.522,0.204-1.045,0.409-1.567,0.614
		C664.299,286.434,657.255,289.193,650.211,291.952z M724.29,290.087c-2.766,1.383-5.866,0.505-8.696-0.131
		c-5.48-1.231-10.962-2.464-16.442-3.695c-5.92-1.33-11.84-2.66-17.761-3.991c-1.679-0.377-3.357-0.754-5.036-1.131
		c-0.266-0.061-0.531-0.12-0.797-0.18c-0.107-0.024-0.381-1.122-0.432-1.267c-0.22-0.617-0.453-1.23-0.7-1.838
		c-0.52-1.271-1.104-2.517-1.757-3.724c-1.576-2.915-3.566-5.626-6.009-7.875c-2.045-1.883-4.804-4.045-7.578-4.645
		c4.4-9.933,10.377-19.325,18.456-26.672c7.702-6.994,18.809-11.911,29.188-8.324c9.73,3.363,15.707,13.247,18.937,22.488
		c3.126,8.944,4.257,18.603,4.225,28.047C729.871,281.862,729.355,288.069,724.29,290.087
		C724.282,290.091,728.238,288.515,724.29,290.087z M735.668,283.552c0.96-5.478,0.503-11.363,0.004-16.868
		c-0.473-5.22-1.335-10.416-2.748-15.467c-2.452-8.761-6.683-17.438-13.342-23.781c-7.661-7.298-18.199-9.844-28.399-7.163
		c-10.411,2.737-18.872,9.968-25.493,18.204c-6.668,8.297-11.584,17.894-15.245,27.855c-4.349,11.835-7.013,24.29-7.678,36.888
		c-0.166,3.142-0.209,6.291-0.128,9.437c0.076,2.961,0.694,5.854,0.806,8.805c0.041,1.078,0.013,2.266-0.494,3.246
		c-0.526,1.018-1.664,1.567-2.669,2.003c-1.938,0.841-4.006,1.324-5.968,2.103c-0.859,0.342-1.72,0.683-2.579,1.024
		c-5.674,2.251-11.347,4.503-17.021,6.755c-9.552,3.791-19.104,7.583-28.657,11.374c-11.759,4.667-23.519,9.334-35.277,14.002
		c-12.295,4.879-24.589,9.759-36.883,14.639c-11.157,4.428-22.315,8.856-33.473,13.284c-8.349,3.313-16.697,6.627-25.046,9.94
		c-3.867,1.535-7.735,3.07-11.603,4.605c-1.918,0.761-3.764,1.683-5.649,2.515c-2.03,0.896-4.954,2.314-7.244,1.61
		c-1.731-0.532-1.306-3.966-1.208-5.313c0.844-11.661,0.012-23.629-3.741-34.763c-2.993-8.879-8.019-17.462-15.624-23.144
		c-7.438-5.556-17.086-7.559-26.03-4.825c-9.343,2.854-16.99,9.813-23.018,17.264c-6.898,8.527-11.981,18.251-16.023,28.406
		c-2.318,5.825-4.395,11.744-6.73,17.563c-2.235,5.567-4.614,11.277-8.045,16.231c-2.445,3.532-5.655,6.781-9.874,8.038
		c-5.341,1.591-11.132-0.351-16.263-1.864c-4.795-1.415-9.648-2.565-14.5-3.764c-8.634-2.132-17.268-4.264-25.901-6.396
		c-11.908-2.94-23.817-5.881-35.727-8.821c-12.832-3.168-25.665-6.337-38.497-9.505c-11.403-2.816-22.807-5.632-34.21-8.447
		c-7.622-1.882-15.244-3.764-22.866-5.646c-1.658-0.409-3.316-0.818-4.975-1.228c-6.458-1.595-13.946-2.086-19.193-6.603
		c-7.608-6.549-9.585-17.388-11.611-26.708c-2.073-9.538-4.018-19.23-4.017-29.031c0-4.811,0.482-9.683,1.954-14.281
		c1.586-4.958,4.859-9.045,6.718-13.89c4.179-10.889,3.604-22.718,4.265-34.158c0.348-6.024,1.171-11.92,2.95-17.697
		c1.44-4.678,3.282-9.229,5.477-13.604c4.257-8.486,9.824-16.271,16.211-23.281c11.922-13.083,26.564-23.525,42.051-31.975
		c20.052-10.941,41.739-17.95,63.453-24.761c25.104-7.875,50.158-15.942,75.167-24.117c9.339-3.052,18.689-6.095,28.044-9.113
		c7.78-2.511,15.626-4.876,23.35-7.559c5.641-1.959,11.656-2.995,17.566-3.702c11.99-1.434,24.167-1.109,36.127,0.457
		c7.92,1.037,15.778,2.685,23.628,4.148c12.112,2.258,24.225,4.517,36.337,6.774c11.215,2.091,22.431,4.182,33.646,6.273
		c10.953,2.042,21.891,4.131,32.73,6.733c22.524,5.407,44.639,12.564,65.897,21.785c5.131,2.226,10.211,4.569,15.233,7.029
		c2.501,1.225,4.986,2.479,7.458,3.761c1.209,0.628,2.712,0.916,4.017,1.292c1.557,0.449,3.123,0.862,4.697,1.244
		c12.026,2.921,24.377,4.063,36.601,5.84c11.681,1.698,23.505,3.975,34.211,9.142c8.234,3.974,15.009,10.268,19.734,18.08
		c9.516,15.736,10.986,35.053,12.079,52.974c0.384,6.309,0.692,12.668-0.017,18.966
		C741.731,272.415,740.146,279.137,735.668,283.552"/>
	<path d="M323.527,237.5c-0.318-6.662-0.787-13.338-2.104-19.889c-1.26-6.266-3.305-14.161-8.941-17.974
		c-1.844-1.247-3.886-1.602-5.999-2.039c-3.052-0.632-6.103-1.265-9.153-1.897c-10.713-2.219-21.425-4.439-32.137-6.658
		c-12.836-2.66-25.672-5.32-38.508-7.979c-10.133-2.1-20.266-4.199-30.398-6.299c-2.544-0.527-5.089-1.055-7.633-1.582
		c-6.023-1.249-12.149,1.217-17.579,3.683c-19.422,8.82-37.428,22.115-48.951,40.328c-5.734,9.062-9.92,19.326-12.191,29.796
		c-1.241,5.723-1.93,11.53-2.342,17.367c-0.21,2.98-0.303,5.965-0.661,8.933c-0.328,2.707-0.688,5.418-0.741,8.147
		c-0.047,2.366,0.071,4.952,1.185,7.097c1.144,2.214,1.192,4.31,0.979,6.742c-0.519,5.922,1.756,11.411,4.31,16.627
		c2.621,5.354,5.769,10.43,8.359,15.797c2.52,5.222,4.183,10.59,4.703,16.374c0.57,6.334,1.479,12.639,2.746,18.87
		c0.608,2.99,1.505,5.952,1.966,8.966c0.271,1.779,0.641,3.773,2.24,4.859c1.244,0.845,3.027,1.016,4.465,1.367
		c0.526,0.129,1.053,0.258,1.578,0.387c6.758,1.655,13.516,3.311,20.273,4.965c11.535,2.825,23.069,5.65,34.604,8.475
		c12.754,3.124,25.507,6.247,38.26,9.371c10.414,2.55,20.828,5.101,31.241,7.651c4.517,1.105,9.032,2.212,13.548,3.317
		c0.414,0.102,0.85,0.032,1.202-0.211c1.132-0.779,0.392-2.24,0.093-3.266c-0.639-2.195-1.265-4.396-1.853-6.605
		c-1.325-4.985-2.474-10.033-3.154-15.151c-0.654-4.915-0.93-9.993-0.045-14.897c0.88-4.876,3.32-8.913,6.784-12.408
		c3.702-3.736,8.085-6.722,12.419-9.666c2.238-1.521,4.412-3.136,6.785-4.442c2.717-1.496,5.459-2.944,8.106-4.562
		c2.057-1.257,4.15-2.6,5.845-4.331c0.583-0.596,1.126-1.255,1.498-2.006c0.477-0.962,0.45-1.986,0.505-3.039
		c0.335-6.392,0.488-12.792,0.913-19.179c0.429-6.434,1.272-12.755,2.533-19.077c1.202-6.034,2.277-12.095,3.153-18.186
		c1.488-10.356,2.388-20.81,2.287-31.277C323.695,241.831,323.629,239.665,323.527,237.5z M183.767,175.807
		c2.557-0.47,5.431,0.478,7.931,0.997c4.658,0.966,9.317,1.931,13.977,2.896c12.539,2.599,25.079,5.197,37.619,7.795
		c4.798,0.994,9.596,1.988,14.394,2.982c1.356,0.281,2.712,0.563,4.068,0.844c0.333,0.068,0.667,0.139,1,0.207
		c0.068,0.014,0.136,0.028,0.204,0.043c0.168,0.034,0.322,2.094,0.361,2.356c0.962,6.539,2.07,13.042,2.872,19.605
		c0.802,6.569,1.477,13.154,2.027,19.749c1.099,13.149,1.727,26.34,1.91,39.533c0.093,6.579,0.073,13.16-0.062,19.738
		c-0.068,3.313-0.161,6.624-0.281,9.934c-0.057,1.547-0.119,3.094-0.188,4.64c-0.043,0.97,0.204,2.617-0.518,3.403
		c-0.434,0.472-1.197,0.611-1.775,0.82c-0.751,0.272-1.502,0.544-2.254,0.816c-1.627,0.589-3.255,1.179-4.883,1.769
		c-3.13,1.134-6.26,2.267-9.39,3.4c-6.161,2.231-12.298,4.552-18.49,6.695c-1.734,0.601-3.598,0.773-5.388,0.314
		c-0.768-0.196-2.179-0.548-2.461-1.334c-0.99-2.757-2.148-5.451-3.491-8.054c-5.195-10.069-13.238-19.051-23.354-24.343
		c-0.684-0.358-1.555-0.554-2.063-1.156c-0.274-0.326-0.549-0.652-0.824-0.979c-1.093-1.297-2.186-2.595-3.279-3.892
		c-3.638-4.318-7.276-8.637-10.915-12.955c-7.31-8.677-14.619-17.353-21.929-26.028c-0.631-0.749-1.262-1.498-1.893-2.247
		c-0.765-0.907-1.559-1.794-2.26-2.752c-1.626-2.219-2.676-4.825-3.165-7.525c-0.539-2.975-0.274-5.943,0.097-8.921
		c0.387-3.11,0.953-6.199,1.704-9.243c1.41-5.713,3.362-11.443,5.956-16.731c2.355-4.804,5.479-9.026,9.33-12.733
		c2.103-2.024,4.353-3.891,6.68-5.65c1.314-0.993,2.655-1.953,4.014-2.887C180.594,176.439,182.167,176.047,183.767,175.807
		C184.306,175.708,182.199,176.043,183.767,175.807z M115.545,311.123c-1.328-2.657-2.595-5.375-3.448-8.227
		c-0.796-2.659-1-5.227-0.776-7.979c0.213-2.614-0.006-5.001-1.175-7.387c-1.023-2.09-1.099-4.379-1.009-6.673
		c0.104-2.679,0.482-5.335,0.791-7.994c0.35-3.012,0.415-6.051,0.64-9.072c0.433-5.805,1.169-11.572,2.465-17.25
		c1.293-5.664,3.132-11.239,5.64-16.485c2.07-4.332,4.112-8.564,6.764-12.586c5.586-8.471,12.701-15.881,20.646-22.168
		c6.94-5.49,14.511-10.041,22.43-13.967c-4.383,3.854-8.181,8.251-10.989,13.385c-2.822,5.158-4.839,10.793-6.474,16.43
		c-1.69,5.83-3.058,12.186-3.038,18.281c0.009,2.811,0.504,5.625,1.521,8.247c1.011,2.604,2.563,4.77,4.352,6.892
		c5.611,6.66,11.224,13.32,16.835,19.979c6.348,7.533,12.695,15.066,19.042,22.6c0.079,0.094,0.158,0.188,0.237,0.281
		c-6.063-2.022-12.37-3.148-18.573-4.638c-2.984-0.717-5.982-1.383-9.057-1.542c-3.023-0.156-6.063,0.099-9.027,0.696
		c-10.765,2.169-19.564,9.092-27.141,16.719C122.347,302.543,118.764,306.705,115.545,311.123
		C115.511,311.055,123.274,300.516,115.545,311.123z M128.574,343.056c-0.484-5.636-2.244-11.009-4.658-16.098
		c-1.178-2.481-2.486-4.897-3.81-7.304c-0.71-1.292-1.423-2.583-2.123-3.88c-0.259-0.479-1.081-1.505-0.759-1.959
		c0.393-0.557,0.793-1.107,1.199-1.655c6.255-8.433,13.857-16.473,22.757-22.141c4.58-2.916,9.661-4.872,15.059-5.592
		c2.968-0.395,5.985-0.4,8.947,0.051c3.116,0.475,6.163,1.334,9.236,2.021c5.793,1.294,11.66,2.449,17.208,4.612
		c4.949,1.929,9.485,4.755,13.502,8.223c5.982,5.164,10.745,11.672,14.125,18.801c1.888,3.981,3.356,8.16,4.428,12.434
		c0.569,2.275,1.028,4.578,1.382,6.897c0.092,0.602-0.511,0.597-1.009,0.817c-0.58,0.256-1.153,0.528-1.722,0.809
		c-1.085,0.536-2.154,1.103-3.244,1.627c-2.908-9.709-9.911-19.246-20.767-20.158c-10.42-0.875-19.852,6.032-25.821,13.988
		c-5.527,7.364-8.989,16.255-10.76,25.248c-0.1,0.507-0.193,1.015-0.282,1.523c-0.071,0.414,0.023,0.471-0.418,0.606
		c-0.334,0.103-0.668,0.204-1.004,0.302c-1.455,0.429-2.923,0.814-4.4,1.158c-2.887,0.671-5.811,1.182-8.752,1.54
		c-4.602,0.561-9.211,0.673-13.84,0.673c-0.32,0-0.641,0-0.961,0c-0.177,0-0.553-2.318-0.612-2.606
		c-0.443-2.131-0.843-4.271-1.201-6.416C129.527,352.095,128.962,347.583,128.574,343.056
		C127.755,333.523,129.232,350.745,128.574,343.056z M216.381,341.872c-7.975,2.905-15.948,5.812-23.923,8.717
		c-9.065,3.303-18.13,6.605-27.195,9.909c-0.239,0.087-0.48,0.169-0.72,0.255c1.726-8.933,5.234-17.815,10.836-25.041
		c6.078-7.841,16.436-14.94,26.748-11.379C209.725,326.956,214.233,334.529,216.381,341.872z M312.252,323.838
		c-0.063,1.539-0.126,3.078-0.195,4.617c-0.069,1.553-0.004,3.202-0.244,4.737c-0.189,1.212-1.738,2.238-2.627,2.909
		c-3.125,2.36-6.63,4.222-10.064,6.086c-4.624,2.51-8.94,5.571-13.217,8.634c-4.146,2.969-8.222,6.222-11.318,10.313
		c-5.042,6.661-5.635,15.018-4.912,23.08c0.752,8.385,2.893,16.585,5.228,24.647c-4.552-1.114-9.103-2.229-13.654-3.344
		c-10.798-2.645-21.595-5.289-32.393-7.934c-12.758-3.124-25.516-6.249-38.273-9.373c-10.434-2.556-20.866-5.11-31.3-7.666
		c-4.191-1.026-8.382-2.053-12.573-3.079c-3.14-0.77-6.279-1.538-9.419-2.308c-0.819-0.2-1.639-0.4-2.458-0.602
		c-0.784-0.192-1.056-0.868-1.229-1.592c-0.351-1.467-0.518-2.969-0.874-4.438c10.201,0,20.249-0.964,30.016-4.075
		c0.6-0.032,1.23-0.369,1.783-0.57c1.229-0.447,2.457-0.896,3.685-1.343c2.918-1.063,5.835-2.125,8.752-3.188
		c7.125-2.596,14.25-5.192,21.376-7.789c5.573-2.03,11.147-4.062,16.721-6.092c1.482-0.54,2.979-1.046,4.414-1.695
		c2.803-1.268,5.446-2.767,8.346-3.82c3.129-1.138,6.257-2.275,9.385-3.415c24.662-8.979,49.313-17.994,74.019-26.854
		c0.616-0.222,1.233-0.442,1.85-0.663C312.662,313.952,312.455,318.896,312.252,323.838
		C312.128,326.878,312.452,318.959,312.252,323.838z M313.37,305.806c-24.761,8.864-49.461,17.895-74.173,26.892
		c-3.756,1.368-7.512,2.735-11.269,4.101c-0.539-3.464-1.308-6.894-2.321-10.25c2.674,1.583,5.538,1.47,8.387,0.45
		c3.09-1.106,6.168-2.247,9.254-3.365c6.261-2.268,12.521-4.536,18.783-6.804c3.08-1.115,6.16-2.23,9.24-3.347
		c0.627-0.227,1.256-0.505,1.899-0.679c0.331-0.09,0.93-0.136,1.156-0.428c0.448-0.573,0.109-2.2,0.143-2.902
		c0.3-6.443,0.495-12.893,0.582-19.343c0.358-26.504-1.024-53.022-4.388-79.319c-0.779-6.089-1.932-12.12-2.714-18.208
		c2.327,0.482,4.655,0.965,6.982,1.447c1.151,0.238,2.304,0.478,3.456,0.717c0.539,0.111,0.374,0.738,0.443,1.234
		c0.186,1.332,0.371,2.664,0.555,3.996c1.509,10.926,3.025,21.878,3.86,32.879c0.986,12.988,1.554,26.009,1.685,39.033
		c0.064,6.44,0.023,12.883-0.113,19.322c-0.07,3.28-0.165,6.561-0.285,9.839c-0.053,1.462-0.108,2.923-0.174,4.384
		c-0.029,0.639-0.204,1.477,0.105,2.066c0.785,1.497,2.783,0.332,3.896-0.077c2.444-0.898,4.889-1.797,7.332-2.695
		c5.542-2.038,11.085-4.075,16.627-6.113c0.712-0.262,1.424-0.523,2.136-0.785C314.003,300.489,313.646,303.144,313.37,305.806
		 M315.027,294.758c-8.983,3.248-17.968,6.496-26.951,9.745c-0.254,0.092-0.509,0.184-0.763,0.275
		c1.072-25.633,0.872-51.485-1.571-77.04c-1.032-10.795-2.533-21.544-4.03-32.283c8.835,1.831,17.67,3.662,26.505,5.492
		c5.941,1.232,8.296,8.828,9.581,13.894c1.716,6.762,2.337,13.782,2.702,20.731C321.55,255.515,319.006,275.241,315.027,294.758z"/>
	<path d="M513.063,279.506c-0.984-12.603-1.638-25.305-4.327-37.691c-0.317-1.462-0.663-2.917-1.042-4.363
		c-0.356-1.362-0.326-2.803-0.677-4.188c-0.71-2.804-1.925-5.434-2.903-8.146c-2.151-5.941-4.761-11.715-7.737-17.288
		c-11.401-21.353-27.97-39.81-46.932-54.735c-4.735-3.727-9.706-7.129-14.544-10.715c-1.942-1.439-4.355-3.281-6.896-3.281
		c-1.392,0-2.874,0.515-4.225,0.822c-1.63,0.37-3.254,0.763-4.872,1.181c-11.672,3.011-22.953,7.42-33.582,13.105
		c-5.333,2.852-10.482,6.029-15.474,9.443c-2.592,1.774-5.112,3.642-7.658,5.479c-2.488,1.795-5.048,3.507-7.36,5.531
		c-1.838,1.608-3.393,3.315-4.1,5.699c-0.631,2.128-0.623,4.4-0.342,6.584c0.555,4.313,2.143,8.404,3.713,12.43
		c4.348,11.139,9.904,21.664,15.575,32.172c6.021,11.156,11.938,22.272,15.239,34.587c1.638,6.106,2.216,12.414,3.648,18.563
		c1.118,4.795,2.928,9.137,6.006,13.013c1.128,1.42,2.256,2.841,3.384,4.261c6.289,7.92,12.578,15.84,18.867,23.76
		c8.091,10.189,16.183,20.379,24.273,30.568c5.603,7.056,11.205,14.111,16.808,21.167c1.938,2.44,3.819,5.23,6.769,6.489
		c4.632,1.978,9.88-0.942,14.235-2.66c10.59-4.177,21.18-8.354,31.77-12.53c0.763-0.301,2.029-0.575,2.558-1.265
		c0.917-1.194,0.731-3.291,0.751-4.688c0.04-2.994,0.178-5.977,0.301-8.97c0.535-13.078,0.69-26.172,0.45-39.259
		C514.524,302.875,513.973,291.177,513.063,279.506z M492.785,215.473c-0.117-0.322-0.233-0.645-0.351-0.967
		c2.794,5.65,5.259,11.51,7.133,17.531c0.136,0.436,1.825,5.944,1.607,6.024c-0.426,0.155-0.852,0.312-1.277,0.467
		c-5.234,1.914-10.469,3.828-15.702,5.742c-4.059,1.484-8.116,2.968-12.174,4.452c1.332-7.014,3.937-13.91,7.735-19.96
		c1.763-2.808,3.819-5.446,6.218-7.741c1.094-1.041,2.261-2.007,3.505-2.865c0.83-0.572,1.696-1.097,2.595-1.555
		c0.117-0.059,0.97-0.419,0.936-0.51C492.936,215.885,492.86,215.679,492.785,215.473z M463.336,176.725
		c0.659,0.011,1.693-0.236,2.162,0.249c0.738,0.764,1.469,1.534,2.193,2.311c1.367,1.468,2.709,2.96,4.024,4.476
		c2.627,3.027,5.146,6.151,7.538,9.368c4.766,6.407,9.035,13.189,12.648,20.313c-4.667,2.003-8.584,5.657-11.693,9.599
		c-3.705,4.697-6.482,10.109-8.485,15.733c-0.918,2.578-1.67,5.213-2.264,7.885c-0.161,0.727-0.249,3.077-0.927,3.311
		c-1.191,0.409-2.416,0.743-3.644,1.026c-2.298,0.53-4.626,0.897-6.871,1.639c-2.278,0.745-4.48,1.72-6.609,2.817
		c-8.197,4.229-15.546,10.279-21.839,16.987c-0.785,0.837-1.405,1.117-2.495,1.507c-1.585,0.565-3.225,1.001-4.893,1.229
		c-1.9,0.261-3.896,0.26-5.73-0.354c-0.882-0.294-1.714-0.734-2.434-1.325c-0.782-0.643-1.28-1.597-2.274-1.945
		c-0.102-0.03-0.202-0.06-0.303-0.089c0.136-0.019,0.578-0.002,0.669-0.094c-0.104-0.743-0.207-1.487-0.295-2.232
		c-0.195-1.641-0.345-3.286-0.452-4.935c-0.203-3.108-0.243-6.224-0.162-9.336c0.163-5.712,0.784-11.419,1.855-17.032
		c2.211-11.627,6.207-22.988,12.178-33.228c4.095-7.022,9.175-13.616,15.467-18.81C446.983,180.609,454.992,176.498,463.336,176.725
		C463.394,176.725,463.084,176.717,463.336,176.725z M388.131,266.841c-1.507-5.947-3.521-11.76-6-17.371
		c-2.608-5.905-5.714-11.593-8.771-17.274c-5.826-10.826-11.739-21.617-16.215-33.092c-1.549-3.969-3.201-7.981-3.812-12.225
		c-0.3-2.081-0.358-4.32,0.425-6.309c0.909-2.307,3.159-3.924,5.06-5.383c9.824-7.544,20.196-14.584,31.275-20.154
		c3.617-1.819,7.309-3.493,11.063-5.012c-1.36,2.67-2.862,5.284-3.665,8.191c-1.566,5.673-1.066,11.644-0.852,17.448
		c0.485,13.094,0.197,26.266-0.187,39.358c-0.327,11.184-0.887,22.36-1.657,33.521c-0.389,5.645-0.833,11.284-1.334,16.92
		c-0.058,0.657,0.095,0.904-0.485,1.114c-0.565,0.204-1.13,0.408-1.694,0.613c-0.944,0.341-1.888,0.683-2.831,1.023
		C388.346,267.754,388.246,267.295,388.131,266.841C386.171,259.105,388.246,267.295,388.131,266.841z M389.931,276.091
		c-0.248-1.501-0.501-3.001-0.78-4.497c-0.151-0.811-0.246-0.718,0.409-0.955c1.297-0.47,2.594-0.939,3.89-1.409
		c1.354-0.49,2.708-0.98,4.062-1.471c0.251-0.091,0.501-0.182,0.752-0.272c0.133-0.049,0.161-1.776,0.18-1.986
		c0.08-0.926,0.159-1.852,0.237-2.778c1.108-13.229,1.94-26.483,2.451-39.749c0.51-13.209,0.679-26.432,0.547-39.649
		c-0.055-5.528-0.512-11.087-0.276-16.612c0.224-5.251,1.365-10.532,4.66-14.757c1.348-1.744,2.727-3.466,4.089-5.199
		c0.2-0.255,1.158-0.397,1.477-0.5c0.729-0.234,1.46-0.464,2.192-0.688c1.594-0.487,3.197-0.941,4.809-1.364
		c0.757-0.199,1.515-0.392,2.274-0.58c0.537-0.133,1.651-0.633,2.121-0.334c0.963,0.611,1.919,1.234,2.871,1.862
		c8.438,5.57,16.751,11.433,24.54,17.887c4.123,3.417,8.102,7.008,11.918,10.764c-11.624,0.263-21.927,7.203-29.563,15.499
		c-8.139,8.842-13.982,19.715-18.007,30.982c-3.899,10.959-6.146,22.549-6.498,34.181c-0.088,2.915-0.065,5.832,0.088,8.744
		c0.083,1.576,0.204,3.151,0.364,4.722c0.079,0.776,0.169,1.551,0.267,2.325c0.043,0.332,0.089,0.663,0.136,0.995
		c0.074,0.522-0.357,0.44-0.796,0.612c-2.528,0.997-5.121,1.85-7.681,2.764c-3.452,1.233-6.903,2.467-10.355,3.699
		C390.18,277.581,390.054,276.836,389.931,276.091C389.645,274.362,390.053,276.831,389.931,276.091z M506.833,365.382
		c-8.961,3.527-17.923,7.055-26.884,10.582c-4.521,1.78-9.043,3.56-13.564,5.34c0.563,0.131,1.128,0.262,1.691,0.393
		c-3.654-0.006-5.777-3.412-7.834-6.001c-2.207-2.78-4.415-5.561-6.623-8.341c-7.37-9.282-14.741-18.564-22.111-27.847
		c-7.735-9.741-15.471-19.482-23.206-29.224c-3.81-4.798-7.619-9.595-11.429-14.393c-3.021-3.803-4.636-8.076-5.655-12.786
		c-0.08-0.371-0.157-0.743-0.232-1.115c-0.104-0.518-0.335-0.679,0.227-0.88c0.729-0.26,1.457-0.521,2.186-0.78
		c1.452-0.519,2.903-1.037,4.355-1.556c2.222-0.793,4.442-1.586,6.663-2.38c1.31-0.469,2.62-0.938,3.93-1.407
		c0.25-0.09,0.499-0.18,0.748-0.271c0.418-0.153,0.82-0.329,1.264-0.395c0.521-0.077,0.72,0.421,1.061,0.766
		c2.842,2.87,6.972,3.504,10.833,3.035c2.667-0.324,5.321-1.094,7.769-2.201c0.815-0.369,1.368-1.143,1.969-1.784
		c1.391-1.483,2.86-2.904,4.354-4.284c3.82-3.531,7.951-6.778,12.381-9.513c3.761-2.322,7.806-4.396,12.111-5.482
		c3.427-0.865,6.833-1.426,10.172-2.647c1.672-0.611,3.344-1.223,5.016-1.834c5.883-2.151,11.766-4.303,17.649-6.454
		c2.736-1.001,5.474-2.002,8.211-3.003c1.343,6.24,1.915,12.669,2.609,19.007c0.719,6.561,1.331,13.134,1.832,19.715
		c1.004,13.195,1.55,26.423,1.678,39.655C508.151,334.666,507.739,350.039,506.833,365.382z"/>
	<path d="M646.224,175.307c-21.024-14.259-44.582-25.115-68.645-33.136c-22.409-7.469-45.827-12.185-69.476-12.824
		c-12.77-0.347-25.548,0.554-38.208,2.197c-5.73,0.744-11.441,1.642-17.132,2.649c-2.598,0.46-5.192,0.942-7.783,1.442
		c-1.174,0.227-2.346,0.457-3.518,0.689c-1.271,0.252-1.596,1.992-0.487,2.68c19.646,12.194,37.284,27.772,51.215,46.267
		c7.46,9.904,13.844,20.671,18.538,32.16c1.221,2.986,2.323,6.021,3.295,9.096c0.436,1.379,0.779,2.748,1.087,4.16
		c0.252,1.158,0.503,2.413,1.145,3.431c0.345,0.547,0.414,1.361,0.561,1.991c0.169,0.729,0.331,1.458,0.485,2.189
		c0.336,1.594,0.639,3.195,0.912,4.802c0.532,3.117,0.956,6.252,1.312,9.395c1.435,12.702,2.169,25.545,2.794,38.31
		c0.637,12.99,0.875,25.998,0.726,39.003c-0.075,6.523-0.244,13.045-0.501,19.563c-0.131,3.31-0.283,6.617-0.459,9.925
		c-0.065,1.236-0.708,5.244,1.872,4.227c1.493-0.589,2.985-1.177,4.479-1.766c8.708-3.435,17.416-6.869,26.124-10.304
		c12.115-4.779,24.23-9.558,36.347-14.336c10.456-4.125,20.912-8.249,31.368-12.373c3.022-1.191,6.045-2.384,9.067-3.576
		c0.683-0.269,1.365-0.538,2.048-0.808c0.1-0.039,0.198-0.078,0.298-0.117c0.661-0.261,1.405-0.566,1.827-1.171
		c0.579-0.83,0.486-2.03,0.579-2.99c2.497-25.896,3.876-51.911,4.171-77.925c0.074-6.51,0.078-13.021,0.008-19.53
		c-0.055-5.16,0.005-10.394,2.048-15.227c0.927-2.194,2.183-4.191,3.922-5.832c1.761-1.661,3.867-2.93,5.512-4.715
		c1.614-1.752,2.803-3.975,2.78-6.406c-0.023-2.485-1.313-4.779-2.91-6.609C650.07,178.061,648.168,176.625,646.224,175.307
		C642.58,172.836,649.313,177.402,646.224,175.307z M517.828,229.395c-0.798-3.833-2.23-7.585-3.651-11.225
		c-1.49-3.816-3.166-7.561-5.005-11.221c-3.67-7.309-7.988-14.283-12.783-20.905c11.372,5.813,19.45,16.183,23.837,28.033
		c1.114,3.012,2.074,6.187,2.659,9.347c0.212,1.145,0.424,2.29,0.637,3.436c0.083,0.449,0.262,0.979,0.259,1.415
		c-0.002,0.486-0.468,0.913-0.806,1.198c-1.297,1.092-2.992,1.749-4.557,2.342C518.167,231.023,517.998,230.205,517.828,229.395
		C517.686,228.709,517.957,230.01,517.828,229.395z M525.068,358.203c1.338-26.062,1.284-52.19-0.44-78.232
		c-0.838-12.656-1.45-25.422-3.646-37.933c-0.263-1.495-0.55-2.985-0.865-4.47c-0.157-0.739-0.321-1.477-0.494-2.213
		c-0.171-0.732-0.283-0.75,0.372-1.002c1.709-0.658,3.441-1.432,4.855-2.617c0.659-0.553,1.258-1.217,1.597-2.018
		c0.409-0.967-0.004-2,0.415-2.917c0.169-0.368,0.326-0.597,0.687-0.522c6.801,1.387,13.602,2.772,20.401,4.159
		c12.515,2.551,25.028,5.103,37.542,7.653c10.532,2.147,21.064,4.295,31.597,6.441c2.17,0.442,4.339,0.885,6.508,1.327
		c-6.267,9.771-10.5,20.838-12.728,32.215c-1.021,5.209-2.095,10.791-1.102,16.076c0.995,5.294,3.292,10.353,6.077,14.934
		c2.292,3.77,4.977,7.1,7.989,10.239c-5.179,2.039-10.357,4.077-15.537,6.116c-11.375,4.478-22.75,8.955-34.125,13.433
		c-11.328,4.46-22.656,8.919-33.984,13.378C535.148,354.235,530.108,356.219,525.068,358.203z M633.383,244.143
		c-0.229,13.221-0.777,26.435-1.603,39.631c-0.413,6.599-0.896,13.192-1.442,19.781c-0.273,3.294-0.563,6.587-0.867,9.878
		c-0.046,0.5-0.063,3.697-0.434,3.844c-0.652,0.257-1.305,0.513-1.957,0.771c-0.594,0.233-1.668-1.379-2.093-1.826
		c-0.641-0.677-1.29-1.347-1.919-2.034c-1.732-1.896-3.202-4.153-4.545-6.334c-2.647-4.3-4.819-9.018-5.829-13.986
		c-1.012-5.237,0.144-10.819,1.194-15.972c1.174-5.748,2.878-11.392,5.106-16.819c1.995-4.857,4.411-9.548,7.27-13.954
		c1.941-2.991,4.496-5.604,7.186-7.925C633.428,240.845,633.412,242.494,633.383,244.143
		C632.978,267.543,633.412,242.494,633.383,244.143z M644.563,191.921c-1.986,1.767-4.328,3.126-6.055,5.178
		c-1.766,2.099-2.954,4.742-3.729,7.354c-1.564,5.278-1.454,10.87-1.326,16.318c0.068,2.93,0.094,5.857,0.086,8.788
		c-0.004,1.548-0.014,3.097-0.026,4.646c-0.003,0.387-0.007,0.773-0.011,1.16c-0.31,0.241-0.616,0.485-0.92,0.732
		c-0.668,0.545-1.321,1.106-1.96,1.684c-1.727,1.562-3.353,3.239-4.832,5.037c-0.294,0.357-0.233,0.453-0.596,0.379
		c-6.8-1.386-13.6-2.772-20.399-4.158c-12.479-2.544-24.957-5.088-37.436-7.633c-10.733-2.188-21.468-4.376-32.202-6.564
		c-1.913-0.391-3.827-0.78-5.741-1.17c-1.247-0.255-2.281-0.65-3.493,0.032c-2.36-11.089-6.841-21.618-14.642-30.022
		c-2.83-3.049-6.04-5.747-9.551-7.979c-1.428-0.907-2.907-1.702-4.412-2.47c-0.915-0.469-1.859-0.885-2.811-1.272
		c-0.368-0.151-0.738-0.295-1.109-0.437c-0.61-0.234-0.846-0.576-1.255-1.098c-7.098-9.039-15.132-17.36-23.8-24.9
		c-7.146-6.215-14.749-11.899-22.705-17.035c5.63-1.085,11.276-2.085,16.944-2.95c3.084-0.471,6.175-0.902,9.271-1.288
		c1.531-0.191,3.063-0.37,4.598-0.538c0.776-0.084,1.554-0.166,2.33-0.244c0.718-0.073,1.894-0.413,2.561-0.142
		c4.177,1.694,8.085,4.082,11.766,6.663c4.03,2.826,7.867,5.99,11.253,9.569c3.272,3.458,5.637,7.222,7.451,11.624
		c2.161,5.241,3.573,10.765,4.586,16.333c0.451,2.479,0.821,4.97,1.148,7.467c0.093,0.71,0.651,1.144,1.311,1.273
		c0.605,0.119,1.21,0.239,1.815,0.359c7.862,1.553,15.725,3.105,23.588,4.658c12.508,2.471,25.016,4.941,37.523,7.412
		c11.736,2.318,23.473,4.637,35.208,6.954c5.547,1.096,11.094,2.191,16.641,3.286c0.018,0.004,0.036,0.008,0.054,0.012
		c0.054-0.275,0.57-2.871,0.563-2.873c-0.113-0.023-0.228-0.045-0.341-0.067c-0.742-0.147-1.485-0.294-2.228-0.44
		c-3.244-0.641-6.488-1.281-9.732-1.922c-11.122-2.197-22.244-4.395-33.365-6.591c-12.717-2.512-25.433-5.023-38.149-7.535
		c-8.813-1.74-17.624-3.481-26.437-5.222c-0.948-0.188-1.896-0.375-2.846-0.563c-1.212-0.238-0.863-0.377-1.086-1.906
		c-0.787-5.4-1.85-10.773-3.475-15.989c-1.563-5.014-3.546-10.095-6.742-14.309c-2.957-3.899-6.594-7.289-10.388-10.359
		c-3.899-3.156-8.069-6.025-12.493-8.398c24.031-1.676,48.023,0.792,71.341,6.77c24.436,6.265,48.249,15.915,70.227,28.292
		c3.047,1.716,6.059,3.496,9.027,5.344c1.516,0.943,3.021,1.905,4.512,2.885c1.279,0.84,2.606,1.596,3.62,2.755
		C649.086,182.686,648.588,188.701,644.563,191.921C642.166,194.052,649.353,188.089,644.563,191.921z"/>
</g>
</svg>
