<svg fill="white" width="30" height="30" viewBox="0 0 30 30" version="1.1" xmlns="http://www.w3.org/2000/svg" xmlns:xlink="http://www.w3.org/1999/xlink" xml:space="preserve" xmlns:serif="http://www.serif.com/" style="fill-rule:evenodd;clip-rule:evenodd;stroke-linejoin:round;stroke-miterlimit:2;">
  <g id="Group_2799" transform="matrix(1,0,0,1,2.326,2.375)">
    <g id="Group_2798">
      <g id="Path_2053" transform="matrix(1,0,0,1,-1.836,-1.875)">
        <path d="M24.885,3.125C24.176,2.406 23.207,2 22.198,2C21.188,2 20.219,2.406 19.51,3.125L4.26,18.25C4.135,18.375 4.135,18.5 4.01,18.625L2.01,25.875C1.912,26.19 2.01,26.535 2.26,26.75C2.499,26.961 2.821,27.053 3.135,27L10.385,25C10.51,25 10.635,24.875 10.76,24.75L25.885,9.625C26.604,8.916 27.01,7.947 27.01,6.938C27.01,5.928 26.604,4.959 25.885,4.25L24.885,3.125ZM6.135,18.875L18.51,6.5L22.51,10.5L10.135,22.875L6.135,18.875ZM5.385,20.5L8.635,23.75L4.26,25L5.385,20.5ZM24.635,8.375L23.76,9.25L19.76,5.25L20.635,4.375C21.021,3.957 21.566,3.719 22.135,3.719C22.704,3.719 23.249,3.957 23.635,4.375L24.635,5.375C25.053,5.761 25.291,6.306 25.291,6.875C25.291,7.444 25.053,7.989 24.635,8.375Z" style="fill-rule:nonzero;"/>
      </g>
      <g id="Path_2054" transform="matrix(1,0,0,1,-1.861,-1.9)">
        <path d="M2.91,27.15C2.644,27.124 2.388,27.039 2.16,26.9C1.893,26.642 1.795,26.253 1.91,25.9L3.91,18.775C3.941,18.587 4.028,18.413 4.16,18.275L19.285,3.025C20.899,1.533 23.421,1.533 25.035,3.025L26.035,4.025C26.814,4.778 27.254,5.817 27.254,6.9C27.254,7.983 26.814,9.022 26.035,9.775L10.91,24.9C10.79,25.054 10.606,25.146 10.41,25.15L3.16,27.15L2.91,27.15ZM22.16,2.275C21.227,2.261 20.326,2.621 19.66,3.275L4.535,18.525C4.41,18.65 4.41,18.65 4.41,18.775L2.41,25.9C2.377,26.116 2.422,26.338 2.535,26.525C2.695,26.695 2.947,26.745 3.16,26.65L10.41,24.65C10.505,24.637 10.593,24.593 10.66,24.525L25.66,9.4C27.026,7.977 27.026,5.698 25.66,4.275L24.66,3.275C23.994,2.621 23.093,2.261 22.16,2.275ZM3.785,25.275L5.16,20.15L8.91,23.9L3.785,25.275ZM5.535,20.9L4.535,24.525L8.16,23.525L5.535,20.9ZM10.16,23.15L5.91,18.9L18.535,6.275L22.785,10.525L10.16,23.15ZM6.535,18.9L10.16,22.65L22.285,10.525L18.535,6.9L6.535,18.9ZM23.785,9.65L19.535,5.4L20.535,4.4C21.436,3.53 22.884,3.53 23.785,4.4L24.785,5.4C25.655,6.301 25.655,7.749 24.785,8.65L23.785,9.65ZM20.035,5.275L23.66,9.025L24.535,8.275C25.28,7.517 25.28,6.283 24.535,5.525L23.535,4.525C22.777,3.78 21.543,3.78 20.785,4.525L20.035,5.275Z" style="fill-rule:nonzero;"/>
      </g>
    </g>
  </g>
</svg>
