<svg width="100%" height="100%" viewBox="0 0 30 30" version="1.1" xmlns="http://www.w3.org/2000/svg" xmlns:xlink="http://www.w3.org/1999/xlink" xml:space="preserve" xmlns:serif="http://www.serif.com/" style="fill-rule:evenodd;clip-rule:evenodd;stroke-linejoin:round;stroke-miterlimit:2;">
    <rect id="Rectangle_50" x="0" y="0" width="30" height="30" style="fill:none;fill-rule:nonzero;"/>
    <g transform="matrix(1,0,0,1,0.174,1.205)">
        <g id="Layer">
            <g id="Vrstva_92">
                <path id="Path_107" d="M16.241,2.13C10.755,2.13 6.242,6.644 6.242,12.13C6.242,14.479 7.07,16.755 8.579,18.555L3.8,23.318C3.565,23.553 3.432,23.873 3.432,24.206C3.432,24.894 3.999,25.461 4.687,25.461C5.02,25.461 5.34,25.328 5.575,25.093L10.387,20.243C12.08,21.473 14.12,22.134 16.212,22.131C21.698,22.131 26.212,17.617 26.212,12.131C26.212,6.645 21.698,2.131 16.212,2.131L16.241,2.13ZM16.241,19.63C12.127,19.63 8.741,16.244 8.741,12.13C8.741,8.016 12.127,4.63 16.241,4.63C20.355,4.63 23.741,8.016 23.741,12.13C23.741,16.244 20.355,19.63 16.241,19.63Z"/>
            </g>
        </g>
    </g>
</svg>
