<?xml version="1.0" encoding="UTF-8" standalone="no"?><!DOCTYPE svg PUBLIC "-//W3C//DTD SVG 1.1//EN" "http://www.w3.org/Graphics/SVG/1.1/DTD/svg11.dtd"><svg width="100%" height="100%" viewBox="0 0 117 117" version="1.1" xmlns="http://www.w3.org/2000/svg" xmlns:xlink="http://www.w3.org/1999/xlink" xml:space="preserve" xmlns:serif="http://www.serif.com/" style="fill-rule:evenodd;clip-rule:evenodd;stroke-linecap:round;"><rect x="19.628" y="35.693" width="78.353" height="75.317" style="fill:#fff;"/><path d="M97.981,21.008c-0.152,-4.865 3.528,-9.98 5.461,-14.97l-77.215,-0c-3.642,-0 -6.599,2.956 -6.599,6.598l-0,13.198c-0,3.642 2.957,6.599 6.599,6.599l77.215,0c-1.998,-3.568 -5.333,-7.33 -5.461,-11.425Z" style="fill:#fff;"/><g id="Group_2744"><path id="Path_1920" d="M99.8,29.976l-68.496,0c-5.284,0 -9.631,-4.347 -9.631,-9.631c-0,-5.283 4.347,-9.631 9.631,-9.631l68.496,-0c2.935,-0.005 5.347,-2.418 5.353,-5.352c0.006,-0.103 0.009,-0.206 0.009,-0.308c-0,-2.773 -2.281,-5.054 -5.054,-5.054c-0.102,0 -0.205,0.003 -0.308,0.009l-68.496,0c-10.799,0.165 -19.635,9.001 -19.799,19.799l-0,77.06c0.164,10.798 9,19.634 19.799,19.799l68.496,-0c2.935,-0.005 5.347,-2.418 5.353,-5.353l-0,-76.522c-0.411,-2.664 -2.661,-4.688 -5.353,-4.816Zm-5.352,10.163l0,66.896l-63.144,0c-0.013,0 -0.025,0.001 -0.038,0.001c-5.263,-0 -9.593,-4.331 -9.593,-9.594c-0,-0.013 -0,-0.025 -0,-0.038l-0,-59.934c2.904,1.758 6.236,2.681 9.631,2.669l63.144,0Z" style="fill-rule:nonzero;"/></g><path id="Line_45" d="M32.503,21.008l65.328,-0" style="fill:none;fill-rule:nonzero;stroke:#000;stroke-width:9.33px;"/></svg>