<?xml version="1.0" encoding="UTF-8" standalone="no"?><!DOCTYPE svg PUBLIC "-//W3C//DTD SVG 1.1//EN" "http://www.w3.org/Graphics/SVG/1.1/DTD/svg11.dtd"><svg width="100%" height="100%" viewBox="0 0 117 117" version="1.1" xmlns="http://www.w3.org/2000/svg" xmlns:xlink="http://www.w3.org/1999/xlink" xml:space="preserve" xmlns:serif="http://www.serif.com/" style="fill-rule:evenodd;clip-rule:evenodd;stroke-linecap:round;stroke-linejoin:round;stroke-miterlimit:1.5;"><path d="M112.273,34.342c-0,-6.151 -4.995,-11.146 -11.146,-11.146l-83.732,0c-6.152,0 -11.146,4.995 -11.146,11.146l0,60.061c0,6.152 4.994,11.147 11.146,11.147l83.732,-0c6.151,-0 11.146,-4.995 11.146,-11.147l-0,-60.061Z" style="fill:#fff;"/><g id="Path_72"><path d="M100.758,15.909l-5.303,0l-0,-5.303c-0,-2.91 -2.393,-5.303 -5.303,-5.303c-2.911,0 -5.304,2.393 -5.304,5.303l0,5.303l-53.03,0l0,-5.303c0,-2.91 -2.393,-5.303 -5.303,-5.303c-2.91,0 -5.303,2.393 -5.303,5.303l0,5.303l-5.303,0c-8.727,0 -15.909,7.183 -15.909,15.909l0,63.637c0,8.726 7.182,15.909 15.909,15.909l84.849,-0c8.726,-0 15.909,-7.183 15.909,-15.909l-0,-63.637c-0,-8.726 -7.183,-15.909 -15.909,-15.909Zm-90.152,15.909c0,-2.91 2.393,-5.303 5.303,-5.303l84.849,0c2.91,0 5.303,2.393 5.303,5.303l-0,5.303l-95.455,0l0,-5.303Zm95.455,63.637c-0,2.91 -2.393,5.303 -5.303,5.303l-84.849,-0c-2.91,-0 -5.303,-2.393 -5.303,-5.303l0,-47.728l95.455,0l-0,47.728Z" style="fill:#0e1317;"/></g><g><path d="M58.335,58.334l5.006,8.964l9.664,2.232l-6.571,7.767l0.967,10.343l-9.066,-4.161l-9.07,4.161l0.967,-10.343l-6.571,-7.767l9.668,-2.232l5.006,-8.964Z" style="fill:none;stroke:#000;stroke-width:4.24px;"/></g></svg>