<?xml version="1.0" encoding="UTF-8" standalone="no"?><!DOCTYPE svg PUBLIC "-//W3C//DTD SVG 1.1//EN" "http://www.w3.org/Graphics/SVG/1.1/DTD/svg11.dtd"><svg width="100%" height="100%" viewBox="0 0 117 117" version="1.1" xmlns="http://www.w3.org/2000/svg" xmlns:xlink="http://www.w3.org/1999/xlink" xml:space="preserve" xmlns:serif="http://www.serif.com/" style="fill-rule:evenodd;clip-rule:evenodd;stroke-linejoin:round;stroke-miterlimit:2;"><g><path d="M110.882,32.965c-0,-5.337 -4.377,-9.67 -9.768,-9.67l-52.088,-0c-5.391,-0 -9.768,3.275 -9.768,8.612c-27.103,9.683 -17.38,15.143 0,19.725c0,5.337 4.377,9.671 9.768,9.671l31.436,-0l0,31.313l30.42,-0l-0,-59.651Z" style="fill:#fff;"/><path d="M90.152,16.329l-42.425,0c-6.709,0.019 -12.718,4.238 -14.954,10.501l-0.955,0c-6.728,-0.002 -12.763,4.221 -15.005,10.501c-0.301,-0.025 -0.603,-0.025 -0.904,0l-10.606,0c-2.909,0 -5.303,2.37 -5.303,5.251c0,2.88 2.394,5.25 5.303,5.25l10.606,0c0.301,0.026 0.603,0.026 0.904,0c2.242,6.281 8.277,10.504 15.005,10.501l1.96,0c2.758,5.082 8.123,8.273 13.949,8.296l25.137,0l-0,17.957c-0,8.641 7.181,15.751 15.909,15.751l11.985,0c8.727,0 15.909,-7.11 15.909,-15.751l-0,-42.004c-0,-14.402 -11.97,-26.253 -26.515,-26.253Zm-63.637,26.253c0,-2.881 2.394,-5.251 5.303,-5.251l0,10.501c-2.909,0 -5.303,-2.37 -5.303,-5.25Zm79.546,42.004c-0,2.88 -2.394,5.25 -5.303,5.25l-11.985,0c-2.909,0 -5.303,-2.37 -5.303,-5.25l-0,-22.157c-0,-3.457 -2.873,-6.301 -6.364,-6.301l-29.379,0c-2.909,0 -5.303,-2.37 -5.303,-5.25l0,-18.797c0,-2.881 2.394,-5.251 5.303,-5.251l42.425,0c8.727,0 15.909,7.111 15.909,15.752l-0,42.004Z" style="fill-rule:nonzero;"/><path d="M90.152,37.331l-5.304,0c-2.909,0 -5.303,2.37 -5.303,5.251c0,2.88 2.394,5.25 5.303,5.25l5.304,0c2.909,0 5.303,-2.37 5.303,-5.25c-0,-2.881 -2.394,-5.251 -5.303,-5.251Z" style="fill-rule:nonzero;"/></g></svg>