<?xml version="1.0" encoding="UTF-8" standalone="no"?><!DOCTYPE svg PUBLIC "-//W3C//DTD SVG 1.1//EN" "http://www.w3.org/Graphics/SVG/1.1/DTD/svg11.dtd"><svg width="100%" height="100%" viewBox="0 0 117 117" version="1.1" xmlns="http://www.w3.org/2000/svg" xmlns:xlink="http://www.w3.org/1999/xlink" xml:space="preserve" xmlns:serif="http://www.serif.com/" style="fill-rule:evenodd;clip-rule:evenodd;stroke-linejoin:round;stroke-miterlimit:2;"><g><path d="M110.28,24.326c-0,-4.287 -3.481,-7.768 -7.768,-7.768l-87.321,0c-4.287,0 -7.768,3.481 -7.768,7.768l0,47.995c0,4.287 3.481,7.768 7.768,7.768l13.48,-0c4.254,11.381 13.232,20.13 13.232,20.13c0,-0 10.097,-9.891 15.32,-20.13l45.289,-0c4.287,-0 7.768,-3.481 7.768,-7.768l-0,-47.995Z" style="fill:#fff;"/><path d="M100.758,8.856l-84.849,0c-8.727,0 -15.909,7.182 -15.909,15.909l0,47.727c0,8.728 7.182,15.91 15.909,15.91l7.955,-0l12.197,16.227c1.501,2.001 3.861,3.182 6.363,3.182c2.502,-0 4.863,-1.181 6.364,-3.182l12.197,-16.227l39.773,-0c8.727,-0 15.909,-7.182 15.909,-15.91l-0,-47.727c-0,-8.727 -7.182,-15.909 -15.909,-15.909Zm5.303,63.636c-0,2.91 -2.394,5.303 -5.303,5.303l-45.076,0l-13.258,17.657l-13.257,-17.657l-13.258,0c-2.909,0 -5.303,-2.393 -5.303,-5.303l0,-47.727c0,-2.909 2.394,-5.303 5.303,-5.303l84.849,0c2.909,0 5.303,2.394 5.303,5.303l-0,47.727Z" style="fill-rule:nonzero;"/><path d="M26.515,40.674l26.515,0c2.909,0 5.303,-2.394 5.303,-5.303c0,-2.909 -2.394,-5.303 -5.303,-5.303l-26.515,0c-2.909,0 -5.303,2.394 -5.303,5.303c0,2.909 2.394,5.303 5.303,5.303Z" style="fill-rule:nonzero;"/><path d="M84.848,51.28l-58.333,0c-2.909,0 -5.303,2.394 -5.303,5.303c0,2.909 2.394,5.303 5.303,5.303l58.333,0c2.91,0 5.304,-2.394 5.304,-5.303c-0,-2.909 -2.394,-5.303 -5.304,-5.303Z" style="fill-rule:nonzero;"/></g></svg>