<?xml version="1.0" encoding="UTF-8" standalone="no"?><!DOCTYPE svg PUBLIC "-//W3C//DTD SVG 1.1//EN" "http://www.w3.org/Graphics/SVG/1.1/DTD/svg11.dtd"><svg width="100%" height="100%" viewBox="0 0 117 117" version="1.1" xmlns="http://www.w3.org/2000/svg" xmlns:xlink="http://www.w3.org/1999/xlink" xml:space="preserve" xmlns:serif="http://www.serif.com/" style="fill-rule:evenodd;clip-rule:evenodd;stroke-linejoin:round;stroke-miterlimit:2;"><path d="M73.561,27.111l-16.457,-9.879l-27.131,45.197l16.457,9.879l27.131,-45.197Z" style="fill:#fff;"/><path d="M111.745,106.972l-12.563,-0c10.896,-16.28 13.856,-30.214 8.775,-41.529c-6.875,-15.255 -26.457,-20.701 -37.143,-22.561l7.474,-12.275c1.357,-2.237 0.674,-5.19 -1.527,-6.604l-17.441,-11.21c-0.781,-0.491 -1.686,-0.752 -2.609,-0.752c-1.697,-0 -3.277,0.881 -4.17,2.325l-28.247,46.415c-1.353,2.238 -0.672,5.187 1.526,6.604l4.685,2.995l-4.207,6.716c-0.483,0.772 -0.738,1.664 -0.738,2.574c-0,2.662 2.191,4.854 4.854,4.854c1.671,-0 3.229,-0.864 4.115,-2.281l4.164,-6.642l4.592,2.952c0.785,0.507 1.7,0.777 2.634,0.777c1.693,-0 3.268,-0.885 4.148,-2.331l15.301,-25.133c6.949,0.859 27.937,4.495 33.795,17.558c4.098,9.144 0.097,21.753 -11.871,37.501l-82.436,0c-2.664,0 -4.856,2.192 -4.856,4.856c-0,2.663 2.192,4.855 4.856,4.855l106.889,0c0.045,0.001 0.091,0.002 0.137,0.002c2.651,0 4.832,-2.181 4.832,-4.832c-0,-2.651 -2.181,-4.832 -4.832,-4.832c-0.046,-0 -0.092,0 -0.137,0.002m-67.411,-39.265l-9.261,-5.947l23.194,-38.114l9.253,5.947l-23.186,38.114Z" style="fill-rule:nonzero;"/><g><path d="M65.935,9.036l11.133,7.163c0.748,0.442 1.601,0.675 2.47,0.675c2.663,0 4.855,-2.192 4.855,-4.855c0,-1.583 -0.773,-3.069 -2.069,-3.977l-11.133,-7.163c-0.817,-0.572 -1.79,-0.879 -2.786,-0.879c-2.664,0 -4.856,2.192 -4.856,4.856c0,1.715 0.909,3.308 2.386,4.18" style="fill-rule:nonzero;"/><path d="M14.707,101.576l30.384,0c2.664,0 4.856,-2.192 4.856,-4.856c-0,-2.663 -2.192,-4.855 -4.856,-4.855l-30.384,-0c-2.664,-0 -4.856,2.192 -4.856,4.855c0,2.664 2.192,4.856 4.856,4.856" style="fill-rule:nonzero;"/></g></svg>