<?xml version="1.0" encoding="UTF-8" standalone="no"?><!DOCTYPE svg PUBLIC "-//W3C//DTD SVG 1.1//EN" "http://www.w3.org/Graphics/SVG/1.1/DTD/svg11.dtd"><svg width="100%" height="100%" viewBox="0 0 117 117" version="1.1" xmlns="http://www.w3.org/2000/svg" xmlns:xlink="http://www.w3.org/1999/xlink" xml:space="preserve" xmlns:serif="http://www.serif.com/" style="fill-rule:evenodd;clip-rule:evenodd;stroke-linejoin:round;stroke-miterlimit:2;"><circle cx="29.363" cy="20.259" r="10.244" style="fill:#fff;"/><circle cx="86.365" cy="20.259" r="10.244" style="fill:#fff;"/><circle cx="58.333" cy="51.006" r="15.661" style="fill:#fff;"/><g id="icon-people"><path d="M33.708,60.426c-3.38,-5.465 -2.928,-9.606 -1.94,-15.549c0.653,-3.927 1.988,-7.016 4.582,-10.815l-19.503,0.323c-3.816,-0 -10.669,6.676 -10.669,10.492l-0,15.549l27.53,0Z" style="fill:#fff;"/><path d="M81.542,60.426c3.379,-5.465 2.894,-9.606 2.098,-15.549c-0.529,-3.946 -2.296,-7.016 -4.89,-10.815l19.503,0.323c3.816,-0 10.669,6.676 10.669,10.492l-0,15.549l-27.38,0Z" style="fill:#fff;"/><path d="M87.128,104.626c0.316,-1.752 0.474,-3.529 0.474,-5.31c0,-16.543 -13.43,-29.973 -29.973,-29.973c-16.543,-0 -29.974,13.43 -29.974,29.973c0,1.781 0.159,3.558 0.474,5.31l58.999,0Z" style="fill:#fff;"/><path id="Path_2173" d="M29.616,4.048c-8.65,0.055 -15.751,7.157 -15.807,15.807c-0.145,3.574 1.141,7.063 3.57,9.688c-10.787,4.826 -17.647,15.722 -17.337,27.535l0,3.059c0,2.518 2.072,4.589 4.589,4.589c2.518,0 4.589,-2.071 4.589,-4.589l0,-3.059c0.071,-11.722 9.695,-21.345 21.416,-21.416c8.651,-0.055 15.752,-7.157 15.807,-15.807c-0.349,-8.922 -7.9,-16.015 -16.827,-15.807Zm7.139,15.807c0.001,0.056 0.002,0.113 0.002,0.169c0,3.825 -3.147,6.972 -6.971,6.972c-0.057,-0 -0.113,-0.001 -0.17,-0.002c-0.056,0.001 -0.112,0.002 -0.169,0.002c-3.824,-0 -6.971,-3.147 -6.971,-6.972c-0,-0.056 0,-0.113 0.002,-0.169c-0.002,-0.056 -0.002,-0.113 -0.002,-0.169c-0,-3.825 3.147,-6.972 6.971,-6.972c0.057,0 0.113,0.001 0.169,0.002c0.057,-0.001 0.113,-0.002 0.17,-0.002c3.824,0 6.971,3.147 6.971,6.972c0,0.056 -0.001,0.113 -0.002,0.169Z" style="fill-rule:nonzero;"/><path id="Path_2174" d="M97.911,29.543c2.221,-2.749 3.475,-6.155 3.569,-9.688c0,-8.671 -7.135,-15.807 -15.807,-15.807c-8.671,0 -15.807,7.136 -15.807,15.807c0,8.671 7.136,15.807 15.807,15.807c11.722,0.071 21.345,9.694 21.416,21.416l0,3.059c0,2.518 2.072,4.589 4.589,4.589c2.518,0 4.589,-2.071 4.589,-4.589l0,-3.059c-0.521,-11.861 -7.608,-22.492 -18.356,-27.535Zm-5.609,-9.688c-0,3.916 -3.223,7.139 -7.139,7.139c-3.916,-0 -7.138,-3.223 -7.138,-7.139c-0,-3.916 3.222,-7.139 7.138,-7.139c3.916,0 7.139,3.223 7.139,7.139Z" style="fill-rule:nonzero;"/><path id="Path_2175" d="M73.946,66.256c4.587,-4.389 7.171,-10.478 7.138,-16.827c0,-12.867 -10.588,-23.455 -23.455,-23.455c-12.867,-0 -23.456,10.588 -23.456,23.455c-0.032,6.349 2.551,12.438 7.139,16.827c-13.205,6.182 -21.606,19.584 -21.416,34.163l0,3.569c0.007,2.795 2.304,5.093 5.099,5.099c2.723,-0.184 4.915,-2.376 5.099,-5.099l0,-3.569c0,-15.105 12.43,-27.534 27.535,-27.534c15.105,-0 27.534,12.429 27.534,27.534l0,3.569c0.007,2.795 2.305,5.093 5.099,5.099c2.723,-0.184 4.915,-2.376 5.099,-5.099l0,-3.569c0.191,-14.579 -8.211,-27.981 -21.415,-34.163Zm-3.57,-16.827c0,0.032 0.001,0.063 0.001,0.094c-0,7.222 -5.943,13.164 -13.164,13.164l-0.113,-0c-6.988,-0 -12.739,-5.751 -12.739,-12.74c-0,-0.172 0.003,-0.345 0.01,-0.518c0.128,-7.224 6.034,-13.13 13.258,-13.257c7.122,0.166 12.86,6.134 12.747,13.257Z" style="fill-rule:nonzero;"/></g></svg>